<?xml version="1.0" encoding="UTF-8"?>
<svg xmlns="http://www.w3.org/2000/svg" id="Logos" viewBox="0 0 390 200">
  <defs>
    <style>.cls-1{fill:#3e434f;}</style>
  </defs>
  <title>Arm Logo Final</title>
  <g id="Arm_Final" data-name="Arm Final">
    <path class="cls-1" d="M164.36,83.84h7.49V116h-7.49v-3.37a12.35,12.35,0,0,1-9.62,4.36c-9.94,0-15.59-8.25-15.59-17.11,0-10.47,7.18-16.89,15.66-16.89a11.72,11.72,0,0,1,9.55,4.58ZM146.79,100c0,5.58,3.51,10.24,8.94,10.24,4.74,0,9.09-3.44,9.09-10.17,0-7-4.35-10.39-9.09-10.39C150.3,89.72,146.79,94.31,146.79,100Zm34-16.2h7.48v2.9a13,13,0,0,1,3.14-2.67A8.64,8.64,0,0,1,196,83a11.13,11.13,0,0,1,5.88,1.53l-3,6.8A6.79,6.79,0,0,0,195,90.18a5.82,5.82,0,0,0-4.66,1.76c-2.07,2.22-2.07,5.27-2.07,7.41V116h-7.48Zm25.92,0h7.49v3A9.89,9.89,0,0,1,222.12,83a9.44,9.44,0,0,1,8.33,4.74A11.39,11.39,0,0,1,240,83a10.29,10.29,0,0,1,9.17,5c.61,1.07,1.68,3.44,1.68,8.1V116h-7.49V98.28c0-3.59-.38-5-.68-5.73a4.25,4.25,0,0,0-4.28-2.83A5.53,5.53,0,0,0,234,92.09c-1.3,1.84-1.46,4.59-1.46,7.34V116H225V98.28c0-3.59-.39-5-.69-5.73a4.25,4.25,0,0,0-4.28-2.83,5.54,5.54,0,0,0-4.43,2.37c-1.3,1.84-1.45,4.59-1.45,7.34V116h-7.49Z"></path>
  </g>
</svg>
