<?xml version="1.0" encoding="UTF-8"?>
<!-- Generator: Adobe Illustrator 23.0.1, SVG Export Plug-In . SVG Version: 6.00 Build 0)  -->
<svg xmlns="http://www.w3.org/2000/svg" xmlns:xlink="http://www.w3.org/1999/xlink" id="Logos" x="0px" y="0px" viewBox="0 0 390 200" style="enable-background:new 0 0 390 200;" xml:space="preserve">
<style type="text/css">
	.st0{display:none;}
	.st1{display:inline;fill:#00B45E;}
	.st2{display:inline;fill:#E53312;}
	.st3{display:inline;}
	.st4{fill:#5A5A5A;}
	.st5{fill:url(#SVGID_1_);}
	.st6{fill:#BABCBE;}
	.st7{fill:url(#SVGID_2_);}
	.st8{fill-rule:evenodd;clip-rule:evenodd;}
	.st9{fill:#D41317;}
	.st10{fill:#1D1D1B;}
	.st11{fill:#454651;}
	.st12{display:inline;fill:#454651;}
	.st13{fill:#3E434F;}
	.st14{display:inline;fill:#1D1D1B;}
	.st15{display:inline;fill:#44444E;}
	.st16{display:inline;fill:#44444E;stroke:#44444E;stroke-linecap:round;stroke-linejoin:bevel;stroke-miterlimit:10;}
	.st17{fill:#44444E;stroke:#44444E;stroke-linecap:round;stroke-linejoin:bevel;stroke-miterlimit:10;}
	.st18{fill:#44444E;stroke:#44444E;stroke-width:7;stroke-linecap:square;stroke-linejoin:round;stroke-miterlimit:10;}
	.st19{display:inline;fill:none;stroke:#44444E;stroke-width:7;stroke-linecap:round;stroke-linejoin:bevel;stroke-miterlimit:10;}
	.st20{fill:none;stroke:#44444E;stroke-width:7;stroke-linecap:square;stroke-linejoin:round;stroke-miterlimit:10;}
	.st21{fill:none;stroke:#44444E;stroke-width:7;stroke-linecap:round;stroke-linejoin:bevel;stroke-miterlimit:10;}
	.st22{display:inline;fill:none;stroke:#44444E;stroke-width:7;stroke-linecap:square;stroke-linejoin:bevel;stroke-miterlimit:10;}
	.st23{display:inline;fill:none;stroke:#44444E;stroke-width:7;stroke-linecap:square;stroke-linejoin:round;stroke-miterlimit:10;}
	.st24{display:inline;fill:#367DBF;}
	.st25{display:inline;fill:#367DBF;stroke:#1D1D1B;stroke-width:0.25;stroke-miterlimit:10;}
	.st26{display:inline;fill:#2E4498;}
	.st27{display:inline;fill:#F58428;}
	.st28{fill:#FFFFFF;}
	.st29{fill:#444968;}
	.st30{display:inline;fill:#E4201C;}
	.st31{fill:#0677B7;}
	.st32{fill:#686867;}
	.st33{display:inline;fill:#3F4042;}
	.st34{display:inline;fill:#F6B21F;}
	.st35{fill:#EA5504;}
	.st36{display:inline;fill:#005E3C;}
	.st37{clip-path:url(#SVGID_4_);fill:#32617E;}
	.st38{clip-path:url(#SVGID_4_);fill:#9ABFD1;}
	.st39{clip-path:url(#SVGID_6_);fill:url(#SVGID_7_);}
	.st40{fill:#3E424E;}
	.st41{display:inline;fill:#3E424E;}
	.st42{fill:#3A0C0F;}
	.st43{fill:#FF0126;}
	.st44{fill:#A5FF01;}
	.st45{fill:#FFAD01;}
	.st46{fill:#32FFEC;}
	.st47{fill:#8F8F8F;}
	.st48{fill:#2F4499;}
	.st49{fill:#F58529;}
	.st50{clip-path:url(#SVGID_9_);fill:#FFFFFF;}
	.st51{clip-path:url(#SVGID_9_);fill:#F58529;}
	.st52{clip-path:url(#SVGID_9_);fill:#454967;}
	.st53{fill:#454967;}
	.st54{clip-path:url(#SVGID_13_);}
	.st55{clip-path:url(#SVGID_14_);}
	.st56{clip-path:url(#SVGID_15_);}
	.st57{fill:#525556;}
	.st58{clip-path:url(#SVGID_19_);fill:#525556;}
	.st59{clip-path:url(#SVGID_21_);}
	.st60{fill:#AEB3B5;}
	.st61{clip-path:url(#SVGID_25_);}
	.st62{clip-path:url(#SVGID_29_);fill-rule:evenodd;clip-rule:evenodd;}
	.st63{clip-path:url(#SVGID_29_);fill:#DA2128;}
	.st64{fill:#231F20;}
	.st65{clip-path:url(#SVGID_31_);fill:#BD9D69;}
	.st66{fill:#66676A;}
	.st67{clip-path:url(#SVGID_33_);fill:#66676A;}
	.st68{clip-path:url(#SVGID_35_);fill:#66676A;}
	.st69{clip-path:url(#SVGID_37_);fill:#66686A;}
	.st70{fill:#67686A;}
	.st71{fill:#66686A;}
	.st72{clip-path:url(#SVGID_39_);fill:#66676A;}
	.st73{clip-path:url(#SVGID_41_);fill:#44444E;}
	.st74{fill:#44444E;}
	.st75{fill:none;stroke:#44444E;stroke-width:0.1408;stroke-linecap:round;stroke-linejoin:bevel;stroke-miterlimit:10;}
	.st76{fill:none;stroke:#44444E;stroke-width:0.9853;stroke-linecap:square;stroke-linejoin:round;stroke-miterlimit:10;}
	.st77{fill:none;stroke:#44444E;stroke-width:0.9853;stroke-linecap:round;stroke-linejoin:bevel;stroke-miterlimit:10;}
	
		.st78{clip-path:url(#SVGID_43_);fill:none;stroke:#44444E;stroke-width:0.1408;stroke-linecap:round;stroke-linejoin:bevel;stroke-miterlimit:10;}
	
		.st79{clip-path:url(#SVGID_43_);fill:none;stroke:#44444E;stroke-width:0.9853;stroke-linecap:square;stroke-linejoin:bevel;stroke-miterlimit:10;}
	.st80{fill:none;stroke:#44444E;stroke-width:0.9853;stroke-linecap:square;stroke-linejoin:bevel;stroke-miterlimit:10;}
	
		.st81{clip-path:url(#SVGID_45_);fill:none;stroke:#44444E;stroke-width:0.9853;stroke-linecap:square;stroke-linejoin:bevel;stroke-miterlimit:10;}
	
		.st82{clip-path:url(#SVGID_45_);fill:none;stroke:#44444E;stroke-width:0.9853;stroke-linecap:square;stroke-linejoin:round;stroke-miterlimit:10;}
	
		.st83{clip-path:url(#SVGID_47_);fill:none;stroke:#44444E;stroke-width:0.1408;stroke-linecap:round;stroke-linejoin:bevel;stroke-miterlimit:10;}
	.st84{fill:#533278;}
	.st85{clip-path:url(#SVGID_49_);}
	.st86{clip-path:url(#SVGID_54_);}
	.st87{clip-path:url(#SVGID_55_);}
	.st88{clip-path:url(#SVGID_59_);}
	.st89{clip-path:url(#SVGID_64_);}
	.st90{clip-path:url(#SVGID_65_);}
	.st91{clip-path:url(#SVGID_70_);}
	.st92{clip-path:url(#SVGID_71_);}
	.st93{clip-path:url(#SVGID_75_);}
	.st94{clip-path:url(#SVGID_79_);fill:#177FC1;}
	.st95{fill:#177FC1;}
	.st96{fill:#18161B;}
	.st97{fill:#9A9FA2;}
</style>
<g>
	<polygon class="st48" points="229.93,75.96 148.49,75.96 143.15,101.29 224.59,101.29 229.93,75.96  "></polygon>
	<polygon class="st49" points="246.78,75.96 224.41,75.96 219.07,101.29 241.44,101.29 246.78,75.96  "></polygon>
	<path class="st28" d="M229.81,97.08c-0.62,0-0.92-0.37-0.79-0.93l2.64-11.22c0.07-0.29,0.14-0.48-0.01-0.48   c-0.15,0-1,0.5-1.77,0.85c-0.43,0.19-1.6,0.64-2.22,0.64c-0.62,0-0.67-0.4-0.55-0.93l0.44-1.86c0.14-0.61,0.4-0.82,0.91-0.98   c0.42-0.13,1.4-0.53,2.43-1.04c1.2-0.58,2.36-1.22,2.68-1.46c0.32-0.24,0.63-0.29,1.01-0.29h2.54c0.71,0,1.04,0.35,0.89,0.98   L234.3,96.2c-0.1,0.43-0.53,0.88-1.03,0.88H229.81L229.81,97.08z"></path>
	<polygon class="st28" points="150.51,97.01 147.25,97.01 158.22,81.24 161.64,81.24 165.4,97.01 161.98,97.01 161.03,92.71    155.32,92.71 157.01,90.17 160.47,90.17 159.15,84.25 150.51,97.01  "></polygon>
	<path class="st28" d="M168.95,90.81l2.24-9.57h3.18l-2.24,9.57c-0.59,2.51,0.52,3.77,3.32,3.77c2.8,0,4.5-1.26,5.08-3.77l2.24-9.57   h3.18l-2.24,9.57c-0.98,4.21-3.94,6.31-8.86,6.31C169.93,97.12,167.96,95.02,168.95,90.81L168.95,90.81z"></path>
	<polygon class="st28" points="200.78,81.24 200.19,83.78 195.27,83.78 192.17,97.01 188.99,97.01 192.08,83.78 187.16,83.78    187.75,81.24 200.78,81.24  "></polygon>
	<g>
		<defs>
			<rect id="SVGID_8_" x="143.13" y="75.96" width="103.65" height="56.97"></rect>
		</defs>
		<clipPath id="SVGID_1_">
			<use xlink:href="#SVGID_8_" style="overflow:visible;"></use>
		</clipPath>
		<path style="clip-path:url(#SVGID_1_);fill:#FFFFFF;" d="M207.48,94.59c3.46,0,5.62-1.83,6.47-5.5c0.84-3.61-0.46-5.42-3.92-5.42    c-3.55,0-5.74,1.81-6.58,5.42C202.59,92.75,203.94,94.59,207.48,94.59L207.48,94.59z M200.13,89.15    c1.25-5.35,4.75-8.02,10.49-8.02c5.66,0,7.86,2.67,6.61,8.02c-1.24,5.32-4.69,7.97-10.35,7.97    C201.4,97.12,199.15,94.46,200.13,89.15L200.13,89.15z"></path>
		<polygon style="clip-path:url(#SVGID_1_);fill:#F58529;" points="244.6,109.76 143.12,109.76 143.12,107.4 244.6,107.4     244.6,109.76   "></polygon>
		<path style="clip-path:url(#SVGID_1_);fill:#454967;" d="M146.04,124.94c0-4.78,3.53-7.97,7.92-7.97c2.72,0,4.62,1.2,5.98,2.89    l-1.52,0.95c-0.97-1.25-2.61-2.12-4.46-2.12c-3.37,0-5.94,2.59-5.94,6.26c0,3.65,2.56,6.28,5.94,6.28c1.85,0,3.37-0.9,4.13-1.66    v-3.14h-5.29v-1.71h7.21v5.57c-1.43,1.59-3.53,2.66-6.05,2.66C149.57,132.93,146.04,129.72,146.04,124.94L146.04,124.94z"></path>
	</g>
	<path class="st53" d="M177.68,121.87c0-1.73-1.25-2.93-3.07-2.93h-4.04v5.89h4.04C176.43,124.82,177.68,123.6,177.68,121.87   L177.68,121.87z M177.56,132.63l-3.93-6.12h-3.07v6.12h-1.92v-15.4h6.19c2.82,0,4.83,1.8,4.83,4.64c0,2.77-1.89,4.3-4,4.48   l4.16,6.28H177.56L177.56,132.63z"></path>
	<path class="st53" d="M200.89,124.94c0-3.6-2.22-6.26-5.66-6.26c-3.46,0-5.66,2.66-5.66,6.26c0,3.58,2.19,6.26,5.66,6.26   C198.67,131.2,200.89,128.52,200.89,124.94L200.89,124.94z M187.59,124.94c0-4.55,3.07-7.97,7.64-7.97c4.55,0,7.64,3.42,7.64,7.97   c0,4.55-3.09,7.97-7.64,7.97C190.66,132.91,187.59,129.49,187.59,124.94L187.59,124.94z"></path>
	<path class="st53" d="M211.4,126.65v-9.42h1.92v9.38c0,2.82,1.52,4.6,4.36,4.6c2.84,0,4.36-1.78,4.36-4.6v-9.38h1.92v9.4   c0,3.83-2.1,6.28-6.28,6.28C213.5,132.91,211.4,130.43,211.4,126.65L211.4,126.65z"></path>
	<path class="st53" d="M242.11,121.87c0-1.73-1.25-2.93-3.07-2.93H235v5.87h4.04C240.87,124.8,242.11,123.6,242.11,121.87   L242.11,121.87z M233.08,132.63v-15.4h6.19c3.09,0,4.83,2.12,4.83,4.64s-1.78,4.64-4.83,4.64H235v6.12H233.08L233.08,132.63z"></path>
</g>
</svg>
