<?xml version="1.0" encoding="UTF-8"?>
<svg xmlns="http://www.w3.org/2000/svg" xmlns:xlink="http://www.w3.org/1999/xlink" id="Logos" viewBox="0 0 390 200">
  <defs>
    <style>.cls-1{fill:none;}.cls-2{clip-path:url(#clip-path);}.cls-3{fill:url(#linear-gradient);}</style>
    <clipPath id="clip-path">
      <path class="cls-1" d="M165.22,122.33l0-.12-.13-.24-2.89-7.73a30.12,30.12,0,0,1,7.54,4.92h0a2.88,2.88,0,0,1,1.08,2.25,2.85,2.85,0,0,1-5.56.91m-23.66-45a2.52,2.52,0,0,1,2.15-1.73h0a2.52,2.52,0,0,1,2.15,1.73l11.87,32.59a32.64,32.64,0,0,0-31.14,8.49ZM143.43,73a5.09,5.09,0,0,0-4.32,3.43l-17.76,48.8a1.3,1.3,0,0,0,.78,1.67,1.29,1.29,0,0,0,1.49-.45.91.91,0,0,0,.11-.16A30.18,30.18,0,0,1,158.9,113l3.77,10.1.12.21a5.46,5.46,0,0,0,10.6-1.86,5.36,5.36,0,0,0-.65-2.57,5.14,5.14,0,0,0-.54-.83,1.19,1.19,0,0,0-.26-.34,32.56,32.56,0,0,0-11-6.77l-.26-.7h0l-12.3-33.77A5.09,5.09,0,0,0,144,73a1.42,1.42,0,0,0-.29,0h-.06l-.23,0"></path>
    </clipPath>
    <linearGradient id="linear-gradient" x1="-115.17" y1="493.04" x2="-113.95" y2="493.04" gradientTransform="matrix(42.73, 0, 0, -42.73, 5042.58, 21168.6)" gradientUnits="userSpaceOnUse">
      <stop offset="0" stop-color="#ffde17"></stop>
      <stop offset="0.07" stop-color="#fcc31b"></stop>
      <stop offset="0.18" stop-color="#f9a31f"></stop>
      <stop offset="0.29" stop-color="#f68823"></stop>
      <stop offset="0.41" stop-color="#f47426"></stop>
      <stop offset="0.55" stop-color="#f26527"></stop>
      <stop offset="0.72" stop-color="#f15d29"></stop>
      <stop offset="0.99" stop-color="#f15a29"></stop>
      <stop offset="1" stop-color="#f15a29"></stop>
    </linearGradient>
  </defs>
  <title>Automation Anywhere Final</title>
  <g id="Automation_Anywhere_Final" data-name="Automation Anywhere Final">
    <g class="cls-2">
      <rect class="cls-3" x="121.1" y="73" width="52.29" height="54"></rect>
    </g>
    <path d="M171.74,85.58h.8L177.81,97h-.92l-1.44-3.16h-6.67L167.35,97h-.87ZM175.1,93l-3-6.54-3,6.54Z"></path>
    <path d="M182.7,97.14a5.3,5.3,0,0,1-1.86-.32,4,4,0,0,1-1.47-.93,4.24,4.24,0,0,1-1-1.54,5.87,5.87,0,0,1-.34-2.09v-6.6h.84v6.52a4.43,4.43,0,0,0,1,3.11,3.63,3.63,0,0,0,2.82,1.09,3.67,3.67,0,0,0,2.74-1,4.19,4.19,0,0,0,1-3.08v-6.6h.84v6.5A6.12,6.12,0,0,1,187,94.3a4.36,4.36,0,0,1-.95,1.56,4,4,0,0,1-1.46,1,5.21,5.21,0,0,1-1.89.33"></path>
    <polygon points="192.28 86.42 188.34 86.42 188.34 85.66 197.06 85.66 197.06 86.42 193.12 86.42 193.12 96.96 192.28 96.96 192.28 86.42"></polygon>
    <path d="M203,97.15a5.62,5.62,0,0,1-2.32-.47,5.51,5.51,0,0,1-2.94-3.13,6.07,6.07,0,0,1-.41-2.21v0a6.12,6.12,0,0,1,.41-2.22,5.89,5.89,0,0,1,1.16-1.87A5.57,5.57,0,0,1,203,85.46a5.48,5.48,0,0,1,4.12,1.76,5.63,5.63,0,0,1,1.14,1.84,6.12,6.12,0,0,1,.41,2.22,0,0,0,0,1,0,0,6.2,6.2,0,0,1-.41,2.22,5.84,5.84,0,0,1-1.16,1.86,5.44,5.44,0,0,1-1.79,1.29,5.72,5.72,0,0,1-2.34.47m0-.76a4.62,4.62,0,0,0,3.45-1.47,5,5,0,0,0,1-1.61,5.35,5.35,0,0,0,.36-2v0a5.24,5.24,0,0,0-.37-2,4.81,4.81,0,0,0-1-1.61,4.69,4.69,0,0,0-3.46-1.5,4.73,4.73,0,0,0-1.93.4,4.58,4.58,0,0,0-1.52,1.08,5.06,5.06,0,0,0-1,1.61,5.34,5.34,0,0,0-.35,2v0a5.44,5.44,0,0,0,.36,2,4.92,4.92,0,0,0,1,1.61A4.63,4.63,0,0,0,203,96.39"></path>
    <polygon points="210.19 85.66 210.98 85.66 215.52 92.34 220.06 85.66 220.85 85.66 220.85 96.96 220.01 96.96 220.01 87.14 215.53 93.65 215.47 93.65 210.98 87.14 210.98 96.96 210.19 96.96 210.19 85.66"></polygon>
    <path d="M227.78,85.58h.8L233.85,97h-.92l-1.44-3.16h-6.67L223.38,97h-.87ZM231.13,93l-3-6.54-3,6.54Z"></path>
    <polygon points="236.61 86.42 232.67 86.42 232.67 85.66 241.39 85.66 241.39 86.42 237.45 86.42 237.45 96.96 236.61 96.96 236.61 86.42"></polygon>
    <rect x="243" y="85.66" width="0.84" height="11.3"></rect>
    <path d="M251.69,97.15a5.67,5.67,0,0,1-2.33-.47,5.6,5.6,0,0,1-2.94-3.13,6.06,6.06,0,0,1-.4-2.21v0a6.12,6.12,0,0,1,.41-2.22,5.89,5.89,0,0,1,1.16-1.87,5.78,5.78,0,0,1,6.46-1.28,5.37,5.37,0,0,1,1.78,1.28A5.66,5.66,0,0,1,257,89.06a6.12,6.12,0,0,1,.41,2.22,0,0,0,0,1,0,0,6,6,0,0,1-.42,2.22,5.82,5.82,0,0,1-1.15,1.86A5.55,5.55,0,0,1,254,96.68a5.72,5.72,0,0,1-2.34.47m0-.76a4.72,4.72,0,0,0,1.93-.39,4.84,4.84,0,0,0,1.52-1.08,5.18,5.18,0,0,0,1-1.61,5.34,5.34,0,0,0,.35-2v0a5.44,5.44,0,0,0-.36-2,5,5,0,0,0-1-1.61,4.8,4.8,0,0,0-1.53-1.09,4.57,4.57,0,0,0-1.93-.41,4.69,4.69,0,0,0-1.93.4,4.48,4.48,0,0,0-1.52,1.08,4.73,4.73,0,0,0-1,1.61,5.35,5.35,0,0,0-.36,2v0a5.44,5.44,0,0,0,.36,2,5.11,5.11,0,0,0,1,1.61,4.63,4.63,0,0,0,3.46,1.49"></path>
    <polygon points="258.97 85.66 259.76 85.66 267.57 95.49 267.57 85.66 268.37 85.66 268.37 96.96 267.74 96.96 259.76 86.92 259.76 96.96 258.97 96.96 258.97 85.66"></polygon>
    <path d="M176.54,99.41h2.36l5,11.67H181.2l-1.06-2.6h-4.9l-1.06,2.6h-2.6Zm2.69,6.84-1.54-3.76-1.54,3.76Z"></path>
    <polygon points="184.57 99.49 186.93 99.49 192.36 106.63 192.36 99.49 194.87 99.49 194.87 111.08 192.7 111.08 187.09 103.72 187.09 111.08 184.57 111.08 184.57 99.49"></polygon>
    <polygon points="200.17 106.51 195.72 99.49 198.7 99.49 201.46 104.15 204.28 99.49 207.18 99.49 202.72 106.46 202.72 111.08 200.17 111.08 200.17 106.51"></polygon>
    <polygon points="207.13 99.49 209.86 99.49 212.26 107.34 214.86 99.46 217.04 99.46 219.64 107.34 222.04 99.49 224.71 99.49 220.75 111.17 218.53 111.17 215.92 103.58 213.3 111.17 211.08 111.17 207.13 99.49"></polygon>
    <polygon points="226.18 99.49 228.73 99.49 228.73 104.08 233.44 104.08 233.44 99.49 235.98 99.49 235.98 111.08 233.44 111.08 233.44 106.43 228.73 106.43 228.73 111.08 226.18 111.08 226.18 99.49"></polygon>
    <polygon points="238.02 99.49 246.75 99.49 246.75 101.76 240.54 101.76 240.54 104.11 246 104.11 246 106.38 240.54 106.38 240.54 108.81 246.83 108.81 246.83 111.08 238.02 111.08 238.02 99.49"></polygon>
    <path d="M248.7,99.49H254a4.58,4.58,0,0,1,3.37,1.18,3.54,3.54,0,0,1,1,2.65v0a3.61,3.61,0,0,1-.69,2.29,4,4,0,0,1-1.8,1.3l2.84,4.14h-3l-2.49-3.71h-2v3.71H248.7Zm5.13,5.65a2.12,2.12,0,0,0,1.45-.45,1.52,1.52,0,0,0,.51-1.2v0a1.48,1.48,0,0,0-.54-1.25,2.3,2.3,0,0,0-1.47-.42h-2.53v3.35Z"></path>
    <polygon points="259.92 99.49 268.65 99.49 268.65 101.76 262.44 101.76 262.44 104.11 267.9 104.11 267.9 106.38 262.44 106.38 262.44 108.81 268.73 108.81 268.73 111.08 259.92 111.08 259.92 99.49"></polygon>
  </g>
</svg>
