<?xml version="1.0" encoding="UTF-8"?>
<svg xmlns="http://www.w3.org/2000/svg" xmlns:xlink="http://www.w3.org/1999/xlink" id="Logos" viewBox="0 0 390 200">
  <defs>
    <style>.cls-1{fill:#5a5a5a;}.cls-2{fill:url(#linear-gradient);}.cls-3{fill:#b9bbbd;}.cls-4{fill:url(#linear-gradient-2);}</style>
    <linearGradient id="linear-gradient" x1="172.93" y1="93.19" x2="198.99" y2="93.19" gradientTransform="matrix(1, 0, 0, -1, 0, 202)" gradientUnits="userSpaceOnUse">
      <stop offset="0" stop-color="#ef7523"></stop>
      <stop offset="1" stop-color="#f69721"></stop>
    </linearGradient>
    <linearGradient id="linear-gradient-2" x1="221.9" y1="109.29" x2="251.89" y2="109.29" xlink:href="#linear-gradient"></linearGradient>
  </defs>
  <title>brain corp logo final</title>
  <g id="Brain_Corp_Final" data-name="Brain Corp Final">
    <g id="Layer_2" data-name="Layer 2">
      <g id="Layer_1-2" data-name="Layer 1-2">
        <path class="cls-1" d="M171.76,86l-.26,3.69a9.48,9.48,0,0,0-1.07,0c-4.64,0-6.93,3.24-6.93,8.26v6.69h-3.83V85.83h3.83v4.1a8,8,0,0,1,7-4.12A4.27,4.27,0,0,1,171.76,86Z"></path>
        <path class="cls-1" d="M191.13,104.28H187.3v-2.34a8.93,8.93,0,0,1-6.64,2.61c-4.79,0-9.06-3.87-9.06-9.65s4.28-9.66,9.06-9.66a8.9,8.9,0,0,1,6.64,2.62V85.62h3.83ZM187.3,94.9a6.09,6.09,0,0,0-6-6.27c-3.35,0-6,2.43-6,6.27s2.62,6.26,6,6.26A6.06,6.06,0,0,0,187.3,94.9Z"></path>
        <path class="cls-1" d="M198.84,80.53a2.45,2.45,0,0,1-4.9,0,2.46,2.46,0,0,1,4.91,0Zm-4.35,24V85.83h3.83v18.72Z"></path>
        <path class="cls-1" d="M219.24,93.25v11.3h-3.87V94c0-3-1.73-5-4.35-5-3.28,0-5.45,2.22-5.45,6.81v8.69h-3.84V85.83h3.84v2.44a7.88,7.88,0,0,1,6.34-2.76C216.29,85.51,219.24,88.68,219.24,93.25Z"></path>
        <path class="cls-1" d="M157.64,94.9c0,5.78-4.28,9.65-9.07,9.65a8.91,8.91,0,0,1-6.63-2.61V104H138.1V77.5h3.84V87.86a8.92,8.92,0,0,1,6.63-2.62C153.36,85.24,157.64,89.15,157.64,94.9Zm-3.72,0c0-3.84-2.62-6.27-6-6.27a6.27,6.27,0,0,0,0,12.53C151.3,101.16,153.92,98.77,153.92,94.9Z"></path>
        <path class="cls-2" d="M172.93,106.89H199v3.84H172.93Z"></path>
        <path class="cls-3" d="M230.07,113.21a5.83,5.83,0,1,1-5.81-5.72A5.67,5.67,0,0,1,230.07,113.21Zm-1.67,0a4.17,4.17,0,1,0-8.33,0,4.16,4.16,0,0,0,4.19,4.28A4.11,4.11,0,0,0,228.4,113.21Z"></path>
        <path class="cls-3" d="M239,107.71v1.63a6.78,6.78,0,0,0-.78,0c-2.92,0-4.41,2.21-4.41,5.17v4.23h-1.72v-11h1.72v2.7a5,5,0,0,1,4.41-2.81A2.56,2.56,0,0,1,239,107.71Z"></path>
        <path class="cls-3" d="M251.9,113.23a5.52,5.52,0,0,1-5.48,5.77,5.32,5.32,0,0,1-4.37-2v5.53h-1.69V107.73h1.69v1.76a5.33,5.33,0,0,1,4.36-2A5.52,5.52,0,0,1,251.9,113.23Zm-1.65,0a4,4,0,0,0-4.1-4.27,4.27,4.27,0,0,0,0,8.53A4,4,0,0,0,250.25,113.23Z"></path>
        <path class="cls-3" d="M215.44,115.36a3.64,3.64,0,0,1-3.45,2.06,4,4,0,0,1-4.08-4.19A4,4,0,0,1,212,109a3.62,3.62,0,0,1,3.39,2.07h1.81a5.3,5.3,0,0,0-5.2-3.63A5.77,5.77,0,0,0,212,119a5.17,5.17,0,0,0,5.19-3.63h-1.74Z"></path>
        <path class="cls-4" d="M240.52,99.87l.14-.27a7.83,7.83,0,0,0,.34-.79,5.2,5.2,0,0,0,.26-1.36,5,5,0,0,0,0-.86,4.26,4.26,0,0,0-.25-.93,4,4,0,0,0-1.34-1.72,4.35,4.35,0,0,0-3.76-.67,3.83,3.83,0,0,0-1.28.63,4.1,4.1,0,0,0-.52.5,2.9,2.9,0,0,0-.38.6,2.31,2.31,0,0,0-.19,1.37,3,3,0,0,0,2.06,2.13,7.45,7.45,0,0,0,1.74.4,16.4,16.4,0,0,0,2,.09,36.51,36.51,0,0,0,4.19-.21l.26,0,.24,0,.5-.11.24-.06.26-.07.47-.16.48-.18.21-.1.23-.11.43-.24c.11-.08.3-.19.42-.28a7.36,7.36,0,0,0,.75-.63,6.6,6.6,0,0,0,.64-.76,5.64,5.64,0,0,0,.86-1.78,5.47,5.47,0,0,0,.19-1l0-.25v-.76a7.32,7.32,0,0,0-.4-2,10.65,10.65,0,0,0-6.14-5.95,15.08,15.08,0,0,0-4.39-1.06,17,17,0,0,0-2.26,0c-.36,0-.76.06-1.12.11s-.76.11-1.11.18a15.11,15.11,0,0,0-2.16.61c-.33.12-.69.26-1,.41s-.68.32-1,.47a14,14,0,0,0-1.84,1.18c-.28.21-.58.46-.83.68l-.39.37-.2.19-.19.19A11.66,11.66,0,0,0,224.4,91a9.31,9.31,0,0,0-.57,1.91,8.94,8.94,0,0,0-.17,1.93,8.57,8.57,0,0,0,.24,1.88,9,9,0,0,0,.61,1.74A8.94,8.94,0,0,0,228,102.3a9.32,9.32,0,0,0,1.45.72,9.57,9.57,0,0,0,7.75-.32,9.17,9.17,0,0,0,2.61-1.93,8.72,8.72,0,0,0,.57-.67l.18-.23-.16.25a7.15,7.15,0,0,1-.49.73,9.68,9.68,0,0,1-1,1.07,9.25,9.25,0,0,1-1.54,1.18,9.66,9.66,0,0,1-2.22,1,9.81,9.81,0,0,1-2.85.45,10.45,10.45,0,0,1-3.29-.49,10.31,10.31,0,0,1-5.9-4.88,9.84,9.84,0,0,1-.82-2,11.09,11.09,0,0,1-.38-2.22,11.28,11.28,0,0,1,.11-2.32,11.63,11.63,0,0,1,.6-2.3,12.89,12.89,0,0,1,2.52-4.13l.21-.23.21-.23c.14-.15.29-.29.44-.43a10.76,10.76,0,0,1,1-.82A15.11,15.11,0,0,1,229,83.08c.39-.21.74-.4,1.14-.59s.75-.34,1.17-.49a15.71,15.71,0,0,1,2.45-.73,17.29,17.29,0,0,1,10.25.86,13.69,13.69,0,0,1,2.34,1.22l.29.18.26.19.54.4a11.88,11.88,0,0,1,1,.87,12.1,12.1,0,0,1,.92,1,12.3,12.3,0,0,1,.81,1.09,12.06,12.06,0,0,1,.67,1.16,11.51,11.51,0,0,1,.52,1.26,9.33,9.33,0,0,1,.49,2.68v.34c0,.09,0,.25,0,.34s0,.23,0,.35a2.23,2.23,0,0,1,0,.34,8.39,8.39,0,0,1-.29,1.32,7.91,7.91,0,0,1-2.12,3.4,9,9,0,0,1-1,.83,9.42,9.42,0,0,1-2.3,1.12,10.69,10.69,0,0,1-2.38.48,36.87,36.87,0,0,1-4.44,0,17.33,17.33,0,0,1-2.16-.19,7.94,7.94,0,0,1-2.14-.61c-.17-.08-.32-.15-.5-.25l-.24-.14-.12-.08-.12-.08a5,5,0,0,1-.84-.75l-.1-.12-.08-.1-.18-.24-.07-.12-.07-.12a2.1,2.1,0,0,1-.13-.26,3.18,3.18,0,0,1-.21-.54l0-.14,0-.13a2.33,2.33,0,0,1-.05-.28,3.57,3.57,0,0,1,.42-2.12,3.73,3.73,0,0,1,.6-.83A4,4,0,0,1,234,93a5.11,5.11,0,0,1,3.36-.77A5,5,0,0,1,240,93.4a4.46,4.46,0,0,1,1.54,3.14,4.15,4.15,0,0,1-.05.93,5,5,0,0,1-.41,1.37,6.36,6.36,0,0,1-.43.77Z"></path>
      </g>
    </g>
    <path class="cls-1" d="M249,82.24a.57.57,0,0,1-.58.57.57.57,0,1,1,0-1.14A.57.57,0,0,1,249,82.24Zm-1,0a.44.44,0,1,0,.88,0,.44.44,0,1,0-.88,0Zm.35.3h-.13V82l.22,0a.38.38,0,0,1,.19,0,.14.14,0,0,1,.06.13.15.15,0,0,1-.12.13h0a.18.18,0,0,1,.11.14c0,.09,0,.13,0,.15h-.14a.53.53,0,0,1-.05-.14c0-.07,0-.09-.12-.09h-.06Zm0-.33h.07c.07,0,.13,0,.13-.08s0-.09-.12-.09h-.08Z"></path>
  </g>
</svg>
