<?xml version="1.0" encoding="UTF-8"?>
<svg xmlns="http://www.w3.org/2000/svg" id="Logos" viewBox="0 0 390 200">
  <defs>
    <style>.cls-1{fill:#0a0a0a;}.cls-2{fill:#fff;}</style>
  </defs>
  <title>brandless logo 2</title>
  <g id="Brandless_Final" data-name="Brandless Final">
    <path class="cls-1" d="M291.28,78v6.65h-1.67V80.3l-1.49,4.36h-1.34c-.5-1.45-1-2.91-1.48-4.33v4.32h-1.62V78.34c0-.12,0-.23,0-.34H286c.54,1.51,1.07,3,1.57,4.43.49-1.41,1-2.92,1.54-4.43Z"></path>
    <path class="cls-1" d="M282.47,78v1.35h-1.84v5.3h-1.71V79.37h-1.87V78Z"></path>
    <path class="cls-2" d="M289.08,78c-.53,1.51-1.05,3-1.54,4.43-.5-1.41-1-2.92-1.57-4.43Z"></path>
    <path class="cls-1" d="M268.41,78c.37.08.75.15,1.11.26a6.62,6.62,0,0,1,4.77,5.7,7.89,7.89,0,0,1,0,.84v30.42a6.73,6.73,0,0,1-6.75,6.77H129.44a6.67,6.67,0,0,1-6.67-5.8s0-.08,0-.12V83.93s0-.08,0-.12a6.53,6.53,0,0,1,4.33-5.41,13.55,13.55,0,0,1,1.55-.4ZM198.5,120.28h68.94a5.91,5.91,0,0,0,1.26-.12,5,5,0,0,0,3.93-5V85.13c0-.31,0-.62,0-.93a5,5,0,0,0-4.88-4.5H129.37a5,5,0,0,0-5,5.17V115.1a5.46,5.46,0,0,0,.09,1.07,5,5,0,0,0,5,4.11Z"></path>
    <path class="cls-1" d="M182.76,98v8.5h-3.12V93.19H183a.38.38,0,0,1,.38.21c1.35,2.25,2.7,4.48,4,6.72.27.46.49.94.78,1.41V93.19h3.1v13.32H191c-1,0-1.93,0-2.88,0a.41.41,0,0,1-.32-.15q-2.25-3.67-4.47-7.37c-.19-.32-.33-.65-.49-1Zm-44.92,8.51c2,0,3.93,0,5.9,0a6.57,6.57,0,0,0,1.59-.18,3.72,3.72,0,0,0,3-2.63,3.05,3.05,0,0,0-2.11-4l-.51-.14.57-.23A2.82,2.82,0,0,0,148,96.68a3,3,0,0,0-1.36-2.75,4.87,4.87,0,0,0-2.73-.75c-2.05,0-4.11,0-6.16,0h-.28v13.32Zm3-3.7c0-.54,0-1.09,0-1.63,0-.19.06-.24.24-.24.83,0,1.66,0,2.48,0a1.5,1.5,0,0,1,1.63,1.45,1.37,1.37,0,0,1-1.34,1.59c-1,.09-2,0-3,0Zm2.84-7.13a1.39,1.39,0,0,1,.05,2.74c-.94.11-1.9.08-2.88.12v-3C141.79,95.61,142.73,95.59,143.66,95.68ZM156.31,102a.34.34,0,0,1,.36.23l2,4a.45.45,0,0,0,.48.3c1,0,2,0,3.05,0h.33l-2.74-5.43a4.1,4.1,0,0,0,2.36-3.5,3.72,3.72,0,0,0-2.1-3.82,6.06,6.06,0,0,0-2.62-.57c-1.91,0-3.82,0-5.73,0h-.3V106.5h3.4V102C155.32,102,155.82,102,156.31,102Zm.78-6.24c1.3.13,1.71,1,1.54,2.18a1.48,1.48,0,0,1-1.41,1.31,4.4,4.4,0,0,1-.51,0c-.62,0-1.24,0-1.88,0V95.72C155.6,95.72,156.35,95.66,157.09,95.73Zm38.33,10.78c1.54,0,3.07,0,4.61,0a10.33,10.33,0,0,0,2.28-.3,5.53,5.53,0,0,0,4.19-3.64,8.43,8.43,0,0,0,.15-5A5.31,5.31,0,0,0,203.71,94a8.77,8.77,0,0,0-3.73-.82c-1.52,0-3,0-4.55,0h-.32v13.33Zm3.07-10.62c.61,0,1.21,0,1.8,0A2.92,2.92,0,0,1,203,97.58a5.38,5.38,0,0,1,.38,1.52,6.09,6.09,0,0,1-.19,2.51,2.68,2.68,0,0,1-2.22,2.07c-.8.13-1.62.13-2.46.19Zm46.28.36a4.18,4.18,0,0,0-2.54-2.84,7.37,7.37,0,0,0-3.47-.53,6.26,6.26,0,0,0-2.65.7A3.72,3.72,0,0,0,234,97.31a3.45,3.45,0,0,0,2.46,3.25c.71.26,1.46.39,2.2.58s1.32.28,2,.5a1.1,1.1,0,0,1,.83,1.2,1.23,1.23,0,0,1-.9,1.17,3.28,3.28,0,0,1-2.27,0,2.29,2.29,0,0,1-1.48-1.6l-3.41.42a.44.44,0,0,0,0,.1l0,.19a4.2,4.2,0,0,0,2,2.69,6.77,6.77,0,0,0,3.28,1,8.52,8.52,0,0,0,3.64-.47A4.08,4.08,0,0,0,244.8,101a3.41,3.41,0,0,0-2.39-2.14c-.92-.3-1.87-.46-2.81-.71A7,7,0,0,1,238,97.6a1.09,1.09,0,0,1,.09-1.94,2.59,2.59,0,0,1,1.34-.25,2,2,0,0,1,2,1.39c.05.16.15.17.28.15l3.14-.4C244.8,96.43,244.79,96.34,244.77,96.25Zm13.91.11a4.16,4.16,0,0,0-2.21-2.78,6.59,6.59,0,0,0-3-.71,7,7,0,0,0-3.37.63,3.73,3.73,0,0,0-2.23,3.8,3.44,3.44,0,0,0,2.5,3.27c.7.25,1.45.38,2.17.57s1.34.3,2,.52a1.09,1.09,0,0,1,.8,1.08,1.19,1.19,0,0,1-.77,1.21,3.13,3.13,0,0,1-2.94-.19,2.29,2.29,0,0,1-.94-1.33l-3.45.43c0,.13,0,.24.06.35a4.14,4.14,0,0,0,2.17,2.72,8.07,8.07,0,0,0,6.84.34,4,4,0,0,0,2.41-5.12,3.44,3.44,0,0,0-2.44-2.31c-1-.32-2.06-.5-3.08-.76a7.2,7.2,0,0,1-1.35-.47,1,1,0,0,1-.55-1,1,1,0,0,1,.69-.94,3.72,3.72,0,0,1,1.15-.22,2,2,0,0,1,2.14,1.39.33.33,0,0,0,.24.14c.29,0,.58-.07.86-.11l2.3-.29C258.69,96.47,258.69,96.42,258.68,96.36Zm-81.5,10-4.47-13a.28.28,0,0,0-.31-.21c-1.18,0-2.37,0-3.55,0a.37.37,0,0,0-.42.3c-1.3,3.8-2.62,7.59-3.93,11.39-.18.54-.37,1.08-.55,1.63l.14,0h3c.16,0,.21-.07.25-.2.24-.8.5-1.6.74-2.4a.28.28,0,0,1,.31-.24h4.32c.17,0,.24,0,.3.21.24.81.5,1.61.77,2.41,0,.08.14.19.21.19,1.08,0,2.17,0,3.28,0A.91.91,0,0,0,177.18,106.34Zm-8.2-5.28c0-.12.05-.23.08-.34.43-1.46.86-2.92,1.3-4.38a.8.8,0,0,1,.13-.19s.13.1.15.16c.47,1.55.93,3.11,1.39,4.66,0,0,0,0,0,.09Zm61.79-5.13V93.2H221.6v13.29h9.52v-2.72H225v-2.58h5V98.51H225.2c-.11,0-.27.06-.27-.14V95.93ZM219,106.49v-2.77h-5.87V93.2h-3.38v13.29Z"></path>
  </g>
</svg>
