<?xml version="1.0" encoding="UTF-8"?>
<svg xmlns="http://www.w3.org/2000/svg" xmlns:xlink="http://www.w3.org/1999/xlink" id="Logos" viewBox="0 0 390 200">
  <defs>
    <style>.cls-1{fill:none;}.cls-2{clip-path:url(#clip-path);}.cls-3{fill:#18a84a;}</style>
    <clipPath id="clip-path">
      <rect class="cls-1" x="129" y="80.08" width="132" height="41.84"></rect>
    </clipPath>
  </defs>
  <title>C2FO2</title>
  <g class="cls-2">
    <path class="cls-3" d="M168.17,120.08h25.77v-8l-15.72,0c.27-5.11,15.15-7.4,15.15-19.75,0-8.39-6.51-12.16-12.58-12.23a14.38,14.38,0,0,0-13.24,8.39l6.83,4.9s2-4.21,5.56-4.19a3.83,3.83,0,0,1,4.05,4c0,5.72-16.23,8.21-16.23,22.76a21.79,21.79,0,0,0,.41,4.18Z"></path>
  </g>
  <polygon class="cls-3" points="196.61 120.08 205.67 120.08 205.67 105.55 217.05 105.6 217.05 97.62 205.67 97.62 205.67 89.3 219.39 89.3 219.39 81.25 196.61 81.28 196.61 120.08 196.61 120.08"></polygon>
  <g class="cls-2">
    <path class="cls-3" d="M239.53,112.91a11.33,11.33,0,0,1-11-11.56,11.2,11.2,0,0,1,11-11.48,11.35,11.35,0,0,1,11,11.59,11.18,11.18,0,0,1-11,11.45Zm0-32c-10.85-.11-19.68,9-19.68,20.44s8.83,20.62,19.68,20.62S259,112.77,259,101.48,250.31,81,239.53,80.86Z"></path>
    <path class="cls-3" d="M129,100.89c0,11.6,9.17,21,20.44,21a19.84,19.84,0,0,0,13.4-5.22l2.23,2.3V107.67l-11,0,2.48,2.58a11.1,11.1,0,0,1-7.13,2.55A11.65,11.65,0,0,1,138,101a11.48,11.48,0,0,1,11.44-11.67,11.22,11.22,0,0,1,8.39,3.86l6.28-6.42a20,20,0,0,0-14.64-6.64C138.17,80,129,89.3,129,100.89Z"></path>
  </g>
  <path class="cls-3" d="M258.66,83.78a.25.25,0,0,0,0-.14.19.19,0,0,0-.09-.11.32.32,0,0,0-.16-.09.61.61,0,0,0-.25,0h-.33v.81h.33a.59.59,0,0,0,.41-.12.58.58,0,0,0,.12-.32Zm.87,2v0s0,0,0,0l-.11,0H259l-.12,0-.07,0s0,0,0-.09l-.14-.48a.65.65,0,0,0-.21-.37.49.49,0,0,0-.34-.09h-.19v1a.12.12,0,0,1-.07.11.83.83,0,0,1-.27,0,1.11,1.11,0,0,1-.3,0c-.05,0-.07,0-.07-.11V83.16a.39.39,0,0,1,.07-.25.27.27,0,0,1,.23-.09h.83a3.49,3.49,0,0,1,.5,0,1,1,0,0,1,.37.16.71.71,0,0,1,.23.28.91.91,0,0,1,.07.39.77.77,0,0,1-.18.53,1.3,1.3,0,0,1-.51.27.94.94,0,0,1,.32.19,1.06,1.06,0,0,1,.25.41l.17.46a1.83,1.83,0,0,0,0,.19Zm.85-1.29a2.43,2.43,0,0,0-.16-.92,2.31,2.31,0,0,0-.44-.71,1.75,1.75,0,0,0-.67-.46,2,2,0,0,0-.85-.16,2,2,0,0,0-.87.16,2.6,2.6,0,0,0-.69.46,2.26,2.26,0,0,0-.44.69,2.52,2.52,0,0,0,0,1.77,2.83,2.83,0,0,0,.44.71,2,2,0,0,0,.67.46,2.15,2.15,0,0,0,.85.16,2.36,2.36,0,0,0,.89-.18,2.45,2.45,0,0,0,.69-.46,2.53,2.53,0,0,0,.44-.69,3.13,3.13,0,0,0,.14-.83Zm.62,0a2.7,2.7,0,0,1-.21,1.08,2.53,2.53,0,0,1-.59.88,3.26,3.26,0,0,1-.9.59,2.91,2.91,0,0,1-1.1.21,2.75,2.75,0,0,1-1.11-.21,2.44,2.44,0,0,1-.87-.57,2.6,2.6,0,0,1-.58-.87,3.17,3.17,0,0,1-.2-1.11,2.88,2.88,0,0,1,.2-1.08,2.65,2.65,0,0,1,.6-.87,2.82,2.82,0,0,1,.87-.58,3.17,3.17,0,0,1,1.11-.2,2.92,2.92,0,0,1,1.1.2,2.65,2.65,0,0,1,.88.58,2.58,2.58,0,0,1,.57.87A2.35,2.35,0,0,1,261,84.4Z"></path>
</svg>
