<?xml version="1.0" encoding="UTF-8"?>
<svg xmlns="http://www.w3.org/2000/svg" xmlns:xlink="http://www.w3.org/1999/xlink" id="Logos" viewBox="0 0 390 200">
  <defs>
    <style>.cls-1{fill:none;}.cls-2{clip-path:url(#clip-path);}.cls-3{fill:#fbfcfd;}.cls-4{fill:#00b5cc;}.cls-5{fill:#c9ccd1;}.cls-6{fill:#00b4cb;}.cls-7{fill:#00b4cc;}.cls-8{fill:#12678e;}.cls-9{fill:#0f678e;}</style>
    <clipPath id="clip-path">
      <rect class="cls-1" x="83" y="78" width="223.59" height="52"></rect>
    </clipPath>
  </defs>
  <title>Cambridge</title>
  <g class="cls-2">
    <path class="cls-3" d="M103.91,78.72C93,81.56,86.15,88.12,83.54,99.1c-.1.43.09,1-.44,1.3,0-7.17,0-14.34,0-21.51,0-.73.16-.89.89-.89"></path>
  </g>
  <path class="cls-4" d="M109.2,94.78c-4.88,0-9.76,0-14.64,0-.42,0-1,.22-1.21-.22s.22-.79.44-1.14c7-10.68,24-10.57,30.95.21.19.3.64.58.35,1s-.63.16-1,.16Z"></path>
  <path class="cls-5" d="M119.42,122.47c14.24-7.82,14.43-28.74-.33-36.89,2.9,0,5.47-.1,8,.06,1,.06,1.63,1.17,2.24,1.94,6.07,7.65,7.35,16.16,4.31,25.35a25.7,25.7,0,0,1-5.29,8.58,2.43,2.43,0,0,1-1.87,1Z"></path>
  <path class="cls-6" d="M109.23,100.14c-5.32,0-10.64,0-16,0-1.36,0-1.48-.56-1.43-1.63s-.12-1.7,1.35-1.69q16,.09,31.93,0c1.46,0,1.31.74,1.35,1.69s-.06,1.65-1.42,1.63c-5.27-.09-10.55,0-15.82,0Z"></path>
  <path class="cls-4" d="M113.4,112.11c0-2.8,0-5.61,0-8.42,0-1,.23-1.35,1.28-1.34,2.79,0,2.78,0,2.8,2.71,0,4.64,0,9.29.15,13.93,0,1.36-.36,2.1-1.68,2.37a6.08,6.08,0,0,0-1.1.34c-1,.42-1.48.21-1.45-1,.07-2.85,0-5.71,0-8.57Z"></path>
  <path class="cls-6" d="M111.29,112.61c0,2.85,0,5.7,0,8.56,0,1-.22,1.34-1.27,1.35-2.84,0-2.84.08-2.84-2.8,0-5.27,0-10.55,0-15.82,0-1.16.23-1.59,1.49-1.55,2.61.08,2.62,0,2.62,2.57v7.69Z"></path>
  <path class="cls-7" d="M105,112.14c0,2.9,0,5.8,0,8.7,0,.91-.23,1.3-1.16.9l-.14,0c-2.82-.81-2.82-.81-2.82-3.68,0-4.78,0-9.57,0-14.36,0-1,.31-1.3,1.31-1.3,2.82,0,2.82,0,2.82,2.82v7Z"></path>
  <path class="cls-4" d="M98.76,119.3l-1-.62a5.9,5.9,0,0,1-3.13-6.11,79.45,79.45,0,0,0,0-9c0-.94.27-1.23,1.23-1.23,2.85,0,2.85,0,2.85,2.8V119.3Z"></path>
  <g class="cls-2">
    <path class="cls-6" d="M119.72,119.15c0-5.38,0-10.6,0-15.82,0-.77.3-1,1-1,3-.13,3-.15,3,2.85,0,2.8-.1,5.61,0,8.4a4.23,4.23,0,0,1-1.62,3.77,8.68,8.68,0,0,1-2.48,1.78Z"></path>
    <path class="cls-8" d="M282.5,119.69c-.09,1.14.55,1.12,1.33,1.09s1.45.21,1.42-1c-.07-2.9-.06-5.8,0-8.69,0-1.24-.8-.92-1.47-1s-1.32,0-1.27,1c.08,1.44,0,2.89,0,4.34s.08,2.81,0,4.2Zm-98.91-8.61c.06-1.09-.62-1-1.31-1s-1.48-.24-1.46,1q.08,4.41,0,8.82c0,1.15.77.86,1.38.87s1.42.28,1.38-.88c-.06-1.45,0-2.89,0-4.34s0-3,0-4.48Zm46,8.66c0,.84.27,1.09,1.08,1.06,1.49,0,3,0,4.49,0,.9,0,1.39-.06,1.38-1.2s-.52-1.17-1.34-1.12c-.57,0-1.16,0-1.73,0-.88.09-1.18-.23-1.16-1.13.06-2,0-4.06,0-6.08.06-1.17-.55-1.18-1.41-1.2s-1.44.16-1.36,1.26c.09,1.34,0,2.7,0,4.05s0,2.89,0,4.34Zm-43.91,0c0,.84.26,1.09,1.07,1.06,1.5-.05,3,0,4.5,0,.77,0,1.37.07,1.36-1.08s-.5-1.29-1.4-1.21c-.48.05-1,0-1.45,0-1.05.13-1.46-.22-1.4-1.35.09-2-.05-4,0-5.94.05-1.14-.56-1.13-1.35-1.11s-1.46-.12-1.39,1.06c.09,1.4,0,2.81,0,4.21s.05,2.9,0,4.35Zm87.33-9.62c-.85,0-1,.31-1.06,1.1s.24,1.16,1.14,1.15c2,0,2,0,2,2,0,1.75,0,3.49,0,5.23-.05,1,.3,1.26,1.23,1.2s1.53.12,1.45-1.14c-.11-1.64,0-3.29,0-4.94,0-2.21,0-2.27,2.18-2.36.95,0,.8-.57.82-1.14s0-1.15-.87-1.11c-1.16.06-2.32,0-3.48,0s-2.23,0-3.34,0Zm-62.21,0c-.94-.06-1.23.26-1.25,1.23,0,1.23.76,1.08,1.43,1,1.43-.21,1.82.33,1.72,1.73-.13,1.92,0,3.87-.05,5.8-.05,1.14.66,1,1.31.93s1.4.3,1.34-.89c-.07-1.69,0-3.38,0-5.08,0-2.29,0-2.34,2.22-2.44.9,0,.85-.52.86-1.13s0-1.15-.89-1.11c-1.16,0-2.32,0-3.48,0s-2.14.05-3.2,0ZM303,121a3.49,3.49,0,0,0,3.46-3.09c.19-1.61-.59-2.63-2.55-3.36-.54-.2-1.09-.38-1.63-.6s-.84-.5-.73-1.09a1.1,1.1,0,0,1,1.05-.84,2.14,2.14,0,0,1,1.66.38c1.24.92,1.55-.44,1.93-.94.55-.74-.44-.88-.86-1.09a5.48,5.48,0,0,0-4-.31,3.24,3.24,0,0,0-2.56,3,3,3,0,0,0,2.23,3c.67.26,1.36.48,2,.76a1,1,0,0,1,.68,1.14c-.08.6-.53.79-1,.89a2.69,2.69,0,0,1-2.17-.6c-.41-.31-.62-.4-1.06,0-1.33,1.19-1.29,1.61.37,2.31a5.39,5.39,0,0,0,2.64.45,3.3,3.3,0,0,0,.48,0Zm-64.41-1.54c-.06,1,.18,1.37,1.25,1.31,1.69-.1,3.38-.06,5.07,0,.85,0,1.31-.08,1.29-1.14s-.47-1.08-1.24-1-1.64,0-2.46,0-1.34,0-1.36-1.09.58-1.2,1.42-1.15c.67,0,1.36,0,2,0,.84.08,1-.26,1-1.06s-.32-1.07-1.1-1-1.55,0-2.31,0-1.06-.24-1.07-1.06.4-1,1.13-1c.92,0,1.84,0,2.76,0s.82-.52.84-1.11,0-1.11-.89-1.08c-1.83,0-3.67,0-5.51,0-.71,0-.91.26-.89.93,0,1.45,0,2.9,0,4.35s.06,2.71,0,4.06Zm-18.58.19c-.05.93.29,1.14,1.16,1.11,1.74-.06,3.48,0,5.22,0,.76,0,1.23,0,1.23-1s-.42-1.21-1.28-1.15-1.65,0-2.47,0-1.31-.05-1.31-1.13.49-1.16,1.31-1.11c.63,0,1.26,0,1.89,0,.79,0,1.34,0,1.32-1.09s-.6-1-1.28-1-1.36,0-2,0-1.22-.08-1.2-1.07.45-1,1.16-1c.87,0,1.74,0,2.61,0s1-.22,1-1,.1-1.25-.92-1.22c-1.78.07-3.57.06-5.36,0-.88,0-1.05.36-1,1.12,0,1.4,0,2.81,0,4.21s.06,2.81,0,4.21Zm76.1.68c.45-.3,1.48-.54,1-1.25s-.93-1.92-2.24-.87a2.56,2.56,0,0,1-2.49.31,3.29,3.29,0,0,1-1.83-4.42,3,3,0,0,1,4.46-1.4c1.29.76,1.47-.56,2-1s-.29-.85-.65-1.07a6.47,6.47,0,0,0-7,.52,5.75,5.75,0,0,0-1.59,6.35c.81,2.22,2.85,3.55,5.61,3.56a4.57,4.57,0,0,0,2.75-.71Zm-101.42-.54c0,.79.27,1,1,1,1.74-.05,3.48,0,5.22,0,.74,0,1.39.13,1.38-1.06s-.53-1.15-1.34-1.11-1.54,0-2.31,0-1.43,0-1.43-1.19.64-1.07,1.38-1a8.77,8.77,0,0,0,1.45,0c.66-.11,1.67.54,1.7-1s-.91-1-1.63-1.06c-.48,0-1,0-1.44,0-.67,0-1.44.27-1.45-1s.63-1.06,1.37-1,1.65,0,2.47,0,.94-.35.92-1,0-1.22-.95-1.19c-1.79.06-3.58,0-5.37,0-.78,0-1,.27-1,1,0,1.45,0,2.9,0,4.35s0,2.9,0,4.34ZM268,115.11c.6,1.64.54,1.68-1.24,1.57-.75-.05-.77-.37-.56-.9.3-.81.61-1.61,1-2.73.33.91.55,1.48.76,2.06Zm.75-4.47c-.36-.81-2.59-.76-2.95,0-1.44,3.3-2.83,6.62-4.28,10,1.55,0,3.14.6,3.47-1.58.07-.45.46-.43.8-.43,1,0,1.93,0,2.9,0,.38,0,.69.09.76.49.41,2.12,2,1.58,3.54,1.51-1.44-3.43-2.8-6.76-4.24-10.06Zm-92.69,2.63c-.08,1.26-1.14,1-2,1.1-1,.1-.84-.58-.9-1.2-.11-1.14.67-.92,1.39-.92s1.55,0,1.49,1Zm-2.89,4.39c.08-.75-.08-1.51,1.08-1.34.85.13,2.06-.27,2.14,1.1s-1,1.2-1.85,1.28-1.5.15-1.37-1Zm5.44-5.41a2.66,2.66,0,0,0-2.42-2,39.45,39.45,0,0,0-4.48-.15c-.84,0-1.08.28-1.07,1.09q0,4.27,0,8.56c0,.7.14,1.07,1,1,1.4-.06,2.81,0,4.2-.06a3.13,3.13,0,0,0,3.17-2.08c.46-1.37,0-2.36-1.71-3.56a2.41,2.41,0,0,0,1.36-2.84Zm-12.45,3.16a3.11,3.11,0,0,1-3.1,3.3,3,3,0,0,1-3-3.35,2.92,2.92,0,0,1,3.06-3.12,3,3,0,0,1,3.05,3.17Zm2.82.06c0-3.27-2.39-5.6-5.88-5.62s-5.91,2.28-5.91,5.58a5.9,5.9,0,0,0,11.79,0ZM243.25,102c0,3.14,0,3.1,3.22,3.1,1,0,1.19-.33,1.18-1.24,0-4.45,0-8.9,0-13.35,0-3.26,0-3.22-3.29-3.19-.93,0-1.12.32-1.11,1.17.05,2.52,0,5,0,7.55v6Zm-90.34,12.32c0,1.83.06,3.67,0,5.5,0,1.12.63,1,1.3,1s1.36.25,1.34-.91c-.06-3,0-5.9,0-8.85,0-.74-.29-.93-.95-.89a7.8,7.8,0,0,1-1.45,0,1.46,1.46,0,0,0-1.84,1.27c-.49,1.73-1.17,3.41-1.91,5.52l-1.63-4.44c-.88-2.42-.88-2.38-3.41-2.36-.87,0-1.17.23-1.16,1.14.06,2.8.08,5.61,0,8.42,0,1.09.48,1.11,1.3,1.13s1.22-.13,1.18-1.1c-.08-1.89,0-3.8,0-5.7a54.25,54.25,0,0,1,2.3,5.75c.22.62.44,1.06,1.27,1.06s1.15-.38,1.4-1.09c.65-1.85,1.37-3.67,2.06-5.5l.26.09Zm100-1.77c-.93-2.58-.93-2.56-3.63-2.43-.73,0-1,.23-1,1,0,2.9.05,5.8,0,8.7,0,1.11.63,1,1.31,1s1.32.1,1.27-1c-.09-1.85,0-3.7,0-5.55a44.36,44.36,0,0,1,2.16,5.18c.26.7.32,1.46,1.48,1.41s1.12-.67,1.37-1.34c.68-1.83,1.37-3.65,2.06-5.48a36.09,36.09,0,0,1,.18,5.77c-.05,1.08.54,1,1.25,1s1.45.23,1.41-1c-.08-2.7-.11-5.41,0-8.12.06-1.33-.38-1.74-1.62-1.54a3.1,3.1,0,0,1-.86,0c-1.05-.18-1.56.27-1.85,1.28-.51,1.76-1.16,3.47-1.88,5.56-.62-1.7-1.11-3.06-1.61-4.42Zm-105.7-8.13a9.84,9.84,0,0,0,10.34-.51c1.65-1.09,1.62-1.15.21-2.45-.36-.33-.74-.63-1.07-1-.47-.52-.79-.52-1.38,0a5,5,0,0,1-6.5-.08A5.89,5.89,0,0,1,148,92.9c1.38-2,4.28-2.93,6.28-1.55,1.6,1.1,2.31.49,3.2-.62a2,2,0,0,1,.42-.41c.91-.64.74-1.17-.11-1.71a10.38,10.38,0,0,0-10.51-.67c-3.4,1.58-4.92,4.47-5,8.27.05,3.59,1.48,6.54,4.84,8.2Zm146.84-.7c0,1.05.2,1.42,1.33,1.39,2.91-.09,5.81,0,8.72,0,2.6,0,2.56,0,2.53-2.62,0-.82-.24-1.11-1.07-1.08-1.64,0-3.29,0-4.93,0-2.45,0-2.41,0-2.42-2.49,0-.88.23-1.18,1.13-1.15,1.74.07,3.49,0,5.23,0,.85,0,1.3-.16,1.16-1.11a4.91,4.91,0,0,1,0-1.15c.12-.92-.18-1.29-1.17-1.24-1.74.08-3.49,0-5.23,0-.93,0-1.22-.29-1.1-1.16a4.27,4.27,0,0,0,0-1c-.12-.89.23-1.2,1.13-1.16,1.45.06,2.9,0,4.35,0,2.46,0,2.41,0,2.43-2.48,0-1-.28-1.22-1.23-1.21q-4.86.09-9.72,0c-.92,0-1.15.28-1.13,1.15.05,2.57,0,5.13,0,7.7s0,5,0,7.55ZM169.88,92.16c.69,1.89,1.28,3.56,1.92,5.21.23.58.11.77-.51.76-1.15,0-2.3,0-3.65,0,.77-2.07,1.46-3.9,2.24-6Zm-7.81,12.91c2.88,0,2.91,0,4-2.6a1.22,1.22,0,0,1,1.4-.9c1.59,0,3.19.07,4.79,0a1.32,1.32,0,0,1,1.48,1c1,2.5,1,2.49,3.76,2.49a5.77,5.77,0,0,1,.72,0c1.19.16,1.25-.29.83-1.27-1.95-4.53-3.84-9.08-5.75-13.62-1.24-2.94-1.24-2.91-4.44-2.87a1.3,1.3,0,0,0-1.39,1c-.68,1.7-1.41,3.38-2.13,5.07-1.63,3.86-3.27,7.72-5,11.74Zm69-14.3c2.53.18,3.58.6,3.62,2s-1.1,2.18-3.74,2.15c-1.63,0-1.41.34-1.43-2.48,0-.71-.3-1.78,1.55-1.65Zm8.64,14c-1.31-2.15-2.6-4.3-3.93-6.43-.34-.55-.42-.79.29-1.16,2.44-1.26,3.22-2.91,2.8-5.59a4.93,4.93,0,0,0-4.27-4c-2.69-.54-5.41-.13-8.11-.29-1.06-.07-1.29.31-1.28,1.3.05,4.41,0,8.81,0,13.22,0,3.41,0,3.38,3.37,3.25.8,0,1-.32.94-1,0-1.65,0-3.29,0-4.94,0-.36-.27-.94.41-1,.52-.07,1-.09,1.34.54.44.92,1,1.79,1.46,2.68,2.21,4,2.21,4,6.87,3.71.05-.16.09-.22.08-.25ZM257.18,92c0-.67.18-1,.9-.92s1.45,0,2.17,0c3.14.2,4.95,2.07,4.94,5.09s-1.84,4.88-5,5.1-3,.22-3-2.78V96.18c0-1.4,0-2.81,0-4.21ZM253,104c0,.44-.18,1.07.62,1,3.27-.14,6.58.43,9.8-.54,4.42-1.34,6.58-4.63,6.26-9.51-.26-3.88-3.06-6.69-7.33-7.41-2.69-.45-5.41-.14-8.11-.28-1.06-.06-1.29.35-1.26,1.32.06,2.51,0,5,0,7.55s0,5.22,0,7.83ZM213,90.75c2.41.14,3.23.46,3.26,1.72s-.84,1.77-3.23,1.93c-1.66.12-1.66-.75-1.49-1.93-.26-1.16,0-1.81,1.46-1.72Zm-1.4,10.49a12.46,12.46,0,0,1,0-3.45c0-.23.38-.23.62-.23a15.56,15.56,0,0,1,2.89.15c1,.21,1.72.6,1.74,1.77s-.7,1.74-1.73,2a12.37,12.37,0,0,1-1.75.16c-.59-.23-1.61.39-1.78-.38Zm8.69-7.91c.92-2.61-.58-5.11-3.52-5.71s-5.88-.17-8.82-.29c-.59,0-.72.28-.72.8q0,8.06,0,16.1c0,.48,0,.87.67.84,3.09-.13,6.2.34,9.25-.33a4.68,4.68,0,0,0,4.05-5.3c-.15-1.93-1.44-2.93-3.28-3.71a4.83,4.83,0,0,0,2.37-2.4Zm69,2.1c0-.61-.19-.86-.83-.85-1.94,0-3.87,0-5.81,0-.64,0-.79.23-.83.84-.15,2.53-.17,2.52,2.48,2.66.4,0,.84-.15,1,.53.47,2.2-.11,3-2.36,3.14a5.19,5.19,0,0,1-5.27-2.85,6.22,6.22,0,0,1,1-6.76c1.52-1.48,4.28-2.16,6-.87s2.44.29,3.34-.82a3.16,3.16,0,0,1,.38-.43c.74-.63.52-1.06-.21-1.51a11.62,11.62,0,0,0-8.1-1.46,8.92,8.92,0,0,0-7.58,7.69c-.51,4.75,1.56,8.44,5.64,10a13.59,13.59,0,0,0,8.55.18c2.54-.65,2.53-.69,2.53-3.29V99.49c0-1.35,0-2.71,0-4.06Zm-91.1-2.14c-1.28,3.47-2.65,6.9-3.81,10.41-.43,1.27-1.13,1.39-2.24,1.4a1.66,1.66,0,0,1-1.92-1.38q-1.75-5.25-4-10.37c0,3.46-.05,6.91,0,10.37,0,1.06-.21,1.41-1.34,1.38-2.76-.07-2.77,0-2.77-2.82,0-4.55,0-9.1,0-13.65,0-1,.17-1.4,1.25-1.32a23.73,23.73,0,0,0,3.77,0c1-.08,1.34.36,1.63,1.2,1.16,3.32,2.36,6.63,3.67,10.28,1.21-3.51,2.36-6.69,3.37-9.91.38-1.21.92-1.73,2.23-1.57a23.15,23.15,0,0,0,3.63,0c.85,0,1.06.29,1.05,1.09q0,7.83,0,15.68c0,.76-.25,1-1,1-3.32.12-3.31.15-3.31-3.14V93.39l-.25-.1Z"></path>
    <path class="cls-9" d="M107.93,124.71v0a20.48,20.48,0,0,1,0-40.92v0h16.76a25.74,25.74,0,1,0,.12,41Z"></path>
  </g>
</svg>
