<?xml version="1.0" encoding="UTF-8"?>
<svg xmlns="http://www.w3.org/2000/svg" xmlns:xlink="http://www.w3.org/1999/xlink" id="Logos" viewBox="0 0 390 200">
  <defs>
    <style>.cls-1,.cls-2,.cls-3{fill:none;}.cls-2{clip-path:url(#clip-path);}.cls-3{clip-path:url(#clip-path-2);}.cls-4{clip-path:url(#clip-path-3);}.cls-5{fill:#38b3ac;}</style>
    <clipPath id="clip-path">
      <rect id="SVGID" class="cls-1" x="120.5" y="80.78" width="138" height="33.22"></rect>
    </clipPath>
    <clipPath id="clip-path-2">
      <path id="SVGID-2" data-name="SVGID" class="cls-2" d="M230.2,108.82a9.42,9.42,0,0,0,7.41-3.07l2.3,3.77c-2.11,2.17-5.37,4-10.48,4-5.94,0-10.8-3.7-10.8-11.75,0-7.54,4.41-11.89,11.38-11.89,7.15,0,11.64,4.34,10.15,13.16h-15c.38,3.77,2,5.82,5,5.82Zm0-14.57c-2.94,0-4.54,1.92-4.92,5.37h9.45c.07-3.58-1.53-5.36-4.53-5.36ZM151.36,113V82.37l6.26-1V113Zm25.43-7.29V90.23H183V113h-6.19v-2.75a16.17,16.17,0,0,1-8.88,3.19c-4.92,0-6.78-2.93-6.78-7.15v-16h6.26v14.63c0,2.11.58,3.71,2.94,3.71s5-1.6,6.46-2.88ZM213,108.06a11.61,11.61,0,0,0,3.51-1l2.24,4.6a18.58,18.58,0,0,1-7.29,1.78c-4.34,0-6.58-2.36-6.58-7.66V94.83h-9.58v11.06c0,1.91,1,2.17,1.92,2.17a14.82,14.82,0,0,0,4-1.22l2.24,4.6a21.13,21.13,0,0,1-7.8,2c-4.34,0-6.58-2.36-6.58-7.66V94.83h-3.13v-4.6h3.13V84.61l6.2-.89v6.51h9.58V84.61l6.2-.89v6.51h7.6c.32,0,.51.13.32.58s-1.91,4-1.91,4h-6v11.06c0,1.91,1,2.17,1.92,2.17ZM250,95a8.14,8.14,0,0,1,8.5-5v5.82a8.13,8.13,0,0,0-8.5,7.28V113h-6.26V91.19l6.26-1V95ZM137.05,107.48c4.73,0,8.56-4.21,8.56-4.15l2.81,4.34a15.72,15.72,0,0,1-27.92-9.9c0-5.88,4.29-15.65,15.78-15.65,8,0,11.05,4.34,11.05,6.45a4.13,4.13,0,0,1-4.21,4.22A4,4,0,0,1,139,88.06a15.57,15.57,0,0,0-2.05-.13,9.78,9.78,0,1,0,.07,19.55Z"></path>
    </clipPath>
    <clipPath id="clip-path-3">
      <rect id="SVGID-3" data-name="SVGID" class="cls-3" x="120.5" y="-392" width="391" height="506"></rect>
    </clipPath>
  </defs>
  <title>Clutter</title>
  <g id="Layer_2" data-name="Layer 2">
    <g class="cls-4">
      <rect class="cls-5" x="117.31" y="78.22" width="144.39" height="38.46"></rect>
    </g>
  </g>
</svg>
