<?xml version="1.0" encoding="UTF-8"?>
<svg xmlns="http://www.w3.org/2000/svg" id="Logos" viewBox="0 0 390 200">
  <defs>
    <style>.cls-1{fill:#373935;}.cls-2{fill:#97c238;}</style>
  </defs>
  <title>Cohesity Logo final</title>
  <g id="Cohesity_Final" data-name="Cohesity Final">
    <path class="cls-1" d="M128.19,105.53A1.65,1.65,0,0,0,127,106a8.54,8.54,0,0,1-6.18,2.52,7.68,7.68,0,0,1-5.69-2.46,8.87,8.87,0,0,1-2.31-6.1v-.06c0-4.85,3.44-8.5,8-8.5a8.47,8.47,0,0,1,6,2.38l.06.05a2.09,2.09,0,0,0,1.14.38,1.84,1.84,0,0,0,1.83-1.8,1.94,1.94,0,0,0-.7-1.44h0a12,12,0,0,0-8.26-3,11.52,11.52,0,0,0-8.44,3.55,12.15,12.15,0,0,0-3.31,8.45v.06a12.1,12.1,0,0,0,3.31,8.46,11.48,11.48,0,0,0,8.34,3.48,11.8,11.8,0,0,0,8.59-3.4,1.72,1.72,0,0,0,.6-1.3,1.81,1.81,0,0,0-1.76-1.77"></path>
    <path class="cls-1" d="M152.9,100v.06c0,4.85-3.48,8.5-8.09,8.5a7.89,7.89,0,0,1-5.84-2.5,8.79,8.79,0,0,1-2.31-6.06v-.06c0-4.85,3.48-8.5,8.09-8.5a7.91,7.91,0,0,1,5.84,2.5A8.79,8.79,0,0,1,152.9,100m-8.09-12a11.65,11.65,0,0,0-8.58,3.61,12.12,12.12,0,0,0-3.29,8.39v.06a12.09,12.09,0,0,0,3.25,8.36,12,12,0,0,0,17.15,0,12.09,12.09,0,0,0,3.28-8.39v-.06a12,12,0,0,0-3.25-8.36A11.63,11.63,0,0,0,144.81,88"></path>
    <path class="cls-1" d="M178,88.22a1.83,1.83,0,0,0-1.83,1.83V98.2H164.5V90.05a1.83,1.83,0,0,0-1.83-1.83,1.81,1.81,0,0,0-1.79,1.83V110a1.81,1.81,0,0,0,1.79,1.83A1.83,1.83,0,0,0,164.5,110v-8.28h11.63V110a1.82,1.82,0,1,0,3.63,0V90.05a1.84,1.84,0,0,0-1.8-1.83"></path>
    <path class="cls-1" d="M200.5,108.22H188.43v-6.61h10.49a1.7,1.7,0,0,0,1.7-1.7,1.73,1.73,0,0,0-1.7-1.71H188.43V91.79h11.91a1.71,1.71,0,0,0,0-3.41H186.6a1.82,1.82,0,0,0-1.8,1.83v19.58a1.82,1.82,0,0,0,1.8,1.83h13.9a1.7,1.7,0,0,0,0-3.4"></path>
    <path class="cls-1" d="M233,88.22a1.84,1.84,0,0,0-1.8,1.83V110a1.82,1.82,0,1,0,3.63,0V90.05A1.83,1.83,0,0,0,233,88.22"></path>
    <path class="cls-1" d="M255.47,88.38H240.12a1.76,1.76,0,0,0-1.74,1.73,1.73,1.73,0,0,0,1.74,1.71H246V110a1.83,1.83,0,1,0,3.65,0V91.82h5.85a1.72,1.72,0,0,0,1.73-1.71,1.75,1.75,0,0,0-1.73-1.73"></path>
    <path class="cls-1" d="M279.09,88.22a2,2,0,0,0-1.63,1l-6.9,9.85-6.83-9.85a2,2,0,0,0-1.66-1,1.85,1.85,0,0,0-1.86,1.8,2.13,2.13,0,0,0,.37,1.15l8.12,11.38V110a1.83,1.83,0,0,0,3.66,0v-7.46l8.07-11.22,0,0a2.41,2.41,0,0,0,.44-1.22,1.81,1.81,0,0,0-1.8-1.8"></path>
    <path class="cls-2" d="M218.55,95h-5.21a1.74,1.74,0,1,0,0,3.48h5.21a4.87,4.87,0,0,1,0,9.74H208.13a1.74,1.74,0,0,0,0,3.48h10.42a8.35,8.35,0,0,0,0-16.7"></path>
    <path class="cls-2" d="M213.21,105.07h5.26a1.74,1.74,0,0,0,0-3.48h-5.26a4.87,4.87,0,0,1,0-9.74h10.08a1.74,1.74,0,1,0,0-3.48H213.21a8.35,8.35,0,0,0,0,16.7"></path>
  </g>
</svg>
