<?xml version="1.0" encoding="UTF-8"?>
<svg xmlns="http://www.w3.org/2000/svg" id="Logos" viewBox="0 0 390 200">
  <defs>
    <style>.cls-1{fill:#1d1d1b;}</style>
  </defs>
  <title>Compass logo final</title>
  <g id="Compass_Final" data-name="Compass Final">
    <path class="cls-1" d="M124.71,89c.42.06.84.11,1.25.18a10.75,10.75,0,0,1,4.74,2.1A10.16,10.16,0,0,1,132.43,93l-2.1,2.17A7.94,7.94,0,0,0,123.87,92a7.7,7.7,0,0,0-5.73,2.54,8,8,0,1,0,12.18,10.34l2.19,2.14c-.51.48-1,1-1.49,1.42a10.71,10.71,0,0,1-5.11,2.38,11.07,11.07,0,0,1-3.35.07,11,11,0,0,1-.92-21.65c.47-.1.94-.14,1.42-.21l.19,0Z"></path>
    <path class="cls-1" d="M277,104.78a11.49,11.49,0,0,1-.22,1.17,6,6,0,0,1-3.06,3.72,8.49,8.49,0,0,1-3.37,1,9.44,9.44,0,0,1-7.93-3.12,1.31,1.31,0,0,1-.23-.3l1.93-2.11c.57.51,1.05,1,1.6,1.41a6,6,0,0,0,4,1.23,5.48,5.48,0,0,0,3-1,2.91,2.91,0,0,0-.07-4.81,7.59,7.59,0,0,0-2.67-1.08,24.83,24.83,0,0,1-3.49-.9A7.15,7.15,0,0,1,264,98.45a4.61,4.61,0,0,1-1.33-2.93,5.61,5.61,0,0,1,.73-3.43,5.44,5.44,0,0,1,3.33-2.44,9,9,0,0,1,8.62,1.86c.3.26.59.55.9.83l-2.1,2c-.44-.36-.85-.72-1.3-1a6,6,0,0,0-3.61-1.15,5.15,5.15,0,0,0-2.25.48,2.43,2.43,0,0,0-.65,3.88,3.89,3.89,0,0,0,2.1,1.05,31,31,0,0,1,3.9,1,8.34,8.34,0,0,1,3.1,1.89A5.3,5.3,0,0,1,277,104c0,.07,0,.13,0,.2Z"></path>
    <path class="cls-1" d="M169.09,98.34v12h-3v-.24q0-10,0-20a.72.72,0,0,1,0-.29c.09-.21.36-.21.54,0l1,1.3,6.44,8.71,3.81,5.15.1.11.68-.91,9-12.18,1.58-2.14c.1-.13.2-.25.37-.19s.25.2.25.39q0,10.07,0,20.13v.15h-3V98.39l0,0c-.16.2-.31.41-.47.62l-8.12,10.89c-.2.26-.32.26-.52,0q-1.56-2.07-3.1-4.16l-5.37-7.2Z"></path>
    <path class="cls-1" d="M256,92.36l-2.06,2c-.6-.44-1.16-.91-1.78-1.29a5.61,5.61,0,0,0-3.15-.87,5.19,5.19,0,0,0-2.26.48,2.47,2.47,0,0,0-.39,4.13,4.86,4.86,0,0,0,2.06.85,25.27,25.27,0,0,1,3.93,1,8.52,8.52,0,0,1,2.77,1.71,5.34,5.34,0,0,1,1.63,3.29,5.6,5.6,0,0,1-.85,3.82,6.86,6.86,0,0,1-3.42,2.63,9.45,9.45,0,0,1-3.87.54,9.16,9.16,0,0,1-5.46-2.3c-.43-.37-.83-.78-1.26-1.19l2-2c.33.28.65.54,1,.82a6.34,6.34,0,0,0,4.64,1.74,5.41,5.41,0,0,0,3.16-1,2.9,2.9,0,0,0,.14-4.46A6.38,6.38,0,0,0,250,101a27.61,27.61,0,0,1-3.68-.95,7.26,7.26,0,0,1-2.63-1.66,4.57,4.57,0,0,1-1.24-2.69,5.84,5.84,0,0,1,.4-3,5.34,5.34,0,0,1,3-2.82,8.79,8.79,0,0,1,3.94-.55,9.2,9.2,0,0,1,6.12,3Z"></path>
    <path class="cls-1" d="M159.53,97.9a10.69,10.69,0,0,0-4.18-6.69,10.5,10.5,0,0,0-4.94-2.08l-.94-.13H148l-.19,0c-.48.07-1,.11-1.44.21A11,11,0,0,0,138,102.18a10.49,10.49,0,0,0,4.08,6.54,10.73,10.73,0,0,0,9.1,2,10.49,10.49,0,0,0,6.28-4A10.69,10.69,0,0,0,159.53,97.9ZM148.72,108a8,8,0,1,1,8-8A8,8,0,0,1,148.72,108Z"></path>
    <path class="cls-1" d="M214.6,94.58a6.56,6.56,0,0,0-6.47-4.94h-9.9v20.69h3v-7.41h7c.21,0,.41,0,.62,0a6.64,6.64,0,0,0,5.73-8.32Zm-5.67,5.27a4.37,4.37,0,0,1-.88.08h-6.59c-.21,0-.27-.06-.27-.27,0-2.26,0-4.51,0-6.77v-.25h6.92a3.64,3.64,0,0,1,.81,7.2Z"></path>
    <path class="cls-1" d="M238.11,110.1l-4-7.59q-3.37-6.39-6.76-12.78a.54.54,0,0,0-.3-.26c-.17,0-.26.11-.34.25l-.58,1.11L217,108.22c-.37.69-.73,1.39-1.12,2.12H219a.3.3,0,0,0,.31-.19c.86-1.65,1.73-3.29,2.59-4.93a.3.3,0,0,1,.31-.19h9.6a.31.31,0,0,1,.31.19q1.29,2.47,2.6,5a.28.28,0,0,0,.28.17h3.19A2.51,2.51,0,0,0,238.11,110.1ZM223.62,102,227,95.55l3.42,6.48Z"></path>
    <path class="cls-1" d="M146.11,104.66l-2.05-2,7.29-7.28,2,2Z"></path>
  </g>
</svg>
