<?xml version="1.0" encoding="UTF-8"?>
<svg xmlns="http://www.w3.org/2000/svg" id="Logos" viewBox="0 0 390 200">
  <defs>
    <style>.cls-1{fill:#3a0c0f;}.cls-2{fill:#ff0126;}.cls-3{fill:#a5ff01;}.cls-4{fill:#ffad01;}.cls-5{fill:#32ffec;}.cls-6{fill:#8f8f8f;}</style>
  </defs>
  <title>Coupang final</title>
  <g id="Coupang_Final" data-name="Coupang Final">
    <path class="cls-1" d="M146,79.7h-1.4a7.87,7.87,0,0,0-7.85,7.85v6a7.87,7.87,0,0,0,7.85,7.84H146a7.87,7.87,0,0,0,7.85-7.84v-6A7.87,7.87,0,0,0,146,79.7Zm3.75,14.36a3.64,3.64,0,0,1-3.63,3.63h-1.64a3.64,3.64,0,0,1-3.63-3.63v-7a3.64,3.64,0,0,1,3.63-3.63h1.64a3.65,3.65,0,0,1,3.63,3.63Z"></path>
    <path class="cls-1" d="M130.88,95.21a4.21,4.21,0,0,1-3.73,2.28h-.47a4.23,4.23,0,0,1-4.21-4.22V87.62a4.22,4.22,0,0,1,4.21-4.21h.47a4.23,4.23,0,0,1,3.7,2.2h0l3.7-1.89a7.84,7.84,0,0,0-6.83-4h-1.4a7.87,7.87,0,0,0-7.85,7.85v6a7.87,7.87,0,0,0,7.85,7.84h1.4a7.86,7.86,0,0,0,6.94-4.2Z"></path>
    <path class="cls-2" d="M188.05,79.7h-1.29a6.82,6.82,0,0,0-4.51,1.74V80H178.2v29.52h4.05V99.7a6.77,6.77,0,0,0,4.51,1.74h1.29c4,0,7.21-3.53,7.21-7.84v-6C195.26,83.23,192,79.7,188.05,79.7Zm2.77,13.79a4.15,4.15,0,0,1-.22,1.32,3.37,3.37,0,0,1-1,2,3.46,3.46,0,0,1-2.35.86h-.79a4.19,4.19,0,0,1-2.67-1,3.16,3.16,0,0,1-1.53-2.49v-6.8a4.21,4.21,0,0,1,4.2-4.21h.16a4.22,4.22,0,0,1,4.21,4.21Z"></path>
    <path class="cls-3" d="M235.88,87.44c0-4.27-3.27-7.74-7.2-7.74h-1.3a6.86,6.86,0,0,0-4.51,1.74V80h-4v20.79h4V87.44a4.22,4.22,0,0,1,4.21-4.21h.16a4.21,4.21,0,0,1,4.2,4.21v13.4l.18-.09h4.27V87.44Z"></path>
    <path class="cls-1" d="M156.78,93.4c.06,4.27,3.27,7.74,7.2,7.74h1.3a6.86,6.86,0,0,0,4.51-1.74v1.48h4.05V80.09h-4.05V93.4a4.22,4.22,0,0,1-4.21,4.21h-.16a4.21,4.21,0,0,1-4.2-4.21V80l-.18.09h-4.26V93.4Z"></path>
    <path class="cls-4" d="M214.39,87.76c0-.5-.1-1-.19-1.49-.38-2.3-1.55-4.82-3.86-5.83-3.16-1.39-6.72-.73-9.91.39h0l-.31.12h0l-.53.19,1,3.61.47-.15.66-.24a19.36,19.36,0,0,1,4.8-1,4.29,4.29,0,0,1,4.07,3.61v1h0v.26a9.06,9.06,0,0,0-5.28-1.89,7.51,7.51,0,0,0,0,15,9.5,9.5,0,0,0,4.6-1.26.46.46,0,0,1,.68.39.46.46,0,0,0,.45.46h2.9a.46.46,0,0,0,.45-.46V87.76Zm-4,7.44a4.19,4.19,0,0,1-3.42,2.64,5,5,0,0,1-.77.06,4.08,4.08,0,0,1,0-8.15A4.51,4.51,0,0,1,210,91.66a3.75,3.75,0,0,1,.63,1.66,4.07,4.07,0,0,1,0,.5A3.29,3.29,0,0,1,210.36,95.2Z"></path>
    <path class="cls-5" d="M257.76,79.83h-.08a6.83,6.83,0,0,0-4.54,1.66l-.3.26c-.23-.2-.33-.26-.67-.51l-.89-.53h0a9.28,9.28,0,0,0-4.36-1.06,9,9,0,0,0-6.34,2.42,7,7,0,0,0-2.15,4.58,7.18,7.18,0,0,0,2.4,6.11,1,1,0,0,1-.06,1.43h0A4.85,4.85,0,0,0,238.66,98v2.81h13.18a.52.52,0,0,1,.3.08,3.24,3.24,0,0,1,1.46,2c.45,2-1.67,3.56-2.36,4l1.88,3.09a11.88,11.88,0,0,0,2.7-2c1.76-1.67,1.78-4.53,1.29-6.74a6.28,6.28,0,0,0-3.93-4.18l-.27,0h-10c-.11-.3.64-1.23.84-1.42a3.26,3.26,0,0,1,1-.72,1.59,1.59,0,0,1,.78-.09c.36.07.81.09,1.17.13a10.32,10.32,0,0,0,1.1.07,7.68,7.68,0,0,0,2.72-.35l.12,0a8,8,0,0,0,4.77-6.8,7.45,7.45,0,0,0-.67-3.85,6.36,6.36,0,0,1,3-.71ZM246.93,91.21h-.07a4.91,4.91,0,0,1-.55,0l-.12,0A3.76,3.76,0,0,1,246,83.7l.14,0,.29,0h.39a3.8,3.8,0,1,1,.07,7.59Z"></path>
    <path class="cls-6" d="M192,111.73a2.2,2.2,0,0,1-2.26,1.67c-1.72,0-2.63-1.37-2.63-3.06s.89-3.1,2.64-3.1A2.11,2.11,0,0,1,192,109h-.47a1.74,1.74,0,0,0-1.82-1.3c-1.49,0-2.11,1.37-2.11,2.66s.61,2.64,2.15,2.64a1.75,1.75,0,0,0,1.77-1.24Z"></path>
    <path class="cls-6" d="M196.84,111.18a2,2,0,0,1-1.93,2.25c-1.16,0-1.88-1-1.88-2.24a2,2,0,0,1,1.92-2.25C196.09,108.94,196.84,109.83,196.84,111.18Zm-3.36,0c0,1,.55,1.84,1.46,1.84s1.45-.76,1.45-1.84-.52-1.85-1.47-1.85S193.48,110.16,193.48,111.19Z"></path>
    <path class="cls-6" d="M198.17,113.33V107h.43v6.32Z"></path>
    <path class="cls-6" d="M203.74,111.18a2,2,0,0,1-1.94,2.25c-1.15,0-1.87-1-1.87-2.24a2,2,0,0,1,1.92-2.25C203,108.94,203.74,109.83,203.74,111.18Zm-3.36,0c0,1,.55,1.84,1.46,1.84s1.45-.76,1.45-1.84-.52-1.85-1.47-1.85S200.38,110.16,200.38,111.19Z"></path>
    <path class="cls-6" d="M205.07,110.21c0-.72,0-1,0-1.17h.42c0,.14,0,.42,0,1a1.63,1.63,0,0,1,1.49-1.06v.46a1.55,1.55,0,0,0-1.49,1.7v2.23h-.43Z"></path>
    <path class="cls-6" d="M212.07,113.33v-2.25a.42.42,0,0,0,0-.14l-2.15-3.61h.54l1.91,3.24c.25-.45,1.31-2.2,1.95-3.24h.52L212.57,111a.25.25,0,0,0,0,.13v2.23Z"></path>
    <path class="cls-6" d="M218.51,111.18a2,2,0,0,1-1.94,2.25c-1.16,0-1.88-1-1.88-2.24a2,2,0,0,1,1.92-2.25C217.75,108.94,218.51,109.83,218.51,111.18Zm-3.36,0c0,1,.55,1.84,1.46,1.84s1.44-.76,1.44-1.84-.51-1.85-1.46-1.85S215.15,110.16,215.15,111.19Z"></path>
    <path class="cls-6" d="M222.92,112.08c0,.42,0,1.09,0,1.25h-.41a5.8,5.8,0,0,1,0-.74,1.31,1.31,0,0,1-1.38.84c-.61,0-1.4-.24-1.4-1.55V109h.42v2.74c0,.63.19,1.23,1,1.23s1.32-.54,1.32-1.76V109h.43Z"></path>
    <path class="cls-6" d="M224.47,110.21c0-.72,0-1,0-1.17h.42c0,.14,0,.42,0,1a1.64,1.64,0,0,1,1.49-1.06v.46a1.55,1.55,0,0,0-1.49,1.7v2.23h-.43Z"></path>
    <path class="cls-6" d="M230,107.33h2a2.71,2.71,0,0,1,2.79,3,2.78,2.78,0,0,1-2.79,3h-2Zm.46,5.57h1.45a2.58,2.58,0,0,0,0-5.14h-1.45Z"></path>
    <path class="cls-6" d="M239.19,112.52a4.49,4.49,0,0,0,.06.81h-.42a3.48,3.48,0,0,1-.07-.66,1.42,1.42,0,0,1-1.41.76,1.27,1.27,0,0,1-1.42-1.28c0-.94.73-1.37,2-1.37h.82v-.44c0-.43-.13-1-1.11-1s-1,.45-1.09.8h-.43a1.34,1.34,0,0,1,1.53-1.2c1,0,1.53.41,1.53,1.36Zm-.42-1.37h-.84c-1,0-1.55.24-1.55,1a.9.9,0,0,0,1,.91c1.22,0,1.4-.81,1.4-1.74Z"></path>
    <path class="cls-6" d="M240.71,109c.87,2.46,1.24,3.47,1.39,3.93h0c.17-.52.51-1.52,1.35-3.93h.44l-1.61,4.54c-.46,1.27-.76,1.55-1.54,1.55l-.39,0v-.43a2.48,2.48,0,0,0,.39,0c.61,0,.81-.3,1.13-1.18L240.24,109Z"></path>
    <path class="cls-6" d="M245.11,112.15a1.12,1.12,0,0,0,1.21.89c.77,0,1.08-.35,1.08-.83s-.21-.73-1.17-1-1.38-.6-1.38-1.17.44-1.14,1.41-1.14a1.36,1.36,0,0,1,1.5,1.2h-.42a1,1,0,0,0-1.09-.8c-.75,0-1,.37-1,.71s.2.59,1.05.79c1.21.3,1.51.69,1.51,1.33s-.63,1.26-1.53,1.26a1.49,1.49,0,0,1-1.65-1.28Z"></path>
  </g>
</svg>
