<?xml version="1.0" encoding="UTF-8"?>
<svg xmlns="http://www.w3.org/2000/svg" xmlns:xlink="http://www.w3.org/1999/xlink" id="Logos" viewBox="0 0 390 200">
  <defs>
    <style>.cls-1{fill:#828796;}.cls-2{fill:url(#linear-gradient);}</style>
    <linearGradient id="linear-gradient" x1="87.14" y1="123.83" x2="139.15" y2="86.6" gradientUnits="userSpaceOnUse">
      <stop offset="0" stop-color="#1ec8c3"></stop>
      <stop offset="0.99" stop-color="#23e18c"></stop>
    </linearGradient>
  </defs>
  <title>Creditas</title>
  <g id="Layer_4" data-name="Layer 4">
    <path class="cls-1" d="M178,95.44a.94.94,0,0,0-1-1,8.91,8.91,0,0,0-6.13,2.73c-1.7,1.85-2.56,4.42-2.56,7.7v9.31a1,1,0,0,0,1,1h.75a1,1,0,0,0,1-1v-9.31a8.4,8.4,0,0,1,1.8-5.79,6.22,6.22,0,0,1,4.21-2,1,1,0,0,0,1-1Z"></path>
    <path class="cls-1" d="M188.89,112.75a7.84,7.84,0,0,1-5.81-2,7.08,7.08,0,0,1-1.91-4.43h16.72A1.43,1.43,0,0,0,199,106a1.58,1.58,0,0,0,.39-1.08,10.32,10.32,0,0,0-2.75-7.64q-2.76-2.77-7.72-2.77c-3.36,0-5.84.92-7.72,2.77-3,3-2.76,7.75-2.76,7.75a10.38,10.38,0,0,0,2.75,7.68c3,3,7.7,2.75,7.71,2.75,3.31,0,5.91-.92,7.75-2.76a6.68,6.68,0,0,0,2-3.09c.32-1-.67-1-.67-1h-1.24c-.57,0-.77.38-1.06.94C194.19,112.07,191.44,112.75,188.89,112.75Zm-7.72-9.1a7.1,7.1,0,0,1,2.27-4.92,9.76,9.76,0,0,1,10.89,0,7.2,7.2,0,0,1,2.29,4.92Z"></path>
    <path class="cls-1" d="M221.71,86.56H221a1,1,0,0,0-1,1v10.4a8.07,8.07,0,0,0-3.41-2.6,12,12,0,0,0-4.39-.74c-3.29,0-5.85.91-7.68,2.75s-2.76,4.32-2.76,7.63.92,5.89,2.76,7.73,4.39,2.75,7.68,2.75,5.89-.92,7.72-2.75a10.44,10.44,0,0,0,2.75-7.64V87.61A1,1,0,0,0,221.71,86.56ZM218,110.8a9.41,9.41,0,0,1-11.6,0,8,8,0,0,1-2-5.84,7.6,7.6,0,0,1,2-5.72,9.45,9.45,0,0,1,11.6,0,7.68,7.68,0,0,1,2,5.72A8,8,0,0,1,218,110.8Z"></path>
    <path class="cls-1" d="M148.48,105a10.46,10.46,0,0,0,2.75,7.69c1.83,1.84,4.4,2.77,7.71,2.77a11,11,0,0,0,6-1.51c.77-.47.68-1,.68-1.63v-.48c0-1.25-1-.74-1.58-.43a9.34,9.34,0,0,1-5.13,1.38,7.81,7.81,0,1,1,0-15.58,9.18,9.18,0,0,1,4.41,1c.55.27,1.58.78,1.58-.38v-.57c0-.61.09-1.09-.69-1.53a10.6,10.6,0,0,0-5.3-1.17c-3.31,0-5.88.93-7.71,2.77A10.46,10.46,0,0,0,148.48,105Z"></path>
    <path class="cls-1" d="M244.88,113.7a1,1,0,0,0-1-1,6.2,6.2,0,0,1-4.21-2,8.4,8.4,0,0,1-1.79-5.79V97.4h4.41a1,1,0,0,0,1-1v-.75a1,1,0,0,0-1-1h-4.41V88.35a1,1,0,0,0-1-1h-.76a1,1,0,0,0-1,1v6.37h-1.9a1,1,0,0,0-1,1v.75a1,1,0,0,0,1,1h1.9V105q0,4.93,2.56,7.7a8.85,8.85,0,0,0,6.12,2.74,1,1,0,0,0,1-1Z"></path>
    <rect class="cls-1" x="226.69" y="86.55" width="2.68" height="4.38" rx="0.96"></rect>
    <rect class="cls-1" x="226.69" y="94.72" width="2.68" height="20.46" rx="0.96"></rect>
    <path class="cls-1" d="M261.5,100.54v2.17h-5.82c-6.73,0-9.73,1.94-9.73,6.3,0,4,3.15,6.42,8.43,6.42,6.89,0,9.8-2.06,9.8-6.89v-8a5.23,5.23,0,0,0-2-4.31,7.9,7.9,0,0,0-3.88-1.47,21,21,0,0,0-2.77-.17,21.24,21.24,0,0,0-2.66.15,7.87,7.87,0,0,0-4.1,1.49,5.2,5.2,0,0,0-2,4.31.88.88,0,0,0,.94.83h.75a.87.87,0,0,0,.94-.86A2.74,2.74,0,0,1,251,98a12.37,12.37,0,0,1,4.52-.76,11.2,11.2,0,0,1,4.42.76A2.71,2.71,0,0,1,261.5,100.54Zm0,7.92c0,3.29-2.05,4.4-7.12,4.4-3.63,0-5.77-1.21-5.77-3.8,0-2.84,2.22-4,7.16-4h5.73Z"></path>
    <path class="cls-1" d="M275.69,106c4.94,0,6.72.3,6.72,3.14,0,2.59-2.52,3.69-6.15,3.69-2.91,0-4.82-.37-5.92-1.31a2.76,2.76,0,0,1-.84-2,.88.88,0,0,0-.95-.87h-.74a.89.89,0,0,0-.95.84,5.27,5.27,0,0,0,2,4.35c1.59,1.07,4,1.57,7.39,1.57,5.28,0,8.82-2.28,8.82-6.3,0-4.35-2.65-5.69-9.38-5.69a9.82,9.82,0,0,1-4.25-.73,2.49,2.49,0,0,1-1.59-2.31,2.77,2.77,0,0,1,1.59-2.5,10.63,10.63,0,0,1,4.25-.68,11.57,11.57,0,0,1,4.36.71,2.77,2.77,0,0,1,1.59,2.1.87.87,0,0,0,1,.8h.74a.83.83,0,0,0,.92-.84,4.9,4.9,0,0,0-2-3.73,8,8,0,0,0-3.94-1.49,19.5,19.5,0,0,0-2.66-.15,18.86,18.86,0,0,0-2.61.17,8.24,8.24,0,0,0-3.87,1.47,5.16,5.16,0,0,0,0,8.2S270.94,106,275.69,106Z"></path>
    <path class="cls-2" d="M105.93,85.94a19,19,0,1,0,7.56,36.48,19,19,0,0,0,25.45-10.89,2.3,2.3,0,0,0-.18-2.08,2.68,2.68,0,0,0-2.19-1.07H124.15c-2.07,0-2.92,2.39-2.92,2.39a16.37,16.37,0,0,1-7.74,8.68,16.33,16.33,0,0,1,0-29,16.37,16.37,0,0,1,7.74,8.68s.85,2.39,2.92,2.39h12.42a2.68,2.68,0,0,0,2.19-1.07,2.3,2.3,0,0,0,.18-2.08,19,19,0,0,0-25.45-10.89A18.64,18.64,0,0,0,105.93,85.94Zm15.14,2.68a16.41,16.41,0,0,1,15.18,10.26H124.87c-.89,0-1.37-1.24-1.37-1.24a19,19,0,0,0-6.88-8.4A16.32,16.32,0,0,1,121.07,88.62Zm-15.14,32.7a16.35,16.35,0,1,1,0-32.7,16,16,0,0,1,4.44.62,19,19,0,0,0,0,31.46A16,16,0,0,1,105.93,121.32Zm15.14,0a16.32,16.32,0,0,1-4.45-.62,19,19,0,0,0,6.88-8.4s.48-1.24,1.37-1.24h11.38A16.41,16.41,0,0,1,121.07,121.32Z"></path>
  </g>
</svg>
