<?xml version="1.0" encoding="UTF-8"?>
<svg xmlns="http://www.w3.org/2000/svg" xmlns:xlink="http://www.w3.org/1999/xlink" id="Logos" viewBox="0 0 390 200">
  <defs>
    <style>.cls-1{fill:none;}.cls-2{fill:#fbcbc2;}.cls-3{clip-path:url(#clip-path);}.cls-4{fill:#f15f46;}.cls-5{fill:#f7a294;}.cls-6{fill:#f47f6b;}</style>
    <clipPath id="clip-path">
      <rect class="cls-1" x="125" y="86" width="139.63" height="55.38"></rect>
    </clipPath>
  </defs>
  <title>Cruise</title>
  <path class="cls-2" d="M182.62,141.38c-.14-.16-.35-.06-.52-.12a2.29,2.29,0,0,1-1.66-2.42,2.33,2.33,0,0,1,2.37-2.15h18.61a2.33,2.33,0,0,1,.58,4.57c-.17.05-.37,0-.52.12Z"></path>
  <path class="cls-2" d="M176,141.38a6.41,6.41,0,0,1-1-.36,2.33,2.33,0,0,1,1.09-4.33,2.32,2.32,0,0,1,.45,4.61.48.48,0,0,0-.16.08Z"></path>
  <path class="cls-2" d="M208,141.38a7.11,7.11,0,0,1-1-.34,2.33,2.33,0,0,1,1.32-4.35,2.29,2.29,0,0,1,2.12,1.85,2.26,2.26,0,0,1-1.94,2.76.79.79,0,0,0-.16.08Z"></path>
  <g class="cls-3">
    <path class="cls-2" d="M214.09,141.38c-.3-.13-.63-.16-.94-.31a2.34,2.34,0,0,1,1.57-4.35,2.41,2.41,0,0,1,1.87,2.44,2.34,2.34,0,0,1-2,2.14.55.55,0,0,0-.15.08Z"></path>
    <path class="cls-4" d="M208.86,88a1.48,1.48,0,0,0-1.58-1.58h-.87a1.51,1.51,0,0,0-1.74,1.74v16.88c0,2.56,0,5.12,0,7.68a1.5,1.5,0,0,0,1.62,1.64h.88a1.51,1.51,0,0,0,1.69-1.7V88ZM155,109.71c0,1,0,2,0,3a1.55,1.55,0,0,0,1.65,1.64h.79a1.63,1.63,0,0,0,1.8-1.83V100.92a12.6,12.6,0,0,1,.08-1.74,9.93,9.93,0,0,1,3.09-6.06,9.11,9.11,0,0,1,6.32-2.56,1.45,1.45,0,0,0,1.59-1.29,4.21,4.21,0,0,0,.09-1.5,1.67,1.67,0,0,0-1.75-1.59,13.09,13.09,0,0,0-3.18.42A14.25,14.25,0,0,0,155,100.24v9.47Zm18-9.43a14.24,14.24,0,0,0,4.5,10.75,12.87,12.87,0,0,0,11.68,3.53,14,14,0,0,0,11.32-13.49c.11-3,0-6,0-9,0-1.35,0-2.7,0-4a1.54,1.54,0,0,0-1.62-1.62h-.87a1.56,1.56,0,0,0-1.74,1.73v12.19a10.64,10.64,0,0,1-1.18,4.91,9.49,9.49,0,0,1-9.16,5.13,9.75,9.75,0,0,1-8.69-9.15c-.09-1.29,0-2.58,0-3.87V88.08a1.57,1.57,0,0,0-1.69-1.69h-.79A1.55,1.55,0,0,0,173,88.14q0,3.28,0,6.58c0,1.85,0,3.71,0,5.56ZM229.2,113.6a10,10,0,0,0,5.18-4.92,6.61,6.61,0,0,0-1.46-7.76,10.23,10.23,0,0,0-4.32-2.24c-2.1-.6-4.27-.8-6.39-1.29a10.61,10.61,0,0,1-3.42-1.14,2.59,2.59,0,0,1-.47-4.32,7.21,7.21,0,0,1,6.92-1.85,10,10,0,0,1,4.37,2.35,1.94,1.94,0,0,0,1.16.59,2.74,2.74,0,0,0,2.37-1.55c.3-.73.07-1.4-.75-2.13a12.86,12.86,0,0,0-15-1.66,9.48,9.48,0,0,0-3.36,2.87c-1.74,2.56-1.43,8,3.21,9.7a41,41,0,0,0,7.8,1.84,11.59,11.59,0,0,1,3.66,1c2.29,1.18,2.64,3.34.85,5.19a8.31,8.31,0,0,1-9,1.55,17.37,17.37,0,0,1-3.88-2.77,2.27,2.27,0,0,0-.84-.55,2.64,2.64,0,0,0-2.52,1.17,1.59,1.59,0,0,0,.26,2.17,12.82,12.82,0,0,0,9.92,4.93,13.4,13.4,0,0,0,5.71-1.19ZM125.33,103.48a14.31,14.31,0,0,0,16.24,11.11A14,14,0,0,0,152,107.22a1.76,1.76,0,0,0-.41-2.25,3.71,3.71,0,0,0-1.57-.82,1.39,1.39,0,0,0-1.75.73l-.2.36a10,10,0,0,1-18.47-6.89,9.44,9.44,0,0,1,7.22-7.6,9.73,9.73,0,0,1,10,3A13.66,13.66,0,0,1,148.39,96c.23.35.49.7,1,.72a3,3,0,0,0,2.59-1.23,1.9,1.9,0,0,0-.12-2.27A14.37,14.37,0,0,0,125,100.56a13,13,0,0,0,.33,2.92Zm112-3a14.24,14.24,0,0,1,12.46-14.37c6-.72,10.71,1.59,14.08,6.6.78,1.15.57,2-.58,2.7l-10.78,7a1.73,1.73,0,0,1-2.7-.46c-1.11-1.43-1-2.2.52-3.19q4-2.62,8-5.21c.34-.22.37-.34.05-.61a9.77,9.77,0,0,0-9.86-2A9.45,9.45,0,0,0,242,98.4a9.85,9.85,0,0,0,8.43,11.85c4.21.49,7.45-1.22,9.83-4.66.22-.33.43-.67.67-1a1.31,1.31,0,0,1,1.39-.49,3.57,3.57,0,0,1,1.8,1,1.76,1.76,0,0,1,.2,2.28,14.4,14.4,0,0,1-26.77-4.58,12.25,12.25,0,0,1-.18-2.28Z"></path>
  </g>
  <path class="cls-5" d="M208.79,127.48c2.4,0,4.79,0,7.18,0a2.34,2.34,0,0,1-.14,4.68c-4.68,0-9.35,0-14,0a2.38,2.38,0,0,1-2.36-2.39,2.3,2.3,0,0,1,2.36-2.3c2.33,0,4.66,0,7,0Z"></path>
  <path class="cls-5" d="M180.22,127.48c1.58,0,3.15,0,4.73,0a2.33,2.33,0,0,1,2.27,2.17,2.36,2.36,0,0,1-1.92,2.45,4.47,4.47,0,0,1-.82.07h-8.83a2.39,2.39,0,0,1-2.45-1.87,2.3,2.3,0,0,1,2.14-2.82c1.63,0,3.25,0,4.88,0Z"></path>
  <path class="cls-6" d="M198.85,123.8c-1.5,0-3,0-4.51,0a2.39,2.39,0,0,1-2.41-2.14,2.35,2.35,0,0,1,2.24-2.53q4.72,0,9.43,0a2.33,2.33,0,0,1-.06,4.66c-1.56,0-3.13,0-4.69,0Z"></path>
  <path class="cls-5" d="M164.67,132.18a21.62,21.62,0,0,1-2.79-.09,2.33,2.33,0,0,1,.31-4.61c1.66,0,3.31,0,5,0a2.36,2.36,0,0,1,2.21,2.24,2.39,2.39,0,0,1-1.85,2.37,22.4,22.4,0,0,1-2.84.09Z"></path>
  <path class="cls-6" d="M212.57,123.8c-.72,0-1.44,0-2.16,0a2.34,2.34,0,1,1,0-4.68h4.41a2.34,2.34,0,1,1,.06,4.68c-.78,0-1.56,0-2.35,0Z"></path>
  <path class="cls-6" d="M151.64,119.12h2.25a2.37,2.37,0,0,1,2.4,2.29,2.34,2.34,0,0,1-2.31,2.38c-1.56,0-3.12,0-4.69,0a2.34,2.34,0,1,1,.09-4.67Z"></path>
  <path class="cls-6" d="M163,119.12h2.3a2.35,2.35,0,0,1,2.37,2.22,2.3,2.3,0,0,1-2.22,2.44c-1.62,0-3.25,0-4.87,0a2.31,2.31,0,0,1-2.21-2.5,2.37,2.37,0,0,1,2.37-2.16Z"></path>
  <path class="cls-5" d="M195.69,129.83a2.35,2.35,0,1,1-4.7-.05,2.35,2.35,0,0,1,4.7.05Z"></path>
  <path class="cls-5" d="M222.7,127.47a2.31,2.31,0,0,1,2.34,2.32,2.35,2.35,0,1,1-4.7,0,2.3,2.3,0,0,1,2.36-2.31Z"></path>
  <path class="cls-5" d="M235.26,129.78a2.35,2.35,0,1,1-4.7.05,2.29,2.29,0,0,1,2.35-2.36,2.32,2.32,0,0,1,2.35,2.31Z"></path>
  <path class="cls-6" d="M243.43,121.46a2.32,2.32,0,0,1,2.33-2.34,2.34,2.34,0,1,1,0,4.68,2.33,2.33,0,0,1-2.33-2.34Z"></path>
  <path class="cls-6" d="M141.67,121.46a2.32,2.32,0,0,1-2.32,2.34,2.34,2.34,0,1,1,0-4.68,2.32,2.32,0,0,1,2.33,2.34Z"></path>
  <path class="cls-6" d="M176,121.48a2.31,2.31,0,0,1-2.34,2.32,2.34,2.34,0,1,1,0-4.68,2.3,2.3,0,0,1,2.31,2.36Z"></path>
  <path class="cls-6" d="M225.7,121.46a2.31,2.31,0,0,1-2.32,2.34,2.34,2.34,0,1,1,0-4.68,2.29,2.29,0,0,1,2.32,2.34Z"></path>
  <path class="cls-6" d="M233.23,121.44a2.34,2.34,0,1,1,2.32,2.36,2.36,2.36,0,0,1-2.32-2.36Z"></path>
  <path class="cls-6" d="M254.79,121.49a2.33,2.33,0,1,1-2.3-2.37,2.33,2.33,0,0,1,2.3,2.37Z"></path>
  <path class="cls-6" d="M185.78,119.12a2.34,2.34,0,1,1,0,4.68,2.34,2.34,0,0,1,0-4.68Z"></path>
</svg>
