<?xml version="1.0" encoding="UTF-8"?>
<svg xmlns="http://www.w3.org/2000/svg" id="Logos" viewBox="0 0 390 200">
  <defs>
    <style>.cls-1{fill:#ee4137;}.cls-2{fill:#221f1f;}</style>
  </defs>
  <title>Delhivery</title>
  <path class="cls-1" d="M108.25,135a5.46,5.46,0,0,1-4.25-1.54l1.47-1.47a3.79,3.79,0,0,0,2.81,1c1.34,0,2.06-.5,2.06-1.43a1.3,1.3,0,0,0-.36-1,1.68,1.68,0,0,0-1-.41l-1.4-.2a4,4,0,0,1-2.26-1,3.11,3.11,0,0,1-.83-2.29c0-2.07,1.53-3.53,4.05-3.53a5,5,0,0,1,3.76,1.36L110.83,126a3.26,3.26,0,0,0-2.39-.8c-1.21,0-1.79.67-1.79,1.47a1.1,1.1,0,0,0,.34.83,2,2,0,0,0,1.08.46l1.37.2a3.85,3.85,0,0,1,2.22.89,3.27,3.27,0,0,1,.9,2.47C112.56,133.73,110.68,135,108.25,135Z"></path>
  <path class="cls-1" d="M124.44,134.9v-5.14a1.42,1.42,0,1,0-2.83,0v5.19h-2.12v-5.14a1.42,1.42,0,1,0-2.83,0v5.14h-2.12v-8.51h2.07v.78a3,3,0,0,1,2.13-.88,2.65,2.65,0,0,1,2.25,1.08,3.26,3.26,0,0,1,2.55-1.08,3,3,0,0,1,2.09.75,3.21,3.21,0,0,1,.93,2.42v5.44Z"></path>
  <path class="cls-1" d="M133.21,134.9v-.73a2.58,2.58,0,0,1-2.09.81,2.88,2.88,0,0,1-2.17-.75,2.71,2.71,0,0,1-.71-1.91c0-1.36.93-2.47,2.91-2.47h2v-.42c0-.93-.46-1.34-1.58-1.34a1.85,1.85,0,0,0-1.64.7l-1.35-1.32a3.56,3.56,0,0,1,3.07-1.18c2.38,0,3.63,1,3.63,3v5.6Zm-.05-3.59h-1.68c-.77,0-1.19.36-1.19,1s.39,1,1.22,1a1.67,1.67,0,0,0,1.34-.41,1.37,1.37,0,0,0,.31-1.07Z"></path>
  <path class="cls-1" d="M140,134.9a2.31,2.31,0,0,1-2.48-2.43v-9.2h2.12v9.07a.66.66,0,0,0,.76.76h.81v1.8Z"></path>
  <path class="cls-1" d="M145.28,134.9a2.31,2.31,0,0,1-2.48-2.43v-9.2h2.12v9.07a.66.66,0,0,0,.76.76h.81v1.8Z"></path>
  <path class="cls-1" d="M162.06,134.9h-1.89L158,127.84l-2.14,7.06H154l-3.1-11.63h2.37l1.79,7.34,2.13-7.34h1.7l2.12,7.34,1.81-7.34h2.37Z"></path>
  <path class="cls-1" d="M171.7,134a3.84,3.84,0,0,1-5.28,0,6.17,6.17,0,0,1,0-6.61,3.84,3.84,0,0,1,5.28,0c.77.8,1,1.76,1,3.3S172.47,133.15,171.7,134Zm-1.65-5.37a1.33,1.33,0,0,0-1-.38,1.3,1.3,0,0,0-1,.38,4.6,4.6,0,0,0,0,4.13,1.3,1.3,0,0,0,1,.38,1.33,1.33,0,0,0,1-.38,4.6,4.6,0,0,0,0-4.13Z"></path>
  <path class="cls-1" d="M179.31,128.71a1.39,1.39,0,0,0-1.12-.51,1.42,1.42,0,0,0-1.38,1.57v5.13h-2.12v-8.51h2.07v.82a2.9,2.9,0,0,1,2.14-.92,2.54,2.54,0,0,1,2,.8Z"></path>
  <path class="cls-1" d="M184.52,134.9a2.31,2.31,0,0,1-2.48-2.43v-9.2h2.12v9.07a.66.66,0,0,0,.76.76h.81v1.8Z"></path>
  <path class="cls-1" d="M192.14,134.9v-.8a2.57,2.57,0,0,1-2.11.9,3,3,0,0,1-2.09-.77c-.85-.85-.87-2.32-.87-3.59s0-2.73.87-3.58a3,3,0,0,1,2.07-.77,2.56,2.56,0,0,1,2.08.85v-3.87h2.12V134.9Zm-1.51-6.7c-1.27,0-1.43,1.05-1.43,2.44s.16,2.45,1.43,2.45,1.46-1.06,1.46-2.45S191.91,128.2,190.63,128.2Z"></path>
  <polygon class="cls-2" points="280.47 85.36 274.07 85.36 274.07 96.25 271.48 99.4 268.88 96.25 268.88 85.36 262.48 85.36 262.48 98.56 268.28 105.57 268.28 113.08 274.67 113.08 274.67 105.57 280.47 98.56 280.47 85.36"></polygon>
  <rect class="cls-2" x="189.65" y="85.51" width="6.39" height="27.63"></rect>
  <polygon class="cls-2" points="250.54 112.97 244.14 112.97 244.14 88.55 247.34 85.35 259.24 85.35 259.24 91.75 250.54 91.75 250.54 112.97"></polygon>
  <polygon class="cls-2" points="229.9 106.7 229.9 102.52 236.91 102.52 236.91 96.13 229.9 96.13 229.9 91.76 232.38 91.75 239.8 91.78 239.82 85.38 232.39 85.35 226.68 85.38 223.5 88.58 223.5 109.89 226.7 113.09 232.36 113.09 239.8 113.12 239.82 106.73 232.37 106.7 229.9 106.7"></polygon>
  <polygon class="cls-2" points="212.22 102.91 209.62 106.05 207.02 102.91 207.02 85.5 200.63 85.5 200.63 105.2 207.13 113.08 212.11 113.08 218.61 105.2 218.61 85.5 212.22 85.5 212.22 102.91"></polygon>
  <path class="cls-2" d="M115.67,85.44l-4.25,0H105v27.72h3.18l7.44,0,5.71,0,3.18-3.2V88.64l-3.2-3.2Zm2.47,21.33-2.48,0-4.24,0v-15l4.24,0h2.48Z"></path>
  <polygon class="cls-2" points="137.52 91.75 144.94 91.78 144.97 85.38 137.53 85.35 131.82 85.38 128.64 88.58 128.64 109.89 131.84 113.09 137.5 113.09 144.94 113.12 144.97 106.73 137.52 106.7 135.04 106.7 135.04 102.52 142.05 102.52 142.05 96.13 135.04 96.13 135.04 91.76 137.52 91.75"></polygon>
  <polygon class="cls-2" points="154.97 85.44 148.58 85.44 148.58 109.93 151.78 113.12 163.67 113.12 163.67 106.73 154.97 106.73 154.97 85.44"></polygon>
  <polygon class="cls-2" points="178.93 85.5 178.93 96.13 173.19 96.13 173.19 85.44 166.8 85.44 166.8 113.14 173.19 113.14 173.19 102.52 178.93 102.52 178.93 113.14 185.33 113.14 185.33 85.5 178.93 85.5"></polygon>
  <rect class="cls-1" x="105.04" y="106.77" width="6.37" height="6.37"></rect>
  <rect class="cls-1" x="274.09" y="85.36" width="6.37" height="6.37"></rect>
</svg>
