<?xml version="1.0" encoding="UTF-8"?>
<svg xmlns="http://www.w3.org/2000/svg" id="Logos" viewBox="0 0 390 200">
  <defs>
    <style>.cls-1{fill:#17223b;}.cls-2{fill:#e33b2c;}</style>
  </defs>
  <title>Fanatics Logo Final</title>
  <g id="Fanatics_Final" data-name="Fanatics Final">
    <path class="cls-1" d="M203.26,97.16c4.28,0,7.15,3.3,7.15,8.22v9.13a.24.24,0,0,1-.24.24H206a.23.23,0,0,1-.23-.24v-9.1c0-1.91-.93-4-3.53-4h-.09a3.86,3.86,0,0,0-3.67,3.84v9.21a.23.23,0,0,1-.23.24h-4.16a.23.23,0,0,1-.23-.24V97.62a.23.23,0,0,1,.23-.23h4a.23.23,0,0,1,.23.23v1.51a7.17,7.17,0,0,1,4.93-2M267,111.69a.24.24,0,0,0,0,.31,9.82,9.82,0,0,0,7.53,2.82c3.3,0,5.77-1.26,6.78-3.46a5.08,5.08,0,0,0,.46-2.16c0-4.45-3.84-5.27-7.19-5.48-2.67-.17-2.67-1.11-2.67-1.42,0-1.13,1.81-1.25,2.58-1.25a5.11,5.11,0,0,1,3.56,1.18.23.23,0,0,0,.33,0l2.37-2.75a.24.24,0,0,0,0-.34,9,9,0,0,0-6.29-2.05,9.36,9.36,0,0,0-4.66,1.17,4.68,4.68,0,0,0-2.46,4.19c0,3.1,2.48,5,7,5.33,2.54.14,2.86.88,2.86,1.51,0,.93-1.22,1.41-2.44,1.41h-.1a7.73,7.73,0,0,1-5.1-2,.23.23,0,0,0-.35,0ZM225,108.84a4.77,4.77,0,0,0,1-3.13,4.47,4.47,0,1,0-4.52,4.6,4.77,4.77,0,0,0,3.51-1.47m.9-11.25a.24.24,0,0,1,.24-.24h4.15a.23.23,0,0,1,.23.24v16.92a.23.23,0,0,1-.23.24h-4.15a.24.24,0,0,1-.24-.24v-1.27c-1.46,1.34-3.16,1.37-4.69,1.4h-.26a8.49,8.49,0,0,1-6.1-2.26,9,9,0,0,1-2.43-6.61c0-5.31,3.39-8.74,8.63-8.74h.08a7.43,7.43,0,0,1,4.77,1.27Zm-51.54-4.43V89.09a.3.3,0,0,0-.3-.3H159a.3.3,0,0,0-.3.3v25.36a.3.3,0,0,0,.3.3H163a.3.3,0,0,0,.29-.3V104.1a.31.31,0,0,1,.3-.3h7.59a.3.3,0,0,0,.3-.29V99.44a.31.31,0,0,0-.3-.3h-7.59a.3.3,0,0,1-.3-.29v-5.1a.31.31,0,0,1,.3-.3H174a.29.29,0,0,0,.3-.29M263,109.32a.23.23,0,0,0-.32,0,4.58,4.58,0,0,1-2.85,1,4.45,4.45,0,0,1,0-8.89,4.58,4.58,0,0,1,2.85,1.05.24.24,0,0,0,.32,0l2.69-2.83a.25.25,0,0,0,0-.34A8,8,0,0,0,259.8,97c-5.44,0-9,3.5-9,8.91s3.51,8.92,9,8.92a8,8,0,0,0,5.91-2.33.25.25,0,0,0,0-.34Zm-21.65,5.43a.24.24,0,0,0,.24-.24v-3.79a.23.23,0,0,0-.23-.23c-.43,0-1.78,0-2.06,0-1.21,0-1.75-.64-1.75-1.93v-6.47h3.81a.23.23,0,0,0,.24-.23V97.63a.24.24,0,0,0-.24-.24H237.6V93.71a.23.23,0,0,0-.23-.23h-4.2a.23.23,0,0,0-.23.23v14.83c0,3.94,2.22,6.21,6.12,6.21h2.32Zm-55.55-5.91a4.77,4.77,0,0,0,1-3.13,4.47,4.47,0,1,0-4.53,4.6,4.81,4.81,0,0,0,3.52-1.47m.89-11.25a.25.25,0,0,1,.24-.24h4.15a.24.24,0,0,1,.24.24v16.92a.24.24,0,0,1-.24.24H187a.24.24,0,0,1-.24-.24v-1.27c-1.46,1.34-3.16,1.37-4.68,1.4h-.26a8.49,8.49,0,0,1-6.11-2.26,9,9,0,0,1-2.43-6.61c0-5.31,3.39-8.74,8.63-8.74H182a7.4,7.4,0,0,1,4.77,1.27Zm57.43,17.16h4.19a.23.23,0,0,0,.23-.24V97.59a.23.23,0,0,0-.23-.24h-4.19a.24.24,0,0,0-.24.24v16.92a.24.24,0,0,0,.24.24m4.71-22.54c0-3.41-5.16-3.41-5.16,0s5.16,3.41,5.16,0"></path>
    <path class="cls-2" d="M151.63,83.91l-4.35,6.74a.31.31,0,0,1-.41.13c-10-5-21.59,4.23-31.8,2a.34.34,0,0,1-.23-.15l-6.58-10.13a.46.46,0,0,1,.47-.7,57.34,57.34,0,0,0,7.71,1.27c15.48.84,23.87-8.45,35.1.35A.37.37,0,0,1,151.63,83.91Zm-43-2.09-.47.7.47-.7M139,103.25a.18.18,0,0,0,.22-.07L144.47,95a.17.17,0,0,0-.11-.26c-7.6-2.63-14.72,2.41-25.57,2.69a.45.45,0,0,0-.38.68l11.73,18.09a.27.27,0,0,0,.52-.16l-2.52-11.46a.19.19,0,0,1,.14-.22c.91-.34,7.55-2.59,10.69-1.13Z"></path>
  </g>
</svg>
