<?xml version="1.0" encoding="UTF-8"?>
<svg xmlns="http://www.w3.org/2000/svg" id="Logos" viewBox="0 0 390 200">
  <defs>
    <style>.cls-1{fill:#324354;}.cls-2{fill:#fa5959;}</style>
  </defs>
  <title>flexport</title>
  <path class="cls-1" d="M123.63,105.7V80.26h8.29v24.39c0,1.72.38,2.13,2.13,2.13h.72l1,6.73c-.62.09-3.19.27-4.74.27C126.43,113.78,123.63,112.19,123.63,105.7Z"></path>
  <path class="cls-1" d="M187.16,90.16l6.45-.51.63,1.93c1.3-1.22,3.56-2.43,8.42-2.43,8.38,0,10.31,5.9,10.31,12.48s-2.14,12.44-10.81,12.44c-3.86,0-5.66-.88-6.71-1.84v8.38h-8.29ZM204.55,102c0-2.81-.51-5.28-4.11-5.28-3.85,0-5,2-5,5.28s.83,5.11,5,5.11C204,107.08,204.55,104.77,204.55,102Z"></path>
  <path class="cls-1" d="M242.56,90.16l6.45-.51.84,2.52c1-1.43,3.94-2.64,7.37-2.77v8c-5.53.05-6.37,1.7-6.37,5V113.7h-8.29Z"></path>
  <path class="cls-1" d="M259.53,89.41h4.28l1.34-4.87,6.41-1.38v6.26h5.24v8h-5.24v6.92c0,1.63.25,2.47,2.85,2.47h2.38v6.91c-1.25.08-2.64.12-4.19.12-7,0-9.3-2.22-9.3-8.25V97.39h-3.77v-8Z"></path>
  <rect class="cls-2" x="279.09" y="106.78" width="6.91" height="6.91"></rect>
  <path class="cls-1" d="M103.13,89.69h4.52v-.46c0-6,2.27-9,10.06-9a31.12,31.12,0,0,1,3.43.13v6.74h-2.3c-2.39,0-2.89.59-2.89,2.14v.5h5.19v7H116v17h-8.3v-17h-4.52Z"></path>
  <path class="cls-1" d="M153.8,106.53c-1.37.81-2.08,1-4.82,1-3.24,0-4.49-1.16-4.91-3.11h16c.29-8.46-.42-15.29-11-15.29S136.08,95,136.08,101.53c0,6.71,2.25,12.61,12.91,12.61a16,16,0,0,0,9.66-2.61ZM148.74,96c3.41,0,3.66,1.63,3.78,3.58H144C144.32,97.24,145.41,96,148.74,96Z"></path>
  <polygon class="cls-1" points="176.47 113.71 172.4 107.89 168.33 113.71 159.06 113.71 167.74 101.34 159.85 90.17 169.23 90.16 172.44 94.72 175.65 90.16 185.13 90.17 177.09 101.28 185.8 113.71 176.47 113.71"></polygon>
  <path class="cls-1" d="M214.68,101.63c0-8,3.65-12.48,13-12.48s13,4.52,13,12.48-3.61,12.53-13,12.53S214.68,109.59,214.68,101.63Zm17.68.25c0-3-.75-5.19-4.65-5.19s-4.65,2.18-4.65,5.19.75,5.2,4.65,5.2S232.36,104.86,232.36,101.88Z"></path>
</svg>
