<?xml version="1.0" encoding="UTF-8"?>
<svg xmlns="http://www.w3.org/2000/svg" id="Logos" viewBox="0 0 390 200">
  <defs>
    <style>.cls-1{fill-rule:evenodd;}.cls-2{fill:#d31317;}.cls-3{fill:#1d1d1b;}</style>
  </defs>
  <title>Full truck alliance logo final</title>
  <g id="Full_Truck_Alliance_Final" data-name="Full Truck Alliance Final">
    <path class="cls-1" d="M202.16,90.51l2.4,2.39h0l-2.4,2.4h0l-2.39-2.4h0l2.39-2.39ZM225.41,104c0,.82-.35,1.52-1.27,1.52h-5.43l1.53-2.69h2.47v-2.61L220,98.34l-4.55,1.75-4.24-1.8-2.8,1.74c0,1.83,0,3.66,0,5.48h-2.69l0-16.35h4.19V87.85h-4.18V85.16h4.05V84h-4.05c0-.9,0-1.8,0-2.69h4.05V79.83h2.69v1.48h6.29V79.83h2.7v1.48h9.76V79.83h2.69v1.48h6.92V84H233.8v1.16h6.92v2.69H233.8v1.31h6.92v2.69h-7.09L228.47,96h9.65V93.59h2.69V96h10.61v7.68a1.28,1.28,0,0,1-1.3,1.37h-5.75l1.5-2.7h2.85V98.65h-7.91v6.84h-2.69V98.65h-7.95v6.49H227.5q0-4.38,0-8.76H225.4q0,3.8,0,7.58Zm0-9,3.92-3.12h-3.92V95Zm5.72-5.81V87.85h-9.78v1.31h9.78Zm0-4V84h-9.76v1.16ZM208.35,97l1.48-.86V91.85h-1.48V97Zm4.13-9.15v1.31h6.21V87.85Zm0,4v4.26l2.93,1.21,3.28-1.22V91.85Zm8.86,0v4.31l1.37.9c0-1.77,0-3.52,0-5.21ZM202.16,80.38l2.4,2.4h0l-2.4,2.39h0l-2.39-2.39h0l2.39-2.4ZM244.54,95h-2.69l0-13.94h9.6l0,12.63h-5.93V91h3.24V88.76h-3.23V86.07h3.23V83.72h-4.23c0,3.75,0,7.49,0,11.25Zm-32.16-9.81h6.28V84h-6.28v1.16ZM202.16,101l2.4,2.39h0l-2.4,2.4h0l-2.39-2.4h0l2.39-2.39Z"></path>
    <path class="cls-2" d="M146.27,102.11a9.67,9.67,0,0,1-1.15-.38,11,11,0,0,1-1.34-.65A10.48,10.48,0,0,1,146.07,82c0-.22-.1-.45-.14-.67a10.47,10.47,0,0,1,18.87-7.85,11.13,11.13,0,0,1,.77,1.28h0q6.17,10.7,12.35,21.37h-6.26q-5.4-9.36-10.81-18.73h0a5.07,5.07,0,0,0-5.9-2.74,5.09,5.09,0,0,0-1.78.87,5.43,5.43,0,0,0-1.82,5.59,11.5,11.5,0,0,0,2.23,4.83l.57.72-.91-.13a11.43,11.43,0,0,0-5.3.48c-2.76,1-4.59,3.37-3.79,6.35a5,5,0,0,0,.87,1.77,5.06,5.06,0,0,0,3.58,2l.6,0-1.87,3.24-1,1.81Z"></path>
    <path class="cls-2" d="M181.6,103.43a10.47,10.47,0,0,1-16.85,10.7l-.51-.45c-.16.15-.33.31-.51.45a10.47,10.47,0,0,1-16.76-11,10.06,10.06,0,0,1,.53-1.38,9.84,9.84,0,0,1,.72-1.31L160.56,79l3.13,5.41-10.83,18.74h0c-.16.25-.29.48-.41.71a5.22,5.22,0,0,0-.28.74,5.12,5.12,0,0,0,.17,3.39,5,5,0,0,0,1.1,1.64,5,5,0,0,0,3.57,1.48,6,6,0,0,0,3.82-1.59,11.42,11.42,0,0,0,3.07-4.34l.34-.86.34.86a11.53,11.53,0,0,0,3.07,4.34,6,6,0,0,0,3.82,1.59,4.92,4.92,0,0,0,1.93-.38,5.11,5.11,0,0,0,2.74-2.74,5,5,0,0,0-.37-4.6Z"></path>
    <path class="cls-2" d="M157.67,97.05h21.64c.28,0,.54,0,.82,0a5.11,5.11,0,0,0,3.64-2,5,5,0,0,0,.87-1.77,5.08,5.08,0,0,0-.5-3.84,6,6,0,0,0-3.3-2.51,11.51,11.51,0,0,0-5.29-.48l-.91.13.57-.72a11.44,11.44,0,0,0,2.23-4.83,5.44,5.44,0,0,0-1.83-5.59,5.13,5.13,0,0,0-1.77-.87,5.07,5.07,0,0,0-5.46,2c-.11.17-.21.33-.31.51L165.15,72a10.48,10.48,0,0,1,17.7,9.24c0,.23-.09.45-.14.67l.65.22a10.48,10.48,0,0,1-1.18,20,9.88,9.88,0,0,1-1.46.23,11.51,11.51,0,0,1-1.47,0H154.54l3.13-5.42Z"></path>
    <path class="cls-3" d="M150.94,130.87v-8h5.36v.94H152v2.46h3.73v.94H152v3.61Z"></path>
    <path class="cls-3" d="M161.32,130.87V130a2.12,2.12,0,0,1-1.83,1,2.31,2.31,0,0,1-1-.2,1.63,1.63,0,0,1-.66-.49,1.82,1.82,0,0,1-.3-.72,5,5,0,0,1-.06-.91v-3.57h1v3.2a5.75,5.75,0,0,0,.06,1,1,1,0,0,0,.39.6,1.18,1.18,0,0,0,.74.22,1.61,1.61,0,0,0,.82-.23,1.25,1.25,0,0,0,.55-.61,3.2,3.2,0,0,0,.16-1.12v-3.09h1v5.76Z"></path>
    <path class="cls-3" d="M163.7,130.87v-8h1v8Z"></path>
    <path class="cls-3" d="M166.17,130.87v-8h1v8Z"></path>
    <path class="cls-3" d="M173.69,130.87v-7h-2.62v-.94h6.3v.94h-2.63v7Z"></path>
    <path class="cls-3" d="M177.9,130.87v-5.76h.88V126a2.37,2.37,0,0,1,.62-.8,1.1,1.1,0,0,1,.63-.2,1.9,1.9,0,0,1,1,.32l-.34.9A1.38,1.38,0,0,0,180,126a.92.92,0,0,0-.58.19,1,1,0,0,0-.36.54,3.7,3.7,0,0,0-.16,1.14v3Z"></path>
    <path class="cls-3" d="M185.38,130.87V130a2.09,2.09,0,0,1-1.82,1,2.39,2.39,0,0,1-1-.2,1.53,1.53,0,0,1-.65-.49,1.82,1.82,0,0,1-.3-.72,5,5,0,0,1-.06-.91v-3.57h1v3.2a5.75,5.75,0,0,0,.06,1,1.07,1.07,0,0,0,.39.6,1.2,1.2,0,0,0,.74.22,1.65,1.65,0,0,0,.83-.23,1.28,1.28,0,0,0,.54-.61,3,3,0,0,0,.16-1.12v-3.09h1v5.76Z"></path>
    <path class="cls-3" d="M191.54,128.76l1,.13a2.48,2.48,0,0,1-.8,1.55,2.36,2.36,0,0,1-1.59.56,2.47,2.47,0,0,1-1.9-.77,3.15,3.15,0,0,1-.72-2.22,4,4,0,0,1,.31-1.63,2.1,2.1,0,0,1,.94-1,2.82,2.82,0,0,1,1.37-.35,2.38,2.38,0,0,1,1.54.48,2.17,2.17,0,0,1,.76,1.34l-.95.15a1.53,1.53,0,0,0-.48-.87,1.21,1.21,0,0,0-.83-.3,1.53,1.53,0,0,0-1.2.53,2.5,2.5,0,0,0-.46,1.68,2.56,2.56,0,0,0,.45,1.68,1.44,1.44,0,0,0,1.16.53,1.4,1.4,0,0,0,1-.35A1.81,1.81,0,0,0,191.54,128.76Z"></path>
    <path class="cls-3" d="M193.34,130.87v-8h1v4.53l2.31-2.34h1.26l-2.2,2.14,2.43,3.62h-1.21l-1.9-2.94-.69.66v2.28Z"></path>
    <path class="cls-3" d="M200.61,130.87l3.06-8h1.13l3.25,8h-1.19l-.93-2.41H202.6l-.87,2.41Zm2.3-3.26h2.69l-.83-2.21c-.25-.66-.44-1.21-.56-1.64a9.22,9.22,0,0,1-.43,1.51Z"></path>
    <path class="cls-3" d="M208.75,130.87v-8h1v8Z"></path>
    <path class="cls-3" d="M211.22,130.87v-8h1v8Z"></path>
    <path class="cls-3" d="M213.71,124v-1.12h1V124Zm0,6.83v-5.76h1v5.76Z"></path>
    <path class="cls-3" d="M219.93,130.16a3.67,3.67,0,0,1-1,.65,3,3,0,0,1-1.08.19,2.1,2.1,0,0,1-1.46-.46,1.54,1.54,0,0,1-.51-1.19,1.66,1.66,0,0,1,.19-.77,1.62,1.62,0,0,1,.51-.56,2.35,2.35,0,0,1,.7-.32,7.44,7.44,0,0,1,.87-.15,8.65,8.65,0,0,0,1.74-.33V127a1.08,1.08,0,0,0-.27-.84,1.64,1.64,0,0,0-1.11-.33,1.74,1.74,0,0,0-1,.24,1.51,1.51,0,0,0-.49.85l-1-.13a2.5,2.5,0,0,1,.43-1,1.9,1.9,0,0,1,.86-.58,4,4,0,0,1,1.31-.2,3.53,3.53,0,0,1,1.19.17,1.63,1.63,0,0,1,.68.44,1.54,1.54,0,0,1,.31.67,6,6,0,0,1,0,.9v1.3a13.59,13.59,0,0,0,.07,1.72,2.18,2.18,0,0,0,.24.69h-1A2.11,2.11,0,0,1,219.93,130.16Zm-.08-2.18a7.48,7.48,0,0,1-1.6.37,4.08,4.08,0,0,0-.85.19.92.92,0,0,0-.38.32.83.83,0,0,0-.14.46.85.85,0,0,0,.3.66,1.26,1.26,0,0,0,.86.26,2.1,2.1,0,0,0,1-.25,1.55,1.55,0,0,0,.64-.68,2.24,2.24,0,0,0,.16-1Z"></path>
    <path class="cls-3" d="M222.35,130.87v-5.76h.88v.82a2.07,2.07,0,0,1,1.83-1,2.35,2.35,0,0,1,1,.19,1.51,1.51,0,0,1,.65.49,1.8,1.8,0,0,1,.3.72,5.08,5.08,0,0,1,.06,1v3.54h-1v-3.5a2.76,2.76,0,0,0-.11-.89,1,1,0,0,0-.41-.48,1.34,1.34,0,0,0-.68-.17,1.59,1.59,0,0,0-1.07.39,1.94,1.94,0,0,0-.46,1.5v3.15Z"></path>
    <path class="cls-3" d="M232.28,128.76l1,.13a2.48,2.48,0,0,1-.8,1.55,2.4,2.4,0,0,1-1.6.56,2.5,2.5,0,0,1-1.9-.77,3.2,3.2,0,0,1-.71-2.22,4.12,4.12,0,0,1,.3-1.63,2.12,2.12,0,0,1,.95-1,2.79,2.79,0,0,1,1.37-.35,2.33,2.33,0,0,1,1.53.48,2.13,2.13,0,0,1,.77,1.34l-1,.15a1.53,1.53,0,0,0-.48-.87,1.23,1.23,0,0,0-.83-.3,1.53,1.53,0,0,0-1.2.53,2.5,2.5,0,0,0-.46,1.68,2.62,2.62,0,0,0,.44,1.68,1.47,1.47,0,0,0,1.16.53,1.37,1.37,0,0,0,1-.35A1.76,1.76,0,0,0,232.28,128.76Z"></path>
    <path class="cls-3" d="M238,129l1,.12a2.45,2.45,0,0,1-.89,1.37,3,3,0,0,1-3.65-.29,3,3,0,0,1-.74-2.18,3.19,3.19,0,0,1,.75-2.26,2.56,2.56,0,0,1,1.94-.8,2.45,2.45,0,0,1,1.89.79,3.1,3.1,0,0,1,.73,2.21c0,.06,0,.14,0,.26h-4.29a2.18,2.18,0,0,0,.54,1.45,1.66,1.66,0,0,0,2.12.23A1.92,1.92,0,0,0,238,129Zm-3.21-1.58H238a1.92,1.92,0,0,0-.37-1.09,1.48,1.48,0,0,0-1.21-.57,1.55,1.55,0,0,0-1.13.45A1.87,1.87,0,0,0,234.81,127.44Z"></path>
  </g>
</svg>
