<?xml version="1.0" encoding="UTF-8"?>
<svg xmlns="http://www.w3.org/2000/svg" id="Logos" viewBox="0 0 390 200">
  <defs>
    <style>.cls-1{fill:#f53;}</style>
  </defs>
  <title>GetYourGuide</title>
  <path id="Logo" class="cls-1" d="M177.12,102.86a2.55,2.55,0,1,1,2.55,2.55A2.52,2.52,0,0,1,177.12,102.86Zm4.5-4.56a2.55,2.55,0,1,0,2.55-2.55A2.52,2.52,0,0,0,181.62,98.3Zm6.19-3.11v4.56a6.7,6.7,0,1,1-6.36,6.69h-5a11.35,11.35,0,1,0,11.34-11.25ZM239,138v-4.32h8v-4.33h-8V125.1h8.86v-4.36H234.14v21.63H248V138Zm-7.76-6.46c0,6.23-4.74,10.82-11.43,10.82h-7.14V120.71h7.14C226.49,120.71,231.23,125.33,231.23,131.55Zm-5,0c0-3.7-2.46-6.48-6.08-6.48h-2.66V138h2.66C223.8,138,226.26,135.26,226.26,131.55ZM193.68,134a4.21,4.21,0,1,1-8.41,0v-13.3h-4.83V134a9,9,0,0,0,18.07,0V120.74h-4.83Zm-28.05.45h4.8a4.9,4.9,0,0,1-4.77,3.94c-2.64,0-4.77-2.14-4.77-5.25V130a5.21,5.21,0,0,1,5.48-5.3,5.7,5.7,0,0,1,5.45,3.35l4.5-1.57c-1.24-3.79-5.27-6.16-9.92-6.16-5.87,0-10.25,3.94-10.25,9.68v3.2c0,5.54,4.09,9.63,9.12,9.63a9,9,0,0,0,7.53-4.06v3.62h4.26v-12H165.63Zm54.56-25.65V95.63h-4.83v13.3a4.21,4.21,0,1,1-8.41,0V95.63h-4.83v13.21a9,9,0,0,0,18.07,0Zm-56,8.42H169v-8.21l8.15-13.42h-5.48l-5.12,8.86-5.07-8.86H156l8.15,13.48Zm48.73-46.74H196.46v4.36h16.42ZM194.39,87.79h-9V83.47h8V79.14h-8V74.88h8.85V70.52H180.53V92.15h13.86Zm-29.12,4.8a9,9,0,0,0,7.53-4.06v3.62h4.26v-12H165.63v4.15h4.8a4.9,4.9,0,0,1-4.77,3.94c-2.64,0-4.77-2.14-4.77-5.25v-3.2a5.21,5.21,0,0,1,5.48-5.3,5.7,5.7,0,0,1,5.45,3.35l4.5-1.57c-1.24-3.79-5.27-6.16-9.92-6.16-5.87,0-10.25,3.94-10.25,9.68V83C156.15,88.5,160.24,92.59,165.27,92.59Zm66,19.22-2.51-2.66,2.48-2.68-2.51-2.66,2.48-2.68-2.51-2.66,2.76-2.83h-5l-2.73,2.86,2.51,2.66-2.48,2.68,2.51,2.66-2.47,2.68,2.51,2.66-2.48,2.69,2.66,2.76h5.07l-2.72-2.79Zm-23.57,19.11a4.55,4.55,0,0,0,0-7.43l-.08-.08a1.85,1.85,0,0,1-.43-1.18v-1.52H202.3v2h0v.07a4.79,4.79,0,0,0,1.92,3.72c.51.46.51.49.51.67s0,.21-.51.68a4.83,4.83,0,0,0-1.91,3.5h0v.32h0a4.83,4.83,0,0,0,1.91,3.5c.51.47.51.49.51.68s0,.21-.51.67a4.79,4.79,0,0,0-1.92,3.72v.07h0v2h4.87v-1.52a1.85,1.85,0,0,1,.43-1.18l.08-.08a4.55,4.55,0,0,0,0-7.43c-.45-.42-.51-.48-.51-.62S207.23,131.33,207.68,130.92Zm-5.44-38.78h4.86v-4h-4.86Zm4.86-9.78h-4.86v4h4.86Zm0-5.76h-4.86v4h4.86Zm36.78,40.66L238,109a6.76,6.76,0,0,0,4.89-6.49,7,7,0,0,0-7.32-6.87h-2.84V100h2.66a2.61,2.61,0,0,1,0,5.21h-2.66v4.15l5.27,7.88Z"></path>
</svg>
