<?xml version="1.0" encoding="UTF-8"?>
<svg xmlns="http://www.w3.org/2000/svg" id="Logos" viewBox="0 0 390 200">
  <defs>
    <style>.cls-1{fill:#0677b6;}.cls-2{fill:#686867;}</style>
  </defs>
  <title>guardant health logo final</title>
  <g id="Guardant_Health_Final" data-name="Guardant Health Final">
    <path class="cls-1" d="M107.94,99.69h6.84a2.46,2.46,0,0,1,0,.28c0,.11,0,.26,0,.48a7.77,7.77,0,0,1-1.93,5.46,6.49,6.49,0,0,1-5,2.09,7.86,7.86,0,0,1-5.76-2.23,7.61,7.61,0,0,1-2.27-5.66,7.53,7.53,0,0,1,2.28-5.63,7.88,7.88,0,0,1,5.75-2.22,7.28,7.28,0,0,1,3.36.77A8,8,0,0,1,114,95.32l-2.17,1.6a5.23,5.23,0,0,0-1.7-1.45,4.5,4.5,0,0,0-2.06-.45,4.7,4.7,0,0,0-3.55,1.39,5.74,5.74,0,0,0,0,7.37,4.59,4.59,0,0,0,3.49,1.4,4.16,4.16,0,0,0,2.56-.74,2.32,2.32,0,0,0,1-1.94v-.17h-3.61Z"></path>
    <path class="cls-1" d="M129.73,92.6v9.33a6,6,0,0,1-1.61,4.56,6.84,6.84,0,0,1-4.85,1.51,6.93,6.93,0,0,1-4.9-1.51,6,6,0,0,1-1.61-4.56V92.6H120v8.83a4.1,4.1,0,0,0,.82,2.79,3.07,3.07,0,0,0,2.45.94,3.15,3.15,0,0,0,2.48-.94,4.08,4.08,0,0,0,.84-2.79V92.6Z"></path>
    <path class="cls-1" d="M130.37,107.6l5.71-15h3.67l5.79,15h-3.65l-1.22-3.19h-5.81l-1.05,3.19Zm9.55-5.71L138.24,97a6.37,6.37,0,0,1-.18-.73q-.12-.53-.24-1.29c-.09.49-.17.93-.25,1.31s-.15.64-.19.77l-1.62,4.79Z"></path>
    <path class="cls-1" d="M157.45,107.6h-3.7l-3.95-7v7h-3.21v-15h4.6a6.61,6.61,0,0,1,4.1,1.06,3.8,3.8,0,0,1,1.36,3.19,3.94,3.94,0,0,1-.93,2.64,3.66,3.66,0,0,1-2.41,1.28ZM149.8,99h.48a5.23,5.23,0,0,0,2.58-.42,1.69,1.69,0,0,0,.62-1.49,1.77,1.77,0,0,0-.67-1.57,4.79,4.79,0,0,0-2.53-.47h-.48Z"></path>
    <path class="cls-1" d="M158.79,107.6v-15h4.09a17.31,17.31,0,0,1,3.81.33,6.65,6.65,0,0,1,2.45,1.13,6.53,6.53,0,0,1,2.07,2.56,8.52,8.52,0,0,1,.7,3.51,8.29,8.29,0,0,1-.72,3.54,6.5,6.5,0,0,1-2.1,2.55,6.81,6.81,0,0,1-2.28,1.06,16.1,16.1,0,0,1-3.68.32h-4.34Zm3.21-2.71h1.78a5,5,0,0,0,3.67-1.14,6.29,6.29,0,0,0,0-7.28,5,5,0,0,0-3.67-1.15H162Z"></path>
    <path class="cls-1" d="M171.92,107.6l5.7-15h3.67l5.8,15h-3.65l-1.22-3.19h-5.81l-1,3.19Zm9.55-5.71L179.79,97c0-.14-.11-.39-.19-.73s-.15-.78-.23-1.29c-.09.49-.18.93-.26,1.31s-.14.64-.18.77l-1.62,4.79Z"></path>
    <path class="cls-1" d="M188.14,107.6v-15h3.33l6.64,8.73a6.52,6.52,0,0,1,.63,1c.23.45.47,1,.71,1.58-.07-.44-.13-.88-.16-1.32s0-1,0-1.64V92.6h3.06v15h-3.14l-6.83-8.9a5.9,5.9,0,0,1-.62-1c-.23-.44-.47-1-.72-1.6.07.43.13.87.16,1.31s0,1,0,1.66v8.57Z"></path>
    <path class="cls-1" d="M210.73,95.32V107.6h-3.22V95.32h-3.67V92.6H214.4v2.72Z"></path>
    <path class="cls-2" d="M219.05,107.6v-15h1.78v5.77h8V92.59h1.81v15h-1.81v-7.53h-8v7.53Z"></path>
    <path class="cls-2" d="M233.68,107.6v-15h7.92v1.63h-6.13v4.31h6.13v1.66h-6.13v5.75h6.13v1.66Z"></path>
    <path class="cls-2" d="M248.84,92l6.83,15.6h-1.94l-1.95-4.6h-5.86L244,107.6H242Zm0,4-2.39,5.52h4.78Z"></path>
    <path class="cls-2" d="M256.69,107.6v-15h1.78V105.9h5.67v1.7Z"></path>
    <path class="cls-2" d="M267.21,107.6V94.3H263V92.59h10.27V94.3H269v13.3Z"></path>
    <path class="cls-2" d="M274.7,107.6v-15h1.79v5.77h8V92.59h1.82v15h-1.82v-7.53h-8v7.53Z"></path>
    <path class="cls-2" d="M289.22,92.63a1.36,1.36,0,0,1,.79.79,1.51,1.51,0,0,1,0,1.18,1.38,1.38,0,0,1-.31.47,1.75,1.75,0,0,1-.48.32,1.64,1.64,0,0,1-1.18,0,1.56,1.56,0,0,1-.47-.32,1.4,1.4,0,0,1-.32-.47,1.51,1.51,0,0,1,0-1.18,1.55,1.55,0,0,1,.32-.48,1.38,1.38,0,0,1,.47-.31,1.51,1.51,0,0,1,1.18,0Zm-1.09.2a1,1,0,0,0-.4.27,1.17,1.17,0,0,0-.27.41,1.43,1.43,0,0,0,0,1,1.24,1.24,0,0,0,.67.68,1.3,1.3,0,0,0,1,0,1.28,1.28,0,0,0,.4-.27,1.46,1.46,0,0,0,.27-.41,1.43,1.43,0,0,0,0-1,1.33,1.33,0,0,0-.27-.41,1,1,0,0,0-.4-.27,1.3,1.3,0,0,0-1,0Zm0,2V93.14h.66a.58.58,0,0,1,.43.13.45.45,0,0,1,.13.35.6.6,0,0,1,0,.2.34.34,0,0,1-.09.14.42.42,0,0,1-.14.09.48.48,0,0,1-.17,0l.52.77h-.25l-.49-.77h-.36v.77Zm.68-1,.17,0a.27.27,0,0,0,.12-.09.29.29,0,0,0,0-.17.33.33,0,0,0,0-.15l-.1-.09a.25.25,0,0,0-.13,0l-.15,0h-.39v.6h.47Z"></path>
  </g>
</svg>
