<?xml version="1.0" encoding="UTF-8"?>
<svg xmlns="http://www.w3.org/2000/svg" id="Logos" viewBox="0 0 390 200">
  <defs>
    <style>.cls-1{fill:#22ac38;}</style>
  </defs>
  <title>logos-sbia (1)</title>
  <path class="cls-1" d="M181.39,84.41H186V77.05H147.91V91.6c0,8-.5,17.68-6.5,25.67l6.13,4.72c6.66-8.92,7.89-21.35,7.89-30.39V84.41h5.65V93c0,6.56-.27,13.84-5.36,20.16a5.57,5.57,0,0,0-.9,1.71,3.53,3.53,0,0,0-.17,1.23,4.56,4.56,0,0,0,4.5,4.55,4.85,4.85,0,0,0,1.64-.28l.32-.13a82.58,82.58,0,0,1,8.51-1.89,4.27,4.27,0,0,0,8.47-.74,4.2,4.2,0,0,0-.83-2.51l-4.68-7.65a.43.43,0,0,1,0-.07l0,0h0a2.09,2.09,0,0,0-3.85,1.29h0v.06a.13.13,0,0,1,0,.06l.29,2.87-4,.69a46.39,46.39,0,0,0,3.44-19l.05-8.22v-.77h5.83s0,.75,0,.75c.8,17.39,2.5,28.32,9.75,36.84l6.16-5.72c-6.71-6.65-8.24-16.64-8.86-31.63Z"></path>
  <path class="cls-1" d="M222.15,93.31l14.06-9.19V77.06H199.92v7.36H222.1l-7.34,5v6.14H195v7.34h19.77v10.51c0,.88-.36,1.25-1.49,1.25h-5.84l1.1,7.36h9a4.65,4.65,0,0,0,4.65-4.64V102.88h17.32V95.54H222.15Z"></path>
  <path class="cls-1" d="M242,75.07V69.9h2.29a3.12,3.12,0,0,1,1,.14,1.25,1.25,0,0,1,.58.49,1.52,1.52,0,0,1,.21.78,1.33,1.33,0,0,1-.35.93,1.85,1.85,0,0,1-1.1.48,1.62,1.62,0,0,1,.41.26,3.59,3.59,0,0,1,.57.68l.9,1.41h-.86L245,74c-.2-.31-.36-.54-.49-.71a1.54,1.54,0,0,0-.35-.34,1.06,1.06,0,0,0-.31-.14,1.9,1.9,0,0,0-.38,0h-.79v2.29Zm.69-2.89h1.47a2.37,2.37,0,0,0,.73-.09.84.84,0,0,0,.4-.31.89.89,0,0,0,.14-.47.77.77,0,0,0-.27-.6,1.24,1.24,0,0,0-.84-.24H242.7Z"></path>
  <path class="cls-1" d="M244.08,77a4.51,4.51,0,1,1,4.51-4.5A4.52,4.52,0,0,1,244.08,77Zm0-8.41A3.91,3.91,0,1,0,248,72.51,3.91,3.91,0,0,0,244.08,68.6Z"></path>
</svg>
