<?xml version="1.0" encoding="UTF-8"?>
<svg xmlns="http://www.w3.org/2000/svg" xmlns:xlink="http://www.w3.org/1999/xlink" id="Logos" viewBox="0 0 390 200">
  <defs>
    <style>.cls-1{fill:none;}.cls-2{clip-path:url(#clip-path);}.cls-3{fill:#f37062;}</style>
    <clipPath id="clip-path">
      <rect class="cls-1" x="105" y="85.76" width="179.4" height="34.01"></rect>
    </clipPath>
  </defs>
  <title>Gympass</title>
  <g class="cls-2">
    <path class="cls-3" d="M284,97.75c.33-.33.33-.34,0-.66a10.41,10.41,0,0,0-4.76-2.46,19.21,19.21,0,0,0-6-.51,14.29,14.29,0,0,0-4.15.77,6.82,6.82,0,0,0-2.18,1.23,4.71,4.71,0,0,0-1.65,4.12,4.5,4.5,0,0,0,1.87,3.5,6.78,6.78,0,0,0,3,1.24c2,.28,4,.46,6,.71a15.49,15.49,0,0,1,2,.38,1.19,1.19,0,0,1,.92,1.23,1.31,1.31,0,0,1-.79,1.3,5.09,5.09,0,0,1-1.32.37,13.2,13.2,0,0,1-3.44,0,9.43,9.43,0,0,1-4.74-1.71c-.48-.36-.92-.79-1.39-1.2l-.15.09c-.92.78-1.84,1.57-2.77,2.34-.23.19-.24.32,0,.55a11.41,11.41,0,0,0,6.33,3.47,21,21,0,0,0,6.07.36,12.59,12.59,0,0,0,4.28-1,5.31,5.31,0,0,0,3.27-6.17,4.38,4.38,0,0,0-2.95-3.52,12.18,12.18,0,0,0-3.52-.76c-1.58-.15-3.16-.3-4.73-.49a6.24,6.24,0,0,1-1.76-.45,1.18,1.18,0,0,1-.08-2.11,3,3,0,0,1,1-.37,13.48,13.48,0,0,1,5.51.26,8.72,8.72,0,0,1,3.63,1.9l2.6-2.44Zm-38.88,8.43c-.92.77-1.82,1.55-2.75,2.31-.25.21-.24.34,0,.57a11.43,11.43,0,0,0,6.34,3.46,21,21,0,0,0,6.07.36,14.32,14.32,0,0,0,3.38-.64,7.15,7.15,0,0,0,2.39-1.27,5.18,5.18,0,0,0,1.82-4.78,4.42,4.42,0,0,0-2.94-3.94,8,8,0,0,0-2-.57c-2.07-.27-4.15-.46-6.22-.72a6.71,6.71,0,0,1-1.89-.46,1.18,1.18,0,0,1-.08-2.1,2.32,2.32,0,0,1,.53-.24,9,9,0,0,1,3.18-.27,10.43,10.43,0,0,1,4.8,1.19c.61.34,1.17.76,1.64,1.06l3-2.79a2.19,2.19,0,0,1-.39-.26,10.73,10.73,0,0,0-4.79-2.47,19.37,19.37,0,0,0-6-.5,14.12,14.12,0,0,0-4.18.78c-2.18.8-4.1,2.37-3.8,5.53a4.38,4.38,0,0,0,1.46,3A6.52,6.52,0,0,0,248,105c2,.29,4,.46,6,.71a15.31,15.31,0,0,1,2.12.43,1.13,1.13,0,0,1,.81,1.16,1.24,1.24,0,0,1-.6,1.2,3.72,3.72,0,0,1-.82.36,10.4,10.4,0,0,1-3.29.21,11.09,11.09,0,0,1-4.42-1.07,8,8,0,0,1-2.5-1.94,1.91,1.91,0,0,0-.21.14Zm-110.47,9c0,1.35,0,2.69,0,4,0,.24.13.28.33.3a19.12,19.12,0,0,0,4.84.07,9.58,9.58,0,0,0,4.17-1.44,10,10,0,0,0,3.59-4.53q4.11-9.41,8.16-18.82a.67.67,0,0,0,.05-.19l-.08,0h-5.87c-.22,0-.29.13-.35.31q-2.24,6.19-4.48,12.38a2.65,2.65,0,0,1-.17.33l-.16-.32L140,95a.46.46,0,0,0-.5-.35h-5.94l-.34,0c0,.11.06.17.09.24l3.69,7.71q2.28,4.77,4.54,9.53a1,1,0,0,1,.06.65,3,3,0,0,1-1.44,1.74,5.29,5.29,0,0,1-2.79.75c-.9,0-1.79-.07-2.72-.11a.31.31,0,0,0,0,.07Zm91.52-6.37a1.82,1.82,0,0,1-1.1-1.67,1.86,1.86,0,0,1,1-1.77,6.35,6.35,0,0,1,2.4-.68c1.7-.2,3.41-.36,5.11-.54.26,0,.27.13.28.32.18,2.69-1.16,4-3.49,4.6a12,12,0,0,1-1.56.23,5.87,5.87,0,0,1-2.68-.49Zm14,3.19c-.11-1.47-.28-2.93-.33-4.4-.05-1.93,0-3.86,0-5.79a12.74,12.74,0,0,0-.14-2,5.93,5.93,0,0,0-3.08-4.49,11.62,11.62,0,0,0-4.76-1.26,21.41,21.41,0,0,0-4.16.06,12.46,12.46,0,0,0-4.73,1.41,6.46,6.46,0,0,0-3.41,4.53c0,.27,0,.38.3.38h5.52a.33.33,0,0,0,.38-.3,2.86,2.86,0,0,1,2-2.12,6.51,6.51,0,0,1,3.71-.16,2.76,2.76,0,0,1,2.32,3.11c0,.24-.09.34-.35.35-.52,0-1.05.08-1.58.14-2,.2-4.11.38-6.16.62a13.12,13.12,0,0,0-4,1,4.84,4.84,0,0,0-2,7.12,5.34,5.34,0,0,0,2.88,2.08,12.29,12.29,0,0,0,7.4,0,6.3,6.3,0,0,0,3.85-2.83.59.59,0,0,0,.06-.16l.11.06a1.55,1.55,0,0,1,0,.29c.06.73.12,1.47.16,2.2,0,.3.13.44.47.44,1.72,0,3.45,0,5.17,0l.35,0c0-.13,0-.23,0-.33Zm-39.63-10.85a4.26,4.26,0,0,1,3.68-3,6,6,0,0,1,2.49.08,4.13,4.13,0,0,1,3.13,2.88,7.2,7.2,0,0,1-.14,5,4.47,4.47,0,0,1-4.12,2.8,5.92,5.92,0,0,1-2.47-.37,4.55,4.55,0,0,1-2.84-3.89c-.05-.37-.05-.75-.07-1.13l-.08,0a17.88,17.88,0,0,1,.42-2.32Zm0,8.84.17.17A7.56,7.56,0,0,0,203,112a9.77,9.77,0,0,0,6.18.79,8.08,8.08,0,0,0,6.05-4.24,11,11,0,0,0,.86-8,7.92,7.92,0,0,0-4.11-5.44,9.83,9.83,0,0,0-6.74-.78,7.45,7.45,0,0,0-4.84,3.1,2.09,2.09,0,0,1-.17.14c0-.17,0-.28,0-.39,0-.72,0-1.45,0-2.17,0-.31-.09-.39-.39-.39-1.71,0-3.41,0-5.11,0-.31,0-.39.1-.39.4q0,12.18,0,24.36c0,.34.12.4.42.4h5.15c.48,0,.48,0,.48-.5v-8.8a3.8,3.8,0,0,1,0-.46l.11,0Zm-36.73-12c0-.12,0-.24,0-.36,0-.87,0-1.75,0-2.62,0-.34-.07-.47-.44-.46-1.67,0-3.33,0-5,0-.33,0-.41.1-.41.41q0,8.48,0,17c0,.33.09.44.43.44,1.71,0,3.43,0,5.14,0,.46,0,.46,0,.46-.45,0-2.89,0-5.78,0-8.67a8,8,0,0,1,.14-1.54,3.64,3.64,0,0,1,2.31-2.95,4.22,4.22,0,0,1,1.93-.21,2.86,2.86,0,0,1,2.5,1.7,5.41,5.41,0,0,1,.48,2.31q0,4.69,0,9.39c0,.33.1.43.43.43,1.7,0,3.41,0,5.11,0,.49,0,.5,0,.5-.49,0-2.88,0-5.75,0-8.63a7.67,7.67,0,0,1,.22-1.91,3.52,3.52,0,0,1,3.81-2.8,3,3,0,0,1,3.09,2.34,8.3,8.3,0,0,1,.26,2.11c0,3,0,5.94,0,8.91,0,.47,0,.47.49.47h5.07c.48,0,.48,0,.48-.47,0-3.3,0-6.6,0-9.91a14.69,14.69,0,0,0-.27-2.73,6,6,0,0,0-3.69-4.7,8.5,8.5,0,0,0-4.41-.41A7.2,7.2,0,0,0,177,98l-.19.24c-.08-.16-.15-.28-.2-.4a5.75,5.75,0,0,0-3.46-3.31,8.6,8.6,0,0,0-3.67-.36A6.33,6.33,0,0,0,164,97.79l-.17.28-.09,0ZM120.11,85.76c.43,0,.85.12,1.28.16a12.33,12.33,0,0,1,6.4,2.32,9.47,9.47,0,0,1,3,3.79c.11.23.09.35-.15.49-1.4.74-2.8,1.5-4.18,2.28-.24.13-.33.07-.46-.14a9.84,9.84,0,0,0-2-2.4,6.92,6.92,0,0,0-5.55-1.61A7.09,7.09,0,0,0,113.74,93a7.92,7.92,0,0,0-1.77,3.7,12,12,0,0,0,.46,7,6.86,6.86,0,0,0,6.12,4.55,11.42,11.42,0,0,0,7.85-2,1,1,0,0,0,.52-1c0-.66,0-1.33,0-2s0-.6-.57-.6h-7.63c-.58,0-.58,0-.58-.59,0-1.11,0-2.23,0-3.35,0-.3.09-.39.39-.39h13.15c.29,0,.38.08.38.37,0,3,0,5.94,0,8.91a1.2,1.2,0,0,1-.31.69,13,13,0,0,1-5.06,3.72,17.25,17.25,0,0,1-8,1.39,14.65,14.65,0,0,1-10.31-4.75,12.48,12.48,0,0,1-3.24-7.1,14.7,14.7,0,0,1,1.09-8,12.42,12.42,0,0,1,8-6.93,18,18,0,0,1,4.54-.77,4.37,4.37,0,0,0,.5-.09Z"></path>
  </g>
</svg>
