<?xml version="1.0" encoding="UTF-8"?>
<svg xmlns="http://www.w3.org/2000/svg" id="Logos" viewBox="0 0 390 200">
  <title>Improbable Final svg</title>
  <g id="Improbable_Final" data-name="Improbable Final">
    <rect x="146.56" y="91.78" width="3.26" height="16.59"></rect>
    <polygon points="165.37 108.37 165.37 98.65 162.22 104.96 160.03 104.96 156.78 98.65 156.78 108.37 153.67 108.37 153.67 91.78 156.8 91.78 161.12 100.73 165.43 91.78 168.63 91.78 168.63 108.37 165.37 108.37"></polygon>
    <path d="M178.73,94.59h-3v4.59h3a2.2,2.2,0,0,0,2.39-2.28,2.23,2.23,0,0,0-2.39-2.31m.16,7.41h-3.15v6.37h-3.26V91.78h6.41c3.42,0,5.46,2.29,5.46,5.11s-2,5.11-5.46,5.11"></path>
    <path d="M193.35,94.59h-3.09V99h3.09a2.23,2.23,0,1,0,0-4.45m2.52,13.78-3.24-6.67h-2.37v6.67h-3.11V91.78h6.41c3.38,0,5.38,2.28,5.38,5a4.5,4.5,0,0,1-3,4.38l3.7,7.16Z"></path>
    <path d="M209.91,95.37a2.68,2.68,0,0,0-2.07-.88,2.76,2.76,0,0,0-2.09.88c-.63.7-.79,1.47-.79,4.65s.16,4,.79,4.65a2.73,2.73,0,0,0,2.09.89,2.66,2.66,0,0,0,2.07-.89c.63-.69.82-1.46.82-4.65s-.19-4-.82-4.65m2.4,11.26a6,6,0,0,1-4.47,1.81,6.07,6.07,0,0,1-4.49-1.81c-1.67-1.68-1.62-3.75-1.62-6.61s0-4.93,1.62-6.6a6,6,0,0,1,4.49-1.82,6,6,0,0,1,4.47,1.82C214,95.09,214,97.16,214,100s0,4.93-1.65,6.61"></path>
    <path d="M223.87,101.41h-3.39v4h3.39a1.94,1.94,0,0,0,2.16-2,1.92,1.92,0,0,0-2.16-2m-.21-6.82h-3.18v3.85h3.18a1.94,1.94,0,1,0,0-3.85m.53,13.78h-7V91.78h6.69c3.24,0,5.12,1.79,5.12,4.63A3.8,3.8,0,0,1,227,99.82a3.9,3.9,0,0,1,2.28,3.75c0,3.1-2.11,4.8-5.07,4.8"></path>
    <path d="M238.12,96.57l-2.09,6h4.12Zm3.86,11.8-1-3h-5.89l-1,3h-3.37l6-16.59h2.54l6,16.59Z"></path>
    <path d="M254,101.41H250.7v4H254a1.94,1.94,0,0,0,2.16-2,1.92,1.92,0,0,0-2.16-2m-.21-6.82h-3.1v3.85h3.1a1.94,1.94,0,1,0,0-3.85m.53,13.78h-6.89V91.78h6.61c3.24,0,5.12,1.79,5.12,4.63a3.8,3.8,0,0,1-2.05,3.41,3.9,3.9,0,0,1,2.28,3.75c0,3.1-2.11,4.8-5.07,4.8"></path>
    <polygon points="262.7 108.37 262.7 91.78 265.96 91.78 265.96 105.41 273.52 105.41 273.52 108.37 262.7 108.37"></polygon>
    <polygon points="276.04 91.78 276.04 108.37 287 108.37 287 105.41 279.3 105.41 279.3 101.41 285.81 101.41 285.81 98.44 279.3 98.44 279.3 94.59 287 94.59 287 91.78 276.04 91.78"></polygon>
    <path d="M106.26,87.33h25.48v25.49H106.26ZM103,115.93h31.85V84.07H103Z"></path>
    <rect x="117.37" y="94" width="3.11" height="12.15"></rect>
    <path d="M128.35,89.55a1.07,1.07,0,1,1-1.06,1.07,1.06,1.06,0,0,1,1.06-1.07m0,3.19a2.13,2.13,0,1,0-2.12-2.12,2.12,2.12,0,0,0,2.12,2.12"></path>
  </g>
</svg>
