<?xml version="1.0" encoding="UTF-8"?>
<svg xmlns="http://www.w3.org/2000/svg" id="Logos" viewBox="0 0 390 200">
  <defs>
    <style>.cls-1{fill:#8b8f90;}.cls-2{fill:#62b871;}</style>
  </defs>
  <title>Kabbage</title>
  <path class="cls-1" d="M199.68,106.74a4,4,0,0,1-3.93,3.13,4.15,4.15,0,0,1-2.66-.38,1.49,1.49,0,0,1-.69-.83v-9a1.29,1.29,0,0,1,.68-.76,4.72,4.72,0,0,1,6.69,2.79,9.94,9.94,0,0,1-.09,5.08Zm.5-10.84a7.8,7.8,0,0,0-7.78-.19V87.35l-4.11,1v25.19h2.24l.65-.95s0,0,0-.06h0l.13-.19c.16-.17.27,0,.49.1a8.05,8.05,0,0,0,10.79-2.54,11.32,11.32,0,0,0,1.52-7.58,7.94,7.94,0,0,0-4-6.45Z"></path>
  <path class="cls-1" d="M218.13,106.74a4,4,0,0,1-3.93,3.13,4.15,4.15,0,0,1-2.66-.38,1.49,1.49,0,0,1-.69-.83v-9a1.29,1.29,0,0,1,.68-.76,4.72,4.72,0,0,1,6.69,2.79,9.94,9.94,0,0,1-.09,5.08Zm.5-10.84a7.8,7.8,0,0,0-7.78-.19V87.35l-4.11,1v25.19H209l.65-.95s0,0,.05-.06h0l.13-.19c.16-.17.27,0,.49.1a8.05,8.05,0,0,0,10.79-2.54,11.32,11.32,0,0,0,1.52-7.58,7.94,7.94,0,0,0-4-6.45Z"></path>
  <polygon class="cls-1" points="169.33 88.51 164.51 88.51 156.59 100.22 156.52 88.51 152.4 88.51 152.4 113.19 156.59 113.19 156.59 106.43 159.16 102.73 165.78 113.19 170.64 113.19 161.94 99.28 169.33 88.51 169.33 88.51"></polygon>
  <path class="cls-1" d="M180.94,105.37a4.39,4.39,0,0,0,0,.63h0c0,.28,0,.56,0,.84,0,2.71-2.32,3.94-4.95,3.06-1.42-.47-1.76-2.81-.67-4.09a3.36,3.36,0,0,1,1.78-1,10.65,10.65,0,0,1,3.33-.21c.28,0,.47.07.5.15a1.88,1.88,0,0,1,0,.67Zm4.16,4.21a21.24,21.24,0,0,1-.13-3.09,40.5,40.5,0,0,0-.24-6c-.34-2-1-3.93-3.06-4.83a11.35,11.35,0,0,0-8.55-.12h0l-.28.1,0,0-.47.17.93,3.28.39-.16.4-.13a13.06,13.06,0,0,1,3.48-.45c2,.11,3.16,1,3.34,2.67v0h0v0a.63.63,0,0,1,0,.14v.21l-.43-.06a14.06,14.06,0,0,0-3.78.06c-4,.58-6.24,3.23-6,7.2a4.81,4.81,0,0,0,3.44,4.51,6.83,6.83,0,0,0,7.25-1.57,4.73,4.73,0,0,0,1,1.4,2.68,2.68,0,0,0,3.71-.37c.13-.18.3-.36,0-.6a4,4,0,0,1-1-2.41Z"></path>
  <path class="cls-1" d="M234.66,105.37c0,.2,0,.42,0,.63h0c0,.28,0,.56,0,.84,0,2.71-2.32,3.94-5,3.06-1.42-.47-1.76-2.81-.67-4.09a3.36,3.36,0,0,1,1.78-1,10.65,10.65,0,0,1,3.33-.21c.27,0,.47.07.5.15a1.72,1.72,0,0,1,0,.67Zm4.17,4.21a21.24,21.24,0,0,1-.13-3.09,40.5,40.5,0,0,0-.24-6c-.34-2-1-3.93-3.06-4.83a11.35,11.35,0,0,0-8.55-.12h0l-.28.1,0,0-.47.17.93,3.28.38-.16.41-.13a13.06,13.06,0,0,1,3.48-.45c2,.11,3.16,1,3.34,2.67v0h0v.39l-.43-.06a14.06,14.06,0,0,0-3.78.06c-4,.58-6.25,3.23-6,7.2a4.8,4.8,0,0,0,3.44,4.51,6.83,6.83,0,0,0,7.25-1.57,4.73,4.73,0,0,0,1,1.4,2.68,2.68,0,0,0,3.71-.37c.13-.18.3-.36.05-.6a4,4,0,0,1-1-2.41Z"></path>
  <path class="cls-1" d="M269.83,102.27h-.2a2.61,2.61,0,0,1-.28,0l-3.67,0-3.69,0c-.19,0-.46,0-.48,0s0-.21,0-.29a1.4,1.4,0,0,1,.07-.37,4.3,4.3,0,0,1,5.43-3.1,3.81,3.81,0,0,1,2.8,3.42v0h0v.31Zm3.08-3.45c-2.57-4.89-10.28-5.63-13.94-.6-2.13,2.93-2.26,6.2-1.41,9.55a7.27,7.27,0,0,0,5.89,5.57,12.39,12.39,0,0,0,4.89,0,7.56,7.56,0,0,0,3.24-1.28c.1-.07.34-.23.39-.28l0,0,0-.08,0-.08-.05-.1v0l-1.43-3-.46.42A5.37,5.37,0,0,1,266.5,110c-2.57.07-4.54-1-5.1-3.73a3.64,3.64,0,0,1,0-.38v-.38h6.11c1.85,0,3.71,0,5.56,0h.6l.16-.88h0a8.8,8.8,0,0,0-.87-5.8Z"></path>
  <path class="cls-1" d="M245.07,102c0-.16,0-.32,0-.49a4.21,4.21,0,0,1,0-.62,3.28,3.28,0,0,1,2.44-2.58l.24,0a3.78,3.78,0,0,1,1.82.35,3.44,3.44,0,0,1,1.57,3.07,3.09,3.09,0,0,1-3.05,3.3,3,3,0,0,1-2.95-2.29,5.81,5.81,0,0,1-.11-.71Zm7.55,7.7a10.16,10.16,0,0,0-4.81.1,3.84,3.84,0,0,1-1.75.08.55.55,0,0,1-.46-.32c-.11-.26.36-.67.56-.81a1.75,1.75,0,0,1,.82-.4,6.38,6.38,0,0,0,1,.11h.72a6.25,6.25,0,0,0,2.44-.38c2.79-.89,4.1-3.27,4.19-6.09a6.26,6.26,0,0,0-.81-3.86l0-.11,1.78-1.64-.38-.36a2,2,0,0,0-.44-.41l-2-1.86-1.61,1.94h0a7.53,7.53,0,0,0-3.68-.93,7.37,7.37,0,0,0-5.34,2.14,6.41,6.41,0,0,0-1.82,4.06,6.63,6.63,0,0,0,2.86,6.1c-.31.24-.73.57-1,.77a3.11,3.11,0,0,0-1.18,3.19,2.73,2.73,0,0,0,2.53,2.13,12.23,12.23,0,0,0,3.82,0,8.41,8.41,0,0,1,3,0,1.58,1.58,0,0,1,1.23,1.2,1.54,1.54,0,0,1-.88,1.55,4.08,4.08,0,0,1-1.41.49,6.62,6.62,0,0,1-6-1.51l-.07-.06-.26-.21L241,117.78l.35.28s0,0,.08.08l.07,0h0a11.39,11.39,0,0,0,6,2.12,9.65,9.65,0,0,0,7.1-2.13,5.23,5.23,0,0,0,1.44-5.26,4.21,4.21,0,0,0-3.48-3.25Z"></path>
  <path class="cls-2" d="M96.43,102.11a24,24,0,0,0,1.19,4.28,8.69,8.69,0,0,0,3,3.89,21.5,21.5,0,0,0,8.74,3.3c-4.56-3-10.64-7.09-12.91-11.47Z"></path>
  <path class="cls-2" d="M114.84,86.79A33.25,33.25,0,0,1,118.33,84c-.13-.08-.2-.14-.28-.18-1.06-.45-1.52-.68-1.43-1.73,0-.33-.27-.26-.46-.26a10.64,10.64,0,0,0-3.27.46,17.2,17.2,0,0,0-4.58,1.79,17.37,17.37,0,0,1,6,2.72.33.33,0,0,0,.49,0Z"></path>
  <path class="cls-2" d="M112.91,88.57a21.83,21.83,0,0,0-3.42-2.29,19.13,19.13,0,0,0-11.3-2.08,6.53,6.53,0,0,1,.89,2l0,.17a4.49,4.49,0,0,1-.64,2.72c-.27.5-.48,1-.72,1.57a9.06,9.06,0,0,0-1,2.54h0a7.84,7.84,0,0,0-.31,3.93,5.73,5.73,0,0,0,.83,2.69h0a7.13,7.13,0,0,0,.33.68,19.74,19.74,0,0,0,2.79,3.39,44.43,44.43,0,0,0,4.35,4.11c1.47,1.34,3,2.55,4.71,3.8.13-1.11.15-1.49.26-2.49a7.69,7.69,0,0,0,.07-1.18,42.92,42.92,0,0,0-.09-4.38,17.39,17.39,0,0,0-.45-3.8,14.57,14.57,0,0,0-.71-2.82,18.41,18.41,0,0,0-1.64-4c-.26-.51-.67-1.11-1.42-2.34-.05-.09-.17-.24-.2-.29l0,0a17.74,17.74,0,0,0-2.72-3c-.07-.18,1,.61,1.18.75a15.4,15.4,0,0,1,3,2.55h0a29.94,29.94,0,0,1,4.09,5.85,24.66,24.66,0,0,1,1.48-6c.26-.52.51-1,.77-1.56a.38.38,0,0,0-.13-.54Z"></path>
  <path class="cls-2" d="M128,109.19a16.44,16.44,0,0,0-3.64,3.17s0,0,0,0,0,0,0,0c.22,0,.45,0,.64,0l.25,0c3.58-.33,7.43-2,8.69-4.62-1.47.34-2.48.62-3.75.89a6.33,6.33,0,0,0-2.16.49Z"></path>
  <path class="cls-2" d="M138.78,92.64a1.2,1.2,0,0,1-1.49-1.1,8.05,8.05,0,0,1,0-2.45,17.4,17.4,0,0,0,.09-4.56A3.56,3.56,0,0,0,134,81.09a18.92,18.92,0,0,0-9.55.87,16,16,0,0,0-10.79,15.13,20,20,0,0,0,2.56,9.48,4.93,4.93,0,0,0,.83,1.29l.25-.87a48.35,48.35,0,0,1,6.82-14.8,24.39,24.39,0,0,1,6-6.19c.95-.7.81-.54.18.18h0c-1.05,1.35-2.09,2.71-3,4.15a54.13,54.13,0,0,0-7.14,18.07,13.07,13.07,0,0,0-.43,3c0,.53.1,1,.33,1.08s.6-.06,1.06-.34a5.6,5.6,0,0,0,.74-.54c.81-.7,1.65-1.38,2.41-2.15a11.51,11.51,0,0,1,6.46-3.44,9.34,9.34,0,0,0,4.9-2.43c3.12-2.89,4.41-6.6,4.78-10.72a.57.57,0,0,0,0-.13h0v-.43l-.52.15a6,6,0,0,1-1.11.21Z"></path>
</svg>
