<?xml version="1.0" encoding="UTF-8"?>
<svg xmlns="http://www.w3.org/2000/svg" id="Logos" viewBox="0 0 390 200">
  <defs>
    <style>.cls-1{fill:#1d1d1b;}</style>
  </defs>
  <title>Loggi final</title>
  <g id="Loggi_Final" data-name="Loggi Final">
    <path class="cls-1" d="M149.8,115.52c2.92-4.08,2-8.07-.24-11.07a9.48,9.48,0,0,1,.83,6.34,9.15,9.15,0,0,1-3.65,5.3l.49.17c1.55.47,3.1.93,4.65,1.43a3.55,3.55,0,0,1,2.71,2.84,6.11,6.11,0,0,1-.09,1.45l-3.92-1.23-12.65-4a6.8,6.8,0,0,1-1.33-.48,1.52,1.52,0,0,1-.85-1.56,3.61,3.61,0,0,0-1.19-3.1,38.18,38.18,0,0,1-3.69-4.51,9.68,9.68,0,0,1-1.59-8,9.26,9.26,0,0,1,4-5.4,10.12,10.12,0,0,1,5-1.89,11.43,11.43,0,0,1,3.44.42l15.46,3.14c.13,0,.27,0,.46.06,0-.29,0-.56,0-.83a7.88,7.88,0,0,1,1.24-4c.21-.34.13-.51-.14-.72a4.25,4.25,0,0,0-2.59-1,20.81,20.81,0,0,0-3,.26,19.77,19.77,0,0,1-9.41-.69c-2.56-.88-5.15-1.69-7.72-2.55-.19-.06-.46-.25-.47-.39a.72.72,0,0,1,.34-.56c.87-.41,1.76-.77,2.65-1.12.13,0,.32,0,.47.11,2.12.87,4.23,1.76,6.36,2.63a18.42,18.42,0,0,0,8.1,1,13.18,13.18,0,0,1,5.07.46,6.52,6.52,0,0,0,.85.27c-.14-.09-.26-.2-.4-.28a8.25,8.25,0,0,0-4.48-1,23,23,0,0,1-6.81-.79,17.49,17.49,0,0,1-3.53-1.52c-2.48-1.33-4.9-2.76-7.34-4.15-.33-.19-.67-.36-1-.56a1.88,1.88,0,0,1-.35-.39c.13-.11.24-.28.4-.33.72-.21,1.45-.42,2.18-.59a28.83,28.83,0,0,1,6-.69,19.83,19.83,0,0,1,7,1.38,52.53,52.53,0,0,1,13.73,7.55,7.87,7.87,0,0,0,2.22,1.25,8.06,8.06,0,0,1,4.11,3.32c.91,1.33,1.79,2.68,2.7,4a1,1,0,0,1,.12,1,11.67,11.67,0,0,1-2.31,3.82,2.84,2.84,0,0,1-.84.55,36.78,36.78,0,0,1-5.89,2.41,7.89,7.89,0,0,0-3.41,2.13c-3.28,3.47-6.62,6.88-9.95,10.31a.63.63,0,0,1-.5.13C150.59,115.78,150.22,115.64,149.8,115.52Z"></path>
    <path class="cls-1" d="M229.22,110.21a10.09,10.09,0,0,1-12.75-2.4,10.21,10.21,0,0,1-.11-11.93,10.1,10.1,0,0,1,12.85-2.56V92.08h4.7c0,.11,0,.24,0,.36,0,6.58,0,13.17,0,19.75a9.27,9.27,0,0,1-4.45,8.31c-4.22,2.65-11.2,2-14.05-4l-.25-.56,3.49-2.15a7.86,7.86,0,0,0,2.14,2.6,5.38,5.38,0,0,0,6.49.14,5,5,0,0,0,1.92-3.69C229.28,112,229.22,111.13,229.22,110.21Zm0-8.52c0-.31,0-.69-.11-1.06a4.63,4.63,0,0,0-3.36-3.95,4.88,4.88,0,0,0-5.33,1.4,5.48,5.48,0,0,0-1.24,4.54,5,5,0,0,0,7.26,4C228.47,105.65,229.18,103.87,229.25,101.69Z"></path>
    <path class="cls-1" d="M249.61,93.34V92.06h4.68v.45q0,9.81,0,19.62a9.2,9.2,0,0,1-5.17,8.76,9.77,9.77,0,0,1-13-3.65c-.22-.39-.4-.79-.62-1.23l3.5-2.17a8.11,8.11,0,0,0,2,2.46,5.41,5.41,0,0,0,4.72,1.17,4.84,4.84,0,0,0,3.85-4.43c.07-.93,0-1.87,0-2.84a10.27,10.27,0,0,1-8.2.78,9.05,9.05,0,0,1-4.73-3.47,9.81,9.81,0,0,1,13-14.17Zm0,8.32c0-.33-.06-.79-.15-1.22a4.62,4.62,0,0,0-3.4-3.78A4.9,4.9,0,0,0,240.89,98a5.36,5.36,0,0,0-1.33,4.32,5,5,0,0,0,7.19,4.33C248.81,105.72,249.55,103.92,249.63,101.66Z"></path>
    <path class="cls-1" d="M213.56,101.8a9.73,9.73,0,1,1-9.72-9.75A9.5,9.5,0,0,1,213.56,101.8Zm-9.75,5.31a4.67,4.67,0,0,0,3.59-1.43,5.64,5.64,0,0,0,1.3-5.4,4.53,4.53,0,0,0-3.64-3.69,4.84,4.84,0,0,0-5.21,1.76,5.65,5.65,0,0,0-1.06,3.92A5,5,0,0,0,203.81,107.11Z"></path>
    <path class="cls-1" d="M183.18,106.48h10.47v4.71H178.41V86.34h4.77Z"></path>
    <path class="cls-1" d="M261,111.18h-4.74V92.08H261Z"></path>
    <path class="cls-1" d="M256.21,88.75a2.4,2.4,0,1,1,4.79,0,2.4,2.4,0,1,1-4.79,0Z"></path>
    <path class="cls-1" d="M143.85,120.28c-.83.3-1.66.63-2.5.9a.85.85,0,0,1-1-.44,1,1,0,0,1,.07-1.1.88.88,0,0,1,1.05-.28l2.39.77Z"></path>
  </g>
</svg>
