<?xml version="1.0" encoding="UTF-8"?>
<svg xmlns="http://www.w3.org/2000/svg" xmlns:xlink="http://www.w3.org/1999/xlink" id="Logos" viewBox="0 0 390 200">
  <defs>
    <style>.cls-1{fill:none;}.cls-2{clip-path:url(#clip-path);}.cls-3{fill:#9553a1;}</style>
    <clipPath id="clip-path">
      <rect class="cls-1" x="106" y="78" width="178.14" height="44.22"></rect>
    </clipPath>
  </defs>
  <title>Artboard 1</title>
  <g id="Getaround">
    <g class="cls-2">
      <path class="cls-3" d="M126.77,121.68a2,2,0,0,0,2.9-.16q9.94-9.91,19.85-19.84a2,2,0,0,0,0-3.14c-2.56-2.59-5.12-5.17-7.74-7.7a1.58,1.58,0,0,0-1.33-.28A8,8,0,0,0,135,95.62c-1.29,3.63-2.52,7.28-3.59,11a14.41,14.41,0,0,1-5.29,7.88c-1.24.93-2.45,1.9-3.72,2.89,1.49,1.5,2.87,2.95,4.32,4.32Zm5.34-30.87c-2.41-1.27-6.07-.38-8.15,2-1.8,2.09-2.42,4.72-3.14,7.28a4.52,4.52,0,0,0,3.93,6,14.15,14.15,0,0,0,3.24-.38,3.88,3.88,0,0,1-1.77,3,9.5,9.5,0,0,1-5.75,1.34c-.78,0-1.55-.16-2.33-.2a8.45,8.45,0,0,1-6.51-3.19c-1.43-1.74-3.17-3.22-4.76-4.83a2.1,2.1,0,0,1,0-3.39q9.79-9.81,19.6-19.6a2.09,2.09,0,0,1,3.23-.12c3,3,6,6,9,9a3.07,3.07,0,0,1,.26.33c0,.09-.07.19-.11.2-4.2,1.51-6.66,4.66-8.13,8.72-.48,1.32-.9,2.67-1.42,4a2.89,2.89,0,0,1-2.86,2.05,1.73,1.73,0,0,1-1.75-2.26c.56-1.84,1.2-3.66,1.94-5.43a2.83,2.83,0,0,1,3.19-1.67,1.23,1.23,0,0,0,.95-.43c.51-.72.92-1.51,1.41-2.35Z"></path>
    </g>
    <path class="cls-3" d="M173.59,92l-3,2.18c-3.27-2.26-6.73-1.13-7.8,2.66a61.85,61.85,0,0,0-1.69,8.38,3.25,3.25,0,0,0,4.84,3.29c.24-.12.55-.35.61-.58.34-1.43.62-2.88.94-4.41h-2.76l.61-3.27h7c-.1.64-.17,1.25-.3,1.84-.49,2.32-1,4.64-1.53,6.95a2.3,2.3,0,0,1-.67,1.21,9.48,9.48,0,0,1-8.1,2.14c-3.24-.65-5.32-3.08-4.94-6.37a52.66,52.66,0,0,1,2.05-10.09,9.94,9.94,0,0,1,10.45-6.67A5.16,5.16,0,0,1,173.59,92Z"></path>
    <path class="cls-3" d="M273.72,109.11a2.73,2.73,0,0,0,2.7-2.08c.48-1.82.88-3.66,1.21-5.52a1.85,1.85,0,0,0-2.72-2.16,3.72,3.72,0,0,0-1.83,1.9,40.85,40.85,0,0,0-1.31,5.72,1.81,1.81,0,0,0,2,2.14Zm5.12-13c.19-.85.46-2,.71-3.14s.5-2.3.77-3.53h3.82c-.47,2.21-.92,4.4-1.39,6.58-.8,3.76-1.64,7.52-2.37,11.3a19,19,0,0,0,0,3.3l-3,1.85-.95-1.25c-.26.16-.55.35-.86.52a5.4,5.4,0,0,1-5.22.09A3.7,3.7,0,0,1,268,108a40.56,40.56,0,0,1,1.65-7.77A6.62,6.62,0,0,1,275.06,96a18.3,18.3,0,0,1,3.78.15Z"></path>
    <path class="cls-3" d="M201.57,107a2,2,0,0,0,2.27,2.09,2.72,2.72,0,0,0,2.54-2.14,56.22,56.22,0,0,0,1.2-5.52,1.89,1.89,0,0,0-2.83-2.07,3.53,3.53,0,0,0-1.71,1.74c-.64,1.92-1,3.92-1.48,5.89Zm11-10.77c-.77,3.66-1.56,7.27-2.26,10.9a21.63,21.63,0,0,0,0,2.82,1.28,1.28,0,0,1-.46.93,21.85,21.85,0,0,1-2.9,1.34c-.08,0-.42-.63-.65-1a5.84,5.84,0,0,1-4.39,1.16c-2.9-.51-4.5-2.52-4.06-5.45a45.86,45.86,0,0,1,1.27-5.85c.91-3.17,4.19-5.63,7.42-5.15,2,.3,4,0,6,.29Z"></path>
    <path class="cls-3" d="M228.89,109.11a2.59,2.59,0,0,0,2.31-1.87,45.92,45.92,0,0,0,1.32-6,1.79,1.79,0,0,0-2.16-2,3,3,0,0,0-2.67,2.33c-.46,1.78-.82,3.6-1.13,5.42-.22,1.29.7,2.21,2.33,2.19Zm1.69-13.25c4.26,0,6.24,2.19,5.73,5.62a47.17,47.17,0,0,1-1.13,5.43,7.66,7.66,0,0,1-8.89,5.41,4.07,4.07,0,0,1-3.52-4.22,31,31,0,0,1,1.51-7.57,6.93,6.93,0,0,1,6.31-4.66Z"></path>
    <path class="cls-3" d="M243.48,96.15c-.53,2.54-1,4.92-1.52,7.31-.23,1.13-.43,2.26-.61,3.39a1.75,1.75,0,0,0,.86,2.1,2,2,0,0,0,2.44-.51,4.91,4.91,0,0,0,1-1.92c.74-3.06,1.37-6.14,2.05-9.22.08-.36.17-.71.27-1.1h3.81l-1.62,7.64c-.24,1.12-.57,2.24-.7,3.37a32.46,32.46,0,0,0,0,3.45l-3,1.84-1-1.26a5.26,5.26,0,0,1-4.55,1.09,4,4,0,0,1-3.4-4.08c.27-2.86.9-5.69,1.39-8.54.16-.91.42-1.81.57-2.72.1-.62.35-.89,1-.85,1,.05,1.91,0,3,0Z"></path>
    <path class="cls-3" d="M258.52,97.08A4.94,4.94,0,0,1,263.09,96a4.15,4.15,0,0,1,3.43,4.84c-.53,3.77-1.38,7.49-2.1,11.25h-3.91c.54-2.54,1.08-5,1.58-7.45a17.46,17.46,0,0,0,.51-3.4,2.3,2.3,0,0,0-.85-1.81,2.52,2.52,0,0,0-2.13.25,3.6,3.6,0,0,0-1.27,2c-.81,3.27-1.5,6.57-2.23,9.86,0,.17-.09.35-.14.56h-3.81c.49-2.32,1-4.59,1.45-6.85.32-1.49.68-3,.95-4.46a3.52,3.52,0,0,0,0-1.86c-.45-1.06.07-1.47.87-1.86.3-.14.58-.33.86-.51,1.33-.81,1.33-.81,2.21.56Z"></path>
    <path class="cls-3" d="M178.34,103.14a30.13,30.13,0,0,0,3.88-.63,2.13,2.13,0,0,0,1.29-2.62,2,2,0,0,0-2.6-.82c-1.57.49-2.45,1.78-2.57,4.08Zm4.81,5.31,1,2a7.75,7.75,0,0,1-8.21,1.37,4.33,4.33,0,0,1-2.33-4.75,50.25,50.25,0,0,1,1.27-5.85,7.85,7.85,0,0,1,9.77-5.1,3.83,3.83,0,0,1,2.74,4.77,6.21,6.21,0,0,1-5.59,4.94,20.7,20.7,0,0,1-3.21.16c-.93,0-1.16.4-1.1,1.21a1.94,1.94,0,0,0,2.17,2,26.94,26.94,0,0,0,3.52-.78Z"></path>
    <path class="cls-3" d="M191.6,92h3.76l-.8,4.17h3.19L197,99.37l-.85,0c-2.38,0-2.39,0-2.87,2.4-.26,1.27-.51,2.54-.72,3.82-.4,2.46-.15,2.84,2.36,3.47a23.34,23.34,0,0,1-.58,2.64c-.08.25-.62.48-1,.5a4.55,4.55,0,0,1-4.83-5.39c.64-3.79,1.47-7.55,2.23-11.33.24-1.19.52-2.37.79-3.58Z"></path>
    <path class="cls-3" d="M212.75,112l2.14-10c.3-1.41.71-2.81-.08-4.27,1-.59,1.91-1.14,2.83-1.67s.94.61,1.47.92a5.43,5.43,0,0,1,4.82-.92c-.55,1-1,2-1.58,2.91-.07.13-.37.17-.57.17-1.68,0-2.43.6-2.85,2.35-.65,2.7-1.22,5.41-1.82,8.12-.18.79-.34,1.58-.52,2.43Z"></path>
  </g>
</svg>
