<?xml version="1.0" encoding="UTF-8"?>
<svg xmlns="http://www.w3.org/2000/svg" id="Logos" viewBox="0 0 390 200">
  <defs>
    <style>.cls-1{fill:#e85f18;}</style>
  </defs>
  <title>Artboard 1</title>
  <path class="cls-1" d="M188.29,118.3c-1.31.9-2.51,1.86-3.86,2.62A15.41,15.41,0,0,1,171.29,122a8.68,8.68,0,0,1-6.07-9.12c.22-4.88,2.75-8,8.06-9.27,2.86-.71,5.87-1,8.81-1.43a33.87,33.87,0,0,0,3.61-.68c1.65-.45,2.42-1.39,2.41-2.65,0-1.56-.78-2.52-2.51-3a12.92,12.92,0,0,0-6.17-.22,4.35,4.35,0,0,0-3.63,3.35c-.17.68-.5.91-1.3.89-2.35-.06-4.7,0-7.05,0h-1a10.29,10.29,0,0,1,7.59-10.08,27.78,27.78,0,0,1,17.89.59,7.6,7.6,0,0,1,5.48,7.37c.13,4.15,0,8.31.07,12.46q0,4,.14,7.91a2.86,2.86,0,0,0,1.55,2.5c.32.19.36.76.57,1.24-.47,0-.7.09-.92.09-3,0-5.94,0-8.9,0-.58,0-.88-.19-1-.66C188.73,120.27,188.52,119.3,188.29,118.3ZM188,106.06c-3,1.57-6.34,1.44-9.38,2.31a9.47,9.47,0,0,0-2,.8,4,4,0,0,0-1.88,4.63,3.87,3.87,0,0,0,3.51,2.88,8.24,8.24,0,0,0,2.27.05c3-.4,5.62-1.34,6.84-4.1C188.34,110.56,188,108.39,188,106.06Z"></path>
  <path class="cls-1" d="M141,99.92v-7c.89,0,1.76,0,2.63,0,.62,0,.83-.14.89-.73a44.39,44.39,0,0,1,.91-6.43c1.18-4.53,4.52-7.38,9.46-8.78a29.47,29.47,0,0,1,8-1c.45,0,.89,0,.89.58,0,2.06,0,4.13,0,6.19a1,1,0,0,1-.07.27c-1.2.11-2.37.16-3.52.33-3.07.48-4.9,2.17-5.53,4.82a37.12,37.12,0,0,0-.52,4c-.07.58.19.78.85.77,2.12,0,4.23,0,6.35,0,.42,0,.75,0,.75.52,0,2.06,0,4.13,0,6.19a1.26,1.26,0,0,1-.12.31h-4.45c-.85,0-1.71,0-2.56,0-.63,0-.83.2-.8.73s0,1.36,0,2c0,6.09,0,12.17,0,18.26,0,.7-.19.94-1,.93q-3.83-.07-7.67,0c-.81,0-1-.24-1-.9,0-6.69,0-13.38,0-20.06,0-.79-.23-1.08-1.13-1C142.63,100,141.86,99.92,141,99.92Z"></path>
  <path class="cls-1" d="M231,94.89c2.5-4.23,6.09-6.77,11.78-6.21v8.51c-.57,0-1.15,0-1.72,0a32.29,32.29,0,0,0-4.68.48,5.74,5.74,0,0,0-4.58,4.33,17.57,17.57,0,0,0-.52,4c-.06,4.94,0,9.87,0,14.81v1c-.3,0-.49.08-.69.08-2.67,0-5.35,0-8,0-.61,0-.81-.17-.81-.72q0-15.52,0-31c0-.57.18-.79.85-.78q3.66,0,7.32,0c.65,0,.87.19.86.77,0,1.53,0,3.06,0,4.58Z"></path>
  <path class="cls-1" d="M204.87,89.44c.28,0,.51-.06.74-.06h7.93c.53,0,.87,0,.87.66q0,15.66,0,31.33a4.21,4.21,0,0,1-.05.45h-9.47Z"></path>
  <path class="cls-1" d="M214.43,80.31a4.85,4.85,0,0,1-9.64,0c0-2.41,2.15-4.3,4.88-4.29A4.52,4.52,0,0,1,214.43,80.31Z"></path>
</svg>
