<?xml version="1.0" encoding="UTF-8"?>
<svg xmlns="http://www.w3.org/2000/svg" id="Logos" viewBox="0 0 390 200">
  <defs>
    <style>.cls-1{fill:#395afa;}</style>
  </defs>
  <title>Mapbox logo final</title>
  <g id="Mapbox_Final" data-name="Mapbox Final">
    <path class="cls-1" d="M163.09,94a5.62,5.62,0,0,1,9.29.85c.17-.25.32-.49.48-.71a5.32,5.32,0,0,1,5.95-2,5.37,5.37,0,0,1,4,5c.06,3.33,0,6.67,0,10,0,.5-.24.67-.71.66-.67,0-1.35,0-2,0-.84,0-.92-.07-.92-.89v-8c0-.32,0-.63,0-1A3.26,3.26,0,0,0,177,95.2a2.82,2.82,0,0,0-3.13.94,3.78,3.78,0,0,0-.9,2.45c0,2.76,0,5.53,0,8.29,0,.81,0,.85-.87.85-.65,0-1.31,0-2,0s-.78-.2-.78-.77c0-2.77,0-5.53,0-8.3a3.8,3.8,0,0,0-.6-2.22,2.93,2.93,0,0,0-4.95-.06,4.06,4.06,0,0,0-.75,2.43q0,4,0,8.05c0,.8-.07.86-.87.86s-1.35,0-2,0c-.47,0-.7-.15-.7-.65,0-4.73,0-9.46,0-14.18,0-.45.18-.66.64-.65.74,0,1.48,0,2.22,0,.55,0,.78.21.74.75C163.07,93.28,163.09,93.55,163.09,94Z"></path>
    <path class="cls-1" d="M268.16,102.78c-.91,1.51-1.78,2.93-2.62,4.37a1.06,1.06,0,0,1-1.07.61c-.82,0-1.64,0-2.47,0-.26,0-.57.1-.72-.23s.08-.48.21-.68c1.38-2.1,2.74-4.2,4.14-6.29a.84.84,0,0,0,0-1.11c-1.4-2.06-2.75-4.14-4.11-6.23-.13-.2-.36-.39-.22-.68s.45-.25.72-.25c.84,0,1.68,0,2.53,0a1,1,0,0,1,1,.55c.71,1.22,1.44,2.43,2.17,3.64l.43.7c.86-1.44,1.69-2.8,2.48-4.19a1.23,1.23,0,0,1,1.26-.72c.78.05,1.56,0,2.34,0,.26,0,.57-.1.73.23s-.08.48-.21.68c-1.36,2.08-2.72,4.17-4.11,6.23a.85.85,0,0,0,0,1.12c1.4,2.08,2.77,4.18,4.15,6.28.14.22.37.43.2.74s-.44.2-.69.2c-.82,0-1.64,0-2.46,0a1.07,1.07,0,0,1-1.07-.62C269.92,105.7,269.06,104.28,268.16,102.78Z"></path>
    <path class="cls-1" d="M133,82A18,18,0,1,0,151,100,18,18,0,0,0,133,82Zm5.77,24.48a19.82,19.82,0,0,1-9.77,2.41h-.64a25.35,25.35,0,0,1-3.59-.21c-.25,0-.46-.06-.5-.43-.57-4.91-.3-9.7,2.2-14.12A9.2,9.2,0,0,1,144,97.74C144.18,101.8,142.16,104.54,138.81,106.48Z"></path>
    <path class="cls-1" d="M221.07,95.1a7.38,7.38,0,0,0-10.75-1.59c-.2.16-.34.41-.67.48,0-.38,0-.71,0-1s-.19-.7-.69-.68c-.65,0-1.31,0-2,0-.95,0-1,0-1,1q0,9.52,0,19c0,1.91-.27,1.78,1.75,1.77s1.86.26,1.87-1.87v-6.28l.45.4a7.3,7.3,0,0,0,8.75.72A8.43,8.43,0,0,0,221.07,95.1Zm-6.72,9.78a4.89,4.89,0,0,1,0-9.77,4.89,4.89,0,0,1,0,9.77Z"></path>
    <path class="cls-1" d="M241.42,96.67A7.52,7.52,0,0,0,232.87,92a7.7,7.7,0,0,0-3.78,2.12v-.8c0-2.2,0-4.39,0-6.58,0-.62-.23-.84-.82-.81s-1.22,0-1.83,0c-.89,0-.94.06-.94.93v20.26a.5.5,0,0,0,.57.59h2.47q.54,0,.54-.54V106c.31,0,.4.23.56.35a7.13,7.13,0,0,0,6.69,1.51C241,106.63,243.38,101.25,241.42,96.67Zm-7.62,8.21a4.89,4.89,0,1,1,4.67-4.9A4.8,4.8,0,0,1,233.8,104.88Z"></path>
    <path class="cls-1" d="M201.85,102.36V93.12c0-.8-.06-.85-.88-.85h-1.83c-.85,0-.88,0-.88.9v1c-.27-.24-.41-.37-.56-.49a7.11,7.11,0,0,0-7.46-1.26A8.29,8.29,0,0,0,186,103.5,7.42,7.42,0,0,0,198,106.13c.07-.06.14-.17.31-.07,0,.31,0,.64,0,1,0,.51.19.72.71.7.71,0,1.43,0,2.15,0,.55,0,.74-.22.73-.75C201.83,105.44,201.85,103.9,201.85,102.36Zm-8.33,2.53a4.89,4.89,0,1,1,4.69-4.88A4.79,4.79,0,0,1,193.52,104.89Z"></path>
    <path class="cls-1" d="M252.07,91.87a8.13,8.13,0,1,0,8.29,8.1A8.22,8.22,0,0,0,252.07,91.87Zm0,13a4.89,4.89,0,1,1,4.66-4.91A4.78,4.78,0,0,1,252.07,104.89Z"></path>
    <path class="cls-1" d="M135,92.55c.55,1.12,1.06,2.14,1.53,3.16a1.37,1.37,0,0,0,.69.69c1,.48,2.05,1,3.17,1.53-1.09.53-2.1,1-3.12,1.52a1.48,1.48,0,0,0-.77.77c-.47,1-1,2-1.5,3.1-.52-1.08-1-2.07-1.48-3.07a1.58,1.58,0,0,0-.81-.82c-1-.46-2-1-3.08-1.5,1-.47,1.83-.94,2.71-1.31a2.32,2.32,0,0,0,1.34-1.32C134.09,94.4,134.56,93.53,135,92.55Z"></path>
  </g>
</svg>
