<?xml version="1.0" encoding="UTF-8"?>
<svg xmlns="http://www.w3.org/2000/svg" id="Logos" viewBox="0 0 390 200">
  <defs>
    <style>.cls-1{fill:#44444e;}</style>
  </defs>
  <title>nauto logo final</title>
  <g id="Nauto_Final" data-name="Nauto Final">
    <path class="cls-1" d="M220,98.18c0,1.65,0,3.29,0,4.94a4.77,4.77,0,1,0,9.53.06c.06-3.39.08-6.78,0-10.17,0-1.36.37-2.11,1.76-2.18s1.82.53,1.79,2.13c0,3.74.26,7.49-.15,11.21a8.29,8.29,0,0,1-16.44-.59c-.14-3.69,0-7.38,0-11.07,0-1.18.68-1.63,1.68-1.66s1.86.43,1.88,1.65C220,94.39,220,96.29,220,98.18Z"></path>
    <path class="cls-1" d="M177.2,104c0,1.8,0,3.59,0,5.38,0,1.24-.76,1.54-1.71,1.61s-1.83-.32-1.84-1.47c0-3.79-.18-7.59.09-11.36a8.1,8.1,0,0,1,8.47-7.38A8.2,8.2,0,0,1,190.29,99c.07,3.38,0,6.77,0,10.16,0,1.26-.6,1.89-1.79,1.87a1.64,1.64,0,0,1-1.78-1.9c0-3.29,0-6.58,0-9.87s-2-5.27-4.86-5.23-4.68,2.14-4.7,5.24C177.19,100.83,177.2,102.43,177.2,104Z"></path>
    <path class="cls-1" d="M242.4,87.22c.11,1.06-.56,2.72.24,3.52s2.46.18,3.74.26q.38,0,.75,0a1.37,1.37,0,0,1,1.56,1.42,1.44,1.44,0,0,1-1.47,1.7c-1.29.08-2.59.08-3.88,0-.71,0-1,.23-1,1,0,3.33,0,6.67.05,10,0,1.67.94,2.49,2.64,2.64.84.07,1.69.07,2.52.21a1.4,1.4,0,0,1,1.29,1.56,1.49,1.49,0,0,1-1.57,1.48,12.32,12.32,0,0,1-4.43-.46,5.18,5.18,0,0,1-4-5.16c-.09-7.23-.05-14.45-.05-21.67,0-1.19.76-1.7,1.85-1.67s1.71.5,1.7,1.65S242.4,85.9,242.4,87.22Z"></path>
    <path class="cls-1" d="M161.33,86.29A4,4,0,0,0,157.11,82c-4,0-8.08,0-12.11,0a4,4,0,0,0-4.31,4.31c0,3.29,0,6.58,0,9.87,0,.4.23.87-.26,1.27C137.7,93.22,135,89,132.34,84.72a4.89,4.89,0,0,0-4.91-2.7c-.64,0-1.29,0-1.94,0-2.92,0-4.54,1.63-4.54,4.54q0,13.38,0,26.76c0,3,1.61,4.59,4.63,4.6,4.14,0,8.28,0,12.41,0,3.5,0,5-1.5,5-5,0-2.17,0-4.33,0-6.5l.35,0,4.09,6.43c3.39,5.33,3.39,5.33,9.7,5.11a4.06,4.06,0,0,0,4.2-4.28Q161.36,100,161.33,86.29Zm-20.65,26.95c0,1.83-.57,2.45-2.4,2.46q-6.28.06-12.57,0c-1.95,0-2.44-.56-2.45-2.54,0-4.38,0-8.77,0-13.16s0-8.87,0-13.31c0-1.85.53-2.37,2.41-2.44.6,0,1.2,0,1.8,0a2.88,2.88,0,0,1,2.9,1.62C133.52,91,136.74,96,140,101a4.32,4.32,0,0,1,.74,2.51C140.66,106.76,140.69,110,140.68,113.24Zm18.33-.08c0,2-.49,2.54-2.44,2.54-5.55,0-4.25.48-6.89-3.59-2.06-3.18-4-6.4-6.09-9.58a3.49,3.49,0,0,1-.61-2c0-4.63,0-9.26,0-13.9,0-1.86.51-2.4,2.41-2.42q5.59,0,11.21,0c1.86,0,2.39.59,2.39,2.44q0,6.66,0,13.31T159,113.16Z"></path>
    <path class="cls-1" d="M210.64,97.81c-.16-2.8-1.37-5.23-4.22-6.33a10.57,10.57,0,0,0-8.8.73,1.35,1.35,0,0,0-.8,1.84,1.41,1.41,0,0,0,1.94.86,28.47,28.47,0,0,1,2.87-.82c3.27-.65,5.29,1,5.55,4.29.09,1.18-.3,1.38-1.38,1.41a21.91,21.91,0,0,0-6.79.81,4.9,4.9,0,0,0-3.57,5.38,5,5,0,0,0,4.12,4.82,8.32,8.32,0,0,0,7.63-2c-.06,1.64.71,2.21,1.95,2.15.93,0,1.61-.42,1.61-1.54C210.71,105.58,210.86,101.68,210.64,97.81Zm-3.43,5.51a5.14,5.14,0,0,1-5.46,5A3,3,0,0,1,199,106a2.59,2.59,0,0,1,2-3.08,25.74,25.74,0,0,1,4.85-.82C207,101.93,207.44,102.3,207.21,103.32Z"></path>
    <path class="cls-1" d="M269.05,99a8.06,8.06,0,0,0-5.65-7.78A8.45,8.45,0,0,0,254.14,94c-1.66,2.07-1.76,4.47-1.64,6.95,0,.79,0,1.58,0,2.38a8.28,8.28,0,0,0,16.53-.28C269.07,101.72,269.06,100.37,269.05,99Zm-3.56,4.11a4.74,4.74,0,0,1-9.44.56,27.52,27.52,0,0,1,0-5.52,4.74,4.74,0,0,1,9.45.62c0,.7,0,1.4,0,2.1S265.51,102.39,265.49,103.14Z"></path>
  </g>
</svg>
