<?xml version="1.0" encoding="UTF-8"?>
<svg xmlns="http://www.w3.org/2000/svg" id="Logos" viewBox="0 0 390 200">
  <defs>
    <style>.cls-1{fill:#666e34;}.cls-1,.cls-2{fill-rule:evenodd;}.cls-2{fill:#5d452b;}.cls-3{fill:#19322f;}</style>
  </defs>
  <title>OakNorth</title>
  <path class="cls-1" d="M167.91,97.34A16.34,16.34,0,1,1,151.57,81a16.33,16.33,0,0,1,16.34,16.34Z"></path>
  <path class="cls-1" d="M172.63,106.26A11.87,11.87,0,1,1,160.76,94.4a11.86,11.86,0,0,1,11.87,11.86Z"></path>
  <path class="cls-1" d="M152.74,106.26A11.87,11.87,0,1,1,140.87,94.4a11.87,11.87,0,0,1,11.87,11.86Z"></path>
  <path class="cls-2" d="M147.76,120c-.53,2-1.16,4-2,6.76-.05.35.14.66.66.68h8.81c.52,0,.71-.33.66-.68-.85-2.74-4.25-15-4.46-16.42a.59.59,0,0,0-.61-.46h0a.59.59,0,0,0-.6.46L147.76,120Z"></path>
  <path class="cls-2" d="M154.63,116.85c-.49,1-1,2-1.61,3.38-.1.16-.29.21-.5,0l-1.74-1.57L149,117.13c-.2-.19-.17-.38,0-.5,1.31-.78,7-4.4,7.6-4.9a.32.32,0,0,1,.4,0h0a.31.31,0,0,1,.08.4l-2.47,4.69Z"></path>
  <path class="cls-2" d="M147,116.85c.49,1,1,2,1.61,3.38.1.16.28.21.5,0l1.74-1.57,1.74-1.57c.2-.19.17-.38,0-.5-1.31-.78-7-4.4-7.6-4.9a.32.32,0,0,0-.4,0h0a.31.31,0,0,0-.08.4l2.47,4.69Z"></path>
  <path class="cls-3" d="M188.86,116.55a5.11,5.11,0,0,0-1.06-1.84,4.65,4.65,0,0,0-1.66-1.16,6.09,6.09,0,0,0-4.34,0,4.69,4.69,0,0,0-1.67,1.16,5.11,5.11,0,0,0-1.06,1.84,8.33,8.33,0,0,0,0,4.91,5.16,5.16,0,0,0,1.06,1.83,4.54,4.54,0,0,0,1.67,1.15,6.09,6.09,0,0,0,4.34,0,4.51,4.51,0,0,0,1.66-1.15,5.16,5.16,0,0,0,1.06-1.83,8.33,8.33,0,0,0,0-4.91Zm1.9,5.52a7,7,0,0,1-1.49,2.4A6.59,6.59,0,0,1,187,126a8.38,8.38,0,0,1-6,0,6.64,6.64,0,0,1-2.31-1.56,7,7,0,0,1-1.5-2.4,9.29,9.29,0,0,1,0-6.13,7,7,0,0,1,1.5-2.4A6.53,6.53,0,0,1,181,112a8.24,8.24,0,0,1,6,0,6.49,6.49,0,0,1,2.32,1.57,7,7,0,0,1,1.49,2.4,9.13,9.13,0,0,1,0,6.13Z"></path>
  <path class="cls-3" d="M198.36,121.7a13.29,13.29,0,0,0-2.17.16,6,6,0,0,0-1.45.43,2,2,0,0,0-.81.61,1.34,1.34,0,0,0-.26.79,1.74,1.74,0,0,0,.14.72,1.43,1.43,0,0,0,.36.5,1.39,1.39,0,0,0,.54.28,2.43,2.43,0,0,0,.68.09,4.11,4.11,0,0,0,.89-.1,3.83,3.83,0,0,0,.76-.28,4.15,4.15,0,0,0,.68-.44,5.81,5.81,0,0,0,.64-.59V121.7Zm3.15,3.81v.9h-2.16a.91.91,0,0,1-.43-.09.46.46,0,0,1-.22-.35l-.21-1c-.27.25-.54.47-.8.67a5,5,0,0,1-.83.49,4.07,4.07,0,0,1-.93.31,5.25,5.25,0,0,1-1.09.1,3.6,3.6,0,0,1-1.15-.17,2.55,2.55,0,0,1-.93-.51,2.42,2.42,0,0,1-.62-.87,3,3,0,0,1-.24-1.25,2.43,2.43,0,0,1,.34-1.2,3.08,3.08,0,0,1,1.11-1,7.11,7.11,0,0,1,2-.73,13.67,13.67,0,0,1,3-.29v-.82a2.89,2.89,0,0,0-.52-1.87,1.91,1.91,0,0,0-1.55-.63,3.42,3.42,0,0,0-1.14.17,5,5,0,0,0-.8.39l-.58.38a.78.78,0,0,1-.48.17.56.56,0,0,1-.33-.1.73.73,0,0,1-.22-.24l-.33-.59a5.88,5.88,0,0,1,1.88-1.25,5.7,5.7,0,0,1,2.22-.42,4.07,4.07,0,0,1,1.57.29,3.08,3.08,0,0,1,1.15.81,3.4,3.4,0,0,1,.71,1.25,5.51,5.51,0,0,1,.23,1.62v5.24l1,.2a.39.39,0,0,1,.31.38Z"></path>
  <path class="cls-3" d="M213.08,125.54v.89h-2a.84.84,0,0,1-.69-.37l-3.45-4.3a.86.86,0,0,0-.31-.28,1.16,1.16,0,0,0-.47-.07h-.52v3.5l1.18.24a.35.35,0,0,1,.31.39v.89h-4.84v-.89a.36.36,0,0,1,.31-.39l1.19-.24V112.67l-1.19-.24a.35.35,0,0,1-.31-.38v-.89h3.35v9h.48a.85.85,0,0,0,.64-.29l2.36-2.54-.23,0-.34-.08a.36.36,0,0,1-.32-.38v-.89h4.38v.89c0,.21-.09.34-.26.37l-1.29.25-2.44,2.6a2.15,2.15,0,0,1-.61.55,2.07,2.07,0,0,1,.63.65l2.91,3.67.53.11.64.13a.36.36,0,0,1,.32.39Z"></path>
  <path class="cls-3" d="M225.73,122.09v-9l-1.38-.24a.35.35,0,0,1-.31-.38v-.9h5v.9a.35.35,0,0,1-.32.38l-1.18.24v13.34h-1a.86.86,0,0,1-.71-.37l-8.59-11.18c0,.35,0,.67,0,1v9.07l1.38.24a.36.36,0,0,1,.31.39v.89h-5v-.89a.36.36,0,0,1,.31-.39l1.19-.24V113.09l-1.19-.24a.35.35,0,0,1-.31-.38v-.9h2.53a1,1,0,0,1,.4.07,1.07,1.07,0,0,1,.3.28l8.6,11.19a7.81,7.81,0,0,1-.05-1Z"></path>
  <path class="cls-3" d="M236.32,124.09a4.82,4.82,0,0,0,.76-2.91,4.87,4.87,0,0,0-.76-2.92,2.69,2.69,0,0,0-2.32-1.05,3.19,3.19,0,0,0-1.37.27,2.54,2.54,0,0,0-1,.78,3.44,3.44,0,0,0-.58,1.25,7.43,7.43,0,0,0,0,3.34,3.47,3.47,0,0,0,.58,1.24,2.52,2.52,0,0,0,1,.77,3.19,3.19,0,0,0,1.37.27,2.71,2.71,0,0,0,2.32-1Zm-.25-7.94a4.28,4.28,0,0,1,1.58,1.08,4.81,4.81,0,0,1,1,1.71,7.31,7.31,0,0,1,0,4.47,4.85,4.85,0,0,1-1,1.7,4.28,4.28,0,0,1-1.58,1.08,5.86,5.86,0,0,1-4.15,0,4.28,4.28,0,0,1-1.58-1.08,4.89,4.89,0,0,1-1-1.7,7.31,7.31,0,0,1,0-4.47,4.85,4.85,0,0,1,1-1.71,4.28,4.28,0,0,1,1.58-1.08,5.72,5.72,0,0,1,4.15,0Z"></path>
  <path class="cls-3" d="M246.2,115.74a2.91,2.91,0,0,1,1.44.37l-.24,1.38c-.05.18-.14.26-.27.26a1.57,1.57,0,0,1-.5-.1,3,3,0,0,0-.84-.1c-1.2,0-2.1.73-2.69,2.19v5.17l1.18.24a.35.35,0,0,1,.31.39v.89h-4.83v-.89a.35.35,0,0,1,.31-.39l1.18-.24v-7.47l-1.18-.24a.35.35,0,0,1-.31-.38v-.89h2.55a.59.59,0,0,1,.41.11.71.71,0,0,1,.16.4l.12,1.63a3.54,3.54,0,0,1,3.2-2.33Z"></path>
  <path class="cls-3" d="M250.61,125.9a2.79,2.79,0,0,1-.67-2v-6.43h-1.26a.39.39,0,0,1-.28-.1.35.35,0,0,1-.12-.3v-.74l1.72-.22.43-3.24a.38.38,0,0,1,.13-.25.43.43,0,0,1,.29-.1h.94v3.62h3v1.33h-3v6.3a1.33,1.33,0,0,0,.32,1,1.13,1.13,0,0,0,.83.32,1.5,1.5,0,0,0,.5-.08,2.56,2.56,0,0,0,.37-.17l.26-.17a.41.41,0,0,1,.19-.08.31.31,0,0,1,.26.18l.54.88a3.41,3.41,0,0,1-1.15.7,3.88,3.88,0,0,1-1.39.25,2.54,2.54,0,0,1-1.91-.69Z"></path>
  <path class="cls-3" d="M262.58,115.76a3.21,3.21,0,0,1,2.61,1.09,4.35,4.35,0,0,1,.9,2.89v5.17l1.18.24a.35.35,0,0,1,.31.39v.89h-3.34v-6.69c0-1.67-.73-2.51-2.2-2.51a3.79,3.79,0,0,0-2.84,1.46v6.22l.26.06.92.18a.35.35,0,0,1,.31.39v.89h-4.83v-.89a.35.35,0,0,1,.31-.39l1.18-.24V112.67l-1.39-.24a.35.35,0,0,1-.31-.38v-.89h3.55v6.18a4.53,4.53,0,0,1,3.38-1.58Z"></path>
</svg>
