<?xml version="1.0" encoding="UTF-8"?>
<svg xmlns="http://www.w3.org/2000/svg" id="Logos" viewBox="0 0 390 200">
  <defs>
    <style>.cls-1{fill:#c6a367;}.cls-2{fill:#444;}</style>
  </defs>
  <title>One Connect Logo Final</title>
  <g id="OneConnect_Final" data-name="OneConnect Final">
    <path class="cls-1" d="M189.22,105.52a3.42,3.42,0,0,1-1.28-.4c-.32-.15-.05-.34.05-.48,1-1.5,2.12-3,3.19-4.5l3.95-5.55c.34-.48.34-.5-.2-.66-1.21-.36-.89-.47-1.59.52q-3.12,4.36-6.22,8.74l-.26.36a1.47,1.47,0,0,1-2.37.36c-.29-.21,0-.35.07-.49l3.49-4.83,4.47-6.17c.62-.85.82-.94,1.81-.57a.66.66,0,0,0,.91-.31,1.58,1.58,0,0,1,2.14-.17c.15.14,0,.23,0,.34-.15.3-.63.52-.47.86s.6.23.91.34c.83.28.82.16.3.9q-3.81,5.44-7.61,10.88A1.6,1.6,0,0,1,189.22,105.52Zm10.35-40.43q-3.8,5.43-7.58,10.85c-.51.73-.55.62.29.9.31.11.78.08.91.34s-.31.56-.46.86c0,.11-.19.2,0,.34a1.55,1.55,0,0,0,2.14-.18.67.67,0,0,1,.91-.3c1,.36,1.2.26,1.81-.58l5.23-7.23c.91-1.25,1.83-2.51,2.73-3.77.09-.12.32-.26.1-.46a1.5,1.5,0,0,0-2.28.18,3.81,3.81,0,0,0-.24.32l-6.36,8.94c-.67.94-.35.88-1.6.53-.41-.12-.51-.24-.23-.63,1.22-1.68,2.41-3.37,3.61-5.06l3.57-5c.09-.13.37-.31,0-.47a2.87,2.87,0,0,0-1.23-.4A1.57,1.57,0,0,0,199.57,65.09ZM180.18,71Q183,77,185.74,83c.35.75.34.75.93.19.78-.73.78-.73,1.25.19a1,1,0,0,0,.1.17c0,.09.12.09.21,0a1.49,1.49,0,0,0,.89-1.94.67.67,0,0,1,.22-.93c.79-.64.82-.88.41-1.8q-1.84-4.18-3.68-8.35c-.61-1.38-1.22-2.75-1.81-4.13-.15-.34-.27-.38-.58-.15-1.1.82-1.16,1-.61,2.29a2.14,2.14,0,0,0,.12.28l4.38,9.68c.43,1,.44,1-.34,1.67-.42.38-.42.38-.67-.16l-3.05-6.75-2-4.43c-.07-.15-.07-.45-.38-.36a2.07,2.07,0,0,0-1.19,1.59A2.33,2.33,0,0,0,180.18,71Zm29.6,27.76q-2.78-6-5.53-12c-.38-.84-.34-.74-.94-.2-.24.23-.52.63-.75.61s-.33-.55-.5-.84c-.07-.11-.08-.27-.28-.2a1.54,1.54,0,0,0-.9,2,.63.63,0,0,1-.22.89c-.8.66-.83.89-.41,1.85L203.86,99c.62,1.42,1.24,2.84,1.88,4.26.07.16.08.44.4.3a1.45,1.45,0,0,0,.89-2.17,3.09,3.09,0,0,0-.14-.32l-4.5-9.95c-.47-1-.51-.78.34-1.56.46-.42.46-.42.71.13,1,2.26,2.05,4.53,3.07,6.8.67,1.47,1.33,3,2,4.42.06.14.06.41.35.32a2.1,2.1,0,0,0,1.19-1.57A2.43,2.43,0,0,0,209.78,98.71Zm-9.22-20.46a6,6,0,0,1,.17.73c.14.62.11.66-.53.58s-.76-.09-.6.65c0,.12.05.23.07.35a.93.93,0,0,0,.92.83c.58,0,.8.28.88.84.1.78.36,1,1.14,1.07l13.25,1.41c.95.1.95.09.83-.9a1,1,0,0,0-.91-1,3.83,3.83,0,0,0-.59-.1c-3.69-.36-7.38-.73-11.07-1.08-1.12-.1-.92,0-1.16-1-.15-.6-.11-.64.51-.59l7.62.75,4.54.43c.21,0,.48.14.48-.28A1.66,1.66,0,0,0,214.35,79c-1.33-.1-2.66-.23-4-.35L201,77.79C200.58,77.71,200.44,77.85,200.56,78.25Zm-11.1,13.16-.06-.25c-.2-.93-.2-.92.73-.86.15,0,.34.1.42-.13a1.54,1.54,0,0,0-1.15-1.75.73.73,0,0,1-.78-.71c-.16-.95-.38-1.11-1.35-1.21l-8.11-.86-5.48-.59c-.16,0-.33-.07-.39.18a1.45,1.45,0,0,0,1.36,1.87l11.12,1.09c1.36.14,1.07,0,1.38,1.22.1.37,0,.47-.38.43l-7.17-.7-5.24-.5c-.16,0-.37-.11-.41.2a1.67,1.67,0,0,0,1.63,2l2.69.24,10.67,1C189.6,92.05,189.6,92.05,189.46,91.41Zm20.15-22c-.9-.89-1.81-1.78-2.7-2.69-.29-.3-.42-.27-.56.12-.43,1.16-.89,2.31-1.34,3.46-.74,1.91-1.48,3.83-2.23,5.74-.21.56-.21.56.41.63.28,0,.57,0,.85.08s.48-.09.59-.39c.3-.87.63-1.73.94-2.59.46-1.25.92-2.51,1.39-3.76,0-.14.08-.47.32-.29a4.65,4.65,0,0,1,1,1c.16.23-.1.53-.19.79-.62,1.64-1.25,3.28-1.86,4.92-.2.5-.17.55.39.6a5.83,5.83,0,0,1,.74.06c.49.13.68-.09.83-.52.61-1.74,1.25-3.46,1.88-5.18a1.54,1.54,0,0,0,.12-.63A1.74,1.74,0,0,0,209.61,69.44Zm-8.73,35.84q2.06-.54,4.11-1.11c.39-.1.2-.3.06-.47-2.1-2.6-4.2-5.19-6.29-7.8-.23-.28-.4-.33-.6,0a3.8,3.8,0,0,1-.46.65c-.35.37-.27.65,0,1,1.43,1.66,2.81,3.35,4.24,5,.3.35.22.47-.19.58-1.38.34-.95.52-1.88-.6s-2.08-2.53-3.12-3.8c-.35-.43-.38-.43-.7,0-.17.23-.31.48-.49.7s-.22.52,0,.81q1.83,2.16,3.64,4.34a1.81,1.81,0,0,0,1.38.64A1,1,0,0,0,200.88,105.28ZM189.22,64.46,185,65.59c-.33.09-.17.25-.05.4l1.35,1.67c1.66,2.06,3.32,4.1,5,6.16.22.28.38.41.61,0a6.43,6.43,0,0,1,.58-.82c.24-.28.17-.47,0-.72-1.35-1.58-2.67-3.17-4-4.76-.68-.81-.67-.79.36-1.12a.82.82,0,0,1,1.05.34c.94,1.2,1.91,2.37,2.88,3.53.3.35.52,1,.93.95s.55-.7.85-1.06.19-.47,0-.74c-1.23-1.43-2.44-2.88-3.65-4.33a1.79,1.79,0,0,0-1.38-.67A1.5,1.5,0,0,0,189.22,64.46Zm26.49,21.33c-3.09.47-6.17.95-9.26,1.41-.4.06-.54.18-.32.57a9.41,9.41,0,0,1,.42.91.41.41,0,0,0,.55.28c.59-.12,1.18-.2,1.77-.31l4.94-.85c.38-.07.53,0,.4.42-.4,1.43-.06,1.09-1.44,1.36l-.19,0c-1.6.25-3.2.52-4.8.76-.34.06-.43.18-.27.49s.33.66.47,1,.29.35.59.29l5.63-1a1.6,1.6,0,0,0,1.37-1.1c.4-1.36.75-2.74,1.12-4.11.05-.21,0-.33-.24-.29Zm-34.47-8.15-5.38.92a1.75,1.75,0,0,0-1.52,1.34c-.34,1.22-.66,2.45-1,3.68-.12.48-.07.54.41.46l9.06-1.39c1.27-.19,1.25-.19.72-1.39a.68.68,0,0,0-.85-.45c-2,.36-3.95.69-5.93,1-1.13.19-1.11.2-.84-.92a.73.73,0,0,1,.71-.67c1.83-.26,3.66-.58,5.49-.87.16,0,.35,0,.43-.19a5.14,5.14,0,0,0-.77-1.6,1.25,1.25,0,0,0-.19,0Zm.62,15.67c-.6,1.7-1.23,3.39-1.85,5.09a1.65,1.65,0,0,0,.32,1.82c.95,1,1.93,1.94,2.9,2.91.23.23.35.18.45-.1.24-.63.49-1.25.73-1.87l2.88-7.43c.2-.52.17-.57-.38-.61a6,6,0,0,1-.74-.08c-.43-.08-.63.08-.78.48-.67,1.91-1.38,3.8-2.07,5.7-.39,1.06-.37,1-1.19.29a.8.8,0,0,1-.22-1c.58-1.48,1.13-3,1.7-4.45.47-1.24.47-1.24-.93-1.31C182.22,92.55,182,92.86,181.86,93.31Z"></path>
    <path class="cls-2" d="M162.45,125.19H156c-.23,0-.52.08-.62-.2a1.33,1.33,0,0,1,0-1c.07-.16.24-.15.39-.16h1.25c.26,0,.34-.08.21-.33s-.27-.53-.41-.8-.1-.39.21-.39h1.45a.51.51,0,0,1,.48.31,2.26,2.26,0,0,1,.11.22c.24.95.91,1.09,1.76,1,.3,0,.4-.13.39-.42a10.59,10.59,0,0,1,0-1.26c0-.43-.1-.58-.55-.57-1.37,0-2.74,0-4.11,0a.76.76,0,0,1-.64-1.17c.13-.22.34-.18.54-.18,1.4,0,2.8,0,4.21,0,.57,0,.55-.27.55-.67s0-.65-.54-.64c-1.5,0-3,0-4.51,0-.62,0-.66,0-.66-.65s0-.68.63-.68h12.48c.58,0,.6,0,.62.69,0,.47-.13.65-.62.65-1.52,0-3,0-4.56,0-.59,0-.48.34-.49.68s0,.63.49.62c1.41,0,2.81,0,4.21,0,.61,0,.64,0,.64.67s0,.68-.63.68c-1.41,0-2.81,0-4.21,0-.4,0-.53.14-.51.52a11.45,11.45,0,0,1,0,1.31c0,.29.09.44.4.41h.15a1.38,1.38,0,0,0,1.81-1.06.63.63,0,0,1,.73-.46c.41,0,.81,0,1.21,0s.41.15.24.43l0,.09c-.5,1-.5,1,.65,1,.73,0,1,.34.76,1.05-.09.31-.33.29-.56.29h-6.52Z"></path>
    <path class="cls-2" d="M212,122.24c0-.71,0-1.43,0-2.15,0-.26,0-.47-.35-.46s-.39-.15-.38-.41,0-.47,0-.7.09-.33.26-.32c.54,0,.48-.31.48-.65,0-1.22,0-2.44,0-3.65,0-.41.13-.58.55-.57,1.69,0,1.43-.21,1.44,1.42,0,1,0,2,0,3,0,.37.12.48.49.48,1.17,0,2.33,0,3.5,0,.56,0,.61.06.61.71s0,.74-.62.75h-.85c-.57,0-.58,0-.34.56.63,1.45,1.27,2.91,1.89,4.36.26.59.23.63-.38.63-1.71,0-1.26.22-1.91-1.24-.58-1.29-1.13-2.6-1.69-3.9-.09-.22-.17-.46-.48-.39s-.2.34-.21.53c0,1.07,0,2.14,0,3.2,0,.35.11.47.45.47A.73.73,0,0,1,215,125a.4.4,0,0,1-.42.2c-.66,0-1.31,0-2,0s-.73-.23-.74-.74c0-.74,0-1.47,0-2.21Z"></path>
    <path class="cls-2" d="M227.84,125.19h-6.36c-.82,0-1.09-.26-1.09-1.08,0-2.35,0-4.71,0-7.06,0-.46.14-.66.63-.65,1.78,0,1.49-.23,1.51,1.51s0,3.54,0,5.3c0,.5.11.66.63.65,3.68,0,7.35,0,11,0,.69,0,1,.47.72,1.11-.12.29-.38.23-.6.23Z"></path>
    <path class="cls-2" d="M204.17,117.8c0-1.09,0-2.18,0-3.26,0-.74.29-1,1-1,1.5,0,3,0,4.51,0,.72,0,1,.29,1,1,0,2.19,0,4.38,0,6.57,0,.44-.12.67-.6.61H210c-.89,0-.89,0-.89-.87,0-1.81,0-3.61,0-5.42,0-.41-.11-.55-.54-.53q-1.2,0-2.4,0c-.4,0-.52.11-.51.51,0,1.88,0,3.77,0,5.66,0,.64,0,.65-.76.65s-.77,0-.77-.64Z"></path>
    <path class="cls-2" d="M175.32,128.88c.75,0,1.5,0,2.25,0,.5,0,.54.24.52.62s.06.71-.51.69c-1.33,0-2.67,0-4,0-.39,0-.54.11-.52.51,0,1.17-.14,1,1,1s2.34,0,3.51,0c.51,0,.56.24.56.65s-.06.65-.57.64c-1.32,0-2.63,0-3.95,0-.38,0-.54.09-.53.5,0,1.21-.13,1,1,1.05s2.3,0,3.45,0c.52,0,.55.25.56.65s-.08.64-.58.63c-1.47,0-2.94,0-4.4,0a1.38,1.38,0,0,1-1.53-1.52q0-1.91,0-3.81a1.39,1.39,0,0,1,1.52-1.52h2.21Z"></path>
    <path class="cls-2" d="M216.1,135.75h-2.2a1.38,1.38,0,0,1-1.5-1.45q0-2,0-4a1.36,1.36,0,0,1,1.46-1.44c1.52,0,3,0,4.56,0,.52,0,.49.31.49.65s0,.67-.49.66c-1.34,0-2.67,0-4,0-.42,0-.55.13-.54.55,0,1.11-.14.94,1,1s2.37,0,3.55,0c.55,0,.52.31.53.68s-.07.62-.54.61c-1.34,0-2.67,0-4,0-.36,0-.5.09-.49.48,0,1.24-.14,1.06,1.06,1.07s2.27,0,3.41,0c.49,0,.58.2.57.63s0,.67-.55.65C217.61,135.72,216.85,135.75,216.1,135.75Z"></path>
    <path class="cls-2" d="M227.1,120.21h.6c.31,0,.46-.06.46-.41s-.2-.4-.48-.39-.84,0-1.25,0-.52-.14-.48-.5a.75.75,0,0,0,0-.15c0-.66,0-.66.65-.66.33,0,.67,0,1,0s.44.11.52-.15a.66.66,0,0,0-.18-.69c-.41-.41-.81-.84-1.2-1.27-.11-.12-.29-.23-.21-.42s.27-.14.43-.16a1.72,1.72,0,0,1,1.87.77c.18.3.38.25.57,0a1.66,1.66,0,0,1,1.72-.76c.17,0,.4-.06.48.16s-.11.3-.21.42c-.37.41-.74.82-1.13,1.21a.66.66,0,0,0-.22.76c.1.26.37.13.57.14.39,0,.77,0,1.16,0s.4.1.37.38v.1c0,.94.08.81-.79.82-.33,0-.67,0-1,0s-.35.16-.35.41.07.4.37.39.87,0,1.3,0,.49.08.48.45c0,1,.07.85-.84.87h-.5c-.73,0-.74,0-.8.71,0,.24-.12.32-.35.32H229c-.75,0-.76,0-.86-.75,0-.26-.19-.28-.38-.28-.47,0-.94,0-1.4,0-.3,0-.41-.1-.42-.4,0-.92,0-.92.85-.92Z"></path>
    <path class="cls-2" d="M175.36,119.28h2.7a1,1,0,0,1,1.15,1.14c0,1.4,0,2.81,0,4.21,0,.41-.16.57-.57.55s-1,0-1.45,0c-.31,0-.56-.07-.52-.43s-.25-.85.39-.9c.3,0,.35-.16.35-.42,0-.82,0-1.63,0-2.45,0-.34-.12-.43-.43-.43-1.09,0-2.18,0-3.26,0-.37,0-.5.11-.49.48,0,1.17,0,2.34,0,3.51,0,.47-.13.66-.63.65-1.29,0-1.16.11-1.16-1.16s0-2.37,0-3.56c0-.82.37-1.19,1.19-1.2Z"></path>
    <path class="cls-2" d="M209.66,133.59c0-1.36,0-2.66,0-4,0-.22-.13-.54.15-.63a1.81,1.81,0,0,1,1.08,0c.16,0,.13.22.13.35,0,2,0,3.94,0,5.91,0,.32-.13.42-.45.45a1.56,1.56,0,0,1-1.46-.63c-1-1.25-2.14-2.44-3.21-3.66-.12-.12-.2-.31-.41-.34-.13.16-.07.35-.07.53,0,1.18,0,2.37,0,3.56,0,.59-.33.53-.71.53s-.67,0-.66-.53c0-1.9,0-3.81,0-5.71,0-.39.13-.51.52-.53a1.55,1.55,0,0,1,1.42.62c1,1.23,2.11,2.42,3.18,3.62A1.18,1.18,0,0,0,209.66,133.59Z"></path>
    <path class="cls-2" d="M201.27,133.54c.11-.15.06-.32.06-.48,0-1.2,0-2.4,0-3.6,0-.4.14-.55.53-.51a2,2,0,0,0,.35,0c.35,0,.5.1.5.48,0,1.93,0,3.87,0,5.81,0,.34-.11.46-.46.48a1.56,1.56,0,0,1-1.43-.61c-1.05-1.27-2.18-2.49-3.27-3.72l-.32-.4a.74.74,0,0,0-.13.6c0,1.2,0,2.4,0,3.6,0,.62-.37.5-.73.52s-.64,0-.63-.51c0-1.92,0-3.84,0-5.76,0-.36.11-.48.49-.5a1.55,1.55,0,0,1,1.43.6c1.05,1.25,2.15,2.47,3.24,3.69C201,133.35,201.07,133.52,201.27,133.54Z"></path>
    <path class="cls-2" d="M168.74,133.58c.16-.17.1-.35.1-.51,0-1.2,0-2.4,0-3.6,0-.39.11-.56.51-.52a4.17,4.17,0,0,0,.5,0c.25,0,.36.11.36.37q0,3,0,6c0,.28-.13.36-.4.38a1.56,1.56,0,0,1-1.48-.59c-1.05-1.27-2.17-2.49-3.27-3.72-.11-.12-.19-.28-.37-.34-.16.15-.09.35-.09.52,0,1.2,0,2.4,0,3.6,0,.61-.35.51-.72.53s-.65,0-.64-.55c0-1.9,0-3.8,0-5.71,0-.4.14-.49.52-.51a1.55,1.55,0,0,1,1.39.59c1.05,1.25,2.15,2.47,3.23,3.69Z"></path>
    <path class="cls-2" d="M168.29,117a2.08,2.08,0,0,0-.35,0,2.36,2.36,0,0,1-2.78-1.74.52.52,0,0,0-.61-.38c-1.38,0-2.77,0-4.15,0a.51.51,0,0,0-.57.36c-.08.21-.19.4-.28.59a1.92,1.92,0,0,1-1.8,1.15c-.75,0-1.5,0-2.25,0-.37,0-.52-.16-.5-.52a2,2,0,0,0,0-.35c0-.38.13-.55.53-.54s.93,0,1.4,0a.94.94,0,0,0,.91-.57c.94-1.82.54-1.55,2.61-1.56,1.69,0,3.37,0,5.06,0a1,1,0,0,1,1.07.64l0,0c.83,1.55.46,1.45,2.43,1.45.85,0,1.05.27.86,1.1-.06.26-.23.3-.44.3Z"></path>
    <path class="cls-2" d="M208.3,118.55c0,.75,0,1.5,0,2.25a1.87,1.87,0,0,1-.22,1.06c-.15.23-.08.37.19.32.66-.13.95.26,1.2.78s.61,1.07.9,1.61.11.59-.34.62h-.1c-1.54,0-1.1.22-1.8-1.07a8.79,8.79,0,0,1-.41-.81c-.18-.41-.32-.32-.5,0s-.57.87-.81,1.32a.92.92,0,0,1-1,.56c-.35,0-.82.19-1-.18s.22-.61.39-.9c.49-.84,1-1.66,1.52-2.47a1.66,1.66,0,0,0,.27-.94c0-1.57,0-3.14,0-4.71,0-.45.14-.63.61-.62,1.26,0,1.13-.1,1.14,1.13Z"></path>
    <path class="cls-2" d="M183.21,135.75c-.76,0-1.51,0-2.26,0a1.36,1.36,0,0,1-1.44-1.45q0-2,0-4a1.36,1.36,0,0,1,1.41-1.44c1.54,0,3.08,0,4.61,0,.54,0,.47.34.48.67s0,.65-.51.64c-1.33,0-2.67,0-4,0-.39,0-.52.12-.51.52,0,1.1,0,2.2,0,3.31,0,.37.13.49.49.49,1.29,0,2.58,0,3.86,0,.47,0,.72.08.68.63s0,.64-.7.64Z"></path>
    <path class="cls-2" d="M224.05,128.88h2c.72,0,.72,0,.72.67s0,.64-.7.64c-1.27,0-2.54,0-3.8,0-.39,0-.54.1-.53.51q0,1.65,0,3.3c0,.41.15.51.53.51,1.3,0,2.61,0,3.91,0,.51,0,.61.2.6.65s-.08.64-.58.63c-1.47,0-2.93,0-4.4,0a1.39,1.39,0,0,1-1.53-1.52c0-1.27,0-2.54,0-3.8a1.4,1.4,0,0,1,1.52-1.53h2.21Z"></path>
    <path class="cls-2" d="M231.3,129c1,0,2,0,3,0,.58,0,.53.32.55.7s-.11.61-.57.58c-.61,0-1.23,0-1.85,0-.35,0-.46.11-.45.46,0,1.48,0,3,0,4.45,0,.48-.16.61-.61.6-1,0-.9.05-.9-.93,0-1.32,0-2.64,0-4,0-.53-.17-.65-.65-.62s-1.21,0-1.81,0-.42-.32-.42-.61-.09-.67.43-.66C229.16,129,230.23,129,231.3,129Z"></path>
    <path class="cls-2" d="M229.06,114.94c-1.44,0-2.87,0-4.3,0-.63,0-.66,0-.66-.75s0-.73.63-.73h8.7c.61,0,.63,0,.63.72s0,.76-.65.76C232,115,230.51,114.94,229.06,114.94Z"></path>
    <path class="cls-2" d="M234.53,119.56v2.56c0,.75-.29,1-1,1-.4,0-.8,0-1.2,0s-.53-.13-.53-.5.13-.55.5-.51.54-.12.54-.53c0-1.29,0-2.58,0-3.86,0-.37-.11-.52-.48-.48s-.5,0-.75,0-.43-.15-.23-.44A2.32,2.32,0,0,1,234,116a.86.86,0,0,1,.56.91v2.66Z"></path>
    <path class="cls-2" d="M223.6,119.67c0-.91,0-1.83,0-2.75,0-.68.28-1,1-1a3.37,3.37,0,0,0,.55,0c.87-.18,1.29.46,1.76,1,.21.23.05.37-.21.38s-.6,0-.9,0-.45.12-.45.46c0,1.57,0,3.13,0,4.7,0,.64-.08.71-.73.72-.12,0-.23,0-.35,0-.46,0-.67-.17-.66-.65C223.61,121.57,223.6,120.62,223.6,119.67Z"></path>
    <path class="cls-2" d="M173.68,122.13v-.45c0-.67,0-.68.72-.7.44,0,.67.12.63.59,0,.2,0,.41.29.42s.3-.19.31-.4c0-.59.08-.6.81-.61.47,0,.56.24.55.63s0,.8,0,1.2-.1.53-.46.5-.36.15-.35.4,0,.6,0,.9-.2.58-.58.58h-.51c-.38,0-.59-.17-.58-.58,0-.18,0-.36,0-.55,0-.39.11-.83-.55-.77-.19,0-.27-.17-.27-.36s0-.53,0-.8Z"></path>
    <path class="cls-2" d="M175.35,113.57c1,0,2.07,0,3.11,0,.5,0,.63.21.62.66s-.06.7-.59.7c-2.1,0-4.21,0-6.31,0-.52,0-.59-.26-.6-.69s.11-.69.62-.67C173.25,113.58,174.3,113.57,175.35,113.57Z"></path>
    <path class="cls-2" d="M217.34,113.46c1.17,0,1.1-.09.72,1-.27.81-.57,1.61-.82,2.42a.8.8,0,0,1-.89.62c-.36,0-.73,0-1.1,0s-.4-.1-.3-.4c.37-1.07.73-2.14,1.1-3.22a.6.6,0,0,1,.65-.44Z"></path>
    <path class="cls-2" d="M221.53,115.27c-1.3,0-1.08.19-1.2-1.14-.08-.79-.06-.79.75-.8h0c1.45,0,1.44,0,1.52,1.45,0,.38-.11.52-.47.49Z"></path>
    <path class="cls-2" d="M182.86,125.19c-.85,0-1.7,0-2.55,0-.5,0-.58-.25-.58-.66s.05-.73.59-.69.86,0,1.3,0c.26,0,.4-.06.39-.36,0-.67,0-1.34,0-2,0-.26-.1-.37-.35-.36s-.57,0-.85,0a1,1,0,0,1-1.05-1c0-1.34,0-2.67,0-4a1,1,0,0,1,1.06-1c1.18,0,1.18,0,1.19-1.22,0-.69,0-.71.75-.71,1,0,1,0,1,.94s0,1,1,1,1.3.34,1.3,1.29c0,1.15,0,2.31,0,3.46,0,.85-.37,1.2-1.23,1.21-1.09,0-1.09,0-1.08,1.13,0,.4,0,.8,0,1.2s.13.4.42.4.43-.09.41-.4-.08-.54.2-.62a2,2,0,0,1,1.13,0c.17,0,.16.24.16.39,0,.45,0,.9,0,1.35s-.14.61-.58.6C184.6,125.17,183.73,125.19,182.86,125.19Zm-.86-8.35c0-.38-.2-.39-.48-.39s-.44,0-.43.38q0,1.35,0,2.7c0,.35.19.36.45.36s.47,0,.46-.35,0-.9,0-1.35S182,117.29,182,116.84Zm2.64,0c0-.39-.22-.38-.49-.38s-.45,0-.44.37q0,1.35,0,2.7c0,.33.16.38.43.37s.51,0,.5-.37,0-.89,0-1.34S184.62,117.27,184.64,116.83Z"></path>
    <path class="cls-2" d="M195,125.19h-6.61c-.22,0-.53.08-.61-.2a1.41,1.41,0,0,1,0-1c.08-.19.32-.15.5-.15.8,0,1.6,0,2.4,0,.14,0,.4.1.4-.15a.38.38,0,0,0-.42-.4c-.28,0-.56,0-.85,0s-.56-.13-.55-.52c0-.6,0-1.2,0-1.8,0-.37.15-.51.51-.51,3.43,0,6.85,0,10.28,0,.39,0,.53.16.52.54,0,.58,0,1.17,0,1.75,0,.39-.13.56-.53.54a7.12,7.12,0,0,0-.8,0,.37.37,0,0,0-.35.41c0,.21.23.14.36.14.82,0,1.64,0,2.45,0,.56,0,.57.3.57.7s-.09.65-.58.65C199.45,125.18,197.21,125.19,195,125.19Zm5.92-8.48c.45,0,.67-.1.67-.61s-.19-.64-.66-.63c-1.43,0-2.87,0-4.31,0-.21,0-.62.19-.61-.26s.38-.22.59-.23c1.62,0,3.24,0,4.86,0,.43,0,.64-.11.64-.59s-.12-.66-.62-.66c-1.61,0-3.21,0-4.81,0-.31,0-.65.09-.77-.35,0-.14-.22-.13-.35-.13h-1.05c-.16,0-.35,0-.39.17-.08.35-.33.31-.58.31-1.65,0-3.31,0-5,0-.44,0-.63.14-.63.61s.15.65.64.64c1.67,0,3.34,0,5,0,.17,0,.44-.11.46.22s-.28.27-.47.27c-1.47,0-2.94,0-4.41,0-.44,0-.69.09-.66.6s0,.63.68.63H195C197,116.7,198.92,116.69,200.89,116.71Zm-11.86.48c-.49,0-1,0-1.19.53a3.49,3.49,0,0,0-.08,1.87.09.09,0,0,0,.06.07,2.07,2.07,0,0,0,1.23,0c.32-.07.24-.41.22-.64-.05-.49.13-.62.61-.62,3.34,0,6.68,0,10,0,.75,0,.76,0,.76.73,0,.41.17.56.57.56,1,0,1,0,1-1v-.15c0-1.07-.31-1.39-1.36-1.39H195C193,117.19,191,117.2,189,117.19Zm1.35,1.77c-.37,0-.6,0-.6.51s.19.52.58.52h9.22c.37,0,.6,0,.6-.51s-.2-.52-.58-.52c-1.54,0-3.08,0-4.61,0Zm7.81,3.26c.24,0,.51.07.52-.34s-.25-.36-.51-.36h-6.65c-.26,0-.5,0-.49.37s.24.33.47.33h6.66Zm-4.7,1.08c-.11,0-.27-.06-.3.09a.68.68,0,0,0,.11.32c.11.18.29.14.45.14h2.06c.21,0,.43,0,.65,0a.38.38,0,0,0,.32-.39c0-.25-.22-.15-.34-.15-.48,0-1,0-1.45,0Z"></path>
    <path class="cls-2" d="M190.89,135.76c-.67,0-1.33,0-2,0a1.37,1.37,0,0,1-1.46-1.43c0-1.34,0-2.67,0-4a1.35,1.35,0,0,1,1.41-1.43c1.37,0,2.74,0,4.1,0a1.34,1.34,0,0,1,1.41,1.43c0,1.34,0,2.67,0,4a1.36,1.36,0,0,1-1.46,1.43C192.23,135.77,191.56,135.76,190.89,135.76Zm2-5.09c0-.33-.08-.49-.45-.49-1,0-2.1,0-3.15,0-.3,0-.42.11-.42.41q0,1.75,0,3.51c0,.3.12.41.42.41h3.15c.32,0,.46-.11.45-.44,0-.58,0-1.17,0-1.75S192.91,131.22,192.93,130.67Z"></path>
    <path class="cls-2" d="M158.49,135.76c-.68,0-1.36,0-2.05,0a1.35,1.35,0,0,1-1.43-1.45q0-2,0-4a1.35,1.35,0,0,1,1.42-1.46c1.35,0,2.71,0,4.06,0a1.36,1.36,0,0,1,1.44,1.45q0,2,0,4a1.38,1.38,0,0,1-1.48,1.46Zm2-5.08c0-.37-.12-.51-.49-.5q-1.53,0-3.06,0c-.39,0-.48.15-.48.5,0,1.12,0,2.24,0,3.36,0,.34.11.48.46.47H160c.36,0,.46-.14.45-.48,0-.56,0-1.13,0-1.7S160.47,131.23,160.5,130.68Z"></path>
    <path class="cls-2" d="M175.35,118.69c-.81,0-1.63,0-2.45,0-.66,0-.94-.29-1-1q0-.67,0-1.35a.81.81,0,0,1,.87-.89c1.69,0,3.37,0,5.06,0a.82.82,0,0,1,.89.88c0,.48,0,1,0,1.45a.81.81,0,0,1-.9.86C177,118.7,176.19,118.69,175.35,118.69Zm-1.42-2.06c-.35,0-.36.21-.36.46s0,.47.34.47q1.43,0,2.85,0c.35,0,.35-.2.36-.45s0-.49-.39-.48-.9,0-1.35,0S174.41,116.65,173.93,116.63Z"></path>
  </g>
</svg>
