<?xml version="1.0" encoding="UTF-8"?>
<svg xmlns="http://www.w3.org/2000/svg" id="Logos" viewBox="0 0 390 200">
  <defs>
    <style>.cls-1,.cls-2{fill:#367dbe;}.cls-2{stroke:#1d1d1b;stroke-miterlimit:10;stroke-width:0.25px;}</style>
  </defs>
  <title>opendoor logo final</title>
  <g id="Opendoor_Final" data-name="Opendoor Final">
    <path class="cls-1" d="M125.48,84.47c5.72-.11,11.46,4.25,11.58,12a16,16,0,0,1-1.36,7.18c-2.33,5-7.73,7-12.26,6.34-6.71-.91-10.38-5.3-10.44-12.11a13.44,13.44,0,0,1,1.78-7.68C117.35,86.21,120.39,84.41,125.48,84.47ZM119.84,97c0,.66,0,1.32,0,2a19.82,19.82,0,0,0,1.25,7,4.1,4.1,0,0,0,4.18,2.57,4,4,0,0,0,3.89-2.82,13.43,13.43,0,0,0,.65-2.39,40.09,40.09,0,0,0,.19-9.91,14.27,14.27,0,0,0-1.16-4.92A4.25,4.25,0,0,0,124.29,86a4.08,4.08,0,0,0-3.43,2.87A23,23,0,0,0,119.84,97Z"></path>
    <path class="cls-2" d="M212.44,107.74a11.64,11.64,0,0,1-3.43,2c-4.18,1.26-7.84-.43-9.12-4.59a12.56,12.56,0,0,1,.65-9.71c1.4-2.76,3.85-4.09,6.81-4.61a9.7,9.7,0,0,1,4,0l.95.21V83.1l5.74-.54s0,20.06,0,26.82l-5.65.54S212.43,109,212.44,107.74Zm-.17-7.8c0-1.78,0-4.53,0-6.31-.67-.67-.46-.62-1.29-1.13-1.93-1.21-4.4,0-5.2,2.42a16.77,16.77,0,0,0-.18,9.08c.68,2.89,2.86,3.82,5.65,2.8a3.15,3.15,0,0,0,1-.56S212.27,101.75,212.27,99.94Z"></path>
    <path class="cls-2" d="M139.61,104.26c0-3.91,0-8.32,0-12.23,0-1-.09-.93.86-1,1.12-.09,3.09-.22,4.26-.36.77-.09.58,0,.6.55,0,.14,0,1.78,0,1.78l.75-.57a9.58,9.58,0,0,1,3-1.51c3.63-1,6.88.34,8.27,3.86a12.32,12.32,0,0,1-.73,11.1c-2.18,3.67-5.8,4.44-9.74,4.2a7.17,7.17,0,0,1-1.54-.3c0,1.75,0,7,0,7l-5.75.7Zm5.74-3.39c0,1.79,0,6.35,0,6.35a3.75,3.75,0,0,0,1.29,1,3.55,3.55,0,0,0,5-2.2,17.81,17.81,0,0,0,.33-8.55c-.58-3.16-2.57-4.24-5.63-3.35a3.83,3.83,0,0,0-1,.36C145.38,96.3,145.35,99.06,145.35,100.87Z"></path>
    <path class="cls-2" d="M179.93,100.45c0-2.68,0-6.44,0-9.11,1.15-.18,5.52-.72,5.52-.72l-.05,2.57s.38-.26.94-.6a12.48,12.48,0,0,1,5.05-1.94c3.24-.38,5.82,1,5.74,4.87-.1,4.28,0,8.57,0,12.86,0,1.29,0,1.36,0,1.36h-5.81s0-.36,0-1.23c0-3.74,0-7.48,0-11.22,0-2.84-.6-3.59-3.43-3.41a8.23,8.23,0,0,0-2.13.59c0,3.91,0,9,0,12.91,0,.41,0,2.35,0,2.35h-5.8s0-.35,0-1.17C179.94,105.87,179.93,103.16,179.93,100.45Z"></path>
    <path class="cls-2" d="M260.91,100.2c0,6-3.91,10-9.79,10s-9.62-3.81-9.62-9.7,3.75-9.87,9.68-9.88S260.9,94.39,260.91,100.2Zm-6.19.22V99.7A15,15,0,0,0,254,94a2.8,2.8,0,0,0-2.9-1.88,2.72,2.72,0,0,0-2.65,1.77,11.47,11.47,0,0,0-.77,3.91,23.81,23.81,0,0,0,.67,8.57,2.7,2.7,0,0,0,2.06,2.07c1.95.41,3.26-.39,3.87-2.43A18.65,18.65,0,0,0,254.72,100.42Z"></path>
    <path class="cls-2" d="M220.29,100.37c0-6,3.83-9.84,9.75-9.8s9.67,3.86,9.66,9.81-4,9.76-9.76,9.77S220.28,106.33,220.29,100.37Zm13.21.11a16.66,16.66,0,0,0-.78-6.5,2.8,2.8,0,0,0-2.82-1.83,2.74,2.74,0,0,0-2.69,1.72,11.21,11.21,0,0,0-.78,3.91,24,24,0,0,0,.64,8.56,2.69,2.69,0,0,0,2.13,2.13c2,.39,3.24-.42,3.83-2.48A18.24,18.24,0,0,0,233.5,100.48Z"></path>
    <path class="cls-2" d="M166.05,99.55s0,.31,0,1.13c0,3.29,1.85,5.78,4.44,6.09a10.14,10.14,0,0,0,4.88-.41,6.44,6.44,0,0,1,.88-.28c.4-.09.56.07.75.37s0,.56-.21.8c-3.39,3.46-10.09,3.86-13.7.65a8.48,8.48,0,0,1-2.57-5.48c-.43-3.59,0-7,3-9.48a9.41,9.41,0,0,1,9.93-1.7c2.92,1.07,4,3.56,4.31,6.47a18,18,0,0,1,0,1.81Zm-.1-1.49,6.12-.18a37.39,37.39,0,0,0-.28-3.76A2.42,2.42,0,0,0,169.58,92a3,3,0,0,0-2.68,1.72C166.22,94.84,166,98.06,166,98.06Z"></path>
    <path class="cls-2" d="M268.83,93.12c.81-.58,1.46-1.08,2.15-1.52a5.49,5.49,0,0,1,3.39-1A2.61,2.61,0,0,1,277,92.7a2.77,2.77,0,0,1-1.66,3.22,2.8,2.8,0,0,1-3.44-1c-.72-1-.86-1.35-1.47-1s-1.43,1-1.43,1v13.43c0,1.37,0,1.45,0,1.45h-5.79s0-.27,0-1.19q0-8.18,0-16.37V91.1l5.69-.45Z"></path>
  </g>
</svg>
