<?xml version="1.0" encoding="UTF-8"?>
<svg xmlns="http://www.w3.org/2000/svg" id="Logos" viewBox="0 0 390 200">
  <defs>
    <style>.cls-1{fill:#e43312;}</style>
  </defs>
  <title>OYO logo final</title>
  <g id="Oyo_Final" data-name="Oyo Final">
    <path class="cls-1" d="M189.85,83.31a24.24,24.24,0,0,0,1.38,2.8c1.13,2.23,2.25,4.48,3.38,6.71.09.18.11.49.32.49s.29-.32.38-.51c.87-1.73,1.67-3.48,2.6-5.17.72-1.33,1.4-2.69,2.1-4a.53.53,0,0,1,.54-.34l11.66,0,.07,0a1.75,1.75,0,0,1-.31.76q-5.34,10.61-10.7,21.19a2,2,0,0,0-.26.93q0,5.1,0,10.18c-.18.16-.41.09-.61.09-3.6,0-7.2,0-10.81,0-.6,0-.68-.22-.68-.73,0-3.09,0-6.17,0-9.26a2,2,0,0,0-.05-.76l-4.23-8.37q-3.51-7-7-13.93c.06-.28.28-.2.45-.2,3.81,0,7.61,0,11.42,0A.43.43,0,0,1,189.85,83.31Z"></path>
    <path class="cls-1" d="M163,83a17,17,0,0,0-.13,34A17,17,0,1,0,163,83ZM163,106A6.06,6.06,0,1,1,169,100,6.11,6.11,0,0,1,163,106Z"></path>
    <path class="cls-1" d="M227.05,83A17,17,0,1,0,244,100,17,17,0,0,0,227.05,83Zm6,17.15a6,6,0,1,1-5.82-6.23A6.06,6.06,0,0,1,233.05,100.16Z"></path>
  </g>
</svg>
