<?xml version="1.0" encoding="UTF-8"?>
<svg xmlns="http://www.w3.org/2000/svg" id="Logos" viewBox="0 0 390 200">
  <defs>
    <style>.cls-1{fill:#042e6f;}.cls-2{fill:#00baf2;}</style>
  </defs>
  <title>PayTM Logo</title>
  <g id="PayTM_final" data-name="PayTM final">
    <path class="cls-1" d="M199.8,100v9.48a6.82,6.82,0,0,1-7.22,7.23h-7.33c-1.14,0-1.43-.29-1.43-1.43,0-1.4,0-2.8,0-4.21,0-1,.33-1.27,1.3-1.28h5.63a8.61,8.61,0,0,0,1.24-.08,1,1,0,0,0,.89-1,1,1,0,0,0-.8-1.13,5.15,5.15,0,0,0-1-.09,23.29,23.29,0,0,1-3.83-.11c-3.47-.67-5.56-3.26-5.6-7,0-3.46,0-6.92,0-10.37,0-1.16.35-1.48,1.51-1.49h3.93c1.19,0,1.53.34,1.54,1.56,0,2.92,0,5.84,0,8.76,0,1.52.23,1.75,1.77,1.75,2.41,0,2.43,0,2.43-2.45V89.94c0-1,.36-1.39,1.4-1.4q2.06,0,4.11,0c1.08,0,1.44.37,1.44,1.46Z"></path>
    <path class="cls-1" d="M159.36,95.17c0-4-2.59-6.58-6.6-6.62-3.34,0-6.67,0-10,0-1.1,0-1.42.33-1.42,1.44v25.2c0,1.29.19,1.47,1.51,1.48h3.94c1.2,0,1.5-.29,1.5-1.53,0-2,0-4.06,0-6.08,0-.57.16-.7.7-.68q2.06,0,4.11,0a6,6,0,0,0,6.16-5.42A61,61,0,0,0,159.36,95.17Zm-7,4.83a1.43,1.43,0,0,1-1.44,1.44h-2.71v-6h2.91a1.23,1.23,0,0,1,1.24,1.24Z"></path>
    <path class="cls-1" d="M179.22,95.69c0-4.22-2.12-6.57-6.27-7-2.67-.28-5.36-.07-8-.1a1,1,0,0,0-1.13,1.19c0,1.32,0,2.63,0,3.94,0,1.11.34,1.44,1.44,1.45h5.27c1.3,0,1.64.27,1.64,1.3s-.25,1.23-1.58,1.23a31.1,31.1,0,0,0-3.74.13,6.43,6.43,0,0,0-5.8,6.31q-.09,3.09,0,6.17a6.18,6.18,0,0,0,6.47,6.29q4.38,0,8.76,0a2.77,2.77,0,0,0,3-3v-8.94C179.23,101.65,179.25,98.67,179.22,95.69Zm-6.87,13.25a1.45,1.45,0,0,1-1.45,1.45h-1.52A1.37,1.37,0,0,1,168,109v-3.59a1.24,1.24,0,0,1,1.24-1.23h1.86a1.24,1.24,0,0,1,1.24,1.24Z"></path>
    <path class="cls-2" d="M217,89.74a1.07,1.07,0,0,0-1.16-1.19c-.62,0-1.23,0-1.88,0s-.77-.12-.76-.73c0-1.18,0-2.32,0-3.49s-.67-1.41-1.63-1a4.34,4.34,0,0,0-1.94,1.8,6.59,6.59,0,0,1-6,3.44,1,1,0,0,0-1.11,1.12c0,1.55,0,3.1,0,4.65a1.06,1.06,0,0,0,1.19,1.21h2.71v19.74c0,1.26.3,1.55,1.53,1.55s2.51,0,3.76,0,1.57-.26,1.57-1.55c0-5.81,0-11.62,0-17.44,0-.68,0-1.94,0-2.3h2.51c.84-.07,1.22-.43,1.23-1.23Q217,92,217,89.74Z"></path>
    <path class="cls-2" d="M248.35,93.16a7.2,7.2,0,0,0-11.41-3.25c-.29.23-.48.6-1,.18q-4.54-3.56-9.37-.22c-.22-1.19-.41-1.35-1.6-1.36-1.37,0-2.74,0-4.12,0-.94,0-1.29.34-1.29,1.29q0,12.75,0,25.49c0,1,.36,1.32,1.37,1.32h4c1.28,0,1.55-.28,1.55-1.59V97.24a1.1,1.1,0,0,1,0-.18,1.09,1.09,0,0,1,0-.18,2.08,2.08,0,0,1,4.1,0,.76.76,0,0,1,0,.15,1.28,1.28,0,0,1,0,.19c0,1.88,0,3.76,0,5.64q0,6.21,0,12.43c0,1.07.33,1.36,1.4,1.36h4c1.24,0,1.51-.26,1.51-1.51V97.34a1.79,1.79,0,0,1,0-.24,1.5,1.5,0,0,1,0-.22,2.1,2.1,0,0,1,4.14,0c0,.06,0,.12,0,.18s0,.18,0,.28c0,5.9,0,11.81,0,17.71,0,1.27.31,1.57,1.58,1.58h3.93c1.15,0,1.43-.28,1.43-1.41,0-6.71,0-13.42,0-20.13A6,6,0,0,0,248.35,93.16Z"></path>
  </g>
</svg>
