<?xml version="1.0" encoding="UTF-8"?>
<!-- Generator: Adobe Illustrator 23.0.1, SVG Export Plug-In . SVG Version: 6.00 Build 0)  -->
<svg xmlns="http://www.w3.org/2000/svg" xmlns:xlink="http://www.w3.org/1999/xlink" id="Logos" x="0px" y="0px" viewBox="0 0 390 200" style="enable-background:new 0 0 390 200;" xml:space="preserve">
<style type="text/css">
	.st0{display:none;}
	.st1{display:inline;fill:#00B45E;}
	.st2{display:inline;fill:#E53312;}
	.st3{display:inline;}
	.st4{fill:#5A5A5A;}
	.st5{fill:url(#SVGID_1_);}
	.st6{fill:#BABCBE;}
	.st7{fill:url(#SVGID_2_);}
	.st8{fill-rule:evenodd;clip-rule:evenodd;}
	.st9{fill:#D41317;}
	.st10{fill:#1D1D1B;}
	.st11{fill:#454651;}
	.st12{display:inline;fill:#454651;}
	.st13{fill:#3E434F;}
	.st14{display:inline;fill:#1D1D1B;}
	.st15{display:inline;fill:#44444E;}
	.st16{display:inline;fill:#44444E;stroke:#44444E;stroke-linecap:round;stroke-linejoin:bevel;stroke-miterlimit:10;}
	.st17{fill:#44444E;stroke:#44444E;stroke-linecap:round;stroke-linejoin:bevel;stroke-miterlimit:10;}
	.st18{fill:#44444E;stroke:#44444E;stroke-width:7;stroke-linecap:square;stroke-linejoin:round;stroke-miterlimit:10;}
	.st19{display:inline;fill:none;stroke:#44444E;stroke-width:7;stroke-linecap:round;stroke-linejoin:bevel;stroke-miterlimit:10;}
	.st20{fill:none;stroke:#44444E;stroke-width:7;stroke-linecap:square;stroke-linejoin:round;stroke-miterlimit:10;}
	.st21{fill:none;stroke:#44444E;stroke-width:7;stroke-linecap:round;stroke-linejoin:bevel;stroke-miterlimit:10;}
	.st22{display:inline;fill:none;stroke:#44444E;stroke-width:7;stroke-linecap:square;stroke-linejoin:bevel;stroke-miterlimit:10;}
	.st23{display:inline;fill:none;stroke:#44444E;stroke-width:7;stroke-linecap:square;stroke-linejoin:round;stroke-miterlimit:10;}
	.st24{display:inline;fill:#367DBF;}
	.st25{display:inline;fill:#367DBF;stroke:#1D1D1B;stroke-width:0.25;stroke-miterlimit:10;}
	.st26{display:inline;fill:#2E4498;}
	.st27{display:inline;fill:#F58428;}
	.st28{fill:#FFFFFF;}
	.st29{fill:#444968;}
	.st30{display:inline;fill:#E4201C;}
	.st31{fill:#0677B7;}
	.st32{fill:#686867;}
	.st33{display:inline;fill:#3F4042;}
	.st34{display:inline;fill:#F6B21F;}
	.st35{fill:#EA5504;}
	.st36{display:inline;fill:#005E3C;}
	.st37{clip-path:url(#SVGID_4_);fill:#32617E;}
	.st38{clip-path:url(#SVGID_4_);fill:#9ABFD1;}
	.st39{clip-path:url(#SVGID_6_);fill:url(#SVGID_7_);}
	.st40{fill:#3E424E;}
	.st41{display:inline;fill:#3E424E;}
	.st42{fill:#3A0C0F;}
	.st43{fill:#FF0126;}
	.st44{fill:#A5FF01;}
	.st45{fill:#FFAD01;}
	.st46{fill:#32FFEC;}
	.st47{fill:#8F8F8F;}
	.st48{fill:#2F4499;}
	.st49{fill:#F58529;}
	.st50{clip-path:url(#SVGID_9_);fill:#FFFFFF;}
	.st51{clip-path:url(#SVGID_9_);fill:#F58529;}
	.st52{clip-path:url(#SVGID_9_);fill:#454967;}
	.st53{fill:#454967;}
	.st54{clip-path:url(#SVGID_13_);}
	.st55{clip-path:url(#SVGID_14_);}
	.st56{clip-path:url(#SVGID_15_);}
	.st57{fill:#525556;}
	.st58{clip-path:url(#SVGID_19_);fill:#525556;}
	.st59{clip-path:url(#SVGID_21_);}
	.st60{fill:#AEB3B5;}
	.st61{clip-path:url(#SVGID_25_);}
	.st62{clip-path:url(#SVGID_29_);fill-rule:evenodd;clip-rule:evenodd;}
	.st63{clip-path:url(#SVGID_29_);fill:#DA2128;}
	.st64{fill:#231F20;}
	.st65{clip-path:url(#SVGID_31_);fill:#BD9D69;}
	.st66{fill:#66676A;}
	.st67{clip-path:url(#SVGID_33_);fill:#66676A;}
	.st68{clip-path:url(#SVGID_35_);fill:#66676A;}
	.st69{clip-path:url(#SVGID_37_);fill:#66686A;}
	.st70{fill:#67686A;}
	.st71{fill:#66686A;}
	.st72{clip-path:url(#SVGID_39_);fill:#66676A;}
	.st73{clip-path:url(#SVGID_41_);fill:#44444E;}
	.st74{fill:#44444E;}
	.st75{fill:none;stroke:#44444E;stroke-width:0.1408;stroke-linecap:round;stroke-linejoin:bevel;stroke-miterlimit:10;}
	.st76{fill:none;stroke:#44444E;stroke-width:0.9853;stroke-linecap:square;stroke-linejoin:round;stroke-miterlimit:10;}
	.st77{fill:none;stroke:#44444E;stroke-width:0.9853;stroke-linecap:round;stroke-linejoin:bevel;stroke-miterlimit:10;}
	
		.st78{clip-path:url(#SVGID_43_);fill:none;stroke:#44444E;stroke-width:0.1408;stroke-linecap:round;stroke-linejoin:bevel;stroke-miterlimit:10;}
	
		.st79{clip-path:url(#SVGID_43_);fill:none;stroke:#44444E;stroke-width:0.9853;stroke-linecap:square;stroke-linejoin:bevel;stroke-miterlimit:10;}
	.st80{fill:none;stroke:#44444E;stroke-width:0.9853;stroke-linecap:square;stroke-linejoin:bevel;stroke-miterlimit:10;}
	
		.st81{clip-path:url(#SVGID_45_);fill:none;stroke:#44444E;stroke-width:0.9853;stroke-linecap:square;stroke-linejoin:bevel;stroke-miterlimit:10;}
	
		.st82{clip-path:url(#SVGID_45_);fill:none;stroke:#44444E;stroke-width:0.9853;stroke-linecap:square;stroke-linejoin:round;stroke-miterlimit:10;}
	
		.st83{clip-path:url(#SVGID_47_);fill:none;stroke:#44444E;stroke-width:0.1408;stroke-linecap:round;stroke-linejoin:bevel;stroke-miterlimit:10;}
	.st84{fill:#533278;}
	.st85{clip-path:url(#SVGID_49_);}
	.st86{clip-path:url(#SVGID_54_);}
	.st87{clip-path:url(#SVGID_55_);}
	.st88{clip-path:url(#SVGID_59_);}
	.st89{clip-path:url(#SVGID_64_);}
	.st90{clip-path:url(#SVGID_65_);}
	.st91{clip-path:url(#SVGID_70_);}
	.st92{clip-path:url(#SVGID_71_);}
	.st93{clip-path:url(#SVGID_75_);}
	.st94{clip-path:url(#SVGID_79_);fill:#177FC1;}
	.st95{fill:#177FC1;}
	.st96{fill:#18161B;}
	.st97{fill:#9A9FA2;}
</style>
<g>
	<path class="st84" d="M197.22,98.19c0.05-0.36-0.03-0.84-0.35-1.13c-0.14-0.13-0.59-0.31-1.09,0.14c-0.52,0.47-1.08,2.44-1.17,3.73   c0.48-0.02,1.46-0.57,1.72-0.75C196.86,99.82,197.11,98.92,197.22,98.19L197.22,98.19z"></path>
	<polygon class="st84" points="229.35,96.58 229.78,96.58 229.78,97.68 229.95,97.68 229.95,96.58 230.37,96.58 230.37,96.43    229.35,96.43 229.35,96.58  "></polygon>
	<g>
		<path class="st84" d="M231.65,96.43l-0.36,1.06h0l-0.36-1.06h-0.24v1.25h0.16v-0.74c0-0.04,0-0.2,0-0.31h0l0.35,1.05h0.17    l0.35-1.05h0c0,0.12,0,0.28,0,0.31v0.74h0.16v-1.25H231.65L231.65,96.43z"></path>
		<path class="st84" d="M217.08,92.5c-0.04,0.36-0.37,0.66-0.52,0.66c-0.15,0-0.66-0.05-1.11-0.04c-0.88,0.03-1.69,0.21-1.69,0.21    c-0.11,0.75-0.11,3.06-0.11,4.41c0,1.24,0.13,5.85,0.17,6.36c0.02,0.35,0.03,1.26,0.04,1.81c0,0.27-0.15,0.56-0.29,0.6    c-0.15,0.04-0.97,0.4-1.23,0.4c-0.26,0-0.7,0.04-1.03-0.33c-0.33-0.36-0.52-1.46-0.66-2.3c-0.15-0.84-0.13-3.11-0.05-4.21    c0.07-1.09,0.3-6.05,0.3-6.05c-0.18,0-1,0.18-1.51,0.22c-0.52,0.04-0.7-0.07-0.89-0.36c-0.18-0.29-0.41-0.69-0.48-0.88    c-0.07-0.18-0.26-0.67-0.15-0.67c0.11,0,0.3,0.02,0.52,0c0.35-0.03,0.9-0.14,1.28-0.25c0.96-0.29,1.52-0.37,1.52-0.37    c0-0.18,0.14-1.82,0.22-2.14c0.07-0.29,0.11-0.29,0.33-0.29c0.22,0,0.85,0.16,1.13,0.21c0.74,0.15,0.76,0.47,0.76,0.47    c0.05,0.24,0.02,1.23,0.02,1.23s0.42-0.07,0.88-0.09c0.81-0.03,2.18,0.24,2.18,0.24C216.82,91.54,217.12,92.14,217.08,92.5    L217.08,92.5z M209.12,100.21c-0.03,0.62-0.24,5.11-0.27,5.54c-0.04,0.44-0.09,2.08-0.1,2.34c-0.01,0.25-0.1,0.34-0.36,0.4    c-0.4,0.08-1.2-0.14-1.49-0.21c-0.4-0.11-0.8-0.41-0.88-0.94c-0.06-0.39,0.07-2.68,0.12-3.3c0.05-0.62,0.38-6.02,0.38-6.2    c0-0.18-0.25-0.15-0.45,0.15c-0.32,0.47-0.98,2.09-1.31,2.9c-0.34,0.81-1.24,3.92-1.24,3.92c0,0.18,0.15,1.25,0.04,1.39    c-0.11,0.15-0.41,0.48-1.09,0.48c-0.68,0-1.2-0.41-1.39-0.63c-0.19-0.22-0.41-1.17-0.45-1.61c-0.04-0.44-0.19-2.75-0.19-2.75    c0-1.75,0.04-3.18,0.13-3.51c0.13-0.49,0.87-0.91,1.25-0.92c0.34-0.02,0.56,0.05,0.77,0.17c0.33,0.18,0.42,0.47,0.46,0.78    c0.03,0.25,0.16,2.33,0.16,2.33c1.01-2.64,1.73-3.51,2.11-3.97c0.39-0.48,0.98-0.7,1.73-0.77c0.75-0.07,1.31,0.07,1.64,0.59    C209.16,97.11,209.16,99.4,209.12,100.21L209.12,100.21z M199.55,103.77c-0.17,0.31-0.35,0.59-0.51,0.8    c-0.53,0.7-1.4,2.56-2.83,2.66c-1.43,0.09-2.19-0.1-3.32-1.1c-1.09-0.98-1.25-3.47-1.25-4.12c0.01-0.73,0.23-2.97,0.98-4.14    c0.75-1.17,1.65-1.75,3.15-1.95c1.55-0.2,2.28,0.21,2.58,0.53c0.45,0.48,0.8,1.29,0.63,2.06c-0.23,1.01-1.06,2.08-2.07,2.65    c-0.78,0.44-1.94,0.95-2.31,1.05c0,0-0.02,0.85,0.16,1.66c0.21,0.97,0.59,1.4,0.96,1.63c0.38,0.23,0.63,0.1,1.06-0.27    c0.44-0.38,1.32-1.93,1.83-2.78c0.06-0.1,0.11-0.19,0.16-0.27C199.26,101.34,200,102.98,199.55,103.77L199.55,103.77z     M190.15,109.96c-0.47,0.1-1.09-0.17-1.41-0.41c-0.32-0.24-0.57-0.96-0.68-1.43c-0.15-0.63-1.06-3.74-1.07-7.3    c-0.01-4.24,0.55-9.49,1.6-11.77c0.2-0.44,0.65-1.06,0.87-1.23c0.37-0.28,1.1-0.36,1.62-0.41c0.33-0.03,0.89,0.32,0.63,1.25    c-0.3,1.07-1.43,6.42-1.49,11.9c-0.02,1.92,0.21,5.85,1.13,8.79C191.55,109.92,190.63,109.86,190.15,109.96L190.15,109.96z     M224.66,84.81c-4.98-8.42-14.57-15.73-33.24-13.31c-14.23,1.84-22.75,11.47-26.47,20.67l-0.02,0.04    c-1.69,4.03-2.32,9.65-2.48,12.96c-0.12,2.41-0.07,4.7,0.1,6.84c-0.97-0.55-1.91-0.74-1.91-0.74c0.25-1.53,0.36-2.2-0.29-3.83    c-0.74-1.85-2.92-3.07-4.55-3.62s-4.39-0.68-6.26-0.71c-1.87-0.03-3.5,0-4.96-0.41c-0.82-0.23-1.58-0.94-1.51-0.48    c0.07,0.46,1.02,4.79,1.9,6.36c0.88,1.57,2.83,4.59,5.53,6.08c2.7,1.49,6.17,0.4,7.48-0.26c2.05-1.04,4.01,0.63,5.08,1.86    c1.36,8.5,4.56,14.29,4.56,14.29c4.72,0.12,2.38-7.21,1.17-15.85c-0.78-5.53-0.68-11.8,0.43-16.46c0.89-3.77,1.97-6.47,3.39-8.39    c0-0.01,0.01-0.01,0.01-0.02c0,0,0.07-0.11,0.08-0.11c0,0,0.46-0.57,0.7-0.83c0.26-0.29,1-1.02,1.41-1.32    c1.16-0.86,1.76-1.16,3.08-1.56c1.42-0.43,3.03-0.35,3.99-0.1c1.16,0.3,2.25,0.75,3.32,1.93c1.16,1.29,1.44,2.97,1.41,4.77    c-0.03,1.79-1.11,4.2-2.57,5.8c-1.01,1.11-2.54,2.61-5.49,3.16c-0.01,0.45-0.02,0.8-0.02,1.02c-0.01,5.43,0.81,6.79,0.69,7.24    c-0.16,0.58-0.92,1.26-1.38,1.39c-0.47,0.13-1.48,0.23-1.82,0.01c-0.34-0.22-0.51-0.84-0.56-1.32c-0.09-0.72-0.61-2.72-0.52-8.43    c0.02-1.2,0.39-8.58,0.57-9.76c0.07-0.48,1.5-1.81,2.56-1.59c1.05,0.22,0.85,0.62,0.83,1.1c-0.03,0.73-0.17,4.63-0.26,7.71v0.01    c0.04-0.03,0.09-0.05,0.13-0.08c1.1-0.77,2.85-2.4,3.73-3.81c0.88-1.41,1.3-2.71,1.27-4.09c-0.03-1.38-0.34-1.89-0.64-2.29    c-0.46-0.59-1.41-1.11-2.51-1.1c-2.76,0.04-4.09,1.06-5.57,2.49c-0.69,0.67-1.33,1.63-1.87,2.73c0,0,0.01,0,0.01,0    c-1.4,2.89-2.22,6.99-2.24,10.97c-0.01,3.2,0.56,6.33,1.97,8.68c6.18,10.26,23.94,14.26,36.74,10.99c2.66-0.68,5.87-1.8,9.44-4.96    c0.23-2.58,0.7-6.4,0.81-7.37c0.3-2.64,0.47-3.9,1.06-6.77c-0.66,1.03-1.07,1.95-1.98,2.52c-1.33,0.87-3.18,0.22-3.51-0.95    c-0.55-1.84-0.15-5.78,0.41-7.64c0.26-0.68,0.44-1.58,1.16-1.87c0.36-0.21,1.22-0.37,1.37,0.15c0.14,0.73,0.13,1.44-0.08,2.15    c-0.36,1.8-0.75,4.25-0.51,5.7c0.15,0.79,0.79,0.75,1.08,0.52c1.77-1.69,1.83-5.14,2.94-7.21c0.39-0.78,0.99-1.25,1.76-1.4    c0.78,0.28,1.01,1.28,1.01,2.11c0.02,2.68-0.42,4.88-0.76,7.37c-0.37,2.79-0.8,5.94-1.09,8.82c0,0,0,0,0-0.01    c0.24-0.3,0.49-0.61,0.73-0.94C228.03,107.53,230.96,95.45,224.66,84.81L224.66,84.81z"></path>
	</g>
</g>
</svg>
