<?xml version="1.0" encoding="UTF-8"?>
<svg xmlns="http://www.w3.org/2000/svg" xmlns:xlink="http://www.w3.org/1999/xlink" id="Logos" viewBox="0 0 390 200">
  <defs>
    <style>.cls-1{fill:none;}.cls-2{clip-path:url(#clip-path);}.cls-3{fill:#ff5b4a;}</style>
    <clipPath id="clip-path">
      <rect class="cls-1" x="137.72" y="78.58" width="115.14" height="57.42"></rect>
    </clipPath>
  </defs>
  <title>Rappi</title>
  <g class="cls-2">
    <g class="cls-2">
      <path class="cls-3" d="M152.52,112.48c-.23.81-.44,1.6-.63,2.35-.23,1-.44,1.81-.64,2.59s-.32,1.36-.4,1.81a1.76,1.76,0,0,1-1.49,1.45,4.54,4.54,0,0,1-2.26-.18,5.28,5.28,0,0,1-2.1-1.3,3.28,3.28,0,0,1-1-2.41,18.91,18.91,0,0,1,.59-3.75c.39-1.7.95-3.72,1.67-6s1.58-4.76,2.58-7.41c.85-2.28,1.81-4.58,2.85-6.85a2.32,2.32,0,0,1,1.85-1.34,14,14,0,0,1,4.78.15,1.34,1.34,0,0,1,.91,1.84c-.87,2-1.68,3.89-2.39,5.78-.58,1.53-1.14,3-1.66,4.51a.17.17,0,0,0,.23.22,19.16,19.16,0,0,0,2.07-1.14,14.86,14.86,0,0,0,3-2.53A12.38,12.38,0,0,0,162.65,97a8.94,8.94,0,0,0,.81-3.78A4.69,4.69,0,0,0,162,89.48a6.08,6.08,0,0,0-4-1.19,9.58,9.58,0,0,0-4.89,1.27,14.4,14.4,0,0,0-3.82,3.16,15.61,15.61,0,0,0-2.47,3.94,9.56,9.56,0,0,0-.87,3.55,1.43,1.43,0,0,1-1.06,1.45,2.94,2.94,0,0,1-1.93-.09,4.12,4.12,0,0,1-1.79-1.42,4.52,4.52,0,0,1-.82-2.84,8.06,8.06,0,0,1,1.19-3.7A15.58,15.58,0,0,1,145,89.49a20.22,20.22,0,0,1,5.6-3.37,19.68,19.68,0,0,1,7.67-1.41,21.51,21.51,0,0,1,4.86.56A15.13,15.13,0,0,1,167.47,87a10.15,10.15,0,0,1,3.12,2.87,6.87,6.87,0,0,1,1.21,4,9.9,9.9,0,0,1-1.06,4.56,13.27,13.27,0,0,1-2.87,3.73,18.72,18.72,0,0,1-4.2,2.87,28.28,28.28,0,0,1-4.16,1.69.15.15,0,0,0-.12.17c0,.73.08,1.44.16,2.13s.19,1.56.32,2.29.29,1.41.47,2.08c.13.51.29,1,.45,1.48.11.3.22.6.33.87a15.61,15.61,0,0,0,.75,1.59,12.19,12.19,0,0,0,.84,1.37,10.91,10.91,0,0,0,.92,1.16,12.58,12.58,0,0,0,1,1,10.51,10.51,0,0,0,1,.74,9.2,9.2,0,0,0,1.09.54,9.35,9.35,0,0,0,1.14.35,7.93,7.93,0,0,0,1.19.17,8.46,8.46,0,0,0,1.23,0,9.89,9.89,0,0,0,1.29-.21,9.66,9.66,0,0,0,1.33-.41,12,12,0,0,0,1.38-.62c.17-.09.35-.18.52-.29a1.29,1.29,0,0,1,1.68.37,1.27,1.27,0,0,1-.19,1.7l-.73.62c-.59.48-1.18.93-1.75,1.32s-1.1.73-1.64,1l-.86.47a17.7,17.7,0,0,1-1.69.74,14.34,14.34,0,0,1-1.66.52,12,12,0,0,1-1.64.28,10.88,10.88,0,0,1-1.14.06h-.45a9.81,9.81,0,0,1-1.54-.18c-.25,0-.5-.11-.74-.18s-.48-.14-.72-.23a9.91,9.91,0,0,1-1.37-.62,11.44,11.44,0,0,1-1.27-.82,12.13,12.13,0,0,1-2-2,13.93,13.93,0,0,1-1-1.29c-.29-.46-.57-1-.83-1.45s-.51-1-.73-1.59-.43-1.12-.62-1.72-.35-1.21-.5-1.85-.27-1.3-.38-2-.17-1.21-.24-1.83a.17.17,0,0,0-.34,0"></path>
      <path class="cls-3" d="M250.17,88.62a4.86,4.86,0,1,1-4.86-4.86,4.86,4.86,0,0,1,4.86,4.86"></path>
      <path class="cls-3" d="M249.09,108.17a1.41,1.41,0,0,0-1.17-.6,1.29,1.29,0,0,0-1.09.57c-.29.42-.65.91-1.06,1.47a20.39,20.39,0,0,1-1.45,1.75,17.17,17.17,0,0,1-1.48,1.41,1.64,1.64,0,0,1-1,.48c-.13,0-.36,0-.41-.61a8,8,0,0,1,.28-2.48,29.21,29.21,0,0,1,1.06-3.39c.47-1.25.94-2.44,1.4-3.54s.88-2.1,1.25-2.91.59-1.34.68-1.57a1.72,1.72,0,0,0-.31-1.9,3.59,3.59,0,0,0-1.8-1.11,5.07,5.07,0,0,0-2.33,0,3.15,3.15,0,0,0-2.07,1.51,36.47,36.47,0,0,0-1.69,3.34c-.68,1.5-1.34,3.17-2,5-.37,1.09-.72,2.19-1,3.3a9.51,9.51,0,0,1-3.09,4.7,20.42,20.42,0,0,1-1.67,1.22c-.26.17-.52.33-.78.47a.09.09,0,0,1-.11-.13c.45-.59.89-1.23,1.32-1.91a27.08,27.08,0,0,0,2.4-5,23.81,23.81,0,0,0,1.4-5.49,12.16,12.16,0,0,0-.19-4.26,5.45,5.45,0,0,0-1.63-2.85,4.3,4.3,0,0,0-2.91-1A6.7,6.7,0,0,0,226,95.57a15,15,0,0,0-2.07,1.6c-.05,0-.09,0-.13,0a2.69,2.69,0,0,0-.56-.62,4.15,4.15,0,0,0-1.9-.87,4.46,4.46,0,0,0-2.2.14,2.89,2.89,0,0,0-1.72,1.57c-.7,1.51-1.44,3.27-2.19,5.24s-1.5,4-2.2,6.09c-.08.23-.15.46-.23.7a9.36,9.36,0,0,1-3.19,4.47c-.39.3-.79.59-1.21.86-.26.17-.52.33-.78.47-.08,0-.16,0-.11-.13.45-.59.89-1.23,1.32-1.91a26.77,26.77,0,0,0,2.41-5,23.75,23.75,0,0,0,1.39-5.49,12.18,12.18,0,0,0-.18-4.26,5.56,5.56,0,0,0-1.63-2.85,4.3,4.3,0,0,0-2.91-1,6.73,6.73,0,0,0-3.68,1.06,14.89,14.89,0,0,0-2.06,1.6.07.07,0,0,1-.13,0,2.53,2.53,0,0,0-.57-.62,4.12,4.12,0,0,0-1.89-.87,4.44,4.44,0,0,0-2.2.14,2.83,2.83,0,0,0-1.72,1.57c-.7,1.51-1.44,3.27-2.2,5.24s-1.4,3.75-2.06,5.69a9,9,0,0,1-2.34,3.71c-.29.28-.57.53-.83.76a1.66,1.66,0,0,1-1,.48c-.13,0-.36,0-.41-.61a8.34,8.34,0,0,1,.28-2.48,29.39,29.39,0,0,1,1.07-3.39c.46-1.24.93-2.43,1.39-3.54s.89-2.11,1.25-2.91.59-1.34.68-1.57a1.7,1.7,0,0,0-.31-1.9,3.55,3.55,0,0,0-1.83-1.11,5.08,5.08,0,0,0-2.33,0,3.13,3.13,0,0,0-2,1.51l-.32.53a.09.09,0,0,1-.16,0,4.56,4.56,0,0,0-.45-1.25,3.66,3.66,0,0,0-1.37-1.42,4.46,4.46,0,0,0-2.29-.55,9.79,9.79,0,0,0-6.48,2.95c-2.11,1.92-3.86,5-5.2,9.12a23.05,23.05,0,0,0-1.1,5.46,12.14,12.14,0,0,0,.4,4.26,5.74,5.74,0,0,0,1.78,2.81,4.47,4.47,0,0,0,3,1,6.7,6.7,0,0,0,2.38-.43,9.13,9.13,0,0,0,2-1.06,8.42,8.42,0,0,0,1.27-1.11.52.52,0,0,1,.88.21,4.34,4.34,0,0,0,.53,1.15,3,3,0,0,0,2.64,1.24,6.63,6.63,0,0,0,4-1.47,20.53,20.53,0,0,0,1.78-1.48.17.17,0,0,1,.29.17c-.34,1.13-.64,2.17-.92,3.14-.46,1.64-.83,3.06-1.11,4.2a11.86,11.86,0,0,0-.42,2.15,3.45,3.45,0,0,0,.87,2.39,4.77,4.77,0,0,0,1.93,1.32,4,4,0,0,0,1.37.25,3.36,3.36,0,0,0,.71-.08,1.7,1.7,0,0,0,1.36-1.43v0c.08-.52.22-1.21.43-2.07s.49-1.91.79-3,.64-2.33,1.05-3.76l.6-2.06a.18.18,0,0,1,.32,0,4.9,4.9,0,0,0,.31.48,3.66,3.66,0,0,0,3.12,1.33l.84,0a15.65,15.65,0,0,0,5.79-1.06,23.67,23.67,0,0,0,4.61-2.43.17.17,0,0,1,.26.19c-.39,1.3-.75,2.52-1.06,3.64-.46,1.66-.84,3.07-1.11,4.2a10.84,10.84,0,0,0-.42,2.15,3.45,3.45,0,0,0,.87,2.39,4.68,4.68,0,0,0,1.92,1.32,4.11,4.11,0,0,0,1.37.25,3.22,3.22,0,0,0,.71-.08,1.71,1.71,0,0,0,1.37-1.43v0c.07-.52.22-1.21.43-2.07s.48-1.91.78-3,.65-2.33,1-3.76c.19-.66.39-1.35.6-2.06a.18.18,0,0,1,.32,0c.1.16.2.32.32.48a3.63,3.63,0,0,0,3.11,1.33l.85,0a15.59,15.59,0,0,0,5.78-1.06,22.85,22.85,0,0,0,5.32-2.93c.26-.2.52-.4.76-.6a.18.18,0,0,1,.29.13v.2a5.27,5.27,0,0,0,.77,3,3,3,0,0,0,2.64,1.24,6.73,6.73,0,0,0,4-1.47,22.54,22.54,0,0,0,3.55-3.25,36.59,36.59,0,0,0,2.81-3.6c.79-1.19,1.33-2,1.64-2.48a1.08,1.08,0,0,0,0-1.18m-67.27-6.33a21.75,21.75,0,0,1-.54,3,29.39,29.39,0,0,1-1.09,3.39c-.46,1.17-.94,2.26-1.45,3.26a17.16,17.16,0,0,1-1.47,2.46,7,7,0,0,1-1.34,1.43,1,1,0,0,1-.52.25l-.08,0c-.05,0-.24-.15-.34-.74a8.29,8.29,0,0,1,0-2.08,18.36,18.36,0,0,1,.51-2.92,27.57,27.57,0,0,1,1.09-3.39c.46-1.18,1-2.27,1.45-3.25a18,18,0,0,1,1.48-2.5,6.43,6.43,0,0,1,1.33-1.45,1,1,0,0,1,.52-.25l.07,0c.06,0,.26.15.38.75a6.8,6.8,0,0,1,0,2.09m23.55,0a25.22,25.22,0,0,1-.72,2.93,31.12,31.12,0,0,1-1.23,3.39c-.54,1.18-1.09,2.27-1.65,3.26a21.37,21.37,0,0,1-1.62,2.5,7.94,7.94,0,0,1-1.42,1.46,1,1,0,0,1-.56.25h-.08c-.05,0-.23-.15-.31-.73a7.49,7.49,0,0,1,.11-2.09,29,29,0,0,1,.72-2.95,32.5,32.5,0,0,1,1.24-3.41,29.64,29.64,0,0,1,1.61-3.24,20.24,20.24,0,0,1,1.66-2.47,7.44,7.44,0,0,1,1.42-1.44,1,1,0,0,1,.56-.25h.07c.06,0,.24.15.32.73a7,7,0,0,1-.12,2.06m21.77,0a30.09,30.09,0,0,1-.72,2.93,32,32,0,0,1-1.24,3.39c-.53,1.18-1.09,2.27-1.64,3.26a20.12,20.12,0,0,1-1.63,2.5,7.63,7.63,0,0,1-1.42,1.46,1,1,0,0,1-.56.25h-.08s-.23-.15-.31-.73a7.18,7.18,0,0,1,.12-2.09,24.06,24.06,0,0,1,.72-2.95,32.5,32.5,0,0,1,1.24-3.41,26.43,26.43,0,0,1,1.61-3.24,21.5,21.5,0,0,1,1.65-2.47,7.44,7.44,0,0,1,1.42-1.44,1.06,1.06,0,0,1,.56-.25h.08c.05,0,.23.15.31.73a7.25,7.25,0,0,1-.11,2.06"></path>
    </g>
  </g>
</svg>
