<?xml version="1.0" encoding="UTF-8"?>
<svg xmlns="http://www.w3.org/2000/svg" id="Logos" viewBox="0 0 390 200">
  <defs>
    <style>.cls-1{fill:#322047;}.cls-2{fill:#9fc799;}.cls-3{fill:#3888b0;}.cls-4{fill:#169acf;}.cls-5{fill:#f0802a;}.cls-6{fill:#ffd107;}</style>
  </defs>
  <title>Roivant Logo Final</title>
  <g id="Roivant_Final" data-name="Roivant Final">
    <rect class="cls-1" x="170.49" y="84.58" width="4.17" height="23.11"></rect>
    <rect class="cls-1" x="258.3" y="84.58" width="4.17" height="23.11"></rect>
    <rect class="cls-1" x="258.67" y="77.02" width="3.83" height="18.94" transform="translate(174.09 347.07) rotate(-90)"></rect>
    <polyline class="cls-1" points="189.09 107.69 192.14 107.69 192.14 107.69 192.71 106.36 201.88 84.58 197.71 84.58 190.62 101.4 183.53 84.58 179.35 84.58 188.53 106.36"></polyline>
    <path class="cls-1" d="M218.63,107.69h4.47l-9.83-21.78-.6-1.33h-3.42L199,107.69h4.47l2.46-5.46h10.26Zm-11-9.31L211,90.86l3.39,7.52Z"></path>
    <polygon class="cls-1" points="242.76 84.58 242.76 100.24 230.87 84.58 226.7 84.58 226.7 107.69 230.87 107.69 230.87 91.28 242.76 106.8 242.76 106.83 243.43 107.69 246.94 107.69 246.94 84.58 242.76 84.58"></polygon>
    <path class="cls-1" d="M133.33,98.91a7.28,7.28,0,0,0,5.68-7,7.37,7.37,0,0,0-7.25-7.31H120v23.11h4.17V99.5H129l5.3,7.3v0l.67.86h4.79ZM124,88.15h7.25a4,4,0,0,1,0,8H124Z"></path>
    <path class="cls-1" d="M207.27,113.62a2.43,2.43,0,0,0-.81-.57,2.64,2.64,0,0,0-1.11-.24,2,2,0,0,0-1.28.39,1.21,1.21,0,0,0-.47.93,1.17,1.17,0,0,0,.34.84,2.13,2.13,0,0,0,.87.53l1.85.51a2.18,2.18,0,0,1,1.09.69,1.92,1.92,0,0,1-.29,2.69,2.86,2.86,0,0,1-1.94.61,3.45,3.45,0,0,1-1.75-.44,3.25,3.25,0,0,1-1.16-1.14l.58-.37a2.5,2.5,0,0,0,1,.94,2.83,2.83,0,0,0,1.29.34,2.21,2.21,0,0,0,1.49-.44,1.27,1.27,0,0,0,.5-1,1.23,1.23,0,0,0-.29-.8,1.56,1.56,0,0,0-.82-.48l-1.73-.5a2.8,2.8,0,0,1-1.24-.76,1.79,1.79,0,0,1-.49-1.25,1.84,1.84,0,0,1,.67-1.4,2.56,2.56,0,0,1,1.76-.59,3.32,3.32,0,0,1,1.48.32,3.52,3.52,0,0,1,1.06.78Z"></path>
    <path class="cls-1" d="M217.4,118.35l.51.45-.06,0a3.75,3.75,0,0,1-2.77,1.15,3.93,3.93,0,0,1-3.94-3.94,3.75,3.75,0,0,1,1.15-2.77,3.81,3.81,0,0,1,2.79-1.16,3.76,3.76,0,0,1,2.77,1.16l.09.08-.49.46-.07-.07a3.27,3.27,0,0,0-5.57,2.3,3.26,3.26,0,0,0,5.57,2.31Z"></path>
    <path class="cls-1" d="M221.87,112.36v7.42h-.67v-7.42Z"></path>
    <path class="cls-1" d="M235.32,112.36h.51l4.66,6.08v-6.08h.68v7.42h-.52L236,113.7v6.08h-.68Z"></path>
    <path class="cls-1" d="M251.45,118.35l.5.45,0,0a3.94,3.94,0,0,1-6.72-2.79,3.75,3.75,0,0,1,1.15-2.77,3.92,3.92,0,0,1,5.57,0l.08.08-.49.46-.07-.07a3.27,3.27,0,0,0-4.61,0,3.26,3.26,0,1,0,4.61,4.61Z"></path>
    <path class="cls-1" d="M268.26,113.62a2.43,2.43,0,0,0-.81-.57,2.64,2.64,0,0,0-1.11-.24,2,2,0,0,0-1.28.39,1.21,1.21,0,0,0-.47.93,1.17,1.17,0,0,0,.34.84,2.19,2.19,0,0,0,.87.53l1.85.51a2.18,2.18,0,0,1,1.09.69,1.92,1.92,0,0,1-.29,2.69,2.86,2.86,0,0,1-1.94.61,3.45,3.45,0,0,1-1.75-.44,3.25,3.25,0,0,1-1.16-1.14l.58-.37a2.63,2.63,0,0,0,1,.94,2.83,2.83,0,0,0,1.29.34,2.21,2.21,0,0,0,1.49-.44,1.27,1.27,0,0,0,.5-1,1.23,1.23,0,0,0-.29-.8,1.56,1.56,0,0,0-.82-.48l-1.73-.5a2.8,2.8,0,0,1-1.24-.76,1.79,1.79,0,0,1-.49-1.25,1.84,1.84,0,0,1,.67-1.4,2.56,2.56,0,0,1,1.76-.59,3.32,3.32,0,0,1,1.48.32,3.52,3.52,0,0,1,1.06.78Z"></path>
    <path class="cls-1" d="M154.67,84a11.85,11.85,0,1,0,11.84,11.85A11.84,11.84,0,0,0,154.67,84Zm.12,19.89a8,8,0,1,1,8-8A8,8,0,0,1,154.79,103.89Z"></path>
    <path class="cls-2" d="M154.76,84.72a11.25,11.25,0,1,0,11,11.27A11.16,11.16,0,0,0,154.76,84.72Zm-.09,18.42A7.37,7.37,0,1,1,162,95.77,7.37,7.37,0,0,1,154.67,103.14Z"></path>
    <path class="cls-3" d="M155.17,85.88A10.52,10.52,0,1,0,165.69,96.4,10.52,10.52,0,0,0,155.17,85.88Zm-.55,17.88a8,8,0,1,1,8-8A8,8,0,0,1,154.62,103.76Z"></path>
    <path class="cls-4" d="M155.13,86.15a10.27,10.27,0,1,0,10.26,10.27A10.26,10.26,0,0,0,155.13,86.15Zm0,20.31a10.05,10.05,0,1,1,10-10A10,10,0,0,1,155.11,106.46Z"></path>
    <path class="cls-5" d="M155.37,84.74l.22,0a10.09,10.09,0,0,0-11.7,11.74c.06-3.84,1.34-6.85,3.61-8.85A10.77,10.77,0,0,1,155.37,84.74Z"></path>
    <path class="cls-6" d="M155.13,86.6a9.8,9.8,0,1,0,9.78,9.78A9.78,9.78,0,0,0,155.13,86.6Zm.05,18.53a8.88,8.88,0,1,1,8.9-8.91A8.93,8.93,0,0,1,155.18,105.13Z"></path>
    <path class="cls-2" d="M162.62,95.44a7.69,7.69,0,0,0-2.37-5.38,8,8,0,0,0-13.58,5.74,7.94,7.94,0,0,0,8,8C158.58,103.69,163,99.72,162.62,95.44Zm-7.94,7.77a7.45,7.45,0,1,1,7.45-7.44A7.45,7.45,0,0,1,154.68,103.21Z"></path>
    <path class="cls-2" d="M163.93,94.5h0c-.08,5.4-3.67,9.66-9.06,9.66a9.26,9.26,0,0,1-8.33-5.85,8.9,8.9,0,0,0,17.39-3.8Z"></path>
    <path class="cls-5" d="M163.05,91.84A4.91,4.91,0,0,0,162,90.48h0a6.85,6.85,0,0,1,1,2.77,8.93,8.93,0,0,1,.12,1.47,9.21,9.21,0,0,1-1.5,4.85,8.79,8.79,0,0,1-9,4.21l.41.12a7.86,7.86,0,0,0,7.68-2,11.56,11.56,0,0,0,2.68-3.82A6.65,6.65,0,0,0,163.05,91.84Z"></path>
    <polygon class="cls-1" points="227.72 113.03 229.42 113.03 230.96 113.03 231.53 113.03 231.53 112.36 230.96 112.36 227.72 112.36 226.37 112.36 226.37 119.78 227.72 119.78 230.96 119.78 231.53 119.78 231.53 119.1 230.96 119.1 229.42 119.1 227.72 119.1 227.06 119.1 227.06 116.4 227.72 116.4 229.42 116.4 230.04 116.4 230.88 116.4 230.88 115.73 230.04 115.73 229.42 115.73 227.72 115.73 227.06 115.73 227.06 113.03 227.72 113.03"></polygon>
    <polygon class="cls-1" points="256.45 113.03 258.15 113.03 259.69 113.03 260.25 113.03 260.25 112.36 259.69 112.36 256.45 112.36 255.1 112.36 255.1 119.78 256.45 119.78 259.69 119.78 260.25 119.78 260.25 119.1 259.69 119.1 258.15 119.1 256.45 119.1 255.79 119.1 255.79 116.4 256.45 116.4 258.15 116.4 258.77 116.4 259.62 116.4 259.61 115.73 258.77 115.73 258.15 115.73 256.45 115.73 255.79 115.73 255.79 113.03 256.45 113.03"></polygon>
  </g>
</svg>
