<?xml version="1.0" encoding="UTF-8"?>
<svg xmlns="http://www.w3.org/2000/svg" id="Logos" viewBox="0 0 390 200">
  <defs>
    <style>.cls-1{fill:#e8a723;}.cls-2{fill:#3eb890;}.cls-3{fill:#e01765;}.cls-4{fill:#472a49;}.cls-5{fill:#cc2027;}.cls-6{fill:#70cadb;}.cls-7{fill:#1a937d;}.cls-8{fill:#65863a;}.cls-9{fill:#3b434b;}</style>
  </defs>
  <title>Slack Logo Final</title>
  <g id="Slack_Final" data-name="Slack Final">
    <path class="cls-1" d="M152.57,84.4a3.29,3.29,0,1,0-6.25,2l8.49,26.13a3.29,3.29,0,0,0,6.25-2Z"></path>
    <path class="cls-2" d="M139.41,88.67a3.29,3.29,0,1,0-6.25,2l8.49,26.13a3.29,3.29,0,0,0,4,2,3.25,3.25,0,0,0,2.25-4.06Z"></path>
    <path class="cls-3" d="M163.26,106a3.29,3.29,0,0,0-2-6.25l-26.13,8.49a3.3,3.3,0,0,0-2,4,3.26,3.26,0,0,0,4.07,2.25Z"></path>
    <path class="cls-4" d="M140.54,113.42l6.25-2-2-6.25-6.25,2Z"></path>
    <path class="cls-5" d="M153.7,109.14l6.25-2-2-6.24-6.25,2Z"></path>
    <path class="cls-6" d="M159,92.88a3.29,3.29,0,0,0-2-6.25l-26.13,8.49a3.29,3.29,0,0,0,2,6.25Z"></path>
    <path class="cls-7" d="M136.27,100.26l6.24-2-2-6.25-6.24,2Z"></path>
    <path class="cls-8" d="M149.43,96l6.24-2-2-6.24-6.24,2Z"></path>
    <path class="cls-9" d="M189.77,91.28c1.15.5,1.24.88.33,2.6s-1.15,1.87-2.29,1.41a13,13,0,0,0-4.43-1.07c-1.93,0-3.22.69-3.22,1.74,0,3.47,11.08,1.6,11.08,9,0,3.72-3.2,6.2-8,6.2a18.8,18.8,0,0,1-7.77-1.93c-1.07-.55-1.14-.86-.21-2.63.8-1.55,1-1.72,2.2-1.24a16.23,16.23,0,0,0,5.7,1.41c1.76,0,2.94-.71,2.94-1.76,0-3.37-11.26-1.77-11.26-8.93,0-3.81,3.17-6.35,7.92-6.35A18.66,18.66,0,0,1,189.77,91.28Z"></path>
    <path class="cls-9" d="M198.7,82.49v27.57a1,1,0,0,1-1.07.86h-2.9a1,1,0,0,1-1.08-.86V82.49c0-1.36.38-1.49,2.53-1.49C198.61,81,198.7,81.17,198.7,82.49Z"></path>
    <path class="cls-9" d="M219.31,98v11.87a1,1,0,0,1-1.07,1.07h-2.86a1,1,0,0,1-1.07-1.13l0-1.28a8.1,8.1,0,0,1-6,2.62c-4.33,0-7.23-2.5-7.23-6.24,0-4,3.28-6.64,8.2-6.66a13.38,13.38,0,0,1,5,.9V97.79c0-2.19-1.73-3.49-4.65-3.49a9.59,9.59,0,0,0-4.39,1.32c-1,.59-1.28.55-2.39-1.11s-1.05-2,0-2.65a14,14,0,0,1,7.27-2.14C215.76,89.72,219.31,92.79,219.31,98ZM206,104.87c0,1.41,1.19,2.35,3,2.35a6.27,6.27,0,0,0,5.32-2.83v-1.85a11.29,11.29,0,0,0-3.83-.7C207.75,101.84,206,103.13,206,104.87Z"></path>
    <path class="cls-9" d="M239,91.32c1.05.61,1.09.94-.06,2.73s-1.29,1.78-2.44,1.2a8.14,8.14,0,0,0-3.45-.86,5.69,5.69,0,0,0-6.05,6c0,3.77,2.42,6.29,6.05,6.29a9,9,0,0,0,3.87-1.05c1-.61,1.28-.57,2.39,1.05s1,1.87.09,2.5a12.32,12.32,0,0,1-6.43,2c-6.72,0-11.22-4.3-11.22-10.76s4.5-10.67,11.26-10.67A12.72,12.72,0,0,1,239,91.32Z"></path>
    <path class="cls-9" d="M260.92,108.32c.84,1.07.5,1.45-1.6,2.2s-2.44.74-3.19-.25l-6-8-2.69,2.61v5.21a1,1,0,0,1-1.07.86h-2.9a1,1,0,0,1-1.08-.86V82.49c0-1.36.38-1.49,2.53-1.49,2.43,0,2.52.17,2.52,1.49V98.17l8.23-7.9c.91-.86,1.41-.8,3,.27,1.79,1.16,1.91,1.47,1.05,2.31l-6.14,6Z"></path>
  </g>
</svg>
