<?xml version="1.0" encoding="UTF-8"?>
<!-- Generator: Adobe Illustrator 23.0.1, SVG Export Plug-In . SVG Version: 6.00 Build 0)  -->
<svg xmlns="http://www.w3.org/2000/svg" xmlns:xlink="http://www.w3.org/1999/xlink" id="Logos" x="0px" y="0px" viewBox="0 0 390 200" style="enable-background:new 0 0 390 200;" xml:space="preserve">
<style type="text/css">
	.st0{display:none;}
	.st1{display:inline;fill:#00B45E;}
	.st2{display:inline;fill:#E53312;}
	.st3{display:inline;}
	.st4{fill:#5A5A5A;}
	.st5{fill:url(#SVGID_1_);}
	.st6{fill:#BABCBE;}
	.st7{fill:url(#SVGID_2_);}
	.st8{fill-rule:evenodd;clip-rule:evenodd;}
	.st9{fill:#D41317;}
	.st10{fill:#1D1D1B;}
	.st11{fill:#454651;}
	.st12{display:inline;fill:#454651;}
	.st13{fill:#3E434F;}
	.st14{display:inline;fill:#1D1D1B;}
	.st15{display:inline;fill:#44444E;}
	.st16{display:inline;fill:#44444E;stroke:#44444E;stroke-linecap:round;stroke-linejoin:bevel;stroke-miterlimit:10;}
	.st17{fill:#44444E;stroke:#44444E;stroke-linecap:round;stroke-linejoin:bevel;stroke-miterlimit:10;}
	.st18{fill:#44444E;stroke:#44444E;stroke-width:7;stroke-linecap:square;stroke-linejoin:round;stroke-miterlimit:10;}
	.st19{display:inline;fill:none;stroke:#44444E;stroke-width:7;stroke-linecap:round;stroke-linejoin:bevel;stroke-miterlimit:10;}
	.st20{fill:none;stroke:#44444E;stroke-width:7;stroke-linecap:square;stroke-linejoin:round;stroke-miterlimit:10;}
	.st21{fill:none;stroke:#44444E;stroke-width:7;stroke-linecap:round;stroke-linejoin:bevel;stroke-miterlimit:10;}
	.st22{display:inline;fill:none;stroke:#44444E;stroke-width:7;stroke-linecap:square;stroke-linejoin:bevel;stroke-miterlimit:10;}
	.st23{display:inline;fill:none;stroke:#44444E;stroke-width:7;stroke-linecap:square;stroke-linejoin:round;stroke-miterlimit:10;}
	.st24{display:inline;fill:#367DBF;}
	.st25{display:inline;fill:#367DBF;stroke:#1D1D1B;stroke-width:0.25;stroke-miterlimit:10;}
	.st26{display:inline;fill:#2E4498;}
	.st27{display:inline;fill:#F58428;}
	.st28{fill:#FFFFFF;}
	.st29{fill:#444968;}
	.st30{display:inline;fill:#E4201C;}
	.st31{fill:#0677B7;}
	.st32{fill:#686867;}
	.st33{display:inline;fill:#3F4042;}
	.st34{display:inline;fill:#F6B21F;}
	.st35{fill:#EA5504;}
	.st36{display:inline;fill:#005E3C;}
	.st37{clip-path:url(#SVGID_4_);fill:#32617E;}
	.st38{clip-path:url(#SVGID_4_);fill:#9ABFD1;}
	.st39{clip-path:url(#SVGID_6_);fill:url(#SVGID_7_);}
	.st40{fill:#3E424E;}
	.st41{display:inline;fill:#3E424E;}
	.st42{fill:#E9C118;}
	.st43{fill:#62BB46;}
	.st44{fill:#00B1E4;}
	.st45{clip-path:url(#SVGID_9_);fill:#EE255C;}
	.st46{clip-path:url(#SVGID_9_);fill:#162F55;}
	.st47{fill:#162F55;}
	.st48{clip-path:url(#SVGID_11_);fill:#162F55;}
	.st49{clip-path:url(#SVGID_13_);fill:#0071B9;}
	.st50{clip-path:url(#SVGID_13_);fill:#393A36;}
	.st51{fill:#393A36;}
	.st52{clip-path:url(#SVGID_15_);fill:#005F82;}
	.st53{clip-path:url(#SVGID_15_);fill:#231F20;}
	.st54{clip-path:url(#SVGID_17_);fill:#323E48;}
	.st55{clip-path:url(#SVGID_17_);fill:#71A850;}
	.st56{fill:#EE302A;}
	.st57{clip-path:url(#SVGID_19_);fill:#EE302A;}
	.st58{clip-path:url(#SVGID_21_);fill:#FBFCFD;}
	.st59{fill:#00B5CC;}
	.st60{fill:#C9CCD1;}
	.st61{fill:#00B4CB;}
	.st62{fill:#00B4CC;}
	.st63{clip-path:url(#SVGID_23_);fill:#00B4CB;}
	.st64{clip-path:url(#SVGID_23_);fill:#12678E;}
	.st65{clip-path:url(#SVGID_23_);fill:#0F678E;}
	.st66{clip-path:url(#SVGID_25_);fill:#47494A;}
	.st67{fill:#47494A;}
	.st68{clip-path:url(#SVGID_27_);fill:#47494A;}
	.st69{fill:#FEFEFD;}
	.st70{fill:#7CBF53;}
	.st71{fill:#195A99;}
	.st72{fill:#E86C34;}
	.st73{clip-path:url(#SVGID_29_);fill:#2F3432;}
	.st74{fill:#2F3432;}
	.st75{fill:#8FC84D;}
	.st76{clip-path:url(#SVGID_31_);fill:#F15E3A;}
	.st77{clip-path:url(#SVGID_33_);fill:#3E434F;}
	.st78{clip-path:url(#SVGID_35_);fill:#3E434F;}
	.st79{clip-path:url(#SVGID_37_);fill:#F68B2E;}
	.st80{clip-path:url(#SVGID_37_);fill:#5C5F60;}
	.st81{fill:#5C5F60;}
	.st82{clip-path:url(#SVGID_39_);fill:#5C5F60;}
	.st83{clip-path:url(#SVGID_41_);fill:#EF472E;}
	.st84{fill:#EF472E;}
	.st85{clip-path:url(#SVGID_43_);fill:#EF472E;}
	.st86{clip-path:url(#SVGID_45_);}
	.st87{clip-path:url(#SVGID_47_);fill:#FFFFFF;}
	.st88{clip-path:url(#SVGID_49_);fill:#F16728;}
	.st89{clip-path:url(#SVGID_51_);}
	.st90{clip-path:url(#SVGID_55_);}
	.st91{clip-path:url(#SVGID_57_);}
	.st92{clip-path:url(#SVGID_59_);}
	.st93{clip-path:url(#SVGID_61_);fill:#797882;}
	.st94{clip-path:url(#SVGID_65_);fill:#696973;}
	.st95{clip-path:url(#SVGID_65_);fill:#8A8991;}
	.st96{clip-path:url(#SVGID_65_);fill:#FEFEFB;}
	.st97{clip-path:url(#SVGID_65_);fill:#3E424E;}
	.st98{clip-path:url(#SVGID_65_);fill:#5A5B66;}
	.st99{clip-path:url(#SVGID_65_);fill:#9D9BA3;}
	.st100{clip-path:url(#SVGID_65_);fill:#81818A;}
	.st101{clip-path:url(#SVGID_65_);fill:#C6C5C9;}
	.st102{clip-path:url(#SVGID_65_);fill:none;stroke:#9D9BA3;stroke-width:0.3539;stroke-miterlimit:10;}
	.st103{clip-path:url(#SVGID_69_);fill:#3E424E;}
	.st104{clip-path:url(#SVGID_69_);fill:#C6C5C9;}
	.st105{clip-path:url(#SVGID_69_);fill:#5A5B66;}
	.st106{clip-path:url(#SVGID_69_);fill:#9D9BA3;}
	.st107{clip-path:url(#SVGID_71_);fill:#00579B;}
	.st108{fill:#00579B;}
	.st109{clip-path:url(#SVGID_73_);fill:#00579B;}
	.st110{clip-path:url(#SVGID_75_);fill:#9553A1;}
	.st111{fill:#9553A1;}
	.st112{clip-path:url(#SVGID_77_);fill:#1A3761;}
	.st113{fill:#28B56C;}
	.st114{clip-path:url(#SVGID_79_);fill:#F06E30;}
	.st115{clip-path:url(#SVGID_79_);fill:#FFFFFF;}
	.st116{fill:#F06E30;}
	.st117{clip-path:url(#SVGID_81_);fill:#19AAE2;}
	.st118{clip-path:url(#SVGID_81_);fill:#B2D454;}
	.st119{fill:#231F20;}
	.st120{clip-path:url(#SVGID_83_);fill:#231F20;}
	.st121{clip-path:url(#SVGID_83_);fill:#6BC4E8;}
	.st122{fill:#0093D0;}
	.st123{fill:#14AADB;}
	.st124{fill:#9ECD51;}
	.st125{fill:#00AAE2;}
	.st126{fill:#121617;}
	.st127{clip-path:url(#SVGID_85_);fill:#3C62AE;}
	.st128{fill:#3C62AE;}
	.st129{clip-path:url(#SVGID_87_);}
	.st130{fill:#211261;}
	.st131{fill:#CF3339;}
	.st132{clip-path:url(#SVGID_91_);fill:#5D686E;}
	.st133{fill:#EE2E34;}
	.st134{clip-path:url(#SVGID_94_);}
	.st135{clip-path:url(#SVGID_95_);}
	.st136{clip-path:url(#SVGID_100_);}
	.st137{clip-path:url(#SVGID_101_);}
	.st138{clip-path:url(#SVGID_106_);}
	.st139{clip-path:url(#SVGID_107_);}
	.st140{clip-path:url(#SVGID_112_);}
	.st141{clip-path:url(#SVGID_113_);}
	.st142{clip-path:url(#SVGID_118_);}
	.st143{clip-path:url(#SVGID_119_);}
	.st144{clip-path:url(#SVGID_124_);}
	.st145{clip-path:url(#SVGID_125_);}
	.st146{clip-path:url(#SVGID_130_);}
	.st147{clip-path:url(#SVGID_131_);}
	.st148{clip-path:url(#SVGID_136_);}
	.st149{clip-path:url(#SVGID_137_);}
	.st150{clip-path:url(#SVGID_142_);}
	.st151{clip-path:url(#SVGID_143_);}
	.st152{clip-path:url(#SVGID_148_);}
	.st153{clip-path:url(#SVGID_149_);}
	.st154{clip-path:url(#SVGID_154_);}
	.st155{clip-path:url(#SVGID_155_);}
	.st156{clip-path:url(#SVGID_161_);}
	.st157{clip-path:url(#SVGID_162_);}
	.st158{clip-path:url(#SVGID_163_);}
	.st159{clip-path:url(#SVGID_168_);}
	.st160{clip-path:url(#SVGID_169_);}
	.st161{clip-path:url(#SVGID_174_);}
	.st162{clip-path:url(#SVGID_175_);}
	.st163{clip-path:url(#SVGID_180_);}
	.st164{clip-path:url(#SVGID_181_);}
	.st165{clip-path:url(#SVGID_186_);}
	.st166{clip-path:url(#SVGID_187_);}
	.st167{clip-path:url(#SVGID_192_);}
	.st168{clip-path:url(#SVGID_193_);}
	.st169{clip-path:url(#SVGID_197_);}
	.st170{fill:#72BF44;}
	.st171{clip-path:url(#SVGID_199_);}
	.st172{clip-path:url(#SVGID_203_);}
	.st173{clip-path:url(#SVGID_203_);fill:none;stroke:#18161B;stroke-width:4.557864e-03;}
	.st174{fill:#BCD641;}
	.st175{fill:none;stroke:#18161B;stroke-width:4.557864e-03;}
	.st176{clip-path:url(#SVGID_205_);fill:#1F6388;}
	.st177{fill:#1F6388;}
	.st178{fill:#3AB14C;}
	.st179{clip-path:url(#SVGID_207_);fill:#3AB14C;}
	.st180{clip-path:url(#SVGID_209_);fill:#36393D;}
	.st181{clip-path:url(#SVGID_209_);fill:#EE3C87;}
	.st182{clip-path:url(#SVGID_211_);}
	.st183{clip-path:url(#SVGID_215_);fill:#231F20;}
	.st184{clip-path:url(#SVGID_217_);}
	.st185{fill:#92D5E5;}
	.st186{fill:#2F4499;}
	.st187{fill:#F58529;}
	.st188{clip-path:url(#SVGID_221_);fill:#FFFFFF;}
	.st189{clip-path:url(#SVGID_221_);fill:#F58529;}
	.st190{clip-path:url(#SVGID_221_);fill:#454967;}
	.st191{fill:#454967;}
	.st192{clip-path:url(#SVGID_223_);fill:#3265A8;}
	.st193{fill:#3265A8;}
	.st194{clip-path:url(#SVGID_225_);fill:none;stroke:#121617;stroke-width:0.3687;stroke-miterlimit:10;}
	.st195{clip-path:url(#SVGID_227_);fill:none;stroke:#121617;stroke-width:0.3687;stroke-miterlimit:10;}
	.st196{clip-path:url(#SVGID_229_);fill:none;stroke:#121617;stroke-width:0.3687;stroke-miterlimit:10;}
	.st197{clip-path:url(#SVGID_231_);fill:none;stroke:#121617;stroke-width:0.3687;stroke-miterlimit:10;}
	.st198{clip-path:url(#SVGID_233_);fill:none;stroke:#121617;stroke-width:0.3687;stroke-miterlimit:10;}
	.st199{fill:#EC1F26;}
	.st200{clip-path:url(#SVGID_235_);fill:none;stroke:#EC1F26;stroke-width:0.3687;stroke-miterlimit:10;}
	.st201{fill:none;stroke:#EC1F26;stroke-width:0.3687;stroke-miterlimit:10;}
	.st202{clip-path:url(#SVGID_237_);fill:none;stroke:#EC1F26;stroke-width:0.3687;stroke-miterlimit:10;}
	.st203{clip-path:url(#SVGID_239_);fill:none;stroke:#EC1F26;stroke-width:0.3687;stroke-miterlimit:10;}
	.st204{clip-path:url(#SVGID_241_);fill:none;stroke:#EC1F26;stroke-width:0.3687;stroke-miterlimit:10;}
	.st205{clip-path:url(#SVGID_243_);}
	.st206{clip-path:url(#SVGID_247_);}
	.st207{clip-path:url(#SVGID_252_);}
	.st208{clip-path:url(#SVGID_253_);}
	.st209{clip-path:url(#SVGID_257_);}
	.st210{clip-path:url(#SVGID_261_);}
	.st211{fill:#CE2D34;}
	.st212{clip-path:url(#SVGID_265_);fill:#CE2D34;}
	.st213{fill-rule:evenodd;clip-rule:evenodd;fill:#40C0F0;}
	.st214{clip-path:url(#SVGID_267_);fill-rule:evenodd;clip-rule:evenodd;fill:#40C0F0;}
	.st215{fill-rule:evenodd;clip-rule:evenodd;fill:#989CA0;}
	.st216{fill:#989CA0;}
	.st217{clip-path:url(#SVGID_269_);fill:#A4CE43;}
	.st218{fill:#023C2C;}
	.st219{clip-path:url(#SVGID_271_);fill:#231F20;}
	.st220{clip-path:url(#SVGID_273_);fill:#EC1F26;}
	.st221{clip-path:url(#SVGID_273_);fill:#FCB432;}
	.st222{clip-path:url(#SVGID_275_);fill:#231F20;}
	.st223{clip-path:url(#SVGID_277_);fill:#231F20;}
	.st224{fill:#FAEE4F;}
	.st225{fill:none;stroke:#EE322E;stroke-width:0.124;stroke-miterlimit:10;}
	.st226{clip-path:url(#SVGID_279_);fill:#408BCA;}
	.st227{fill:none;stroke:#408BCA;stroke-width:0.062;stroke-miterlimit:10;}
	.st228{fill:#408BCA;}
	.st229{fill:#EE322E;}
</style>
<g>
	<g>
		<defs>
			<rect id="SVGID_196_" x="114.12" y="93.17" width="140.88" height="25.8"></rect>
		</defs>
		<clipPath id="SVGID_1_">
			<use xlink:href="#SVGID_196_" style="overflow:visible;"></use>
		</clipPath>
		<path style="clip-path:url(#SVGID_1_);" d="M254.55,113.94c0,0.69-0.51,1.16-1.11,1.16v-0.01c-0.62,0.01-1.12-0.46-1.12-1.15    c0-0.69,0.5-1.15,1.12-1.15C254.04,112.79,254.55,113.25,254.55,113.94L254.55,113.94z M255,113.94c0-0.95-0.74-1.5-1.56-1.5    c-0.83,0-1.57,0.55-1.57,1.5s0.74,1.5,1.57,1.5C254.26,115.44,255,114.89,255,113.94 M253.18,114.07h0.17l0.39,0.68h0.43    l-0.43-0.71c0.22-0.02,0.4-0.12,0.4-0.42c0-0.37-0.26-0.49-0.69-0.49h-0.63v1.62h0.36V114.07 M253.18,113.79v-0.39h0.25    c0.14,0,0.32,0.01,0.32,0.18c0,0.18-0.1,0.21-0.26,0.21H253.18"></path>
	</g>
	<path class="st170" d="M118.1,104.28c0,0,3.53-5.2,10.56-5.74v-1.89c-7.8,0.63-14.55,7.23-14.55,7.23s3.82,11.06,14.55,12.07v-2.01   C120.8,112.96,118.1,104.28,118.1,104.28L118.1,104.28z M128.67,109.96v1.84c-5.95-1.06-7.6-7.24-7.6-7.24s2.86-3.16,7.6-3.68v2.02   c0,0-0.01,0-0.01,0c-2.49-0.3-4.43,2.03-4.43,2.03S125.31,108.83,128.67,109.96 M128.67,93.17v3.48c0.23-0.02,0.46-0.03,0.69-0.04   c8.86-0.3,14.64,7.27,14.64,7.27s-6.63,8.07-13.54,8.07c-0.63,0-1.23-0.06-1.78-0.16v2.15c0.48,0.06,0.97,0.1,1.48,0.1   c6.43,0,11.08-3.28,15.59-7.17c0.75,0.6,3.8,2.05,4.43,2.69c-4.28,3.58-14.26,6.47-19.92,6.47c-0.55,0-1.07-0.03-1.58-0.08v3.02   h24.44v-25.8H128.67L128.67,93.17z M128.67,100.87v-2.33c0.23-0.02,0.45-0.03,0.69-0.04c6.37-0.2,10.56,5.48,10.56,5.48   s-4.52,6.27-9.36,6.27c-0.7,0-1.32-0.11-1.88-0.3v-7.07c2.48,0.3,2.98,1.4,4.47,3.88l3.32-2.8c0,0-2.42-3.18-6.51-3.18   C129.51,100.8,129.08,100.83,128.67,100.87"></path>
	<path d="M240.84,100.97l2.92,7.98h-5.93L240.84,100.97L240.84,100.97z M237.72,97.87l-6.73,17.04h4.75l1.06-3.01h7.96l1.01,3.01   h5.16l-6.78-17.04L237.72,97.87L237.72,97.87z M224.22,114.91h4.82V97.86l-4.82,0L224.22,114.91L224.22,114.91z M190.76,97.86   l-4.02,13.52l-3.85-13.52l-5.2,0l5.5,17.05h6.94l5.54-17.05H190.76L190.76,97.86z M210.24,101.57h2.07c3,0,4.95,1.35,4.95,4.85   c0,3.5-1.94,4.85-4.95,4.85h-2.07V101.57L210.24,101.57z M205.46,97.86v17.05h7.81c4.16,0,5.52-0.69,6.99-2.24   c1.04-1.09,1.71-3.48,1.71-6.09c0-2.4-0.57-4.54-1.56-5.87c-1.78-2.38-4.35-2.85-8.19-2.85H205.46L205.46,97.86z M159.82,97.83   v17.08h4.86v-12.97l3.76,0c1.25,0,2.14,0.31,2.74,0.95c0.76,0.81,1.07,2.12,1.07,4.52v7.5h4.71v-9.44c0-6.73-4.29-7.64-8.49-7.64   H159.82L159.82,97.83z M197.71,97.86l0,17.05h4.82V97.86H197.71L197.71,97.86z"></path>
</g>
</svg>
