<?xml version="1.0" encoding="UTF-8"?>
<!-- Generator: Adobe Illustrator 23.0.1, SVG Export Plug-In . SVG Version: 6.00 Build 0)  -->
<svg xmlns="http://www.w3.org/2000/svg" xmlns:xlink="http://www.w3.org/1999/xlink" id="Logos" x="0px" y="0px" viewBox="0 0 390 200" style="enable-background:new 0 0 390 200;" xml:space="preserve">
<style type="text/css">
	.st0{display:none;}
	.st1{display:inline;fill:#00B45E;}
	.st2{display:inline;fill:#E53312;}
	.st3{display:inline;}
	.st4{fill:#5A5A5A;}
	.st5{fill:url(#SVGID_1_);}
	.st6{fill:#BABCBE;}
	.st7{fill:url(#SVGID_2_);}
	.st8{fill-rule:evenodd;clip-rule:evenodd;}
	.st9{fill:#D41317;}
	.st10{fill:#1D1D1B;}
	.st11{fill:#454651;}
	.st12{display:inline;fill:#454651;}
	.st13{fill:#3E434F;}
	.st14{display:inline;fill:#1D1D1B;}
	.st15{display:inline;fill:#44444E;}
	.st16{display:inline;fill:#44444E;stroke:#44444E;stroke-linecap:round;stroke-linejoin:bevel;stroke-miterlimit:10;}
	.st17{fill:#44444E;stroke:#44444E;stroke-linecap:round;stroke-linejoin:bevel;stroke-miterlimit:10;}
	.st18{fill:#44444E;stroke:#44444E;stroke-width:7;stroke-linecap:square;stroke-linejoin:round;stroke-miterlimit:10;}
	.st19{display:inline;fill:none;stroke:#44444E;stroke-width:7;stroke-linecap:round;stroke-linejoin:bevel;stroke-miterlimit:10;}
	.st20{fill:none;stroke:#44444E;stroke-width:7;stroke-linecap:square;stroke-linejoin:round;stroke-miterlimit:10;}
	.st21{fill:none;stroke:#44444E;stroke-width:7;stroke-linecap:round;stroke-linejoin:bevel;stroke-miterlimit:10;}
	.st22{display:inline;fill:none;stroke:#44444E;stroke-width:7;stroke-linecap:square;stroke-linejoin:bevel;stroke-miterlimit:10;}
	.st23{display:inline;fill:none;stroke:#44444E;stroke-width:7;stroke-linecap:square;stroke-linejoin:round;stroke-miterlimit:10;}
	.st24{display:inline;fill:#367DBF;}
	.st25{display:inline;fill:#367DBF;stroke:#1D1D1B;stroke-width:0.25;stroke-miterlimit:10;}
	.st26{display:inline;fill:#2E4498;}
	.st27{display:inline;fill:#F58428;}
	.st28{fill:#FFFFFF;}
	.st29{fill:#444968;}
	.st30{display:inline;fill:#E4201C;}
	.st31{fill:#0677B7;}
	.st32{fill:#686867;}
	.st33{display:inline;fill:#3F4042;}
	.st34{display:inline;fill:#F6B21F;}
	.st35{fill:#EA5504;}
	.st36{display:inline;fill:#005E3C;}
	.st37{clip-path:url(#SVGID_4_);fill:#32617E;}
	.st38{clip-path:url(#SVGID_4_);fill:#9ABFD1;}
	.st39{clip-path:url(#SVGID_6_);fill:url(#SVGID_7_);}
	.st40{fill:#3E424E;}
	.st41{display:inline;fill:#3E424E;}
	.st42{fill:#E9C118;}
	.st43{fill:#62BB46;}
	.st44{fill:#00B1E4;}
	.st45{clip-path:url(#SVGID_9_);fill:#EE255C;}
	.st46{clip-path:url(#SVGID_9_);fill:#162F55;}
	.st47{fill:#162F55;}
	.st48{clip-path:url(#SVGID_11_);fill:#162F55;}
	.st49{clip-path:url(#SVGID_13_);fill:#0071B9;}
	.st50{clip-path:url(#SVGID_13_);fill:#393A36;}
	.st51{fill:#393A36;}
	.st52{clip-path:url(#SVGID_15_);fill:#005F82;}
	.st53{clip-path:url(#SVGID_15_);fill:#231F20;}
	.st54{clip-path:url(#SVGID_17_);fill:#323E48;}
	.st55{clip-path:url(#SVGID_17_);fill:#71A850;}
	.st56{fill:#EE302A;}
	.st57{clip-path:url(#SVGID_19_);fill:#EE302A;}
	.st58{clip-path:url(#SVGID_21_);fill:#FBFCFD;}
	.st59{fill:#00B5CC;}
	.st60{fill:#C9CCD1;}
	.st61{fill:#00B4CB;}
	.st62{fill:#00B4CC;}
	.st63{clip-path:url(#SVGID_23_);fill:#00B4CB;}
	.st64{clip-path:url(#SVGID_23_);fill:#12678E;}
	.st65{clip-path:url(#SVGID_23_);fill:#0F678E;}
	.st66{clip-path:url(#SVGID_25_);fill:#47494A;}
	.st67{fill:#47494A;}
	.st68{clip-path:url(#SVGID_27_);fill:#47494A;}
	.st69{fill:#FEFEFD;}
	.st70{fill:#7CBF53;}
	.st71{fill:#195A99;}
	.st72{fill:#E86C34;}
	.st73{clip-path:url(#SVGID_29_);fill:#2F3432;}
	.st74{fill:#2F3432;}
	.st75{fill:#8FC84D;}
	.st76{clip-path:url(#SVGID_31_);fill:#F15E3A;}
	.st77{clip-path:url(#SVGID_33_);fill:#3E434F;}
	.st78{clip-path:url(#SVGID_35_);fill:#3E434F;}
	.st79{clip-path:url(#SVGID_37_);fill:#F68B2E;}
	.st80{clip-path:url(#SVGID_37_);fill:#5C5F60;}
	.st81{fill:#5C5F60;}
	.st82{clip-path:url(#SVGID_39_);fill:#5C5F60;}
	.st83{clip-path:url(#SVGID_41_);fill:#EF472E;}
	.st84{fill:#EF472E;}
	.st85{clip-path:url(#SVGID_43_);fill:#EF472E;}
	.st86{clip-path:url(#SVGID_45_);}
	.st87{clip-path:url(#SVGID_47_);fill:#FFFFFF;}
	.st88{clip-path:url(#SVGID_49_);fill:#F16728;}
	.st89{clip-path:url(#SVGID_51_);}
	.st90{clip-path:url(#SVGID_55_);}
	.st91{clip-path:url(#SVGID_57_);}
	.st92{clip-path:url(#SVGID_59_);}
	.st93{clip-path:url(#SVGID_61_);fill:#797882;}
	.st94{clip-path:url(#SVGID_65_);fill:#696973;}
	.st95{clip-path:url(#SVGID_65_);fill:#8A8991;}
	.st96{clip-path:url(#SVGID_65_);fill:#FEFEFB;}
	.st97{clip-path:url(#SVGID_65_);fill:#3E424E;}
	.st98{clip-path:url(#SVGID_65_);fill:#5A5B66;}
	.st99{clip-path:url(#SVGID_65_);fill:#9D9BA3;}
	.st100{clip-path:url(#SVGID_65_);fill:#81818A;}
	.st101{clip-path:url(#SVGID_65_);fill:#C6C5C9;}
	.st102{clip-path:url(#SVGID_65_);fill:none;stroke:#9D9BA3;stroke-width:0.3539;stroke-miterlimit:10;}
	.st103{clip-path:url(#SVGID_69_);fill:#3E424E;}
	.st104{clip-path:url(#SVGID_69_);fill:#C6C5C9;}
	.st105{clip-path:url(#SVGID_69_);fill:#5A5B66;}
	.st106{clip-path:url(#SVGID_69_);fill:#9D9BA3;}
	.st107{clip-path:url(#SVGID_71_);fill:#00579B;}
	.st108{fill:#00579B;}
	.st109{clip-path:url(#SVGID_73_);fill:#00579B;}
	.st110{clip-path:url(#SVGID_75_);fill:#9553A1;}
	.st111{fill:#9553A1;}
	.st112{clip-path:url(#SVGID_77_);fill:#1A3761;}
	.st113{fill:#28B56C;}
	.st114{clip-path:url(#SVGID_79_);fill:#F06E30;}
	.st115{clip-path:url(#SVGID_79_);fill:#FFFFFF;}
	.st116{fill:#F06E30;}
	.st117{clip-path:url(#SVGID_81_);fill:#19AAE2;}
	.st118{clip-path:url(#SVGID_81_);fill:#B2D454;}
	.st119{fill:#231F20;}
	.st120{clip-path:url(#SVGID_83_);fill:#231F20;}
	.st121{clip-path:url(#SVGID_83_);fill:#6BC4E8;}
	.st122{fill:#0093D0;}
	.st123{fill:#14AADB;}
	.st124{fill:#9ECD51;}
	.st125{fill:#00AAE2;}
	.st126{fill:#121617;}
	.st127{clip-path:url(#SVGID_85_);fill:#3C62AE;}
	.st128{fill:#3C62AE;}
	.st129{clip-path:url(#SVGID_87_);}
	.st130{fill:#211261;}
	.st131{fill:#CF3339;}
	.st132{clip-path:url(#SVGID_91_);fill:#5D686E;}
	.st133{fill:#EE2E34;}
	.st134{clip-path:url(#SVGID_94_);}
	.st135{clip-path:url(#SVGID_95_);}
	.st136{clip-path:url(#SVGID_100_);}
	.st137{clip-path:url(#SVGID_101_);}
	.st138{clip-path:url(#SVGID_106_);}
	.st139{clip-path:url(#SVGID_107_);}
	.st140{clip-path:url(#SVGID_112_);}
	.st141{clip-path:url(#SVGID_113_);}
	.st142{clip-path:url(#SVGID_118_);}
	.st143{clip-path:url(#SVGID_119_);}
	.st144{clip-path:url(#SVGID_124_);}
	.st145{clip-path:url(#SVGID_125_);}
	.st146{clip-path:url(#SVGID_130_);}
	.st147{clip-path:url(#SVGID_131_);}
	.st148{clip-path:url(#SVGID_136_);}
	.st149{clip-path:url(#SVGID_137_);}
	.st150{clip-path:url(#SVGID_142_);}
	.st151{clip-path:url(#SVGID_143_);}
	.st152{clip-path:url(#SVGID_148_);}
	.st153{clip-path:url(#SVGID_149_);}
	.st154{clip-path:url(#SVGID_154_);}
	.st155{clip-path:url(#SVGID_155_);}
	.st156{clip-path:url(#SVGID_161_);}
	.st157{clip-path:url(#SVGID_162_);}
	.st158{clip-path:url(#SVGID_163_);}
	.st159{clip-path:url(#SVGID_168_);}
	.st160{clip-path:url(#SVGID_169_);}
	.st161{clip-path:url(#SVGID_174_);}
	.st162{clip-path:url(#SVGID_175_);}
	.st163{clip-path:url(#SVGID_180_);}
	.st164{clip-path:url(#SVGID_181_);}
	.st165{clip-path:url(#SVGID_186_);}
	.st166{clip-path:url(#SVGID_187_);}
	.st167{clip-path:url(#SVGID_192_);}
	.st168{clip-path:url(#SVGID_193_);}
	.st169{clip-path:url(#SVGID_197_);}
	.st170{fill:#72BF44;}
	.st171{clip-path:url(#SVGID_199_);}
	.st172{clip-path:url(#SVGID_203_);}
	.st173{clip-path:url(#SVGID_203_);fill:none;stroke:#18161B;stroke-width:4.557864e-03;}
	.st174{fill:#BCD641;}
	.st175{fill:none;stroke:#18161B;stroke-width:4.557864e-03;}
	.st176{clip-path:url(#SVGID_205_);fill:#1F6388;}
	.st177{fill:#1F6388;}
	.st178{fill:#3AB14C;}
	.st179{clip-path:url(#SVGID_207_);fill:#3AB14C;}
	.st180{clip-path:url(#SVGID_209_);fill:#36393D;}
	.st181{clip-path:url(#SVGID_209_);fill:#EE3C87;}
	.st182{clip-path:url(#SVGID_211_);}
	.st183{clip-path:url(#SVGID_215_);fill:#231F20;}
	.st184{clip-path:url(#SVGID_217_);}
	.st185{fill:#92D5E5;}
	.st186{fill:#2F4499;}
	.st187{fill:#F58529;}
	.st188{clip-path:url(#SVGID_221_);fill:#FFFFFF;}
	.st189{clip-path:url(#SVGID_221_);fill:#F58529;}
	.st190{clip-path:url(#SVGID_221_);fill:#454967;}
	.st191{fill:#454967;}
	.st192{clip-path:url(#SVGID_223_);fill:#3265A8;}
	.st193{fill:#3265A8;}
	.st194{clip-path:url(#SVGID_225_);fill:none;stroke:#121617;stroke-width:0.388;stroke-miterlimit:10;}
	.st195{clip-path:url(#SVGID_227_);fill:none;stroke:#121617;stroke-width:0.388;stroke-miterlimit:10;}
	.st196{clip-path:url(#SVGID_229_);fill:none;stroke:#121617;stroke-width:0.388;stroke-miterlimit:10;}
	.st197{clip-path:url(#SVGID_231_);fill:none;stroke:#121617;stroke-width:0.388;stroke-miterlimit:10;}
	.st198{clip-path:url(#SVGID_233_);fill:none;stroke:#121617;stroke-width:0.388;stroke-miterlimit:10;}
	.st199{fill:#EC1F26;}
	.st200{clip-path:url(#SVGID_235_);fill:none;stroke:#EC1F26;stroke-width:0.388;stroke-miterlimit:10;}
	.st201{fill:none;stroke:#EC1F26;stroke-width:0.388;stroke-miterlimit:10;}
	.st202{clip-path:url(#SVGID_237_);fill:none;stroke:#EC1F26;stroke-width:0.388;stroke-miterlimit:10;}
	.st203{clip-path:url(#SVGID_239_);fill:none;stroke:#EC1F26;stroke-width:0.388;stroke-miterlimit:10;}
	.st204{clip-path:url(#SVGID_241_);fill:none;stroke:#EC1F26;stroke-width:0.388;stroke-miterlimit:10;}
	.st205{clip-path:url(#SVGID_243_);}
	.st206{clip-path:url(#SVGID_247_);}
	.st207{clip-path:url(#SVGID_252_);}
	.st208{clip-path:url(#SVGID_253_);}
	.st209{clip-path:url(#SVGID_257_);}
	.st210{clip-path:url(#SVGID_261_);}
	.st211{fill:#CE2D34;}
	.st212{clip-path:url(#SVGID_265_);fill:#CE2D34;}
	.st213{fill-rule:evenodd;clip-rule:evenodd;fill:#40C0F0;}
	.st214{clip-path:url(#SVGID_267_);fill-rule:evenodd;clip-rule:evenodd;fill:#40C0F0;}
	.st215{fill-rule:evenodd;clip-rule:evenodd;fill:#989CA0;}
	.st216{fill:#989CA0;}
	.st217{clip-path:url(#SVGID_269_);fill:#A4CE43;}
	.st218{fill:#023C2C;}
	.st219{clip-path:url(#SVGID_271_);fill:#231F20;}
	.st220{clip-path:url(#SVGID_273_);fill:#EC1F26;}
	.st221{clip-path:url(#SVGID_273_);fill:#FCB432;}
	.st222{clip-path:url(#SVGID_275_);fill:#231F20;}
	.st223{clip-path:url(#SVGID_277_);fill:#231F20;}
	.st224{fill:#FAEE4F;}
	.st225{fill:none;stroke:#EE322E;stroke-width:0.1178;stroke-miterlimit:10;}
	.st226{clip-path:url(#SVGID_279_);fill:#408BCA;}
	.st227{fill:none;stroke:#408BCA;stroke-width:0.0589;stroke-miterlimit:10;}
	.st228{fill:#408BCA;}
	.st229{fill:#EE322E;}
	.st230{clip-path:url(#SVGID_281_);}
	.st231{clip-path:url(#SVGID_284_);}
	.st232{clip-path:url(#SVGID_285_);fill:#99D3B8;}
	.st233{clip-path:url(#SVGID_285_);fill:#FFFFFF;}
	.st234{clip-path:url(#SVGID_289_);}
	.st235{clip-path:url(#SVGID_290_);}
	.st236{clip-path:url(#SVGID_291_);}
	.st237{clip-path:url(#SVGID_297_);}
	.st238{clip-path:url(#SVGID_298_);}
	.st239{clip-path:url(#SVGID_299_);}
	.st240{clip-path:url(#SVGID_305_);}
	.st241{clip-path:url(#SVGID_306_);}
	.st242{clip-path:url(#SVGID_307_);}
	.st243{clip-path:url(#SVGID_313_);}
	.st244{clip-path:url(#SVGID_314_);}
	.st245{clip-path:url(#SVGID_315_);}
	.st246{clip-path:url(#SVGID_321_);}
	.st247{clip-path:url(#SVGID_322_);}
	.st248{clip-path:url(#SVGID_323_);}
	.st249{clip-path:url(#SVGID_329_);}
	.st250{clip-path:url(#SVGID_330_);}
	.st251{clip-path:url(#SVGID_331_);}
	.st252{clip-path:url(#SVGID_337_);}
	.st253{clip-path:url(#SVGID_338_);}
	.st254{clip-path:url(#SVGID_339_);}
	.st255{clip-path:url(#SVGID_345_);}
	.st256{clip-path:url(#SVGID_346_);}
	.st257{clip-path:url(#SVGID_347_);}
	.st258{clip-path:url(#SVGID_353_);}
	.st259{clip-path:url(#SVGID_354_);}
	.st260{clip-path:url(#SVGID_355_);}
	.st261{clip-path:url(#SVGID_360_);}
	.st262{clip-path:url(#SVGID_361_);fill:#86C440;}
	.st263{clip-path:url(#SVGID_361_);fill:none;stroke:#FFFFFF;stroke-width:0.1703;stroke-miterlimit:10;}
	.st264{clip-path:url(#SVGID_361_);fill:#FFFFFF;}
	.st265{clip-path:url(#SVGID_361_);fill:#EFE922;}
	.st266{clip-path:url(#SVGID_365_);}
	.st267{clip-path:url(#SVGID_366_);}
	.st268{clip-path:url(#SVGID_370_);}
	.st269{fill:#E8470B;}
	.st270{fill:#3C3A39;}
	.st271{fill:#0080CB;}
	.st272{fill:url(#SVGID_372_);}
	.st273{fill:#575757;}
</style>
<g>
	<linearGradient id="SVGID_1_" gradientUnits="userSpaceOnUse" x1="110.4695" y1="120.6583" x2="110.4695" y2="79.9967">
		<stop offset="0" style="stop-color:#DF4F11"></stop>
		<stop offset="1" style="stop-color:#DA1745"></stop>
	</linearGradient>
	<path class="st5" d="M120.61,120.66c-6.78,0-13.56,0-20.34,0c-0.14-0.02-0.27-0.05-0.41-0.06c-0.63-0.05-1.26-0.08-1.89-0.15   c-1.36-0.16-2.65-0.56-3.79-1.34c-2.41-1.65-3.69-3.95-3.91-6.85c-0.04-0.6-0.09-1.2-0.14-1.79c0-6.78,0-13.56,0-20.34   c0.02-0.17,0.05-0.34,0.06-0.51c0.07-0.74,0.09-1.49,0.22-2.21c0.65-3.54,2.71-5.87,6.15-6.93c1.43-0.44,2.93-0.46,4.41-0.47   c6.34-0.01,12.67-0.02,19.01,0.01c1.24,0.01,2.51,0.07,3.72,0.32c3.42,0.7,5.63,2.8,6.63,6.14c0.39,1.32,0.44,2.7,0.44,4.06   c0.02,6.06,0.02,12.12,0.01,18.17c0,1.19-0.05,2.39-0.13,3.58c-0.08,1.21-0.34,2.39-0.91,3.47c-1.57,2.93-4.04,4.49-7.34,4.75   C121.81,120.56,121.21,120.61,120.61,120.66z"></path>
	<path class="st28" d="M117.42,95.31c-0.02-0.16-0.03-0.28-0.05-0.39c-0.47-2.33-1.63-4.27-3.45-5.79   c-2.81-2.34-6.06-3.16-9.63-2.48c-3.51,0.67-6.19,2.58-7.82,5.8c-1.94,3.86-1.12,8.41,2,11.49c0.17,0.16,0.22,0.31,0.18,0.53   c-0.09,0.49-0.16,0.98-0.23,1.47c-0.07,0.47-0.15,0.94-0.16,1.41c-0.01,0.45,0.3,0.63,0.72,0.47c0.1-0.04,0.19-0.09,0.29-0.15   c0.75-0.45,1.49-0.91,2.24-1.34c0.12-0.07,0.32-0.08,0.46-0.04c0.65,0.19,1.28,0.43,1.94,0.6c0.51,0.13,1.05,0.18,1.62,0.28   c-0.63-3.54,0.28-6.55,2.81-8.99C110.85,95.75,113.92,94.91,117.42,95.31z M105.42,93.32c-0.38,0-0.79,0.01-1.2,0   c-0.45-0.02-0.78-0.23-0.94-0.65c-0.16-0.4-0.08-0.79,0.24-1.06c0.19-0.16,0.47-0.25,0.72-0.29c0.29-0.05,0.6-0.03,0.9-0.01   c0.26,0.02,0.37-0.06,0.35-0.34c-0.02-0.3,0-0.6,0-0.9c0.01-0.61,0.42-1.03,1-1.04c0.58,0,0.98,0.42,1,1.03   c0.01,0.32,0.01,0.65,0,0.97c-0.01,0.22,0.08,0.28,0.28,0.27c0.32-0.01,0.64-0.01,0.97,0c0.6,0.02,1.01,0.42,1.02,0.98   c0.01,0.58-0.4,1-1,1.03c-0.25,0.01-0.49,0-0.74,0c-0.58,0.01-0.52-0.1-0.52,0.54c0,0.25,0,0.49-0.01,0.74   c-0.02,0.58-0.46,1-1.01,0.99c-0.54-0.01-0.96-0.42-0.98-0.99c-0.02-0.4-0.01-0.79-0.02-1.19   C105.48,93.39,105.46,93.37,105.42,93.32z"></path>
	<path class="st28" d="M123.25,99.6c-2.8-3.31-7.6-4.39-11.6-2.5c-3.36,1.59-5.19,4.26-5.34,7.38c0.01,3.03,1.03,5.34,2.8,6.94   c3.79,3.45,9.54,3.46,13.34,0.02C125.88,108.34,126.23,103.13,123.25,99.6z M110.44,102.29c0-0.65,0.53-1.19,1.18-1.19   c0.66,0,1.17,0.52,1.17,1.19c0,0.65-0.52,1.17-1.16,1.17C110.98,103.47,110.45,102.95,110.44,102.29z M120.44,106.62   c-0.53,2.15-2.52,3.65-4.82,3.64c-2.28-0.01-4.21-1.47-4.77-3.62c-0.12-0.48-0.01-0.85,0.34-1.09c0.31-0.22,0.77-0.23,1.05,0.03   c0.16,0.14,0.29,0.35,0.35,0.56c0.44,1.41,1.63,2.31,3.07,2.31c1.43,0,2.62-0.91,3.05-2.33c0.17-0.56,0.62-0.84,1.12-0.71   C120.35,105.57,120.59,106.04,120.44,106.62z M119.4,103.47c-0.66,0-1.18-0.52-1.18-1.19c0-0.65,0.52-1.16,1.17-1.17   c0.66,0,1.19,0.53,1.18,1.19C120.56,102.95,120.04,103.46,119.4,103.47z"></path>
</g>
<g>
	<path class="st273" d="M288.19,92.01c1.31,0,2.62,0.01,3.93,0c0.35,0,0.7-0.05,1.05-0.1c0.57-0.08,0.91,0.07,0.96,0.62   c0.05,0.66-0.01,1.33-0.07,1.99c-0.04,0.42-0.32,0.57-0.75,0.57c-2.75-0.02-5.5-0.01-8.25-0.03c-0.39,0-0.77-0.09-1.16-0.13   c-0.63-0.07-1.07,0.28-1.08,0.91c0,0.45,0.11,0.91,0.1,1.36c-0.01,0.76-0.07,1.52-0.12,2.28c-0.05,0.74,0.27,1.11,1.02,1.11   c2.86,0,5.71,0,8.57,0c0.27,0,0.53-0.08,0.8-0.09c0.69-0.04,1.05,0.36,0.98,1.05c-0.03,0.33-0.03,0.67,0,0.99   c0.07,0.73-0.24,1.11-0.93,1.11c-8.4,0-16.79,0-25.19,0c-0.63,0-1.26,0.01-1.89,0c-0.58-0.01-0.86-0.29-0.88-0.88   c-0.01-0.48,0-0.95,0-1.43c0-0.62,0.25-0.86,0.86-0.86c2.78,0.03,5.57,0.07,8.35,0.1c0.87,0.01,1.74-0.01,2.6,0.02   c1.11,0.04,1.15-0.22,1.19-1.21c0.04-1.08,0.07-2.16,0.04-3.24c-0.02-0.79-0.43-1.45-1.41-1.24c-0.51,0.11-1.04,0.14-1.56,0.14   c-2.47,0.02-4.93,0.01-7.4,0.01c-0.56,0-1.11,0.01-1.67,0.01c-0.69,0-0.98-0.28-1.01-0.98c-0.01-0.46-0.01-0.92,0-1.38   c0.01-0.63,0.2-0.81,0.83-0.81c3.65,0.03,7.3,0.07,10.95,0.1c1.05,0.01,1.19-0.06,1.23-1.12c0.04-1.23,0-2.47-0.06-3.71   c-0.04-0.82-0.4-0.98-1.21-0.91c-0.96,0.08-1.93,0.07-2.89,0.07c-0.91,0-1.83-0.02-2.74-0.05c-0.5-0.01-0.8,0.22-1.01,0.67   c-0.39,0.81-0.79,1.62-1.25,2.4c-0.25,0.42-0.69,0.61-1.21,0.61c-0.91-0.01-1.82,0.01-2.73,0c-0.69,0-0.93-0.44-0.59-1.05   c0.49-0.87,0.99-1.74,1.44-2.63c0.49-0.98,0.91-2,1.41-2.98c0.47-0.94,1-1.84,1.52-2.76c0.16-0.29,0.41-0.41,0.76-0.4   c0.85,0.03,1.7,0.01,2.55,0.01c0.18,0,0.37-0.08,0.55-0.06c0.23,0.03,0.57,0.05,0.66,0.2c0.09,0.15,0.01,0.48-0.1,0.68   c-0.25,0.47-0.61,0.88-0.84,1.36c-0.34,0.72-0.09,1.02,0.71,1.02c1.25,0,2.51,0.01,3.76,0.06c1.23,0.05,1.25-0.33,1.32-1.41   c0.04-0.61-0.14-1.24-0.14-1.86c-0.01-0.71,0.16-1.13,0.94-1.12c0.88,0.01,1.76,0,2.64,0c0.8,0,1.19,0.39,1.17,1.19   c-0.02,0.59-0.07,1.19-0.15,1.77c-0.12,0.89,0.36,1.44,1.25,1.42c2.1-0.03,4.2-0.04,6.3-0.07c0.99-0.02,1.98-0.08,2.97-0.13   c0.47-0.03,0.83,0.35,0.85,0.97c0.01,0.44,0.01,0.88,0,1.32c-0.02,0.64-0.33,0.89-0.94,0.88c-2.16-0.03-4.33-0.03-6.49-0.05   c-0.95-0.01-1.89-0.05-2.84-0.06c-0.79-0.01-1.08,0.27-1.06,1.06c0.02,0.62,0.11,1.25,0.11,1.87c0,0.45-0.05,0.92-0.14,1.36   c-0.18,0.9,0.21,1.42,1.11,1.42C285.33,92.01,286.76,92.01,288.19,92.01z"></path>
	<path class="st273" d="M172.66,100.53c1.12-0.05,2.24-0.05,3.35-0.17c0.84-0.09,1.68-0.31,2.5-0.54c0.24-0.06,0.51-0.31,0.59-0.53   c0.05-0.14-0.18-0.47-0.36-0.6c-0.3-0.21-0.65-0.35-0.99-0.47c-1.09-0.35-2.07-0.89-2.84-1.75c-0.65-0.72-0.98-1.59-1.05-2.55   c-0.03-0.35,0-0.71,0.01-1.07c0.01-0.72-0.19-0.96-0.92-0.95c-0.86,0.01-1.72,0.08-2.59,0.09c-0.39,0.01-0.78-0.04-1.16-0.11   c-0.32-0.06-0.55-0.25-0.55-0.62c0-0.63,0-1.26,0-1.89c0-0.51,0.4-0.63,0.76-0.63c0.93-0.01,1.86,0.06,2.79,0.08   c0.37,0.01,0.74-0.02,1.1-0.1c0.48-0.11,0.73-0.57,0.64-1.04c-0.03-0.16-0.06-0.33-0.09-0.49c-0.14-0.72,0.06-1.06,0.75-1.1   c0.86-0.05,1.72-0.03,2.58-0.01c0.51,0.02,0.77,0.54,0.65,1.21c-0.04,0.21-0.09,0.43-0.08,0.65c0.03,0.5,0.3,0.78,0.8,0.79   c2.55,0.02,5.09,0.01,7.64,0.02c0.47,0,0.95,0.06,1.42,0.08c1.19,0.04,1.58-0.42,1.34-1.58c-0.18-0.89,0.05-1.17,0.96-1.18   c0.75,0,1.49-0.01,2.24-0.02c0.58-0.01,0.79,0.2,0.79,0.79c0,0.27,0.02,0.55-0.01,0.82c-0.08,0.84,0.17,1.18,1.27,1.16   c1.03-0.02,2.06-0.07,3.09-0.09c0.65-0.01,0.84,0.19,0.85,0.84c0.01,0.48,0.02,0.95,0.03,1.43c0.02,0.68-0.24,0.96-0.92,0.98   c-0.76,0.01-1.53,0.03-2.29,0.02c-0.42-0.01-0.84-0.08-1.26-0.09c-0.55-0.01-0.75,0.21-0.77,0.76c-0.02,0.75,0.08,1.52-0.08,2.23   c-0.27,1.2-1.16,2-2.17,2.6c-0.66,0.39-1.4,0.62-2.11,0.93c-0.17,0.07-0.38,0.11-0.49,0.23c-0.16,0.19-0.38,0.49-0.32,0.66   c0.07,0.22,0.36,0.46,0.6,0.52c0.87,0.23,1.76,0.4,2.65,0.58c0.2,0.04,0.4,0.05,0.6,0.06c1.63,0,3.26,0,4.89,0   c0.71,0,1.07,0.4,1.02,1.12c-0.03,0.4-0.06,0.81-0.1,1.21c-0.04,0.5-0.32,0.82-0.78,0.82c-1.6,0.01-3.2,0.09-4.79-0.02   c-1.83-0.13-3.62-0.51-5.32-1.24c-0.68-0.29-1.39-0.53-2.01-0.92c-0.85-0.53-1.59-0.41-2.39,0.06c-1.63,0.95-3.43,1.45-5.27,1.82   c-2.22,0.44-4.46,0.25-6.69,0.29c-0.62,0.01-0.87-0.25-0.9-0.9c-0.03-0.53-0.03-1.05,0-1.58c0.02-0.45,0.24-0.7,0.75-0.68   c0.88,0.03,1.77,0.01,2.65,0.01C172.66,100.5,172.66,100.52,172.66,100.53z M183.41,97.4c0.29-0.09,0.65-0.14,0.96-0.3   c1.04-0.51,2.05-1.08,3.09-1.58c0.99-0.48,1.52-1.2,1.57-2.32c0.04-0.89-0.3-1.31-1.19-1.28c-0.25,0.01-0.5,0.09-0.75,0.09   c-2.74-0.02-5.47-0.05-8.21-0.09c-0.67-0.01-1.1,0.22-1.15,0.72c-0.13,1.28,0.44,2.2,1.45,2.79c1.15,0.68,2.38,1.21,3.59,1.8   C182.95,97.31,183.15,97.33,183.41,97.4z"></path>
	<path class="st273" d="M159.42,95.38c1.62,0,3.23,0,4.85,0c0.15,0,0.31-0.01,0.45-0.04c0.73-0.17,1.16,0.15,1.16,0.89   c0,0.54-0.05,1.08-0.09,1.62c-0.04,0.48-0.27,0.71-0.79,0.71c-3.14-0.02-6.29-0.01-9.43-0.02c-0.34,0-0.67-0.1-1.01-0.12   c-0.79-0.05-1.18,0.47-1.12,1.25c0.09,1.08,0.1,2.17,0.07,3.25c-0.01,0.21-0.3,0.46-0.53,0.6c-0.19,0.11-0.46,0.12-0.69,0.11   c-0.84-0.01-1.69-0.04-2.53-0.09c-0.58-0.04-0.71-0.21-0.71-0.8c0-1.12,0-2.24,0-3.37c0-0.75-0.5-1.11-1.23-0.99   c-0.56,0.1-1.14,0.15-1.71,0.15c-2.77,0.01-5.54,0.01-8.31,0.01c-0.75,0-1.14-0.46-1.06-1.2c0.03-0.31,0.04-0.64-0.01-0.95   c-0.1-0.71,0.36-1.19,1.07-1.08c0.25,0.04,0.5,0.07,0.75,0.07c3.23,0.01,6.46,0.01,9.68,0.01c0.59,0,0.82-0.21,0.82-0.84   c0.01-1.9,0-3.81,0-5.71c0-1.58,0.01-3.15,0-4.73c0-0.74-0.3-0.94-1.05-0.91c-1.61,0.05-3.22,0.03-4.83,0.05   c-1.49,0.02-2.98,0.04-4.47,0.09c-0.6,0.02-1.05-0.39-1.06-1.09c-0.01-0.39-0.01-0.78-0.02-1.16c-0.02-0.61,0.26-0.91,0.87-0.91   c3.05,0.01,6.11,0.03,9.16,0.03c4.79,0.01,9.58,0.01,14.37,0.01c0.71,0,1.43-0.02,2.14-0.05c0.49-0.02,0.67,0.26,0.69,0.67   c0.03,0.56,0.02,1.12,0,1.68c-0.01,0.52-0.28,0.76-0.8,0.75c-1.41-0.01-2.82-0.03-4.23-0.04c-1.79-0.01-3.59,0-5.38,0   c-0.78,0-1.13,0.45-0.98,1.22c0.04,0.23,0.08,0.47,0.08,0.7c0.01,2.64,0.01,5.27,0,7.91c0,0.39-0.09,0.77-0.09,1.16   c-0.02,0.79,0.34,1.15,1.14,1.15C156.19,95.38,157.81,95.38,159.42,95.38z"></path>
	<path class="st273" d="M248.34,79.16c4.13,0,8.26,0,12.39,0c0.34,0,0.68-0.04,1.01-0.01c0.53,0.05,0.77,0.33,0.78,0.87   c0.01,0.36,0,0.71,0,1.07c0,0.68-0.34,1.03-1.03,1.03c-2.81,0-5.61-0.01-8.42-0.01c-2.04,0-4.08,0.03-6.12,0   c-1.61-0.03-3.22-0.17-4.83-0.18c-1.3-0.01-2.61,0.13-3.91,0.17c-0.34,0.01-0.67-0.07-1.01-0.08c-0.66-0.02-1.01,0.27-1.01,0.92   c0,1.99,0.04,3.98,0.05,5.96c0.02,2.64,0.03,5.27,0.03,7.91c0,0.95-0.07,1.9-0.09,2.84c-0.01,0.66,0.26,0.93,0.92,0.93   c2.99,0,5.97,0,8.96,0c2.72,0,5.43-0.03,8.15-0.02c1.69,0.01,3.38,0.09,5.08,0.11c0.78,0.01,1.56-0.07,2.34-0.09   c0.6-0.01,0.89,0.3,0.89,0.9c0,0.35,0,0.71,0,1.06c-0.01,0.67-0.33,1.03-1,1.09c-0.13,0.01-0.27,0-0.41,0c-8.54,0-17.08,0-25.61,0   c-1.45,0-2.58-1.11-2.57-2.55c0.03-5.61,0.07-11.22,0.1-16.83c0-0.88,0.02-1.77-0.1-2.64c-0.17-1.2,1.02-2.48,2.36-2.47   C239.64,79.17,243.99,79.16,248.34,79.16z"></path>
	<path class="st273" d="M246.12,87.93c-2.04,0-4.07,0-6.11,0c-0.35,0-0.71,0.08-1.05,0.03c-0.43-0.06-0.55-0.31-0.31-0.69   c0.71-1.14,1.43-2.27,2.18-3.38c0.13-0.19,0.45-0.33,0.68-0.33c0.98-0.04,1.96-0.02,2.94-0.01c0.54,0,0.78,0.28,0.76,0.84   c-0.03,0.72-0.01,0.71,0.73,0.7c4.01-0.05,8.02-0.07,12.03-0.11c0.74-0.01,1.49-0.05,2.23-0.1c0.96-0.06,1.42,0.36,1.41,1.32   c0,0.17-0.02,0.34,0,0.51c0.1,0.95-0.31,1.32-1.34,1.32c-2.21,0-4.41-0.06-6.62-0.09c-0.42-0.01-0.84,0.03-1.02,0.49   c-0.21,0.52-0.28,1.07,0.04,1.54c0.12,0.18,0.46,0.3,0.71,0.3c2.02,0.01,4.03,0,6.05-0.02c0.41,0,0.81-0.07,1.22-0.07   c0.59,0,0.94,0.36,0.96,0.94c0.01,0.32,0,0.65,0,0.97c0,0.77-0.4,1.26-1.16,1.23c-1.65-0.06-3.3-0.19-4.95-0.27   c-0.28-0.01-0.69,0.03-0.82,0.2c-0.12,0.16,0.03,0.56,0.14,0.82c0.08,0.18,0.28,0.34,0.46,0.44c1.62,0.91,3.32,1.53,5.2,1.58   c0.76,0.02,1.12,0.38,1.12,1.13c0,0.2-0.02,0.41,0,0.61c0.14,1.03-0.73,1.26-1.44,1.21c-0.71-0.06-1.41-0.17-2.11-0.19   c-1.47-0.04-2.79-0.58-4.04-1.25c-0.85-0.45-1.63-1.07-2.39-1.67c-0.32-0.25-0.54-0.64-0.79-0.97c-0.38-0.51-0.64-0.54-1.11-0.1   c-0.45,0.43-0.86,0.94-1.37,1.29c-1.67,1.16-3.56,1.88-5.52,2.37c-1.12,0.28-2.28,0.39-3.43,0.52c-0.76,0.09-1.09-0.27-1.08-1.04   c0-0.25,0.01-0.51,0.01-0.76c-0.01-1.15,0.22-1.46,1.37-1.54c1.61-0.11,3.12-0.61,4.61-1.15c0.34-0.12,0.64-0.52,0.82-0.87   c0.17-0.32-0.02-0.63-0.42-0.71c-0.16-0.03-0.36-0.07-0.5-0.02c-0.93,0.36-1.9,0.29-2.86,0.3c-0.76,0.01-1.52,0.02-2.28-0.01   c-0.49-0.02-0.74-0.34-0.75-0.84c-0.01-0.43,0-0.85,0-1.28c0-0.64,0.28-0.94,0.92-0.94c1.42,0.01,2.85,0.04,4.27,0.05   c0.61,0,1.22-0.03,1.82-0.04c0.29,0,0.57,0.04,0.86,0.04c0.4,0,0.81,0.01,1.2-0.06c0.78-0.14,1.2-0.91,0.88-1.71   c-0.1-0.24-0.44-0.48-0.71-0.53c-0.48-0.09-0.98-0.02-1.47-0.02C246.12,87.92,246.12,87.93,246.12,87.93z"></path>
	<path class="st273" d="M214.57,101.72c0,0.36,0.01,0.71,0,1.07c-0.04,0.71-0.48,0.95-1.11,0.62c-1.49-0.79-2.99-1.57-4.48-2.36   c-0.13-0.07-0.25-0.17-0.37-0.26c-0.72-0.54-1.1-0.52-1.88-0.08c-1.7,0.96-3.43,1.87-5.15,2.79c-0.41,0.22-0.86-0.03-0.88-0.5   c-0.03-0.86-0.04-1.73,0.01-2.59c0.01-0.21,0.21-0.49,0.4-0.61c0.55-0.35,1.12-0.68,1.72-0.93c0.8-0.33,1.05-1.08,0.4-1.63   c-0.74-0.63-0.92-1.41-0.91-2.3c0.03-2.75,0.07-5.49,0.1-8.24c0.01-0.77-0.21-1-0.98-1.13c-0.49-0.08-0.74-0.36-0.75-0.86   c-0.01-0.41,0-0.82,0-1.22c0-0.6,0.25-0.88,0.86-0.98c0.71-0.11,0.87-0.28,0.87-0.97c0-0.4-0.03-0.81-0.09-1.2   c-0.13-0.89,0.27-1.36,1.12-1.3c0.38,0.03,0.77,0.02,1.15,0c0.8-0.04,1.21,0.48,1.07,1.28c-0.09,0.5-0.11,1.03-0.06,1.53   c0.06,0.62,0.6,0.92,1.22,0.85c0.43-0.05,0.87-0.05,1.3,0.01c1.12,0.16,1.95-0.69,1.6-1.82c-0.39-1.26-0.18-1.97,1.49-1.86   c0.2,0.01,0.41,0,0.61,0c0.96,0,1.37,0.53,1.17,1.48c-0.08,0.37-0.08,0.76-0.09,1.14c-0.01,0.43,0.24,0.69,0.64,0.8   c0.76,0.21,1.16,0.65,1.02,1.48c-0.01,0.07,0,0.14,0.01,0.2c0.11,0.83-0.04,1.11-0.78,1.42c-0.84,0.36-0.88,0.43-0.87,1.31   c0.01,1.06-0.01,2.13,0.01,3.19c0.02,1.51,0.06,3.02,0.09,4.53c0.02,1.12-0.24,2.11-1.16,2.87c-0.52,0.44-0.27,1.1,0.42,1.37   c0.52,0.2,1.02,0.46,1.51,0.72c0.64,0.33,0.83,0.89,0.76,1.58C214.55,101.34,214.57,101.53,214.57,101.72z M205.51,90.45   c0.03,0,0.05,0,0.08,0c0,0.82,0.06,1.64-0.02,2.45c-0.1,1.03,0.35,1.79,1.01,2.48c0.45,0.47,1.1,0.66,1.55,0.44   c0.9-0.44,1.69-1.83,1.64-2.85c-0.05-1.24-0.09-2.47-0.1-3.71c0-0.76,0.04-1.52,0.1-2.28c0.06-0.82-0.37-1.58-1.39-1.5   c-0.5,0.04-1.01,0.01-1.51,0c-0.95-0.02-1.38,0.42-1.37,1.37C205.52,88.05,205.51,89.25,205.51,90.45z"></path>
	<path class="st273" d="M217.72,92.22c-0.8,0-1.6,0-2.4,0c-0.55,0-0.89-0.39-0.85-0.91c0.03-0.42,0.06-0.84,0.09-1.26   c0.03-0.63,0.31-0.88,0.93-0.86c1.48,0.04,2.95,0.08,4.43,0.11c0.87,0.02,1.22-0.3,1.17-1.19c-0.04-0.76,0.23-1.33,0.78-1.82   c1.05-0.94,2.09-1.88,3.11-2.84c0.18-0.17,0.31-0.4,0.4-0.63c0.24-0.58-0.01-0.96-0.63-0.91c-0.44,0.03-0.86,0.19-1.3,0.2   c-2.14,0.02-4.29,0-6.43-0.01c-0.3,0-0.61-0.01-0.91,0.02c-0.68,0.08-0.97-0.29-1.03-1.06c-0.03-0.33,0-0.67-0.01-1.01   c-0.01-0.74,0.41-1.11,1.12-0.99c0.28,0.05,0.57,0.09,0.85,0.09c2.6,0.01,5.2,0.01,7.81,0c0.95,0,1.9-0.09,2.85-0.09   c1.34,0,2.68,1.45,2.57,2.78c-0.06,0.74-0.53,1.3-0.99,1.82c-1.03,1.15-2.1,2.26-3.16,3.38c-0.23,0.24-0.51,0.45-0.76,0.67   c-0.3,0.26-0.47,0.58-0.35,0.99c0.14,0.45,0.5,0.67,0.92,0.66c1.01-0.03,2.03-0.08,3.03-0.18c0.76-0.08,1.25,0.23,1.29,0.97   c0.03,0.42,0.02,0.84,0.01,1.26c-0.01,0.54-0.27,0.82-0.81,0.82c-1.12-0.01-2.24-0.05-3.36-0.08c-0.67-0.02-1.05,0.34-1.03,1.01   c0.05,2.5,0.04,4.99,0.12,7.49c0.04,1.36-1.38,3.16-3.02,3.03c-0.93-0.07-1.87-0.01-2.8-0.01c-0.73,0-1.09-0.35-1.12-1.07   c-0.01-0.12,0-0.24,0-0.36c0-1.09,0.27-1.36,1.35-1.32c0.12,0,0.24,0.02,0.35,0.03c0.79,0.09,1.27-0.35,1.24-1.14   c-0.04-1.32-0.07-2.65-0.09-3.97c-0.01-0.88,0.01-1.77-0.01-2.65c-0.01-0.67-0.31-0.95-0.97-0.96c-0.8-0.01-1.6,0-2.4,0   C217.72,92.21,217.72,92.21,217.72,92.22z"></path>
	<path class="st273" d="M175.19,80.79c1.66,0,3.33-0.02,4.99,0.01c0.52,0.01,0.76-0.21,0.91-0.68c0.38-1.18,0.13-1.13,1.63-1.02   c0.52,0.04,1.05,0,1.57-0.07c0.58-0.07,0.89,0.04,1.15,0.56c0.07,0.13,0.14,0.27,0.18,0.42c0.2,0.67,0.48,0.78,1.29,0.78   c2.82-0.01,5.64-0.07,8.46-0.09c1.52-0.01,2.82,1.43,2.62,2.82c-0.07,0.46-0.02,0.94-0.06,1.4c-0.04,0.41-0.33,0.56-0.71,0.56   c-0.59,0-1.18,0.01-1.78,0c-0.5-0.01-0.8-0.29-0.77-0.79c0.07-1.37-0.31-1.38-1.45-1.36c-1.41,0.02-2.82,0-4.23,0.01   c-2.21,0.02-4.42,0.1-6.62,0.09c-3.04-0.01-6.08-0.07-9.12-0.12c-0.89-0.01-1.15,0.25-1.03,1.15c0.06,0.5-0.11,0.9-0.61,0.93   c-0.77,0.05-1.55,0.03-2.31-0.07c-0.21-0.03-0.53-0.43-0.52-0.64c0.07-0.87,0.15-1.75,0.4-2.58c0.32-1.04,1.25-1.37,2.24-1.42   c1.26-0.05,2.52-0.01,3.77-0.01C175.19,80.72,175.19,80.75,175.19,80.79z"></path>
	<path class="st273" d="M146.08,93.13c-0.5,0-1.24-0.04-1.98,0.01c-1.09,0.07-1.54-0.5-1.98-1.4c-0.43-0.88-0.89-1.75-1.34-2.63   c-0.56-1.09-1.12-2.17-1.68-3.26c-0.2-0.39,0.15-0.54,0.38-0.54c1.22-0.03,2.44-0.1,3.64,0.04c0.36,0.04,0.72,0.65,0.95,1.07   c0.8,1.47,1.54,2.97,2.3,4.45c0.19,0.37,0.42,0.73,0.62,1.09C147.46,92.74,147.22,93.14,146.08,93.13z"></path>
	<path class="st273" d="M158.38,93.04c-0.86,0-1.72,0.03-2.58-0.01c-0.53-0.03-0.63-0.28-0.39-0.75c1.07-2.04,2.14-4.08,3.2-6.12   c0.31-0.59,0.73-0.92,1.44-0.89c0.92,0.04,1.85,0,2.78,0.01c0.52,0.01,0.73,0.3,0.5,0.75c-1.07,2.11-2.16,4.21-3.25,6.31   C159.73,93.05,159.12,93.23,158.38,93.04z"></path>
</g>
<g>
	<path class="st273" d="M145.63,114.26c0,0.83-0.48,1.25-1.45,1.25h-3.85v4.85h-2.38v-13.37h6.22c0.97,0,1.45,0.41,1.45,1.23V114.26   z M143.23,113.79v-5.09h-2.9v5.09H143.23z"></path>
	<path class="st273" d="M149.73,120.35h-2.38v-13.37h2.38V120.35z"></path>
	<path class="st273" d="M159.73,120.35h-2.08l-3.81-8.42c0.1,0.41,0.15,0.73,0.15,0.97v7.45h-2.31v-13.37h2.08l3.81,8.25   c-0.1-0.41-0.15-0.73-0.15-0.97v-7.28h2.31V120.35z"></path>
	<path class="st273" d="M169.5,119.13c0,0.81-0.48,1.22-1.45,1.22h-5c-0.94,0-1.41-0.41-1.41-1.22v-10.92   c0-0.82,0.48-1.23,1.44-1.23h4.96c0.97,0,1.45,0.41,1.45,1.23v2.85h-2.39v-2.37h-3.1v9.94h3.1v-3.74h-1.77v-1.7h4.15V119.13z"></path>
	<path class="st273" d="M179.45,120.35h-2.36l-0.48-2.54h-2.97l-0.48,2.54h-2.35v-0.03l3.08-13.36h2.5L179.45,120.35z M176.28,116.1   l-1.16-6.03l-1.17,6.03H176.28z"></path>
	<path class="st273" d="M188.83,120.35h-2.08l-3.81-8.42c0.1,0.41,0.15,0.73,0.15,0.97v7.45h-2.31v-13.37h2.08l3.81,8.25   c-0.1-0.41-0.15-0.73-0.15-0.97v-7.28h2.31V120.35z"></path>
	<path class="st273" d="M202.88,119.13c0,0.81-0.48,1.22-1.45,1.22h-5c-0.94,0-1.41-0.41-1.41-1.22v-10.92   c0-0.82,0.48-1.23,1.44-1.23h4.96c0.97,0,1.45,0.41,1.45,1.23v2.85h-2.39v-2.37h-3.1v9.94h3.1v-3.74h-1.77v-1.7h4.15V119.13z"></path>
	<path class="st273" d="M212.79,119.13c0,0.81-0.48,1.22-1.44,1.22h-5.16c-0.94,0-1.41-0.41-1.41-1.22v-10.92   c0-0.82,0.47-1.23,1.41-1.23h5.16c0.96,0,1.44,0.41,1.44,1.23V119.13z M210.42,118.63v-9.94h-3.26v9.94H210.42z"></path>
	<path class="st273" d="M222.71,119.13c0,0.81-0.48,1.22-1.44,1.22h-5.16c-0.94,0-1.41-0.41-1.41-1.22v-10.92   c0-0.82,0.47-1.23,1.41-1.23h5.16c0.96,0,1.44,0.41,1.44,1.23V119.13z M220.33,118.63v-9.94h-3.26v9.94H220.33z"></path>
	<path class="st273" d="M232.54,117.83c0,0.79-0.28,1.4-0.83,1.85c-0.56,0.45-1.3,0.67-2.24,0.67h-4.84v-13.37h4.84   c0.94,0,1.69,0.23,2.24,0.68c0.55,0.45,0.83,1.07,0.83,1.86V117.83z M230.15,117.5v-7.68c0-0.75-0.46-1.12-1.39-1.12H227v9.94h1.71   C229.67,118.63,230.15,118.26,230.15,117.5z"></path>
	<path class="st273" d="M246.58,117.83c0,0.79-0.28,1.4-0.83,1.85c-0.56,0.45-1.3,0.67-2.24,0.67h-4.84v-13.37h4.84   c0.94,0,1.69,0.23,2.24,0.68c0.55,0.45,0.83,1.07,0.83,1.86V117.83z M244.19,117.5v-7.68c0-0.75-0.46-1.12-1.39-1.12h-1.77v9.94   h1.71C243.71,118.63,244.19,118.26,244.19,117.5z"></path>
	<path class="st273" d="M256.43,119.13c0,0.81-0.48,1.22-1.44,1.22h-5.16c-0.94,0-1.41-0.41-1.41-1.22v-10.92   c0-0.82,0.47-1.23,1.41-1.23h5.16c0.96,0,1.44,0.41,1.44,1.23V119.13z M254.05,118.63v-9.94h-3.26v9.94H254.05z"></path>
	<path class="st273" d="M266.16,119.13c0,0.81-0.48,1.22-1.45,1.22h-4.95c-0.94,0-1.41-0.41-1.41-1.22v-10.92   c0-0.82,0.47-1.23,1.41-1.23h4.95c0.97,0,1.45,0.41,1.45,1.23v3.13h-2.37v-2.64h-3.08v9.94h3.08v-2.81h2.37V119.13z"></path>
	<path class="st273" d="M274.93,108.75h-2.62v11.6h-2.37v-11.6h-2.62v-1.77h7.6V108.75z"></path>
	<path class="st273" d="M284.15,119.13c0,0.81-0.48,1.22-1.44,1.22h-5.16c-0.94,0-1.41-0.41-1.41-1.22v-10.92   c0-0.82,0.47-1.23,1.41-1.23h5.16c0.96,0,1.44,0.41,1.44,1.23V119.13z M281.77,118.63v-9.94h-3.26v9.94H281.77z"></path>
	<path class="st273" d="M294.19,120.35h-2.48l-2.62-6.21v-1.2h2.33v-4.24h-2.99v11.66h-2.38v-13.37h6.3c0.95,0,1.43,0.41,1.43,1.23   v4.86c0,0.56-0.23,0.93-0.68,1.09c-0.24,0.09-0.76,0.13-1.54,0.13L294.19,120.35z"></path>
</g>
</svg>
