<?xml version="1.0" encoding="UTF-8"?>
<!-- Generator: Adobe Illustrator 23.0.1, SVG Export Plug-In . SVG Version: 6.00 Build 0)  -->
<svg xmlns="http://www.w3.org/2000/svg" xmlns:xlink="http://www.w3.org/1999/xlink" id="Logos" x="0px" y="0px" viewBox="0 0 390 200" style="enable-background:new 0 0 390 200;" xml:space="preserve">
<style type="text/css">
	.st0{display:none;}
	.st1{display:inline;fill:#00B45E;}
	.st2{display:inline;fill:#E53312;}
	.st3{display:inline;}
	.st4{fill:#5A5A5A;}
	.st5{fill:url(#SVGID_1_);}
	.st6{fill:#BABCBE;}
	.st7{fill:url(#SVGID_2_);}
	.st8{fill-rule:evenodd;clip-rule:evenodd;}
	.st9{fill:#D41317;}
	.st10{fill:#1D1D1B;}
	.st11{fill:#454651;}
	.st12{display:inline;fill:#454651;}
	.st13{fill:#3E434F;}
	.st14{display:inline;fill:#1D1D1B;}
	.st15{display:inline;fill:#44444E;}
	.st16{display:inline;fill:#44444E;stroke:#44444E;stroke-linecap:round;stroke-linejoin:bevel;stroke-miterlimit:10;}
	.st17{fill:#44444E;stroke:#44444E;stroke-linecap:round;stroke-linejoin:bevel;stroke-miterlimit:10;}
	.st18{fill:#44444E;stroke:#44444E;stroke-width:7;stroke-linecap:square;stroke-linejoin:round;stroke-miterlimit:10;}
	.st19{display:inline;fill:none;stroke:#44444E;stroke-width:7;stroke-linecap:round;stroke-linejoin:bevel;stroke-miterlimit:10;}
	.st20{fill:none;stroke:#44444E;stroke-width:7;stroke-linecap:square;stroke-linejoin:round;stroke-miterlimit:10;}
	.st21{fill:none;stroke:#44444E;stroke-width:7;stroke-linecap:round;stroke-linejoin:bevel;stroke-miterlimit:10;}
	.st22{display:inline;fill:none;stroke:#44444E;stroke-width:7;stroke-linecap:square;stroke-linejoin:bevel;stroke-miterlimit:10;}
	.st23{display:inline;fill:none;stroke:#44444E;stroke-width:7;stroke-linecap:square;stroke-linejoin:round;stroke-miterlimit:10;}
	.st24{display:inline;fill:#367DBF;}
	.st25{display:inline;fill:#367DBF;stroke:#1D1D1B;stroke-width:0.25;stroke-miterlimit:10;}
	.st26{display:inline;fill:#2E4498;}
	.st27{display:inline;fill:#F58428;}
	.st28{fill:#FFFFFF;}
	.st29{fill:#444968;}
	.st30{display:inline;fill:#E4201C;}
	.st31{fill:#0677B7;}
	.st32{fill:#686867;}
	.st33{display:inline;fill:#3F4042;}
	.st34{display:inline;fill:#F6B21F;}
	.st35{fill:#EA5504;}
	.st36{display:inline;fill:#005E3C;}
	.st37{clip-path:url(#SVGID_4_);fill:#32617E;}
	.st38{clip-path:url(#SVGID_4_);fill:#9ABFD1;}
	.st39{clip-path:url(#SVGID_6_);fill:url(#SVGID_7_);}
	.st40{fill:#3E424E;}
	.st41{display:inline;fill:#3E424E;}
	.st42{fill:#E9C118;}
	.st43{fill:#62BB46;}
	.st44{fill:#00B1E4;}
	.st45{clip-path:url(#SVGID_9_);fill:#EE255C;}
	.st46{clip-path:url(#SVGID_9_);fill:#162F55;}
	.st47{fill:#162F55;}
	.st48{clip-path:url(#SVGID_11_);fill:#162F55;}
	.st49{clip-path:url(#SVGID_13_);fill:#0071B9;}
	.st50{clip-path:url(#SVGID_13_);fill:#393A36;}
	.st51{fill:#393A36;}
	.st52{clip-path:url(#SVGID_15_);fill:#005F82;}
	.st53{clip-path:url(#SVGID_15_);fill:#231F20;}
	.st54{clip-path:url(#SVGID_17_);fill:#323E48;}
	.st55{clip-path:url(#SVGID_17_);fill:#71A850;}
	.st56{fill:#EE302A;}
	.st57{clip-path:url(#SVGID_19_);fill:#EE302A;}
	.st58{clip-path:url(#SVGID_21_);fill:#FBFCFD;}
	.st59{fill:#00B5CC;}
	.st60{fill:#C9CCD1;}
	.st61{fill:#00B4CB;}
	.st62{fill:#00B4CC;}
	.st63{clip-path:url(#SVGID_23_);fill:#00B4CB;}
	.st64{clip-path:url(#SVGID_23_);fill:#12678E;}
	.st65{clip-path:url(#SVGID_23_);fill:#0F678E;}
	.st66{clip-path:url(#SVGID_25_);fill:#47494A;}
	.st67{fill:#47494A;}
	.st68{clip-path:url(#SVGID_27_);fill:#47494A;}
	.st69{fill:#FEFEFD;}
	.st70{fill:#7CBF53;}
	.st71{fill:#195A99;}
	.st72{fill:#E86C34;}
	.st73{clip-path:url(#SVGID_29_);fill:#2F3432;}
	.st74{fill:#2F3432;}
	.st75{fill:#8FC84D;}
	.st76{clip-path:url(#SVGID_31_);fill:#F15E3A;}
	.st77{clip-path:url(#SVGID_33_);fill:#3E434F;}
	.st78{clip-path:url(#SVGID_35_);fill:#3E434F;}
	.st79{clip-path:url(#SVGID_37_);fill:#F68B2E;}
	.st80{clip-path:url(#SVGID_37_);fill:#5C5F60;}
	.st81{fill:#5C5F60;}
	.st82{clip-path:url(#SVGID_39_);fill:#5C5F60;}
	.st83{clip-path:url(#SVGID_41_);fill:#EF472E;}
	.st84{fill:#EF472E;}
	.st85{clip-path:url(#SVGID_43_);fill:#EF472E;}
	.st86{clip-path:url(#SVGID_45_);}
	.st87{clip-path:url(#SVGID_47_);fill:#FFFFFF;}
	.st88{clip-path:url(#SVGID_49_);fill:#F16728;}
	.st89{clip-path:url(#SVGID_51_);}
	.st90{clip-path:url(#SVGID_55_);}
	.st91{clip-path:url(#SVGID_57_);}
	.st92{clip-path:url(#SVGID_59_);}
	.st93{clip-path:url(#SVGID_61_);fill:#797882;}
	.st94{clip-path:url(#SVGID_65_);fill:#696973;}
	.st95{clip-path:url(#SVGID_65_);fill:#8A8991;}
	.st96{clip-path:url(#SVGID_65_);fill:#FEFEFB;}
	.st97{clip-path:url(#SVGID_65_);fill:#3E424E;}
	.st98{clip-path:url(#SVGID_65_);fill:#5A5B66;}
	.st99{clip-path:url(#SVGID_65_);fill:#9D9BA3;}
	.st100{clip-path:url(#SVGID_65_);fill:#81818A;}
	.st101{clip-path:url(#SVGID_65_);fill:#C6C5C9;}
	.st102{clip-path:url(#SVGID_65_);fill:none;stroke:#9D9BA3;stroke-width:0.3539;stroke-miterlimit:10;}
	.st103{clip-path:url(#SVGID_69_);fill:#3E424E;}
	.st104{clip-path:url(#SVGID_69_);fill:#C6C5C9;}
	.st105{clip-path:url(#SVGID_69_);fill:#5A5B66;}
	.st106{clip-path:url(#SVGID_69_);fill:#9D9BA3;}
	.st107{clip-path:url(#SVGID_71_);fill:#00579B;}
	.st108{fill:#00579B;}
	.st109{clip-path:url(#SVGID_73_);fill:#00579B;}
	.st110{clip-path:url(#SVGID_75_);fill:#9553A1;}
	.st111{fill:#9553A1;}
	.st112{clip-path:url(#SVGID_77_);fill:#1A3761;}
	.st113{fill:#28B56C;}
	.st114{clip-path:url(#SVGID_79_);fill:#F06E30;}
	.st115{clip-path:url(#SVGID_79_);fill:#FFFFFF;}
	.st116{fill:#F06E30;}
	.st117{clip-path:url(#SVGID_81_);fill:#19AAE2;}
	.st118{clip-path:url(#SVGID_81_);fill:#B2D454;}
	.st119{fill:#231F20;}
	.st120{clip-path:url(#SVGID_83_);fill:#231F20;}
	.st121{clip-path:url(#SVGID_83_);fill:#6BC4E8;}
	.st122{fill:#0093D0;}
	.st123{fill:#14AADB;}
	.st124{fill:#9ECD51;}
	.st125{fill:#00AAE2;}
	.st126{fill:#121617;}
	.st127{clip-path:url(#SVGID_85_);fill:#3C62AE;}
	.st128{fill:#3C62AE;}
	.st129{clip-path:url(#SVGID_87_);}
	.st130{fill:#211261;}
	.st131{fill:#CF3339;}
	.st132{clip-path:url(#SVGID_91_);fill:#5D686E;}
	.st133{fill:#EE2E34;}
	.st134{clip-path:url(#SVGID_94_);}
	.st135{clip-path:url(#SVGID_95_);}
	.st136{clip-path:url(#SVGID_100_);}
	.st137{clip-path:url(#SVGID_101_);}
	.st138{clip-path:url(#SVGID_106_);}
	.st139{clip-path:url(#SVGID_107_);}
	.st140{clip-path:url(#SVGID_112_);}
	.st141{clip-path:url(#SVGID_113_);}
	.st142{clip-path:url(#SVGID_118_);}
	.st143{clip-path:url(#SVGID_119_);}
	.st144{clip-path:url(#SVGID_124_);}
	.st145{clip-path:url(#SVGID_125_);}
	.st146{clip-path:url(#SVGID_130_);}
	.st147{clip-path:url(#SVGID_131_);}
	.st148{clip-path:url(#SVGID_136_);}
	.st149{clip-path:url(#SVGID_137_);}
	.st150{clip-path:url(#SVGID_142_);}
	.st151{clip-path:url(#SVGID_143_);}
	.st152{clip-path:url(#SVGID_148_);}
	.st153{clip-path:url(#SVGID_149_);}
	.st154{clip-path:url(#SVGID_154_);}
	.st155{clip-path:url(#SVGID_155_);}
	.st156{clip-path:url(#SVGID_161_);}
	.st157{clip-path:url(#SVGID_162_);}
	.st158{clip-path:url(#SVGID_163_);}
	.st159{clip-path:url(#SVGID_168_);}
	.st160{clip-path:url(#SVGID_169_);}
	.st161{clip-path:url(#SVGID_174_);}
	.st162{clip-path:url(#SVGID_175_);}
	.st163{clip-path:url(#SVGID_180_);}
	.st164{clip-path:url(#SVGID_181_);}
	.st165{clip-path:url(#SVGID_186_);}
	.st166{clip-path:url(#SVGID_187_);}
	.st167{clip-path:url(#SVGID_192_);}
	.st168{clip-path:url(#SVGID_193_);}
	.st169{clip-path:url(#SVGID_197_);}
	.st170{fill:#72BF44;}
	.st171{clip-path:url(#SVGID_199_);}
	.st172{clip-path:url(#SVGID_203_);}
	.st173{clip-path:url(#SVGID_203_);fill:none;stroke:#18161B;stroke-width:4.557864e-03;}
	.st174{fill:#BCD641;}
	.st175{fill:none;stroke:#18161B;stroke-width:4.557864e-03;}
	.st176{clip-path:url(#SVGID_205_);fill:#1F6388;}
	.st177{fill:#1F6388;}
	.st178{fill:#3AB14C;}
	.st179{clip-path:url(#SVGID_207_);fill:#3AB14C;}
	.st180{clip-path:url(#SVGID_209_);fill:#36393D;}
	.st181{clip-path:url(#SVGID_209_);fill:#EE3C87;}
	.st182{clip-path:url(#SVGID_211_);}
	.st183{clip-path:url(#SVGID_215_);fill:#231F20;}
	.st184{clip-path:url(#SVGID_217_);}
	.st185{fill:#92D5E5;}
	.st186{fill:#2F4499;}
	.st187{fill:#F58529;}
	.st188{clip-path:url(#SVGID_221_);fill:#FFFFFF;}
	.st189{clip-path:url(#SVGID_221_);fill:#F58529;}
	.st190{clip-path:url(#SVGID_221_);fill:#454967;}
	.st191{fill:#454967;}
	.st192{clip-path:url(#SVGID_223_);fill:#3265A8;}
	.st193{fill:#3265A8;}
	.st194{clip-path:url(#SVGID_225_);fill:none;stroke:#121617;stroke-width:0.3687;stroke-miterlimit:10;}
	.st195{clip-path:url(#SVGID_227_);fill:none;stroke:#121617;stroke-width:0.3687;stroke-miterlimit:10;}
	.st196{clip-path:url(#SVGID_229_);fill:none;stroke:#121617;stroke-width:0.3687;stroke-miterlimit:10;}
	.st197{clip-path:url(#SVGID_231_);fill:none;stroke:#121617;stroke-width:0.3687;stroke-miterlimit:10;}
	.st198{clip-path:url(#SVGID_233_);fill:none;stroke:#121617;stroke-width:0.3687;stroke-miterlimit:10;}
	.st199{fill:#EC1F26;}
	.st200{clip-path:url(#SVGID_235_);fill:none;stroke:#EC1F26;stroke-width:0.3687;stroke-miterlimit:10;}
	.st201{fill:none;stroke:#EC1F26;stroke-width:0.3687;stroke-miterlimit:10;}
	.st202{clip-path:url(#SVGID_237_);fill:none;stroke:#EC1F26;stroke-width:0.3687;stroke-miterlimit:10;}
	.st203{clip-path:url(#SVGID_239_);fill:none;stroke:#EC1F26;stroke-width:0.3687;stroke-miterlimit:10;}
	.st204{clip-path:url(#SVGID_241_);fill:none;stroke:#EC1F26;stroke-width:0.3687;stroke-miterlimit:10;}
	.st205{clip-path:url(#SVGID_243_);}
	.st206{clip-path:url(#SVGID_247_);}
	.st207{clip-path:url(#SVGID_252_);}
	.st208{clip-path:url(#SVGID_253_);}
	.st209{clip-path:url(#SVGID_257_);}
	.st210{clip-path:url(#SVGID_261_);}
	.st211{fill:#CE2D34;}
	.st212{clip-path:url(#SVGID_265_);fill:#CE2D34;}
	.st213{fill-rule:evenodd;clip-rule:evenodd;fill:#40C0F0;}
	.st214{clip-path:url(#SVGID_267_);fill-rule:evenodd;clip-rule:evenodd;fill:#40C0F0;}
	.st215{fill-rule:evenodd;clip-rule:evenodd;fill:#989CA0;}
	.st216{fill:#989CA0;}
	.st217{clip-path:url(#SVGID_269_);fill:#A4CE43;}
	.st218{fill:#023C2C;}
	.st219{clip-path:url(#SVGID_271_);fill:#231F20;}
	.st220{clip-path:url(#SVGID_273_);fill:#EC1F26;}
	.st221{clip-path:url(#SVGID_273_);fill:#FCB432;}
	.st222{clip-path:url(#SVGID_275_);fill:#231F20;}
	.st223{clip-path:url(#SVGID_277_);fill:#231F20;}
	.st224{fill:#FAEE4F;}
	.st225{fill:none;stroke:#EE322E;stroke-width:0.124;stroke-miterlimit:10;}
	.st226{clip-path:url(#SVGID_279_);fill:#408BCA;}
	.st227{fill:none;stroke:#408BCA;stroke-width:0.062;stroke-miterlimit:10;}
	.st228{fill:#408BCA;}
	.st229{fill:#EE322E;}
</style>
<g>
	<g>
		<defs>
			<rect id="SVGID_36_" x="131" y="85" width="147" height="50.51"></rect>
		</defs>
		<clipPath id="SVGID_1_">
			<use xlink:href="#SVGID_36_" style="overflow:visible;"></use>
		</clipPath>
		<path style="clip-path:url(#SVGID_1_);fill:#F68B2E;" d="M174.42,92.68h-1.62h-6.6l-0.06,6.42c0,0.19-0.07,1.08-0.09,1.27    l-0.01,0.08c-0.65,6.3-5.39,10.9-11.99,11.84h-2.56c-6.03-0.18-12.04-6.28-12.16-11.76L139.21,99c0-2.86-0.01-4.07,0.05-6.3    l26.95-0.02V85h-18.63h-11.75h-2.79c-1.12,0-2.04,0.92-2.04,2.04v13.44l0,0l0.03,0.98c0.03,0.31,0.04,0.57,0.09,0.84    c0.01,0.03,0.02,0.1,0.02,0.13c1.38,9.84,10.55,16.87,19.47,17.75h4.19c10.86-1.55,18.63-9.29,19.62-19.7l0,0l0,0    c0-0.04,0-0.08,0-0.12h0V92.68L174.42,92.68z"></path>
		<path style="clip-path:url(#SVGID_1_);fill:#5C5F60;" d="M191.27,89.26l-1.38,15.99c-0.03,0.26,0.12,0.82,0.39,0.83l4.17-0.02    c3.78,0.02,6.26-0.37,8.49-2.09c1.8-1.38,3.42-3.51,3.64-6.69c0.15-2.13-0.24-3.88-1.22-5.24c-0.15-0.21-0.67-0.83-1.63-1.55    c-2.46-1.81-5.9-1.71-8.04-1.78c-1.36-0.05-2.71-0.02-4.07-0.03C191.38,88.7,191.3,89.03,191.27,89.26L191.27,89.26z     M185.73,109.25l2.32-23.83c0.02-0.23,0.22-0.41,0.45-0.41l7.55,0.04c0,0,0,0,0,0c3.11,0.18,8.4-0.51,11.95,4.42    c2.31,3.1,2.18,6.56,2.13,7.71c-0.31,6.03-4.83,9.54-5.53,10.07c-3.05,2.3-6.54,2.55-11.27,2.53l-7.15-0.04    C185.91,109.74,185.7,109.51,185.73,109.25L185.73,109.25z"></path>
	</g>
	<path class="st81" d="M213.59,109.77h-0.1c-1-0.09-1.74-0.81-1.65-1.82L213.39,91c0.02-0.17,0.16-0.29,0.33-0.27l2.85-0.02   c0.17,0.02,0.42,0.2,0.41,0.36l-1.38,16.65C215.51,108.7,214.58,109.86,213.59,109.77L213.59,109.77z"></path>
	<g>
		<defs>
			<rect id="SVGID_38_" x="131" y="85" width="147" height="50.51"></rect>
		</defs>
		<clipPath id="SVGID_2_">
			<use xlink:href="#SVGID_38_" style="overflow:visible;"></use>
		</clipPath>
		<path style="clip-path:url(#SVGID_2_);fill:#5C5F60;" d="M217.51,86.77c0,0.98-0.77,1.77-1.96,1.77c-1.08,0-1.97-0.81-1.96-1.77    c0.01-0.77,0.88-1.64,1.96-1.64C216.63,85.12,217.51,85.79,217.51,86.77L217.51,86.77z"></path>
		<path style="clip-path:url(#SVGID_2_);fill:#5C5F60;" d="M228.66,89.26l-1.38,15.99c-0.03,0.26,0.12,0.82,0.39,0.83l4.17-0.02    c3.78,0.02,6.26-0.37,8.49-2.09c1.8-1.38,3.42-3.51,3.64-6.69c0.15-2.13-0.24-3.88-1.22-5.23c-0.15-0.21-0.67-0.83-1.63-1.55    c-2.46-1.81-5.9-1.71-8.04-1.78c-1.36-0.05-2.71-0.02-4.07-0.03C228.77,88.7,228.68,89.03,228.66,89.26L228.66,89.26z     M223.11,109.24l2.32-23.83c0.02-0.23,0.22-0.41,0.45-0.41l7.55,0.04c0,0,0,0,0,0c3.11,0.18,8.4-0.51,11.95,4.42    c2.31,3.1,2.18,6.56,2.13,7.71c-0.31,6.03-4.83,9.54-5.53,10.07c-3.05,2.3-6.54,2.55-11.27,2.53l-7.15-0.04    C223.29,109.74,223.09,109.51,223.11,109.24L223.11,109.24z"></path>
	</g>
	<path class="st81" d="M250.98,109.77h-0.1c-1-0.09-1.74-0.81-1.65-1.82L250.77,91c0.02-0.17,0.16-0.29,0.33-0.27l2.85-0.02   c0.17,0.02,0.42,0.2,0.41,0.36l-1.38,16.65C252.89,108.7,251.96,109.86,250.98,109.77L250.98,109.77z"></path>
	<path class="st81" d="M254.89,86.77c0,0.98-0.77,1.77-1.96,1.77c-1.08,0-1.97-0.81-1.96-1.77c0.01-0.77,0.88-1.64,1.96-1.64   C254.02,85.12,254.89,85.79,254.89,86.77L254.89,86.77z"></path>
	<path class="st81" d="M191.61,119.3h-0.64l0.24-3.38c0.02-0.27,0.06-0.59,0.12-0.98h-0.02c-0.08,0.23-0.14,0.39-0.2,0.49   l-2.15,3.87h-0.31l-1.61-3.84c-0.05-0.11-0.09-0.28-0.13-0.52h-0.02c0.01,0.2-0.01,0.53-0.04,0.99l-0.24,3.37H186l0.35-5.03h0.85   l1.44,3.51c0.11,0.27,0.18,0.47,0.21,0.6h0.02c0.13-0.28,0.23-0.48,0.31-0.62l1.97-3.5h0.8L191.61,119.3L191.61,119.3z"></path>
	<path class="st81" d="M194.47,116c-0.39,0-0.74,0.14-1.04,0.43c-0.3,0.29-0.47,0.64-0.5,1.04c-0.02,0.26,0.02,0.51,0.13,0.74   c0.11,0.23,0.27,0.41,0.48,0.53c0.21,0.13,0.44,0.19,0.7,0.19c0.26,0,0.5-0.06,0.73-0.18c0.23-0.12,0.41-0.3,0.56-0.53   c0.15-0.23,0.23-0.47,0.25-0.74c0.03-0.41-0.08-0.76-0.34-1.05C195.18,116.15,194.86,116,194.47,116L194.47,116z M194.51,115.54   c0.56,0,1.01,0.21,1.35,0.62c0.31,0.37,0.44,0.81,0.4,1.32c-0.04,0.51-0.25,0.96-0.64,1.33c-0.38,0.38-0.86,0.57-1.41,0.56   c-0.56,0-1-0.2-1.32-0.58c-0.32-0.38-0.47-0.83-0.42-1.34c0.04-0.51,0.24-0.94,0.61-1.31   C193.46,115.74,193.94,115.54,194.51,115.54L194.51,115.54z"></path>
	<path class="st81" d="M197.17,115.49h0.49l-0.02,0.54c0.19-0.22,0.27-0.28,0.45-0.38c0.17-0.1,0.34-0.11,0.51-0.11   c0.13,0,0.26,0.04,0.41,0.13l-0.17,0.42c-0.09-0.04-0.28-0.09-0.35-0.1c-0.16,0-0.31,0.06-0.47,0.19c-0.16,0.13-0.28,0.33-0.38,0.6   c-0.07,0.21-0.14,0.63-0.19,1.26l-0.1,1.24l-0.48,0L197.17,115.49L197.17,115.49z"></path>
	<path class="st81" d="M202.53,117.05c-0.04-0.25-0.12-0.45-0.22-0.6c-0.11-0.15-0.26-0.27-0.45-0.37   c-0.19-0.09-0.39-0.14-0.61-0.14c-0.36,0-0.67,0.11-0.95,0.34c-0.2,0.17-0.36,0.42-0.49,0.75L202.53,117.05L202.53,117.05z    M202.46,117.7l0.4,0c0.04,0.33-0.34,0.89-0.53,1.04c-0.18,0.15-0.38,0.26-0.6,0.34c-0.22,0.08-0.46,0.12-0.73,0.11   c-0.59,0-1.04-0.19-1.35-0.57c-0.3-0.38-0.44-0.81-0.4-1.28c0.04-0.45,0.21-0.84,0.52-1.19c0.4-0.44,0.9-0.66,1.5-0.66   c0.62,0,1.1,0.23,1.43,0.69c0.24,0.32,0.34,0.73,0.3,1.21l-3.28-0.02c-0.03,0.41,0.08,0.75,0.32,1.01c0.24,0.26,0.55,0.4,0.94,0.4   c0.19,0,0.37-0.03,0.55-0.09c0.18-0.06,0.34-0.14,0.47-0.25C202.14,118.34,202.47,118.01,202.46,117.7L202.46,117.7z"></path>
	<polygon class="st81" points="207.44,114.23 207.91,114.23 207.81,115.49 208.55,115.49 208.52,115.97 207.77,115.97    207.51,119.24 207.04,119.24 207.3,115.97 206.59,115.98 206.63,115.49 207.34,115.49 207.44,114.23  "></polygon>
	<path class="st81" d="M209.45,114.23l0.47,0l-0.12,1.86c0.21-0.25,0.34-0.31,0.57-0.43c0.24-0.12,0.5-0.16,0.77-0.16   c0.27,0,0.55,0.13,0.75,0.27c0.2,0.14,0.34,0.33,0.42,0.56c0.08,0.23,0.1,0.6,0.06,1.1l-0.14,1.76l-0.47,0l0.13-1.63   c0.03-0.42,0.04-0.7,0.02-0.84c-0.04-0.24-0.13-0.42-0.27-0.55c-0.14-0.12-0.34-0.18-0.59-0.19c-0.28,0-0.55,0.09-0.78,0.28   c-0.24,0.19-0.41,0.42-0.5,0.7c-0.06,0.18-0.11,0.51-0.15,0.99l-0.1,1.24l-0.47,0L209.45,114.23L209.45,114.23z"></path>
	<path class="st81" d="M215.03,115.94c-0.26,0-0.51,0.06-0.74,0.19c-0.23,0.13-0.42,0.31-0.57,0.54c-0.15,0.23-0.23,0.48-0.25,0.74   c-0.02,0.26,0.03,0.5,0.14,0.74c0.11,0.24,0.27,0.42,0.49,0.55c0.21,0.13,0.44,0.2,0.7,0.2c0.26,0,0.5-0.06,0.74-0.19   c0.24-0.13,0.43-0.3,0.57-0.52c0.14-0.22,0.22-0.47,0.25-0.75c0.03-0.42-0.08-0.78-0.33-1.06   C215.77,116.08,215.44,115.94,215.03,115.94L215.03,115.94z M216.93,115.59l-0.29,3.65l-0.46,0l0.05-0.63   c-0.22,0.24-0.45,0.42-0.7,0.54c-0.25,0.12-0.53,0.18-0.82,0.18c-0.52,0-0.94-0.19-1.28-0.57c-0.33-0.38-0.48-0.83-0.44-1.37   c0.04-0.53,0.26-0.97,0.66-1.35c0.4-0.37,0.86-0.56,1.37-0.55c0.3,0,0.56,0.07,0.8,0.2c0.23,0.13,0.43,0.32,0.59,0.58l0.05-0.67   L216.93,115.59L216.93,115.59z"></path>
	<path class="st81" d="M217.73,115.56l0.47,0l-0.05,0.65c0.21-0.25,0.43-0.44,0.67-0.56c0.24-0.12,0.49-0.18,0.76-0.18   c0.27,0,0.51,0.07,0.71,0.21c0.2,0.14,0.34,0.33,0.42,0.56c0.08,0.24,0.1,0.6,0.06,1.1l-0.15,1.88l-0.47,0l0.14-1.74   c0.03-0.42,0.04-0.7,0.02-0.84c-0.03-0.24-0.12-0.42-0.27-0.55c-0.14-0.12-0.34-0.19-0.59-0.19c-0.28,0-0.55,0.09-0.78,0.28   c-0.24,0.19-0.41,0.42-0.5,0.7c-0.06,0.18-0.11,0.51-0.15,0.99l-0.11,1.34l-0.47,0L217.73,115.56L217.73,115.56z"></path>
	<path class="st81" d="M231.26,115.55l0.48,0l-0.35,3.73c-0.03,0.27-0.1,0.47-0.22,0.59c-0.12,0.12-0.28,0.18-0.47,0.18   c-0.16,0-0.59-0.07-0.79-0.14l0.11-0.39c0.13,0.05,0.4,0.11,0.5,0.12c0.13,0,0.24-0.02,0.31-0.11c0.04-0.06,0.07-0.18,0.09-0.37   L231.26,115.55L231.26,115.55z"></path>
	<path class="st81" d="M231.61,114.49c0.07,0,0.13,0.02,0.18,0.07c0.05,0.05,0.07,0.11,0.06,0.18c-0.01,0.07-0.04,0.13-0.09,0.17   c-0.05,0.05-0.12,0.07-0.19,0.07c-0.07,0-0.13-0.03-0.18-0.07c-0.05-0.05-0.07-0.11-0.06-0.17c0.01-0.07,0.04-0.13,0.09-0.18   C231.48,114.51,231.54,114.49,231.61,114.49L231.61,114.49z"></path>
	<path class="st81" d="M237.02,115.54h0.46l-0.14,1.8c-0.03,0.4-0.04,0.68,0,0.83c0.05,0.22,0.16,0.39,0.34,0.52   c0.18,0.13,0.4,0.19,0.66,0.19c0.26,0,0.49-0.06,0.68-0.18c0.19-0.12,0.33-0.28,0.42-0.48c0.06-0.14,0.11-0.43,0.14-0.87l0.15-1.81   h0.47l-0.15,1.9c-0.04,0.49-0.13,0.85-0.27,1.1c-0.14,0.25-0.33,0.44-0.58,0.58c-0.25,0.14-0.55,0.21-0.9,0.2   c-0.36,0-0.64-0.07-0.87-0.21c-0.23-0.14-0.39-0.34-0.48-0.59c-0.1-0.25-0.12-0.63-0.08-1.13L237.02,115.54L237.02,115.54z"></path>
	<polygon class="st81" points="251.09,115.14 251.59,115.15 252.61,117.82 254.06,115.16 254.56,115.16 251.97,119.88    251.48,119.87 252.31,118.35 251.09,115.14  "></polygon>
	<path class="st81" d="M225.8,115.94c-0.26,0-0.51,0.06-0.74,0.19c-0.23,0.13-0.42,0.31-0.57,0.54c-0.15,0.23-0.23,0.48-0.25,0.74   c-0.02,0.26,0.03,0.5,0.14,0.74c0.11,0.24,0.28,0.42,0.49,0.55c0.21,0.13,0.44,0.2,0.7,0.2c0.26,0,0.5-0.06,0.74-0.19   c0.24-0.13,0.43-0.3,0.57-0.52c0.14-0.22,0.22-0.47,0.25-0.75c0.03-0.42-0.08-0.78-0.33-1.06   C226.54,116.08,226.21,115.94,225.8,115.94L225.8,115.94z M227.71,115.59l-0.29,3.65l-0.46,0l0.05-0.63   c-0.22,0.24-0.45,0.42-0.7,0.54c-0.25,0.12-0.53,0.18-0.82,0.18c-0.52,0-0.94-0.19-1.28-0.57c-0.33-0.38-0.48-0.83-0.44-1.37   c0.04-0.53,0.26-0.97,0.66-1.35s0.86-0.56,1.37-0.55c0.3,0,0.56,0.07,0.8,0.2c0.23,0.13,0.43,0.32,0.59,0.58l0.05-0.67   L227.71,115.59L227.71,115.59z"></path>
	<path class="st81" d="M234.45,116c-0.39,0-0.74,0.14-1.04,0.43c-0.3,0.29-0.47,0.64-0.5,1.04c-0.02,0.26,0.02,0.51,0.13,0.74   c0.11,0.23,0.27,0.41,0.48,0.53c0.21,0.13,0.44,0.19,0.7,0.19c0.26,0,0.5-0.06,0.73-0.18c0.23-0.12,0.41-0.3,0.56-0.53   c0.15-0.23,0.23-0.47,0.25-0.74c0.03-0.41-0.08-0.76-0.34-1.05C235.16,116.15,234.83,116,234.45,116L234.45,116z M234.48,115.54   c0.56,0,1.01,0.21,1.35,0.62c0.31,0.37,0.44,0.81,0.4,1.32c-0.04,0.51-0.25,0.96-0.64,1.33c-0.38,0.38-0.86,0.57-1.41,0.56   c-0.56,0-1-0.2-1.32-0.58c-0.32-0.38-0.47-0.83-0.42-1.34c0.04-0.51,0.24-0.94,0.61-1.31   C233.44,115.74,233.92,115.54,234.48,115.54L234.48,115.54z"></path>
	<path class="st81" d="M250.26,117.05c-0.04-0.25-0.12-0.45-0.22-0.6c-0.11-0.15-0.26-0.27-0.45-0.37   c-0.19-0.09-0.39-0.14-0.61-0.14c-0.36,0-0.67,0.11-0.95,0.34c-0.2,0.17-0.36,0.42-0.49,0.75L250.26,117.05L250.26,117.05z    M250.19,117.7l0.4,0c0.04,0.33-0.34,0.89-0.53,1.04c-0.18,0.15-0.38,0.26-0.6,0.34c-0.22,0.08-0.46,0.12-0.73,0.11   c-0.59,0-1.04-0.19-1.35-0.57c-0.3-0.38-0.44-0.81-0.4-1.28c0.04-0.45,0.21-0.84,0.52-1.19c0.4-0.44,0.9-0.66,1.5-0.66   c0.62,0,1.1,0.23,1.43,0.69c0.24,0.32,0.34,0.73,0.3,1.21l-3.28-0.02c-0.02,0.41,0.08,0.75,0.32,1.01c0.24,0.26,0.55,0.4,0.94,0.4   c0.19,0,0.37-0.03,0.55-0.09c0.18-0.06,0.34-0.14,0.47-0.25C249.87,118.34,250.2,118.01,250.19,117.7L250.19,117.7z"></path>
	<path class="st81" d="M243.48,115.48h0.46l-0.05,0.73c0.21-0.25,0.38-0.39,0.61-0.51c0.24-0.12,0.51-0.22,0.78-0.22   c0.27,0,0.55,0.06,0.77,0.24c0.19,0.15,0.31,0.32,0.4,0.56c0.08,0.23,0.09,0.7,0.05,1.2l-0.14,1.76l-0.47,0l0.13-1.63   c0.03-0.42,0.03-0.7,0.02-0.84c-0.02-0.25-0.1-0.52-0.24-0.64c-0.14-0.12-0.37-0.2-0.62-0.2c-0.28,0-0.66,0.14-0.86,0.34   c-0.22,0.21-0.36,0.41-0.45,0.74c-0.05,0.18-0.09,0.52-0.13,1l-0.1,1.24l-0.47,0L243.48,115.48L243.48,115.48z"></path>
	<path class="st81" d="M240.9,115.49h0.49l-0.02,0.54c0.19-0.22,0.27-0.28,0.45-0.38c0.17-0.1,0.34-0.11,0.51-0.11   c0.13,0,0.26,0.04,0.41,0.13l-0.17,0.42c-0.09-0.04-0.28-0.09-0.35-0.1c-0.16,0-0.31,0.06-0.47,0.19c-0.16,0.13-0.28,0.33-0.38,0.6   c-0.07,0.21-0.14,0.63-0.19,1.26l-0.1,1.24l-0.48,0L240.9,115.49L240.9,115.49z"></path>
</g>
</svg>
