<?xml version="1.0" encoding="UTF-8"?>
<!-- Generator: Adobe Illustrator 23.0.1, SVG Export Plug-In . SVG Version: 6.00 Build 0)  -->
<svg xmlns="http://www.w3.org/2000/svg" xmlns:xlink="http://www.w3.org/1999/xlink" id="Logos" x="0px" y="0px" viewBox="0 0 390 200" style="enable-background:new 0 0 390 200;" xml:space="preserve">
<style type="text/css">
	.st0{display:none;}
	.st1{display:inline;fill:#00B35E;}
	.st2{display:inline;fill:#E43312;}
	.st3{display:inline;}
	.st4{fill:#5A5A5A;}
	.st5{fill:url(#SVGID_1_);}
	.st6{fill:#B9BBBD;}
	.st7{fill:url(#SVGID_2_);}
	.st8{fill-rule:evenodd;clip-rule:evenodd;}
	.st9{fill:#D31317;}
	.st10{fill:#1D1D1B;}
	.st11{fill:#454651;}
	.st12{display:inline;fill:#454651;}
	.st13{fill:#3E434F;}
	.st14{display:inline;fill:#1D1D1B;}
	.st15{display:inline;fill:#44444E;}
	.st16{display:inline;fill:#44444E;stroke:#44444E;stroke-linecap:round;stroke-linejoin:bevel;stroke-miterlimit:10;}
	.st17{fill:#44444E;stroke:#44444E;stroke-linecap:round;stroke-linejoin:bevel;stroke-miterlimit:10;}
	.st18{fill:#44444E;stroke:#44444E;stroke-width:7;stroke-linecap:square;stroke-linejoin:round;stroke-miterlimit:10;}
	.st19{display:inline;fill:none;stroke:#44444E;stroke-width:7;stroke-linecap:round;stroke-linejoin:bevel;stroke-miterlimit:10;}
	.st20{fill:none;stroke:#44444E;stroke-width:7;stroke-linecap:square;stroke-linejoin:round;stroke-miterlimit:10;}
	.st21{fill:none;stroke:#44444E;stroke-width:7;stroke-linecap:round;stroke-linejoin:bevel;stroke-miterlimit:10;}
	.st22{display:inline;fill:none;stroke:#44444E;stroke-width:7;stroke-linecap:square;stroke-linejoin:bevel;stroke-miterlimit:10;}
	.st23{display:inline;fill:none;stroke:#44444E;stroke-width:7;stroke-linecap:square;stroke-linejoin:round;stroke-miterlimit:10;}
	.st24{display:inline;fill:#367DBE;}
	.st25{display:inline;fill:#367DBE;stroke:#1D1D1B;stroke-width:0.25;stroke-miterlimit:10;}
	.st26{display:inline;fill:#2E4497;}
	.st27{display:inline;fill:#F48328;}
	.st28{fill:#FFFFFF;}
	.st29{fill:#444968;}
	.st30{display:inline;fill:#E3201C;}
	.st31{fill:#0677B6;}
	.st32{fill:#686867;}
	.st33{display:inline;fill:#3F4042;}
	.st34{display:inline;fill:#F5B11F;}
	.st35{fill:#E95504;}
	.st36{display:inline;fill:#005E3C;}
	.st37{clip-path:url(#SVGID_4_);fill:#32617E;}
	.st38{clip-path:url(#SVGID_4_);fill:#99BED0;}
	.st39{clip-path:url(#SVGID_6_);fill:url(#SVGID_7_);}
	.st40{fill:#3E424E;}
	.st41{display:inline;fill:#3E424E;}
	.st42{fill:#E9C118;}
	.st43{fill:#62BB46;}
	.st44{fill:#00B1E4;}
	.st45{clip-path:url(#SVGID_9_);fill:#EE255C;}
	.st46{clip-path:url(#SVGID_9_);fill:#162F55;}
	.st47{fill:#162F55;}
	.st48{clip-path:url(#SVGID_11_);fill:#162F55;}
	.st49{clip-path:url(#SVGID_13_);fill:#0071B9;}
	.st50{clip-path:url(#SVGID_13_);fill:#393A36;}
	.st51{fill:#393A36;}
	.st52{clip-path:url(#SVGID_15_);fill:#005F82;}
	.st53{clip-path:url(#SVGID_15_);fill:#231F20;}
	.st54{clip-path:url(#SVGID_17_);fill:#323E48;}
	.st55{clip-path:url(#SVGID_17_);fill:#71A850;}
	.st56{fill:#EE302A;}
	.st57{clip-path:url(#SVGID_19_);fill:#EE302A;}
	.st58{clip-path:url(#SVGID_21_);fill:#FBFCFD;}
	.st59{fill:#00B5CC;}
	.st60{fill:#C9CCD1;}
	.st61{fill:#00B4CB;}
	.st62{fill:#00B4CC;}
	.st63{clip-path:url(#SVGID_23_);fill:#00B4CB;}
	.st64{clip-path:url(#SVGID_23_);fill:#12678E;}
	.st65{clip-path:url(#SVGID_23_);fill:#0F678E;}
	.st66{clip-path:url(#SVGID_25_);fill:#47494A;}
	.st67{fill:#47494A;}
	.st68{clip-path:url(#SVGID_27_);fill:#47494A;}
	.st69{fill:#FEFEFD;}
	.st70{fill:#7CBF53;}
	.st71{fill:#195A99;}
	.st72{fill:#E86C34;}
	.st73{clip-path:url(#SVGID_29_);fill:#2F3432;}
	.st74{fill:#2F3432;}
	.st75{fill:#8FC84D;}
	.st76{clip-path:url(#SVGID_31_);fill:#F15E3A;}
	.st77{clip-path:url(#SVGID_33_);fill:#3E434F;}
	.st78{clip-path:url(#SVGID_35_);fill:#3E434F;}
	.st79{clip-path:url(#SVGID_37_);fill:#F68B2E;}
	.st80{clip-path:url(#SVGID_37_);fill:#5C5F60;}
	.st81{fill:#5C5F60;}
	.st82{clip-path:url(#SVGID_39_);fill:#5C5F60;}
	.st83{clip-path:url(#SVGID_41_);fill:#EF472E;}
	.st84{fill:#EF472E;}
	.st85{clip-path:url(#SVGID_43_);fill:#EF472E;}
	.st86{clip-path:url(#SVGID_45_);}
	.st87{clip-path:url(#SVGID_47_);fill:#FFFFFF;}
	.st88{clip-path:url(#SVGID_49_);fill:#F16728;}
	.st89{clip-path:url(#SVGID_51_);}
	.st90{clip-path:url(#SVGID_55_);}
	.st91{clip-path:url(#SVGID_57_);}
	.st92{clip-path:url(#SVGID_59_);}
	.st93{clip-path:url(#SVGID_61_);fill:#797882;}
	.st94{clip-path:url(#SVGID_65_);fill:#696973;}
	.st95{clip-path:url(#SVGID_65_);fill:#8A8991;}
	.st96{clip-path:url(#SVGID_65_);fill:#FEFEFB;}
	.st97{clip-path:url(#SVGID_65_);fill:#3E424E;}
	.st98{clip-path:url(#SVGID_65_);fill:#5A5B66;}
	.st99{clip-path:url(#SVGID_65_);fill:#9D9BA3;}
	.st100{clip-path:url(#SVGID_65_);fill:#81818A;}
	.st101{clip-path:url(#SVGID_65_);fill:#C6C5C9;}
	.st102{clip-path:url(#SVGID_65_);fill:none;stroke:#9D9BA3;stroke-width:0.3539;stroke-miterlimit:10;}
	.st103{clip-path:url(#SVGID_69_);fill:#3E424E;}
	.st104{clip-path:url(#SVGID_69_);fill:#C6C5C9;}
	.st105{clip-path:url(#SVGID_69_);fill:#5A5B66;}
	.st106{clip-path:url(#SVGID_69_);fill:#9D9BA3;}
	.st107{clip-path:url(#SVGID_71_);fill:#00579B;}
	.st108{fill:#00579B;}
	.st109{clip-path:url(#SVGID_73_);fill:#00579B;}
	.st110{clip-path:url(#SVGID_75_);fill:#9553A1;}
	.st111{fill:#9553A1;}
	.st112{clip-path:url(#SVGID_77_);fill:#1A3761;}
	.st113{fill:#28B56C;}
	.st114{clip-path:url(#SVGID_79_);fill:#F06E30;}
	.st115{clip-path:url(#SVGID_79_);fill:#FFFFFF;}
	.st116{fill:#F06E30;}
	.st117{clip-path:url(#SVGID_81_);fill:#19AAE2;}
	.st118{clip-path:url(#SVGID_81_);fill:#B2D454;}
	.st119{fill:#231F20;}
	.st120{clip-path:url(#SVGID_83_);fill:#231F20;}
	.st121{clip-path:url(#SVGID_83_);fill:#6BC4E8;}
	.st122{fill:#0093D0;}
	.st123{fill:#14AADB;}
	.st124{fill:#9ECD51;}
	.st125{fill:#00AAE2;}
	.st126{fill:#121617;}
	.st127{clip-path:url(#SVGID_85_);fill:#3C62AE;}
	.st128{fill:#3C62AE;}
	.st129{clip-path:url(#SVGID_87_);}
	.st130{fill:#211261;}
	.st131{fill:#CF3339;}
	.st132{clip-path:url(#SVGID_91_);fill:#5D686E;}
	.st133{fill:#EE2E34;}
	.st134{clip-path:url(#SVGID_94_);}
	.st135{clip-path:url(#SVGID_95_);}
	.st136{clip-path:url(#SVGID_100_);}
	.st137{clip-path:url(#SVGID_101_);}
	.st138{clip-path:url(#SVGID_106_);}
	.st139{clip-path:url(#SVGID_107_);}
	.st140{clip-path:url(#SVGID_112_);}
	.st141{clip-path:url(#SVGID_113_);}
	.st142{clip-path:url(#SVGID_118_);}
	.st143{clip-path:url(#SVGID_119_);}
	.st144{clip-path:url(#SVGID_124_);}
	.st145{clip-path:url(#SVGID_125_);}
	.st146{clip-path:url(#SVGID_130_);}
	.st147{clip-path:url(#SVGID_131_);}
	.st148{clip-path:url(#SVGID_136_);}
	.st149{clip-path:url(#SVGID_137_);}
	.st150{clip-path:url(#SVGID_142_);}
	.st151{clip-path:url(#SVGID_143_);}
	.st152{clip-path:url(#SVGID_148_);}
	.st153{clip-path:url(#SVGID_149_);}
	.st154{clip-path:url(#SVGID_154_);}
	.st155{clip-path:url(#SVGID_155_);}
	.st156{clip-path:url(#SVGID_161_);}
	.st157{clip-path:url(#SVGID_162_);}
	.st158{clip-path:url(#SVGID_163_);}
	.st159{clip-path:url(#SVGID_168_);}
	.st160{clip-path:url(#SVGID_169_);}
	.st161{clip-path:url(#SVGID_174_);}
	.st162{clip-path:url(#SVGID_175_);}
	.st163{clip-path:url(#SVGID_180_);}
	.st164{clip-path:url(#SVGID_181_);}
	.st165{clip-path:url(#SVGID_186_);}
	.st166{clip-path:url(#SVGID_187_);}
	.st167{clip-path:url(#SVGID_192_);}
	.st168{clip-path:url(#SVGID_193_);}
	.st169{clip-path:url(#SVGID_197_);}
	.st170{fill:#72BF44;}
	.st171{clip-path:url(#SVGID_199_);}
	.st172{clip-path:url(#SVGID_203_);}
	.st173{clip-path:url(#SVGID_203_);fill:none;stroke:#18161B;stroke-width:4.557864e-03;}
	.st174{fill:#BCD641;}
	.st175{fill:none;stroke:#18161B;stroke-width:4.557864e-03;}
	.st176{clip-path:url(#SVGID_205_);fill:#1F6388;}
	.st177{fill:#1F6388;}
	.st178{fill:#3AB14C;}
	.st179{clip-path:url(#SVGID_207_);fill:#3AB14C;}
	.st180{clip-path:url(#SVGID_209_);fill:#36393D;}
	.st181{clip-path:url(#SVGID_209_);fill:#EE3C87;}
	.st182{clip-path:url(#SVGID_211_);}
	.st183{clip-path:url(#SVGID_215_);fill:#231F20;}
	.st184{clip-path:url(#SVGID_217_);}
	.st185{fill:#92D5E5;}
	.st186{fill:#2F4499;}
	.st187{fill:#F58529;}
	.st188{clip-path:url(#SVGID_221_);fill:#FFFFFF;}
	.st189{clip-path:url(#SVGID_221_);fill:#F58529;}
	.st190{clip-path:url(#SVGID_221_);fill:#454967;}
	.st191{fill:#454967;}
	.st192{clip-path:url(#SVGID_223_);fill:#3265A8;}
	.st193{fill:#3265A8;}
	.st194{clip-path:url(#SVGID_225_);fill:none;stroke:#121617;stroke-width:0.388;stroke-miterlimit:10;}
	.st195{clip-path:url(#SVGID_227_);fill:none;stroke:#121617;stroke-width:0.388;stroke-miterlimit:10;}
	.st196{clip-path:url(#SVGID_229_);fill:none;stroke:#121617;stroke-width:0.388;stroke-miterlimit:10;}
	.st197{clip-path:url(#SVGID_231_);fill:none;stroke:#121617;stroke-width:0.388;stroke-miterlimit:10;}
	.st198{clip-path:url(#SVGID_233_);fill:none;stroke:#121617;stroke-width:0.388;stroke-miterlimit:10;}
	.st199{fill:#EC1F26;}
	.st200{clip-path:url(#SVGID_235_);fill:none;stroke:#EC1F26;stroke-width:0.388;stroke-miterlimit:10;}
	.st201{fill:none;stroke:#EC1F26;stroke-width:0.388;stroke-miterlimit:10;}
	.st202{clip-path:url(#SVGID_237_);fill:none;stroke:#EC1F26;stroke-width:0.388;stroke-miterlimit:10;}
	.st203{clip-path:url(#SVGID_239_);fill:none;stroke:#EC1F26;stroke-width:0.388;stroke-miterlimit:10;}
	.st204{clip-path:url(#SVGID_241_);fill:none;stroke:#EC1F26;stroke-width:0.388;stroke-miterlimit:10;}
	.st205{clip-path:url(#SVGID_243_);}
	.st206{clip-path:url(#SVGID_247_);}
	.st207{clip-path:url(#SVGID_252_);}
	.st208{clip-path:url(#SVGID_253_);}
	.st209{clip-path:url(#SVGID_257_);}
	.st210{clip-path:url(#SVGID_261_);}
	.st211{fill:#CE2D34;}
	.st212{clip-path:url(#SVGID_265_);fill:#CE2D34;}
	.st213{fill-rule:evenodd;clip-rule:evenodd;fill:#40C0F0;}
	.st214{clip-path:url(#SVGID_267_);fill-rule:evenodd;clip-rule:evenodd;fill:#40C0F0;}
	.st215{fill-rule:evenodd;clip-rule:evenodd;fill:#989CA0;}
	.st216{fill:#989CA0;}
	.st217{clip-path:url(#SVGID_269_);fill:#A4CE43;}
	.st218{fill:#023C2C;}
	.st219{clip-path:url(#SVGID_271_);fill:#231F20;}
	.st220{clip-path:url(#SVGID_273_);fill:#EC1F26;}
	.st221{clip-path:url(#SVGID_273_);fill:#FCB432;}
	.st222{clip-path:url(#SVGID_275_);fill:#231F20;}
	.st223{clip-path:url(#SVGID_277_);fill:#231F20;}
	.st224{fill:#FAEE4F;}
	.st225{fill:none;stroke:#EE322E;stroke-width:0.1178;stroke-miterlimit:10;}
	.st226{clip-path:url(#SVGID_279_);fill:#408BCA;}
	.st227{fill:none;stroke:#408BCA;stroke-width:0.0589;stroke-miterlimit:10;}
	.st228{fill:#408BCA;}
	.st229{fill:#EE322E;}
	.st230{clip-path:url(#SVGID_281_);}
	.st231{clip-path:url(#SVGID_284_);}
	.st232{clip-path:url(#SVGID_285_);fill:#99D3B8;}
	.st233{clip-path:url(#SVGID_285_);fill:#FFFFFF;}
	.st234{clip-path:url(#SVGID_289_);}
	.st235{clip-path:url(#SVGID_290_);}
	.st236{clip-path:url(#SVGID_291_);}
	.st237{clip-path:url(#SVGID_297_);}
	.st238{clip-path:url(#SVGID_298_);}
	.st239{clip-path:url(#SVGID_299_);}
	.st240{clip-path:url(#SVGID_305_);}
	.st241{clip-path:url(#SVGID_306_);}
	.st242{clip-path:url(#SVGID_307_);}
	.st243{clip-path:url(#SVGID_313_);}
	.st244{clip-path:url(#SVGID_314_);}
	.st245{clip-path:url(#SVGID_315_);}
	.st246{clip-path:url(#SVGID_321_);}
	.st247{clip-path:url(#SVGID_322_);}
	.st248{clip-path:url(#SVGID_323_);}
	.st249{clip-path:url(#SVGID_329_);}
	.st250{clip-path:url(#SVGID_330_);}
	.st251{clip-path:url(#SVGID_331_);}
	.st252{clip-path:url(#SVGID_337_);}
	.st253{clip-path:url(#SVGID_338_);}
	.st254{clip-path:url(#SVGID_339_);}
	.st255{clip-path:url(#SVGID_345_);}
	.st256{clip-path:url(#SVGID_346_);}
	.st257{clip-path:url(#SVGID_347_);}
	.st258{clip-path:url(#SVGID_353_);}
	.st259{clip-path:url(#SVGID_354_);}
	.st260{clip-path:url(#SVGID_355_);}
	.st261{clip-path:url(#SVGID_360_);}
	.st262{clip-path:url(#SVGID_361_);fill:#86C440;}
	.st263{clip-path:url(#SVGID_361_);fill:none;stroke:#FFFFFF;stroke-width:0.1703;stroke-miterlimit:10;}
	.st264{clip-path:url(#SVGID_361_);fill:#FFFFFF;}
	.st265{clip-path:url(#SVGID_361_);fill:#EFE922;}
	.st266{clip-path:url(#SVGID_365_);}
	.st267{clip-path:url(#SVGID_366_);}
	.st268{clip-path:url(#SVGID_370_);}
	.st269{fill:#E7470B;}
	.st270{fill:#3C3A39;}
	.st271{fill:#0080CA;}
	.st272{fill:url(#SVGID_372_);}
	.st273{fill:#575757;}
	.st274{fill:#0E73BB;}
	.st275{clip-path:url(#SVGID_374_);}
	.st276{clip-path:url(#SVGID_374_);fill:#1E4074;}
	.st277{clip-path:url(#SVGID_377_);}
	.st278{clip-path:url(#SVGID_378_);}
	.st279{fill:#0054A5;}
	.st280{fill:#228ACB;}
	.st281{clip-path:url(#SVGID_382_);fill:#1A3761;}
</style>
<g>
	<g>
		<defs>
			<rect id="SVGID_381_" x="116.41" y="84.01" width="152.59" height="32.85"></rect>
		</defs>
		<clipPath id="SVGID_1_">
			<use xlink:href="#SVGID_381_" style="overflow:visible;"></use>
		</clipPath>
		<path style="clip-path:url(#SVGID_1_);fill:#1A3761;" d="M137.23,97.8h-5.16l3.82,8.39c-1.57,1.08-3.43,1.65-5.34,1.63    c-5.1,0-9.03-3.93-9.03-9.07c0-5.03,3.78-9.07,8.81-9.07c2.61,0,4.84,1.13,6.43,2.72l3.29-3.48c-2.38-2.31-5.75-3.78-9.68-3.78    c-8.24,0-13.95,6.01-13.95,13.61c0,7.6,5.78,13.61,14.02,13.61c2.82,0,5.15-1.1,7.22-2.28l0.84,1.89h5.12L137.23,97.8L137.23,97.8    z M258.29,116.86L269,93.65h-5.18l-4.95,11l-5.37-11h-5.41l8.2,16.48l-3.15,6.73H258.29L258.29,116.86z M245.12,107.82    c-0.66,0.12-1.33,0.18-2,0.19c-1.21,0-2-0.34-2.49-0.91c-0.42-0.49-0.61-1.17-0.61-2.31V97.8h6.05v-4.16h-6.05v-5.1h-4.91v15.68    c0,2.61,0.42,4.23,1.36,5.48c1.25,1.66,3.4,2.65,6.35,2.65c0.94,0,2.42-0.15,3.06-0.38L245.12,107.82L245.12,107.82z     M231.73,93.65h-4.91v18.33h4.91V93.65L231.73,93.65z M229.27,84.01c-1.78,0-3.21,1.36-3.21,3.13c0,1.78,1.44,3.14,3.21,3.14    c1.78,0,3.21-1.36,3.21-3.14C232.48,85.36,231.05,84.01,229.27,84.01 M218.52,111.98h4.91V85.14h-4.91V111.98L218.52,111.98z     M210.22,100.07v5.48c-1.01,1.43-2.67,2.28-4.42,2.27c-2.76,0-4.84-2.12-4.84-4.99c0-2.65,1.86-5.03,4.73-5.03    C207.47,97.8,209.15,98.64,210.22,100.07L210.22,100.07L210.22,100.07z M215.13,111.98V93.65h-4.73v1.47    c-1.52-1.22-3.42-1.88-5.37-1.85c-4.99,0-9,4.16-9,9.56c-0.01,2.35,0.82,4.63,2.34,6.43c1.63,1.88,4.2,3.1,6.92,3.1    c1.87,0.03,3.69-0.63,5.1-1.85v1.47H215.13L215.13,111.98L215.13,111.98z M179.84,105.55v-5.48c1.07-1.43,2.75-2.27,4.54-2.27    c2.88,0,4.73,2.38,4.73,5.03c0,2.87-2.08,4.99-4.84,4.99C182.51,107.83,180.86,106.99,179.84,105.55L179.84,105.55L179.84,105.55z     M174.93,111.98h4.73v-1.47c1.42,1.22,3.23,1.88,5.1,1.85c2.72,0,5.3-1.21,6.92-3.1c1.53-1.79,2.36-4.07,2.34-6.43    c0-5.41-4.01-9.56-9-9.56c-2,0-3.74,0.57-5.18,1.7v-9.83h-4.91L174.93,111.98L174.93,111.98L174.93,111.98z M162.75,107.82    c-2.87,0-4.84-2.23-4.84-4.99c0-2.76,1.97-5.03,4.84-5.03c2.87,0,4.84,2.27,4.84,5.03C167.59,105.59,165.62,107.82,162.75,107.82     M162.75,93.27c-5.56,0-9.75,4.27-9.75,9.56c0,5.29,4.2,9.53,9.75,9.53c5.56,0,9.75-4.24,9.75-9.53    C172.5,97.54,168.3,93.27,162.75,93.27 M145.65,85.14h4.91v26.84h-4.91V85.14L145.65,85.14z"></path>
	</g>
</g>
</svg>
