<?xml version="1.0" encoding="UTF-8"?>
<!-- Generator: Adobe Illustrator 23.0.1, SVG Export Plug-In . SVG Version: 6.00 Build 0)  -->
<svg xmlns="http://www.w3.org/2000/svg" xmlns:xlink="http://www.w3.org/1999/xlink" id="Logos" x="0px" y="0px" viewBox="0 0 390 200" style="enable-background:new 0 0 390 200;" xml:space="preserve">
<style type="text/css">
	.st0{display:none;}
	.st1{display:inline;fill:#00B35E;}
	.st2{display:inline;fill:#E43312;}
	.st3{display:inline;}
	.st4{fill:#5A5A5A;}
	.st5{fill:url(#SVGID_1_);}
	.st6{fill:#B9BBBD;}
	.st7{fill:url(#SVGID_2_);}
	.st8{fill-rule:evenodd;clip-rule:evenodd;}
	.st9{fill:#D31317;}
	.st10{fill:#1D1D1B;}
	.st11{fill:#454651;}
	.st12{display:inline;fill:#454651;}
	.st13{fill:#3E434F;}
	.st14{display:inline;fill:#1D1D1B;}
	.st15{display:inline;fill:#44444E;}
	.st16{display:inline;fill:#44444E;stroke:#44444E;stroke-linecap:round;stroke-linejoin:bevel;stroke-miterlimit:10;}
	.st17{fill:#44444E;stroke:#44444E;stroke-linecap:round;stroke-linejoin:bevel;stroke-miterlimit:10;}
	.st18{fill:#44444E;stroke:#44444E;stroke-width:7;stroke-linecap:square;stroke-linejoin:round;stroke-miterlimit:10;}
	.st19{display:inline;fill:none;stroke:#44444E;stroke-width:7;stroke-linecap:round;stroke-linejoin:bevel;stroke-miterlimit:10;}
	.st20{fill:none;stroke:#44444E;stroke-width:7;stroke-linecap:square;stroke-linejoin:round;stroke-miterlimit:10;}
	.st21{fill:none;stroke:#44444E;stroke-width:7;stroke-linecap:round;stroke-linejoin:bevel;stroke-miterlimit:10;}
	.st22{display:inline;fill:none;stroke:#44444E;stroke-width:7;stroke-linecap:square;stroke-linejoin:bevel;stroke-miterlimit:10;}
	.st23{display:inline;fill:none;stroke:#44444E;stroke-width:7;stroke-linecap:square;stroke-linejoin:round;stroke-miterlimit:10;}
	.st24{display:inline;fill:#367DBE;}
	.st25{display:inline;fill:#367DBE;stroke:#1D1D1B;stroke-width:0.25;stroke-miterlimit:10;}
	.st26{display:inline;fill:#2E4497;}
	.st27{display:inline;fill:#F48328;}
	.st28{fill:#FFFFFF;}
	.st29{fill:#444968;}
	.st30{display:inline;fill:#E3201C;}
	.st31{fill:#0677B6;}
	.st32{fill:#686867;}
	.st33{display:inline;fill:#3F4042;}
	.st34{display:inline;fill:#F5B11F;}
	.st35{fill:#E95504;}
	.st36{display:inline;fill:#005E3C;}
	.st37{clip-path:url(#SVGID_4_);fill:#32617E;}
	.st38{clip-path:url(#SVGID_4_);fill:#99BED0;}
	.st39{clip-path:url(#SVGID_6_);fill:url(#SVGID_7_);}
	.st40{fill:#3E424E;}
	.st41{display:inline;fill:#3E424E;}
	.st42{fill:#E7470B;}
	.st43{fill:#3C3A39;}
	.st44{fill:#0080CA;}
	.st45{fill:url(#SVGID_14_);}
	.st46{fill:#575757;}
	.st47{fill:#00B0ED;}
	.st48{fill:url(#SVGID_15_);}
	.st49{fill:#676C71;}
	.st50{clip-path:url(#SVGID_17_);fill:#EF472E;}
	.st51{fill:#EF472E;}
	.st52{clip-path:url(#SVGID_19_);fill:#EF472E;}
	.st53{clip-path:url(#SVGID_21_);fill:#231F20;}
</style>
<g>
	<g>
		<defs>
			<rect id="SVGID_20_" x="128" y="91" width="134.21" height="30.27"></rect>
		</defs>
		<clipPath id="SVGID_1_">
			<use xlink:href="#SVGID_20_" style="overflow:visible;"></use>
		</clipPath>
		<path style="clip-path:url(#SVGID_1_);fill:#231F20;" d="M128,106.96c0-4.08-0.01-8.16,0-12.24c0.01-2.7,0.95-3.68,3.59-3.68    c7.82-0.01,15.64-0.01,23.46,0c2.48,0,3.49,0.98,3.49,3.42c0.01,8.44-0.02,16.87,0.03,25.31c0.01,1.18-0.34,1.5-1.5,1.5    c-4.57,0-4.57,0.04-4.57-4.46c0-6.09-0.03-12.18,0.03-18.27c0.01-1.25-0.33-1.62-1.59-1.6c-5.14,0.07-10.28,0.06-15.42,0    c-1.18-0.01-1.51,0.37-1.5,1.53c0.05,7.04-0.01,14.08,0.05,21.12c0.01,1.29-0.29,1.71-1.65,1.69c-4.43-0.06-4.43,0-4.43-4.42    C128,113.55,128,110.25,128,106.96L128,106.96z"></path>
		<path style="clip-path:url(#SVGID_1_);fill:#231F20;" d="M166.2,105.3c0-4.19,0.04-8.38-0.02-12.58    c-0.02-1.24,0.22-1.74,1.62-1.72c4.43,0.06,4.43,0,4.43,4.47c0,6.09,0.03,12.19-0.03,18.28c-0.01,1.26,0.37,1.61,1.61,1.6    c5.09-0.06,10.17-0.07,15.26,0c1.35,0.02,1.68-0.43,1.67-1.72c-0.06-6.99,0.01-13.97-0.06-20.96c-0.01-1.34,0.38-1.67,1.69-1.66    c4.38,0.05,4.38,0,4.38,4.33c0,7.38,0.01,14.76,0,22.13c0,2.81-0.94,3.76-3.69,3.76c-7.77,0.01-15.54,0.01-23.31,0    c-2.59,0-3.53-0.94-3.53-3.53C166.2,113.57,166.2,109.44,166.2,105.3L166.2,105.3z"></path>
		<path style="clip-path:url(#SVGID_1_);fill:#231F20;" d="M204.32,106.93c0-4.02-0.01-8.05,0.01-12.07    c0.01-2.95,0.89-3.81,3.78-3.82c5.53,0,11.07,0.03,16.6-0.02c1.09-0.01,1.43,0.3,1.46,1.4c0.1,4.54,0.14,4.54-4.36,4.54    c-3.3,0-6.6,0.05-9.89-0.02c-1.27-0.03-1.61,0.41-1.6,1.64c0.05,6.99-0.02,13.97,0.06,20.96c0.01,1.42-0.41,1.77-1.79,1.75    c-4.26-0.07-4.26-0.01-4.26-4.28C204.32,113.63,204.32,110.28,204.32,106.93L204.32,106.93z"></path>
		<path style="clip-path:url(#SVGID_1_);fill:#231F20;" d="M246.97,96.96c-2.68,0-5.37,0.03-8.05-0.02    c-0.94-0.02-1.25,0.3-1.24,1.25c0.04,5.31,0.04,10.62,0,15.93c-0.01,1.02,0.43,1.2,1.3,1.19c5.31-0.02,10.62-0.03,15.93,0.01    c0.94,0.01,1.26-0.3,1.25-1.26c-0.04-5.26-0.05-10.51,0.01-15.77c0.01-1.19-0.48-1.39-1.49-1.37    C252.12,96.99,249.54,96.96,246.97,96.96L246.97,96.96z M246.85,121.24c-3.91,0-7.82,0.01-11.73,0c-2.47-0.01-3.47-0.99-3.47-3.43    c-0.01-7.76-0.01-15.52,0-23.28c0-2.46,1-3.47,3.43-3.47c7.87-0.01,15.75-0.01,23.62,0c2.46,0,3.49,1.01,3.5,3.43    c0.01,7.76,0.01,15.52,0,23.28c0,2.46-1.01,3.46-3.46,3.47C254.78,121.25,250.81,121.24,246.85,121.24L246.85,121.24z"></path>
	</g>
</g>
</svg>
