<?xml version="1.0" encoding="UTF-8"?>
<!-- Generator: Adobe Illustrator 23.0.1, SVG Export Plug-In . SVG Version: 6.00 Build 0)  -->
<svg xmlns="http://www.w3.org/2000/svg" xmlns:xlink="http://www.w3.org/1999/xlink" id="Logos" x="0px" y="0px" viewBox="0 0 390 200" style="enable-background:new 0 0 390 200;" xml:space="preserve">
<style type="text/css">
	.st0{display:none;}
	.st1{display:inline;fill:#00B45E;}
	.st2{display:inline;fill:#E53312;}
	.st3{display:inline;}
	.st4{fill:#5A5A5A;}
	.st5{fill:url(#SVGID_1_);}
	.st6{fill:#BABCBE;}
	.st7{fill:url(#SVGID_2_);}
	.st8{fill-rule:evenodd;clip-rule:evenodd;}
	.st9{fill:#D41317;}
	.st10{fill:#1D1D1B;}
	.st11{fill:#454651;}
	.st12{display:inline;fill:#454651;}
	.st13{fill:#3E434F;}
	.st14{display:inline;fill:#1D1D1B;}
	.st15{display:inline;fill:#44444E;}
	.st16{display:inline;fill:#44444E;stroke:#44444E;stroke-linecap:round;stroke-linejoin:bevel;stroke-miterlimit:10;}
	.st17{fill:#44444E;stroke:#44444E;stroke-linecap:round;stroke-linejoin:bevel;stroke-miterlimit:10;}
	.st18{fill:#44444E;stroke:#44444E;stroke-width:7;stroke-linecap:square;stroke-linejoin:round;stroke-miterlimit:10;}
	.st19{display:inline;fill:none;stroke:#44444E;stroke-width:7;stroke-linecap:round;stroke-linejoin:bevel;stroke-miterlimit:10;}
	.st20{fill:none;stroke:#44444E;stroke-width:7;stroke-linecap:square;stroke-linejoin:round;stroke-miterlimit:10;}
	.st21{fill:none;stroke:#44444E;stroke-width:7;stroke-linecap:round;stroke-linejoin:bevel;stroke-miterlimit:10;}
	.st22{display:inline;fill:none;stroke:#44444E;stroke-width:7;stroke-linecap:square;stroke-linejoin:bevel;stroke-miterlimit:10;}
	.st23{display:inline;fill:none;stroke:#44444E;stroke-width:7;stroke-linecap:square;stroke-linejoin:round;stroke-miterlimit:10;}
	.st24{display:inline;fill:#367DBF;}
	.st25{display:inline;fill:#367DBF;stroke:#1D1D1B;stroke-width:0.25;stroke-miterlimit:10;}
	.st26{display:inline;fill:#2E4498;}
	.st27{display:inline;fill:#F58428;}
	.st28{fill:#FFFFFF;}
	.st29{fill:#444968;}
	.st30{display:inline;fill:#E4201C;}
	.st31{fill:#0677B7;}
	.st32{fill:#686867;}
	.st33{display:inline;fill:#3F4042;}
	.st34{display:inline;fill:#F6B21F;}
	.st35{fill:#EA5504;}
	.st36{display:inline;fill:#005E3C;}
	.st37{clip-path:url(#SVGID_4_);fill:#32617E;}
	.st38{clip-path:url(#SVGID_4_);fill:#9ABFD1;}
	.st39{clip-path:url(#SVGID_6_);fill:url(#SVGID_7_);}
	.st40{fill:#3E424E;}
	.st41{display:inline;fill:#3E424E;}
	.st42{fill:#E9C118;}
	.st43{fill:#62BB46;}
	.st44{fill:#00B1E4;}
	.st45{clip-path:url(#SVGID_9_);fill:#EE255C;}
	.st46{clip-path:url(#SVGID_9_);fill:#162F55;}
	.st47{fill:#162F55;}
	.st48{clip-path:url(#SVGID_11_);fill:#162F55;}
	.st49{clip-path:url(#SVGID_13_);fill:#0071B9;}
	.st50{clip-path:url(#SVGID_13_);fill:#393A36;}
	.st51{fill:#393A36;}
	.st52{clip-path:url(#SVGID_15_);fill:#005F82;}
	.st53{clip-path:url(#SVGID_15_);fill:#231F20;}
	.st54{clip-path:url(#SVGID_17_);fill:#323E48;}
	.st55{clip-path:url(#SVGID_17_);fill:#71A850;}
	.st56{fill:#EE302A;}
	.st57{clip-path:url(#SVGID_19_);fill:#EE302A;}
	.st58{clip-path:url(#SVGID_21_);fill:#FBFCFD;}
	.st59{fill:#00B5CC;}
	.st60{fill:#C9CCD1;}
	.st61{fill:#00B4CB;}
	.st62{fill:#00B4CC;}
	.st63{clip-path:url(#SVGID_23_);fill:#00B4CB;}
	.st64{clip-path:url(#SVGID_23_);fill:#12678E;}
	.st65{clip-path:url(#SVGID_23_);fill:#0F678E;}
	.st66{clip-path:url(#SVGID_25_);fill:#47494A;}
	.st67{fill:#47494A;}
	.st68{clip-path:url(#SVGID_27_);fill:#47494A;}
	.st69{fill:#FEFEFD;}
	.st70{fill:#7CBF53;}
	.st71{fill:#195A99;}
	.st72{fill:#E86C34;}
	.st73{clip-path:url(#SVGID_29_);fill:#2F3432;}
	.st74{fill:#2F3432;}
	.st75{fill:#8FC84D;}
	.st76{clip-path:url(#SVGID_31_);fill:#F15E3A;}
	.st77{clip-path:url(#SVGID_33_);fill:#3E434F;}
	.st78{clip-path:url(#SVGID_35_);fill:#3E434F;}
	.st79{clip-path:url(#SVGID_37_);fill:#F68B2E;}
	.st80{clip-path:url(#SVGID_37_);fill:#5C5F60;}
	.st81{fill:#5C5F60;}
	.st82{clip-path:url(#SVGID_39_);fill:#5C5F60;}
	.st83{clip-path:url(#SVGID_41_);fill:#EF472E;}
	.st84{fill:#EF472E;}
	.st85{clip-path:url(#SVGID_43_);fill:#EF472E;}
	.st86{clip-path:url(#SVGID_45_);}
	.st87{clip-path:url(#SVGID_47_);fill:#FFFFFF;}
	.st88{clip-path:url(#SVGID_49_);fill:#F16728;}
	.st89{clip-path:url(#SVGID_51_);}
	.st90{clip-path:url(#SVGID_55_);}
	.st91{clip-path:url(#SVGID_57_);}
	.st92{clip-path:url(#SVGID_59_);}
	.st93{clip-path:url(#SVGID_61_);fill:#797882;}
	.st94{clip-path:url(#SVGID_65_);fill:#696973;}
	.st95{clip-path:url(#SVGID_65_);fill:#8A8991;}
	.st96{clip-path:url(#SVGID_65_);fill:#FEFEFB;}
	.st97{clip-path:url(#SVGID_65_);fill:#3E424E;}
	.st98{clip-path:url(#SVGID_65_);fill:#5A5B66;}
	.st99{clip-path:url(#SVGID_65_);fill:#9D9BA3;}
	.st100{clip-path:url(#SVGID_65_);fill:#81818A;}
	.st101{clip-path:url(#SVGID_65_);fill:#C6C5C9;}
	.st102{clip-path:url(#SVGID_65_);fill:none;stroke:#9D9BA3;stroke-width:0.3539;stroke-miterlimit:10;}
	.st103{clip-path:url(#SVGID_69_);fill:#3E424E;}
	.st104{clip-path:url(#SVGID_69_);fill:#C6C5C9;}
	.st105{clip-path:url(#SVGID_69_);fill:#5A5B66;}
	.st106{clip-path:url(#SVGID_69_);fill:#9D9BA3;}
	.st107{clip-path:url(#SVGID_71_);fill:#00579B;}
	.st108{fill:#00579B;}
	.st109{clip-path:url(#SVGID_73_);fill:#00579B;}
	.st110{clip-path:url(#SVGID_75_);fill:#9553A1;}
	.st111{fill:#9553A1;}
	.st112{clip-path:url(#SVGID_77_);fill:#1A3761;}
	.st113{fill:#28B56C;}
	.st114{clip-path:url(#SVGID_79_);fill:#F06E30;}
	.st115{clip-path:url(#SVGID_79_);fill:#FFFFFF;}
	.st116{fill:#F06E30;}
	.st117{clip-path:url(#SVGID_81_);fill:#19AAE2;}
	.st118{clip-path:url(#SVGID_81_);fill:#B2D454;}
	.st119{fill:#231F20;}
	.st120{clip-path:url(#SVGID_83_);fill:#231F20;}
	.st121{clip-path:url(#SVGID_83_);fill:#6BC4E8;}
	.st122{fill:#0093D0;}
	.st123{fill:#14AADB;}
	.st124{fill:#9ECD51;}
	.st125{fill:#00AAE2;}
	.st126{fill:#121617;}
	.st127{clip-path:url(#SVGID_85_);fill:#3C62AE;}
	.st128{fill:#3C62AE;}
	.st129{clip-path:url(#SVGID_87_);}
	.st130{fill:#211261;}
	.st131{fill:#CF3339;}
	.st132{clip-path:url(#SVGID_91_);fill:#5D686E;}
	.st133{fill:#EE2E34;}
	.st134{clip-path:url(#SVGID_94_);}
	.st135{clip-path:url(#SVGID_95_);}
	.st136{clip-path:url(#SVGID_100_);}
	.st137{clip-path:url(#SVGID_101_);}
	.st138{clip-path:url(#SVGID_106_);}
	.st139{clip-path:url(#SVGID_107_);}
	.st140{clip-path:url(#SVGID_112_);}
	.st141{clip-path:url(#SVGID_113_);}
	.st142{clip-path:url(#SVGID_118_);}
	.st143{clip-path:url(#SVGID_119_);}
	.st144{clip-path:url(#SVGID_124_);}
	.st145{clip-path:url(#SVGID_125_);}
	.st146{clip-path:url(#SVGID_130_);}
	.st147{clip-path:url(#SVGID_131_);}
	.st148{clip-path:url(#SVGID_136_);}
	.st149{clip-path:url(#SVGID_137_);}
	.st150{clip-path:url(#SVGID_142_);}
	.st151{clip-path:url(#SVGID_143_);}
	.st152{clip-path:url(#SVGID_148_);}
	.st153{clip-path:url(#SVGID_149_);}
	.st154{clip-path:url(#SVGID_154_);}
	.st155{clip-path:url(#SVGID_155_);}
	.st156{clip-path:url(#SVGID_161_);}
	.st157{clip-path:url(#SVGID_162_);}
	.st158{clip-path:url(#SVGID_163_);}
	.st159{clip-path:url(#SVGID_168_);}
	.st160{clip-path:url(#SVGID_169_);}
	.st161{clip-path:url(#SVGID_174_);}
	.st162{clip-path:url(#SVGID_175_);}
	.st163{clip-path:url(#SVGID_180_);}
	.st164{clip-path:url(#SVGID_181_);}
	.st165{clip-path:url(#SVGID_186_);}
	.st166{clip-path:url(#SVGID_187_);}
	.st167{clip-path:url(#SVGID_192_);}
	.st168{clip-path:url(#SVGID_193_);}
	.st169{clip-path:url(#SVGID_197_);}
	.st170{fill:#72BF44;}
	.st171{clip-path:url(#SVGID_199_);}
	.st172{clip-path:url(#SVGID_203_);}
	.st173{clip-path:url(#SVGID_203_);fill:none;stroke:#18161B;stroke-width:4.557864e-03;}
	.st174{fill:#BCD641;}
	.st175{fill:none;stroke:#18161B;stroke-width:4.557864e-03;}
	.st176{clip-path:url(#SVGID_205_);fill:#1F6388;}
	.st177{fill:#1F6388;}
	.st178{fill:#3AB14C;}
	.st179{clip-path:url(#SVGID_207_);fill:#3AB14C;}
	.st180{clip-path:url(#SVGID_209_);fill:#36393D;}
	.st181{clip-path:url(#SVGID_209_);fill:#EE3C87;}
	.st182{clip-path:url(#SVGID_211_);}
	.st183{clip-path:url(#SVGID_215_);fill:#231F20;}
	.st184{clip-path:url(#SVGID_217_);}
	.st185{fill:#92D5E5;}
	.st186{fill:#2F4499;}
	.st187{fill:#F58529;}
	.st188{clip-path:url(#SVGID_221_);fill:#FFFFFF;}
	.st189{clip-path:url(#SVGID_221_);fill:#F58529;}
	.st190{clip-path:url(#SVGID_221_);fill:#454967;}
	.st191{fill:#454967;}
	.st192{clip-path:url(#SVGID_223_);fill:#3265A8;}
	.st193{fill:#3265A8;}
	.st194{clip-path:url(#SVGID_225_);fill:none;stroke:#121617;stroke-width:0.388;stroke-miterlimit:10;}
	.st195{clip-path:url(#SVGID_227_);fill:none;stroke:#121617;stroke-width:0.388;stroke-miterlimit:10;}
	.st196{clip-path:url(#SVGID_229_);fill:none;stroke:#121617;stroke-width:0.388;stroke-miterlimit:10;}
	.st197{clip-path:url(#SVGID_231_);fill:none;stroke:#121617;stroke-width:0.388;stroke-miterlimit:10;}
	.st198{clip-path:url(#SVGID_233_);fill:none;stroke:#121617;stroke-width:0.388;stroke-miterlimit:10;}
	.st199{fill:#EC1F26;}
	.st200{clip-path:url(#SVGID_235_);fill:none;stroke:#EC1F26;stroke-width:0.388;stroke-miterlimit:10;}
	.st201{fill:none;stroke:#EC1F26;stroke-width:0.388;stroke-miterlimit:10;}
	.st202{clip-path:url(#SVGID_237_);fill:none;stroke:#EC1F26;stroke-width:0.388;stroke-miterlimit:10;}
	.st203{clip-path:url(#SVGID_239_);fill:none;stroke:#EC1F26;stroke-width:0.388;stroke-miterlimit:10;}
	.st204{clip-path:url(#SVGID_241_);fill:none;stroke:#EC1F26;stroke-width:0.388;stroke-miterlimit:10;}
	.st205{clip-path:url(#SVGID_243_);}
	.st206{clip-path:url(#SVGID_247_);}
	.st207{clip-path:url(#SVGID_252_);}
	.st208{clip-path:url(#SVGID_253_);}
	.st209{clip-path:url(#SVGID_257_);}
	.st210{clip-path:url(#SVGID_261_);}
	.st211{fill:#CE2D34;}
	.st212{clip-path:url(#SVGID_265_);fill:#CE2D34;}
	.st213{fill-rule:evenodd;clip-rule:evenodd;fill:#40C0F0;}
	.st214{clip-path:url(#SVGID_267_);fill-rule:evenodd;clip-rule:evenodd;fill:#40C0F0;}
	.st215{fill-rule:evenodd;clip-rule:evenodd;fill:#989CA0;}
	.st216{fill:#989CA0;}
	.st217{clip-path:url(#SVGID_269_);fill:#A4CE43;}
	.st218{fill:#023C2C;}
	.st219{clip-path:url(#SVGID_271_);fill:#231F20;}
	.st220{clip-path:url(#SVGID_273_);fill:#EC1F26;}
	.st221{clip-path:url(#SVGID_273_);fill:#FCB432;}
	.st222{clip-path:url(#SVGID_275_);fill:#231F20;}
	.st223{clip-path:url(#SVGID_277_);fill:#231F20;}
	.st224{fill:#FAEE4F;}
	.st225{fill:none;stroke:#EE322E;stroke-width:0.1178;stroke-miterlimit:10;}
	.st226{clip-path:url(#SVGID_279_);fill:#408BCA;}
	.st227{fill:none;stroke:#408BCA;stroke-width:0.0589;stroke-miterlimit:10;}
	.st228{fill:#408BCA;}
	.st229{fill:#EE322E;}
	.st230{clip-path:url(#SVGID_281_);}
	.st231{clip-path:url(#SVGID_284_);}
	.st232{clip-path:url(#SVGID_285_);fill:#99D3B8;}
	.st233{clip-path:url(#SVGID_285_);fill:#FFFFFF;}
	.st234{clip-path:url(#SVGID_289_);}
	.st235{clip-path:url(#SVGID_290_);}
	.st236{clip-path:url(#SVGID_291_);}
	.st237{clip-path:url(#SVGID_297_);}
	.st238{clip-path:url(#SVGID_298_);}
	.st239{clip-path:url(#SVGID_299_);}
	.st240{clip-path:url(#SVGID_305_);}
	.st241{clip-path:url(#SVGID_306_);}
	.st242{clip-path:url(#SVGID_307_);}
	.st243{clip-path:url(#SVGID_313_);}
	.st244{clip-path:url(#SVGID_314_);}
	.st245{clip-path:url(#SVGID_315_);}
	.st246{clip-path:url(#SVGID_321_);}
	.st247{clip-path:url(#SVGID_322_);}
	.st248{clip-path:url(#SVGID_323_);}
	.st249{clip-path:url(#SVGID_329_);}
	.st250{clip-path:url(#SVGID_330_);}
	.st251{clip-path:url(#SVGID_331_);}
	.st252{clip-path:url(#SVGID_337_);}
	.st253{clip-path:url(#SVGID_338_);}
	.st254{clip-path:url(#SVGID_339_);}
	.st255{clip-path:url(#SVGID_345_);}
	.st256{clip-path:url(#SVGID_346_);}
	.st257{clip-path:url(#SVGID_347_);}
	.st258{clip-path:url(#SVGID_353_);}
	.st259{clip-path:url(#SVGID_354_);}
	.st260{clip-path:url(#SVGID_355_);}
	.st261{clip-path:url(#SVGID_360_);}
	.st262{clip-path:url(#SVGID_361_);fill:#86C440;}
	.st263{clip-path:url(#SVGID_361_);fill:none;stroke:#FFFFFF;stroke-width:0.1703;stroke-miterlimit:10;}
	.st264{clip-path:url(#SVGID_361_);fill:#FFFFFF;}
	.st265{clip-path:url(#SVGID_361_);fill:#EFE922;}
	.st266{clip-path:url(#SVGID_365_);}
	.st267{clip-path:url(#SVGID_366_);}
	.st268{clip-path:url(#SVGID_370_);}
	.st269{fill:#E8470B;}
	.st270{fill:#3C3A39;}
	.st271{fill:#0080CB;}
</style>
<g id="XMLID_22_">
	<g id="XMLID_9_">
		<g>
			<g>
				<path class="st269" d="M180.77,97.73h-38.65c-2.04,0-3.69,1.65-3.69,3.69c0,0.04,0,9.63,0,9.63c0,10.09,6.38,18.64,14.83,22.03      c0.16,0.06,0.28,0.16,0.35,0.26c0.15,0.23,0.13,0.44,0.13,0.44v2.45c0,0-0.01,0.52,0.44,0.98c0.27,0.28,0.57,0.39,0.89,0.42      c1,0.11,3.28,0.25,6.13-0.13c4-0.54,9.27-2.22,14.04-6.39c6.59-5.77,9.22-13.49,9.22-20.17c0,0,0-9.5,0-9.53      C184.46,99.38,182.8,97.73,180.77,97.73z M174.8,119.55c-3.02,4.44-8.02,7.08-13.38,7.08c-8.91,0-16.17-7.25-16.17-16.17      c0-1.11,0.9-2.01,2.01-2.01c1.12,0,2.02,0.9,2.02,2.01c0,6.69,5.45,12.14,12.14,12.14c4.03,0,7.78-1.98,10.05-5.32      c0.63-0.92,1.88-1.16,2.8-0.53C175.18,117.38,175.42,118.63,174.8,119.55z M175.57,112.83c-1.32,0-2.39-1.07-2.39-2.39      c0-1.32,1.07-2.39,2.39-2.39c1.32,0,2.39,1.07,2.39,2.39C177.96,111.76,176.89,112.83,175.57,112.83z"></path>
			</g>
		</g>
	</g>
	<g id="XMLID_23_">
		<g id="XMLID_36_">
			<g id="XMLID_48_">
				<g>
					<g>
						<path class="st270" d="M205.26,129.27c-1.87,0-3.39,1.52-3.39,3.39c0,1.87,1.52,3.39,3.39,3.39c1.87,0,3.39-1.52,3.39-3.39        C208.65,130.79,207.13,129.27,205.26,129.27z M207.07,132.66c0,1-0.81,1.81-1.81,1.81c-1,0-1.81-0.81-1.81-1.81        c0-1,0.81-1.81,1.81-1.81C206.26,130.85,207.07,131.66,207.07,132.66z"></path>
					</g>
				</g>
			</g>
			<g id="XMLID_45_">
				<g id="XMLID_47_">
					<g>
						<g>
							<path class="st270" d="M241.87,126.77c-0.5,0-0.9,0.41-0.9,0.9c0,0.5,0.4,0.9,0.9,0.9c0.5,0,0.9-0.41,0.9-0.9         C242.77,127.18,242.37,126.77,241.87,126.77z"></path>
						</g>
					</g>
				</g>
				<g id="XMLID_46_">
					<g>
						<g>
							<path class="st270" d="M241.87,129.31c-0.44,0-0.79,0.35-0.79,0.79v5.16c0,0.43,0.35,0.79,0.79,0.79         c0.43,0,0.79-0.35,0.79-0.79v-5.16C242.66,129.67,242.31,129.31,241.87,129.31z"></path>
						</g>
					</g>
				</g>
			</g>
			<g id="XMLID_44_">
				<g>
					<g>
						<path class="st270" d="M198.38,127.62c-0.2,0-0.4,0.08-0.54,0.22l-2.4,2.26v-2.52c0-0.43-0.35-0.79-0.79-0.79        c-0.43,0-0.79,0.35-0.79,0.79v7.68c0,0.43,0.36,0.79,0.79,0.79c0.44,0,0.79-0.35,0.79-0.79v-1.7l2.4,2.26        c0.15,0.14,0.38,0.23,0.57,0.21c0.21-0.01,0.41-0.1,0.55-0.24c0.14-0.15,0.22-0.35,0.21-0.57c-0.01-0.21-0.09-0.41-0.25-0.55        l-3.02-2.84l3.02-2.84c0.16-0.14,0.24-0.34,0.25-0.55l0,0c0.01-0.21-0.07-0.41-0.21-0.57        C198.81,127.71,198.61,127.63,198.38,127.62z"></path>
					</g>
				</g>
			</g>
			<g id="XMLID_43_">
				<g>
					<g>
						<path class="st270" d="M217.25,129.31c-0.44,0-0.79,0.35-0.79,0.79v3.21c0,0.64-0.58,1.15-1.29,1.15        c-0.71,0-1.29-0.52-1.29-1.15v-3.21c0-0.43-0.36-0.79-0.79-0.79c-0.44,0-0.79,0.35-0.79,0.79v3.21c0,1.51,1.29,2.73,2.87,2.73        c1.58,0,2.87-1.23,2.87-2.73v-3.21C218.04,129.67,217.69,129.31,217.25,129.31z"></path>
					</g>
				</g>
			</g>
			<g id="XMLID_40_">
				<g>
					<g>
						<path class="st270" d="M225.57,129.27c-0.64,0-1.27,0.18-1.81,0.53v-2.22c0-0.43-0.35-0.79-0.79-0.79        c-0.44,0-0.79,0.35-0.79,0.79l0.01,5.02c-0.01,0.03-0.01,0.05-0.01,0.08v0.04c0,0.03,0.01,0.06,0.01,0.08        c0.08,1.82,1.56,3.24,3.38,3.24c1.87,0,3.39-1.52,3.39-3.39C228.96,130.79,227.44,129.27,225.57,129.27z M227.38,132.66        c0,1-0.81,1.81-1.81,1.81c-0.99,0-1.8-0.8-1.81-1.79v-0.04c0.01-0.99,0.82-1.8,1.81-1.8        C226.57,130.85,227.38,131.66,227.38,132.66z"></path>
					</g>
				</g>
			</g>
			<g id="XMLID_37_">
				<g>
					<g>
						<path class="st270" d="M235.04,129.21c-0.5,0-1.03,0.15-1.6,0.44c-1.14,0.75-1.72,1.77-1.72,3.04c0,0.6,0.15,1.18,0.44,1.74        c0.72,1.16,1.69,1.75,2.88,1.75l0.18,0c1.26-0.17,1.88-0.54,1.88-1.11V135c0-0.28-0.12-0.63-0.69-0.74l-0.2,0l-0.05,0.01        c-0.42,0.22-0.78,0.33-1.07,0.33c-0.25,0-0.53-0.06-0.81-0.17c-0.41-0.23-0.69-0.5-0.83-0.79h4.23c0.28,0,0.63-0.13,0.73-0.77        v-0.14c0-0.58-0.12-1.12-0.37-1.63C237.33,129.85,236.33,129.21,235.04,129.21z M236.84,132.09h-3.51        c0.03-0.08,0.08-0.19,0.18-0.36c0.39-0.62,0.89-0.93,1.48-0.93h0.24c0.39,0,0.79,0.2,1.19,0.6        C236.67,131.76,236.78,131.97,236.84,132.09z"></path>
					</g>
				</g>
			</g>
		</g>
		<g id="XMLID_24_">
			<g id="XMLID_33_">
				<g>
					<g>
						<path class="st270" d="M195.17,123.38h18.02c1.33,0,2.42-1.08,2.42-2.42v-18.55c0-1.34-1.09-2.42-2.42-2.42h-18.02        c-1.33,0-2.42,1.08-2.42,2.42v18.01C192.75,121.76,193.83,123.38,195.17,123.38z M196.09,119.71V103.6        c0-0.17,0.14-0.3,0.3-0.3h15.58c0.17,0,0.3,0.13,0.3,0.3v16.11c0,0.17-0.13,0.3-0.3,0.3h-15.58        C196.23,120.01,196.09,119.88,196.09,119.71z"></path>
					</g>
				</g>
			</g>
			<g id="XMLID_25_">
				<g>
					<g>
						<path class="st270" d="M243.88,115.91c0-0.58-0.35-1.08-0.86-1.29c-0.22-0.12-0.47-0.2-0.74-0.2h-3.45v-2.61h2.64        c1.09,0,1.98-0.92,1.98-2.05v-7.71c0-1.13-0.89-2.05-1.98-2.05h-5.17c0.04-0.09,0.07-0.15,0.08-0.17        c0.35-0.74,0.04-1.62-0.7-1.97c-0.74-0.35-1.62-0.04-1.98,0.7c-0.11,0.23-0.33,0.65-0.45,0.83c-0.1,0.16-0.32,0.44-0.46,0.61        h-1.75c-1.09,0-1.98,0.92-1.98,2.05v7.71c0,1.13,0.89,2.05,1.98,2.05h0.86c-0.78,0.98-1.7,1.87-2.73,2.61h-1.17v-5.77        c0-1.08-0.88-1.96-1.96-1.96h-1.76c0.43-1.18,0.74-2.39,0.93-3.74h1.22c0.8,0,1.45-0.66,1.45-1.48c0-0.82-0.65-1.48-1.45-1.48        h-5.87c-0.8,0-1.45,0.66-1.45,1.48c0,0.82,0.65,1.48,1.45,1.48h1.83c-0.44,2.63-1.42,4.68-3.11,7.57        c-0.19,0.32-0.24,0.7-0.15,1.05c0.09,0.36,0.32,0.66,0.64,0.85c0.21,0.13,0.46,0.19,0.7,0.19c0.22,0,0.44-0.06,0.63-0.16v8.06        c0,1.08,0.88,1.96,1.96,1.96h2.97c1.08,0,1.96-0.88,1.96-1.96v-3.14h7.86v4.66c0,0.78,0.67,1.41,1.48,1.41        c0.82,0,1.48-0.63,1.48-1.41v-4.66h3.45c0.27,0,0.52-0.07,0.74-0.2C243.53,116.98,243.88,116.48,243.88,115.91z         M231.76,106.94h2.62c-0.19,0.71-0.45,1.41-0.76,2.08h-1.68c-0.1,0-0.18-0.09-0.18-0.2V106.94z M240.78,106.94v1.88        c0,0.11-0.08,0.2-0.18,0.2h-4.02c0.26-0.68,0.47-1.38,0.64-2.08H240.78z M240.78,104.69h-3.21l0.16-1.89h2.88        c0.1,0,0.18,0.09,0.18,0.2V104.69z M234.93,102.8l-0.16,1.89h-3.02V103c0-0.11,0.08-0.2,0.18-0.2H234.93z M235.86,111.81v2.61        h-2.64c0.75-0.81,1.41-1.69,1.98-2.61H235.86z M223.73,109.4c0-0.06,0.05-0.11,0.1-0.11h1.46c0.06,0,0.11,0.05,0.11,0.11        v10.37c0,0.06-0.05,0.1-0.11,0.1h-1.46c-0.06,0-0.1-0.05-0.1-0.1V109.4z"></path>
					</g>
				</g>
			</g>
		</g>
	</g>
</g>
<g>
	<g>
		<path class="st271" d="M194.64,68.66h-0.98c-0.34,0-0.62,0.28-0.62,0.62v1.96c0,0.34,0.28,0.62,0.62,0.62h1.97    c0.34,0,0.62-0.28,0.62-0.62v-0.98C196.24,69.38,195.52,68.66,194.64,68.66z"></path>
		<path class="st271" d="M176.06,70.42l-2.55,0l0-1.15c0-0.34-0.28-0.62-0.62-0.62h-2.17c-0.34,0-0.62,0.28-0.62,0.62v3.66    c0,0.34,0.28,0.69,0.62,0.69h3.32c0.29,0.01,0.61,0.22,0.62,0.61l0,3.44c0,0.34,0.28,0.62,0.62,0.62h1.78    c0.34,0,0.62-0.28,0.62-0.62v-5.65C177.66,71.14,176.94,70.42,176.06,70.42z"></path>
		<path class="st271" d="M175.35,90.82h-1.34c-0.28,0-0.5-0.23-0.5-0.5l0-14.64c0-0.34-0.28-0.62-0.62-0.62h-1.96    c-0.34,0-0.62,0.28-0.62,0.62v15.43c0,1.6,1.31,2.91,2.91,2.91l2.14,0c0.34,0,0.62-0.28,0.62-0.62v-1.96    C175.97,91.1,175.69,90.82,175.35,90.82z"></path>
		<path class="st271" d="M220.59,81.47c0.02,0,0.04,0,0.07-0.01l0.07-0.01c0.13-0.02,0.26-0.06,0.38-0.12    c0.02-0.01,0.04-0.02,0.06-0.03c0.13-0.07,0.26-0.16,0.37-0.26c0.03-0.03,0.06-0.06,0.08-0.09l9.34-10.94c0,0,0,0,0.01-0.01    c0.1-0.11,0.16-0.26,0.16-0.41c0-0.33-0.27-0.61-0.61-0.61h-2.37c-0.05,0-0.09,0-0.13,0.01c-0.02,0-0.04,0-0.07,0.01    c-0.02,0-0.04,0.01-0.07,0.01c-0.13,0.02-0.26,0.06-0.38,0.12c-0.02,0.01-0.04,0.02-0.06,0.03c-0.13,0.07-0.26,0.16-0.37,0.26    c-0.01,0.01-9.28,10.84-9.42,11.03c-0.11,0.11-0.16,0.26-0.16,0.41c0,0.33,0.27,0.61,0.61,0.61h2.37    C220.5,81.48,220.55,81.48,220.59,81.47z"></path>
		<path class="st271" d="M219.13,70.84c0-0.27,0-0.57,0-0.57c0-0.66-0.4-1.22-0.96-1.47c0,0-0.01,0-0.01-0.01    c-0.04-0.02-0.08-0.03-0.12-0.04c-0.01,0-0.02-0.01-0.03-0.01c-0.03-0.01-0.06-0.02-0.09-0.02c-0.02,0-0.04-0.01-0.06-0.02    c-0.02,0-0.05-0.01-0.07-0.01c-0.03,0-0.06-0.01-0.09-0.01c-0.02,0-0.03,0-0.05,0c-0.04,0-0.08-0.01-0.11-0.01l0,0c0,0,0,0,0,0    h-0.04l-18.95-0.02c-0.36,0-0.65,0.29-0.65,0.65v1.3c0,0.46,0.25,0.89,0.64,1.08c0.17,0.08,0.37,0.12,0.59,0.14v0.01h0.09    c0.02,0,0.03,0,0.05,0h0.2c0.04,0,0.07,0,0.11,0l14.1,0.02c0.11,0,0.19,0.09,0.19,0.19c0,0.05-0.02,0.09-0.04,0.12l-5.28,6.48    c-0.27,0.31-0.42,0.7-0.42,1.12v10.41c0,0.29-0.24,0.54-0.54,0.54l-4.47,0c-0.68,0-1.24,0.56-1.24,1.24l0,1.45    c0,0.36,0.29,0.58,0.65,0.58h5.9c1.69,0,3.06-1.37,3.06-3.06v-9.96c0-0.36,0.13-0.71,0.37-0.99c0,0,7.04-8.23,7.11-8.32    C219.02,71.6,219.13,71.36,219.13,70.84z"></path>
		<path class="st271" d="M243.45,91l0-3.59c0-0.01,0-0.01,0-0.02V87c0-0.68-0.56-1.24-1.24-1.24h-0.82c0,0-0.6,0-0.6,0    c-0.35,0-0.64,0.29-0.64,0.64V87c0,0,0,0,0,0v3.19c0,0.29-0.24,0.52-0.52,0.52c0,0-0.01,0-0.01,0h-15.88    c-0.1,0-0.18-0.09-0.18-0.19c0-0.05,0.02-0.09,0.04-0.12l16.84-19.84c0,0,0,0,0.01-0.01c0.1-0.11,0.16-0.26,0.16-0.41    c0-0.33-0.27-0.61-0.61-0.61h-2.64c-0.05,0-0.09,0-0.13,0.01c-0.02,0-0.04,0-0.07,0.01l-0.07,0.01c-0.13,0.02-0.26,0.06-0.38,0.12    c-0.02,0.01-0.04,0.02-0.06,0.03c-0.13,0.07-0.26,0.16-0.37,0.26c-0.03,0.03-0.06,0.06-0.08,0.09l-17.64,20.7    c-0.17,0.23-0.39,0.46-0.39,0.83v0.83c0,0.88,0.72,1.6,1.6,1.6h0.98h19.72c1.66,0,3.01-1.35,3.01-3.01    C243.45,91,243.45,91,243.45,91z"></path>
		<path class="st271" d="M196.23,92c0-0.65-0.53-1.18-1.18-1.18h-3.04c-0.32,0-0.58-0.26-0.58-0.58v0v0v-4.76h4.29    c0.29,0,0.52-0.23,0.52-0.52v-2.16c0-0.29-0.23-0.52-0.52-0.52h-4.29v-4.01l4.19,0c0.34,0,0.62-0.28,0.62-0.62v-0.98c0,0,0,0,0,0    v-0.99c0-0.34-0.28-0.62-0.62-0.62l-4.19,0l0-5.78c0-0.34-0.28-0.62-0.62-0.62h-1.96c-0.34,0-0.62,0.28-0.62,0.62v5.79h-3.83v-3.2    h1.27c0.34,0,0.62-0.28,0.62-0.62v-1.96c0-0.34-0.28-0.62-0.62-0.62h-6.39c-0.34,0-0.62,0.28-0.62,0.62v1.96    c0,0.34,0.28,0.62,0.62,0.62h1.91v3.2h-1.91c-0.34,0-0.62,0.28-0.62,0.62v1.96c0,0.34,0.28,0.62,0.62,0.62h1.91v4.01h-2.01    c-0.29,0-0.52,0.23-0.52,0.52v2.16c0,0.29,0.23,0.52,0.52,0.52h2.01v4.83c0,0.28-0.23,0.5-0.5,0.5h-1.41    c-0.34,0-0.62,0.28-0.62,0.62v1.96c0,0.34,0.28,0.62,0.62,0.62l2.2,0c1.6,0,2.91-1.31,2.91-2.91v-5.62h1.32    c0.29,0,0.52-0.23,0.52-0.52v-2.16c0-0.29-0.23-0.52-0.52-0.52h-1.32v-4.01h3.83v12.69c0,1.76,1.31,3.07,2.91,3.07l4.48,0    c0.34,0,0.62-0.28,0.62-0.62L196.23,92z"></path>
	</g>
	<g>
		<path class="st271" d="M144.5,70.15c-6.18,4.01-7.93,12.27-3.92,18.45c4.01,6.18,12.27,7.93,18.45,3.92    c0.36-0.23,0.7-0.48,1.03-0.74l0,0c0.29-0.23,0.36-0.65,0.16-0.97c0,0,0,0,0,0c0,0,0,0,0,0l-0.62-0.95    c-0.58-0.89-1.76-1.14-2.65-0.57c0,0-0.01,0-0.01,0.01c0,0-0.01,0.01-0.01,0.01c-4.39,2.84-10.26,1.59-13.11-2.8    c-2.85-4.39-1.6-10.27,2.79-13.12c3.55-2.31,8.07-1.93,11.18,0.62c0.05,0.05,0.1,0.1,0.14,0.16c0.22,0.34,0.12,0.8-0.22,1.02    l-7.94,5.16c-0.89,0.58-1.14,1.77-0.57,2.66l0.65,1c0.22,0.34,0.68,0.44,1.02,0.22l12.47-8.1c0.32-0.21,0.42-0.61,0.26-0.94    c-0.01-0.01-0.01-0.02-0.02-0.03c-0.19-0.36-0.4-0.72-0.63-1.07C158.93,67.9,150.67,66.14,144.5,70.15z"></path>
		<path class="st271" d="M163.1,80.95l-2.5,1.62c-0.34,0.22-0.44,0.68-0.22,1.02l1.62,2.5c0.22,0.34,0.68,0.44,1.02,0.22l1.25-0.81    c1.03-0.67,1.32-2.05,0.65-3.08l-0.81-1.25C163.9,80.82,163.44,80.73,163.1,80.95z"></path>
	</g>
</g>
</svg>
