<?xml version="1.0" encoding="UTF-8"?>
<!-- Generator: Adobe Illustrator 23.0.1, SVG Export Plug-In . SVG Version: 6.00 Build 0)  -->
<svg xmlns="http://www.w3.org/2000/svg" xmlns:xlink="http://www.w3.org/1999/xlink" id="Logos" x="0px" y="0px" viewBox="0 0 390 200" style="enable-background:new 0 0 390 200;" xml:space="preserve">
<style type="text/css">
	.st0{display:none;}
	.st1{display:inline;fill:#00B45E;}
	.st2{display:inline;fill:#E53312;}
	.st3{display:inline;}
	.st4{fill:#5A5A5A;}
	.st5{fill:url(#SVGID_1_);}
	.st6{fill:#BABCBE;}
	.st7{fill:url(#SVGID_2_);}
	.st8{fill-rule:evenodd;clip-rule:evenodd;}
	.st9{fill:#D41317;}
	.st10{fill:#1D1D1B;}
	.st11{fill:#454651;}
	.st12{display:inline;fill:#454651;}
	.st13{fill:#3E434F;}
	.st14{display:inline;fill:#1D1D1B;}
	.st15{display:inline;fill:#44444E;}
	.st16{display:inline;fill:#44444E;stroke:#44444E;stroke-linecap:round;stroke-linejoin:bevel;stroke-miterlimit:10;}
	.st17{fill:#44444E;stroke:#44444E;stroke-linecap:round;stroke-linejoin:bevel;stroke-miterlimit:10;}
	.st18{fill:#44444E;stroke:#44444E;stroke-width:7;stroke-linecap:square;stroke-linejoin:round;stroke-miterlimit:10;}
	.st19{display:inline;fill:none;stroke:#44444E;stroke-width:7;stroke-linecap:round;stroke-linejoin:bevel;stroke-miterlimit:10;}
	.st20{fill:none;stroke:#44444E;stroke-width:7;stroke-linecap:square;stroke-linejoin:round;stroke-miterlimit:10;}
	.st21{fill:none;stroke:#44444E;stroke-width:7;stroke-linecap:round;stroke-linejoin:bevel;stroke-miterlimit:10;}
	.st22{display:inline;fill:none;stroke:#44444E;stroke-width:7;stroke-linecap:square;stroke-linejoin:bevel;stroke-miterlimit:10;}
	.st23{display:inline;fill:none;stroke:#44444E;stroke-width:7;stroke-linecap:square;stroke-linejoin:round;stroke-miterlimit:10;}
	.st24{display:inline;fill:#367DBF;}
	.st25{display:inline;fill:#367DBF;stroke:#1D1D1B;stroke-width:0.25;stroke-miterlimit:10;}
	.st26{display:inline;fill:#2E4498;}
	.st27{display:inline;fill:#F58428;}
	.st28{fill:#FFFFFF;}
	.st29{fill:#444968;}
	.st30{display:inline;fill:#E4201C;}
	.st31{fill:#0677B7;}
	.st32{fill:#686867;}
	.st33{display:inline;fill:#3F4042;}
	.st34{display:inline;fill:#F6B21F;}
	.st35{fill:#EA5504;}
	.st36{display:inline;fill:#005E3C;}
	.st37{clip-path:url(#SVGID_4_);fill:#32617E;}
	.st38{clip-path:url(#SVGID_4_);fill:#9ABFD1;}
	.st39{clip-path:url(#SVGID_6_);fill:url(#SVGID_7_);}
	.st40{fill:#3E424E;}
	.st41{display:inline;fill:#3E424E;}
	.st42{fill:#E9C118;}
	.st43{fill:#62BB46;}
	.st44{fill:#00B1E4;}
	.st45{clip-path:url(#SVGID_9_);fill:#EE255C;}
	.st46{clip-path:url(#SVGID_9_);fill:#162F55;}
	.st47{fill:#162F55;}
	.st48{clip-path:url(#SVGID_11_);fill:#162F55;}
	.st49{clip-path:url(#SVGID_13_);fill:#0071B9;}
	.st50{clip-path:url(#SVGID_13_);fill:#393A36;}
	.st51{fill:#393A36;}
	.st52{clip-path:url(#SVGID_15_);fill:#005F82;}
	.st53{clip-path:url(#SVGID_15_);fill:#231F20;}
	.st54{clip-path:url(#SVGID_17_);fill:#323E48;}
	.st55{clip-path:url(#SVGID_17_);fill:#71A850;}
	.st56{fill:#EE302A;}
	.st57{clip-path:url(#SVGID_19_);fill:#EE302A;}
	.st58{clip-path:url(#SVGID_21_);fill:#FBFCFD;}
	.st59{fill:#00B5CC;}
	.st60{fill:#C9CCD1;}
	.st61{fill:#00B4CB;}
	.st62{fill:#00B4CC;}
	.st63{clip-path:url(#SVGID_23_);fill:#00B4CB;}
	.st64{clip-path:url(#SVGID_23_);fill:#12678E;}
	.st65{clip-path:url(#SVGID_23_);fill:#0F678E;}
	.st66{clip-path:url(#SVGID_25_);fill:#47494A;}
	.st67{fill:#47494A;}
	.st68{clip-path:url(#SVGID_27_);fill:#47494A;}
	.st69{fill:#FEFEFD;}
	.st70{fill:#7CBF53;}
	.st71{fill:#195A99;}
	.st72{fill:#E86C34;}
	.st73{clip-path:url(#SVGID_29_);fill:#2F3432;}
	.st74{fill:#2F3432;}
	.st75{fill:#8FC84D;}
	.st76{clip-path:url(#SVGID_31_);fill:#F15E3A;}
	.st77{clip-path:url(#SVGID_33_);fill:#3E434F;}
	.st78{clip-path:url(#SVGID_35_);fill:#3E434F;}
	.st79{clip-path:url(#SVGID_37_);fill:#F68B2E;}
	.st80{clip-path:url(#SVGID_37_);fill:#5C5F60;}
	.st81{fill:#5C5F60;}
	.st82{clip-path:url(#SVGID_39_);fill:#5C5F60;}
	.st83{clip-path:url(#SVGID_41_);fill:#EF472E;}
	.st84{fill:#EF472E;}
	.st85{clip-path:url(#SVGID_43_);fill:#EF472E;}
	.st86{clip-path:url(#SVGID_45_);}
	.st87{clip-path:url(#SVGID_47_);fill:#FFFFFF;}
	.st88{clip-path:url(#SVGID_49_);fill:#F16728;}
	.st89{clip-path:url(#SVGID_51_);}
	.st90{clip-path:url(#SVGID_55_);}
	.st91{clip-path:url(#SVGID_57_);}
	.st92{clip-path:url(#SVGID_59_);}
	.st93{clip-path:url(#SVGID_61_);fill:#797882;}
	.st94{clip-path:url(#SVGID_65_);fill:#696973;}
	.st95{clip-path:url(#SVGID_65_);fill:#8A8991;}
	.st96{clip-path:url(#SVGID_65_);fill:#FEFEFB;}
	.st97{clip-path:url(#SVGID_65_);fill:#3E424E;}
	.st98{clip-path:url(#SVGID_65_);fill:#5A5B66;}
	.st99{clip-path:url(#SVGID_65_);fill:#9D9BA3;}
	.st100{clip-path:url(#SVGID_65_);fill:#81818A;}
	.st101{clip-path:url(#SVGID_65_);fill:#C6C5C9;}
	.st102{clip-path:url(#SVGID_65_);fill:none;stroke:#9D9BA3;stroke-width:0.3539;stroke-miterlimit:10;}
	.st103{clip-path:url(#SVGID_69_);fill:#3E424E;}
	.st104{clip-path:url(#SVGID_69_);fill:#C6C5C9;}
	.st105{clip-path:url(#SVGID_69_);fill:#5A5B66;}
	.st106{clip-path:url(#SVGID_69_);fill:#9D9BA3;}
	.st107{clip-path:url(#SVGID_71_);fill:#00579B;}
	.st108{fill:#00579B;}
	.st109{clip-path:url(#SVGID_73_);fill:#00579B;}
	.st110{clip-path:url(#SVGID_75_);fill:#9553A1;}
	.st111{fill:#9553A1;}
	.st112{clip-path:url(#SVGID_77_);fill:#1A3761;}
	.st113{fill:#28B56C;}
	.st114{clip-path:url(#SVGID_79_);fill:#F06E30;}
	.st115{clip-path:url(#SVGID_79_);fill:#FFFFFF;}
	.st116{fill:#F06E30;}
	.st117{clip-path:url(#SVGID_81_);fill:#19AAE2;}
	.st118{clip-path:url(#SVGID_81_);fill:#B2D454;}
	.st119{fill:#231F20;}
	.st120{clip-path:url(#SVGID_83_);fill:#231F20;}
	.st121{clip-path:url(#SVGID_83_);fill:#6BC4E8;}
	.st122{fill:#0093D0;}
	.st123{fill:#14AADB;}
	.st124{fill:#9ECD51;}
	.st125{fill:#00AAE2;}
	.st126{fill:#121617;}
	.st127{clip-path:url(#SVGID_85_);fill:#3C62AE;}
	.st128{fill:#3C62AE;}
	.st129{clip-path:url(#SVGID_87_);}
	.st130{fill:#211261;}
	.st131{fill:#CF3339;}
	.st132{clip-path:url(#SVGID_91_);fill:#5D686E;}
	.st133{fill:#EE2E34;}
	.st134{clip-path:url(#SVGID_94_);}
	.st135{clip-path:url(#SVGID_95_);}
	.st136{clip-path:url(#SVGID_100_);}
	.st137{clip-path:url(#SVGID_101_);}
	.st138{clip-path:url(#SVGID_106_);}
	.st139{clip-path:url(#SVGID_107_);}
	.st140{clip-path:url(#SVGID_112_);}
	.st141{clip-path:url(#SVGID_113_);}
	.st142{clip-path:url(#SVGID_118_);}
	.st143{clip-path:url(#SVGID_119_);}
	.st144{clip-path:url(#SVGID_124_);}
	.st145{clip-path:url(#SVGID_125_);}
	.st146{clip-path:url(#SVGID_130_);}
	.st147{clip-path:url(#SVGID_131_);}
	.st148{clip-path:url(#SVGID_136_);}
	.st149{clip-path:url(#SVGID_137_);}
	.st150{clip-path:url(#SVGID_142_);}
	.st151{clip-path:url(#SVGID_143_);}
	.st152{clip-path:url(#SVGID_148_);}
	.st153{clip-path:url(#SVGID_149_);}
	.st154{clip-path:url(#SVGID_154_);}
	.st155{clip-path:url(#SVGID_155_);}
	.st156{clip-path:url(#SVGID_161_);}
	.st157{clip-path:url(#SVGID_162_);}
	.st158{clip-path:url(#SVGID_163_);}
	.st159{clip-path:url(#SVGID_168_);}
	.st160{clip-path:url(#SVGID_169_);}
	.st161{clip-path:url(#SVGID_174_);}
	.st162{clip-path:url(#SVGID_175_);}
	.st163{clip-path:url(#SVGID_180_);}
	.st164{clip-path:url(#SVGID_181_);}
	.st165{clip-path:url(#SVGID_186_);}
	.st166{clip-path:url(#SVGID_187_);}
	.st167{clip-path:url(#SVGID_192_);}
	.st168{clip-path:url(#SVGID_193_);}
	.st169{clip-path:url(#SVGID_197_);}
	.st170{fill:#72BF44;}
	.st171{clip-path:url(#SVGID_199_);}
	.st172{clip-path:url(#SVGID_203_);}
	.st173{clip-path:url(#SVGID_203_);fill:none;stroke:#18161B;stroke-width:4.557864e-03;}
	.st174{fill:#BCD641;}
	.st175{fill:none;stroke:#18161B;stroke-width:4.557864e-03;}
	.st176{clip-path:url(#SVGID_205_);fill:#1F6388;}
	.st177{fill:#1F6388;}
	.st178{fill:#3AB14C;}
	.st179{clip-path:url(#SVGID_207_);fill:#3AB14C;}
	.st180{clip-path:url(#SVGID_209_);fill:#36393D;}
	.st181{clip-path:url(#SVGID_209_);fill:#EE3C87;}
	.st182{clip-path:url(#SVGID_211_);}
	.st183{clip-path:url(#SVGID_215_);fill:#231F20;}
	.st184{clip-path:url(#SVGID_217_);}
	.st185{fill:#92D5E5;}
	.st186{fill:#2F4499;}
	.st187{fill:#F58529;}
	.st188{clip-path:url(#SVGID_221_);fill:#FFFFFF;}
	.st189{clip-path:url(#SVGID_221_);fill:#F58529;}
	.st190{clip-path:url(#SVGID_221_);fill:#454967;}
	.st191{fill:#454967;}
	.st192{clip-path:url(#SVGID_223_);fill:#3265A8;}
	.st193{fill:#3265A8;}
	.st194{clip-path:url(#SVGID_225_);fill:none;stroke:#121617;stroke-width:0.3687;stroke-miterlimit:10;}
	.st195{clip-path:url(#SVGID_227_);fill:none;stroke:#121617;stroke-width:0.3687;stroke-miterlimit:10;}
	.st196{clip-path:url(#SVGID_229_);fill:none;stroke:#121617;stroke-width:0.3687;stroke-miterlimit:10;}
	.st197{clip-path:url(#SVGID_231_);fill:none;stroke:#121617;stroke-width:0.3687;stroke-miterlimit:10;}
	.st198{clip-path:url(#SVGID_233_);fill:none;stroke:#121617;stroke-width:0.3687;stroke-miterlimit:10;}
	.st199{fill:#EC1F26;}
	.st200{clip-path:url(#SVGID_235_);fill:none;stroke:#EC1F26;stroke-width:0.3687;stroke-miterlimit:10;}
	.st201{fill:none;stroke:#EC1F26;stroke-width:0.3687;stroke-miterlimit:10;}
	.st202{clip-path:url(#SVGID_237_);fill:none;stroke:#EC1F26;stroke-width:0.3687;stroke-miterlimit:10;}
	.st203{clip-path:url(#SVGID_239_);fill:none;stroke:#EC1F26;stroke-width:0.3687;stroke-miterlimit:10;}
	.st204{clip-path:url(#SVGID_241_);fill:none;stroke:#EC1F26;stroke-width:0.3687;stroke-miterlimit:10;}
	.st205{clip-path:url(#SVGID_243_);}
	.st206{clip-path:url(#SVGID_247_);}
	.st207{clip-path:url(#SVGID_252_);}
	.st208{clip-path:url(#SVGID_253_);}
	.st209{clip-path:url(#SVGID_257_);}
	.st210{clip-path:url(#SVGID_261_);}
	.st211{fill:#CE2D34;}
	.st212{clip-path:url(#SVGID_265_);fill:#CE2D34;}
	.st213{fill-rule:evenodd;clip-rule:evenodd;fill:#40C0F0;}
	.st214{clip-path:url(#SVGID_267_);fill-rule:evenodd;clip-rule:evenodd;fill:#40C0F0;}
	.st215{fill-rule:evenodd;clip-rule:evenodd;fill:#989CA0;}
	.st216{fill:#989CA0;}
	.st217{clip-path:url(#SVGID_269_);fill:#A4CE43;}
	.st218{fill:#023C2C;}
	.st219{clip-path:url(#SVGID_271_);fill:#231F20;}
	.st220{clip-path:url(#SVGID_273_);fill:#EC1F26;}
	.st221{clip-path:url(#SVGID_273_);fill:#FCB432;}
	.st222{clip-path:url(#SVGID_275_);fill:#231F20;}
	.st223{clip-path:url(#SVGID_277_);fill:#231F20;}
	.st224{fill:#FAEE4F;}
	.st225{fill:none;stroke:#EE322E;stroke-width:0.124;stroke-miterlimit:10;}
	.st226{clip-path:url(#SVGID_279_);fill:#408BCA;}
	.st227{fill:none;stroke:#408BCA;stroke-width:0.062;stroke-miterlimit:10;}
	.st228{fill:#408BCA;}
	.st229{fill:#EE322E;}
</style>
<g>
	<g>
		<defs>
			<rect id="SVGID_78_" x="112.91" y="79.48" width="165.21" height="41.52"></rect>
		</defs>
		<clipPath id="SVGID_1_">
			<use xlink:href="#SVGID_78_" style="overflow:visible;"></use>
		</clipPath>
		<path style="clip-path:url(#SVGID_1_);fill:#F06E30;" d="M138.61,95.66c0.03-0.15,0.08-0.31,0.1-0.47c0.13-1.12,0.2-2.25,0.4-3.35    c0.11-0.6-0.1-0.76-0.61-0.91c-2.1-0.59-4.22-0.77-6.39-0.45c-6.95,1.02-10.53,6.94-9.64,12.98c1.38,9.41,10.82,11.55,16.87,8.44    c0.2-0.1,0.4-0.43,0.4-0.66c0.03-2.97,0.01-5.95,0.03-8.92c0-0.48-0.17-0.6-0.61-0.59c-1.01,0.02-2.02,0-3.03,0.01    c-1.11,0.01-1.05-0.15-1.05,1.02c0,1.75,0,3.5,0,5.25c0,0.28,0.01,0.55-0.39,0.58c-1.74,0.15-3.39-0.09-4.81-1.18    c-2.15-1.66-2.92-3.92-2.6-6.55c0.33-2.7,1.76-4.59,4.37-5.52c1.39-0.49,2.84-0.46,4.27-0.28    C136.8,95.18,137.67,95.45,138.61,95.66L138.61,95.66z M112.88,100.69c0.16-1.01,0.29-2.03,0.5-3.03    c1.59-7.47,7.72-13.35,15.28-14.69c10.32-1.83,20.11,4.8,22.21,15.02c2.15,10.46-4.85,20.8-15.33,22.64    c-0.82,0.14-1.64,0.25-2.47,0.37c-0.66,0-1.32,0-1.98,0c-0.82-0.12-1.65-0.22-2.46-0.37c-7.53-1.33-13.67-7.24-15.25-14.69    c-0.21-1-0.33-2.02-0.5-3.03C112.88,102.17,112.88,101.43,112.88,100.69L112.88,100.69z"></path>
		<path style="clip-path:url(#SVGID_1_);fill:#FFFFFF;" d="M112.88,102.91c0.16,1.01,0.29,2.03,0.5,3.03    c1.58,7.45,7.72,13.36,15.25,14.69c0.82,0.14,1.64,0.25,2.46,0.37c-6.06,0-12.12,0-18.21,0    C112.88,114.97,112.88,108.94,112.88,102.91L112.88,102.91z"></path>
	</g>
	<path class="st116" d="M207.18,107.51c3.3,0,5.63-2.37,5.63-5.75c0-3.33-2.34-5.75-5.58-5.76c-3.27-0.01-5.63,2.41-5.63,5.77   C201.6,105.12,203.92,107.5,207.18,107.51L207.18,107.51z M207.2,92.29c5.92-0.06,9.46,4.24,9.51,9.31   c0.06,5.61-3.84,9.6-9.16,9.69c-6.18,0.11-9.84-4.18-9.88-9.51C197.64,96.22,201.61,92.29,207.2,92.29L207.2,92.29z"></path>
	<path class="st116" d="M184.4,98.2c0,0.54,0.02,1.09-0.01,1.63c-0.02,0.39,0.1,0.56,0.52,0.54c0.95-0.03,1.9,0,2.86-0.01   c1.21-0.02,2.02-0.9,2.04-2.16c0.01-1.25-0.81-2.16-2-2.2c-0.97-0.03-1.94,0.01-2.91-0.01c-0.39-0.01-0.51,0.15-0.49,0.52   C184.42,97.08,184.4,97.64,184.4,98.2L184.4,98.2z M194.39,111.27c-1.37,0-2.64,0.02-3.9-0.02c-0.2-0.01-0.46-0.25-0.56-0.44   c-1.11-2.05-2.2-4.11-3.26-6.18c-0.25-0.49-0.54-0.7-1.08-0.64c-0.36,0.04-0.73,0.01-1.17,0.01c0,2.45,0,4.83,0,7.28   c-1.19,0-2.32,0.01-3.44-0.01c-0.1,0-0.24-0.16-0.28-0.27c-0.05-0.14-0.02-0.31-0.02-0.46c0-5.82,0-11.63,0-17.45   c0-0.78,0-0.78,0.75-0.78c2.33,0,4.67-0.03,7,0.02c2.45,0.05,4.31,1.48,5.03,3.79c0.77,2.45,0.02,5.15-1.87,6.52   c-0.46,0.34-1.01,0.57-1.58,0.89C191.45,106.05,192.9,108.61,194.39,111.27L194.39,111.27z"></path>
	<path class="st116" d="M253.62,100.37c1.21,0,2.32,0.02,3.42-0.01c1.14-0.03,1.92-0.87,1.97-2.1c0.05-1.18-0.71-2.17-1.83-2.24   c-1.06-0.06-2.14-0.03-3.2-0.01c-0.12,0-0.35,0.21-0.35,0.32C253.61,97.66,253.62,98.97,253.62,100.37L253.62,100.37z    M259.24,103.51c1.42,2.53,2.86,5.08,4.33,7.7c-0.19,0.03-0.33,0.06-0.47,0.06c-1.07,0-2.14-0.01-3.21,0.01   c-0.38,0.01-0.59-0.11-0.76-0.46c-1.02-1.97-2.1-3.9-3.07-5.88c-0.37-0.77-0.83-1.1-1.65-0.96c-0.24,0.04-0.49,0.03-0.78,0.05   c0,2.42,0,4.79,0,7.24c-1.19,0-2.32,0.01-3.46-0.01c-0.09,0-0.22-0.15-0.25-0.25c-0.04-0.16-0.03-0.35-0.03-0.52   c0-5.79,0-11.59,0-17.38c0-0.81,0-0.81,0.79-0.81c2.31,0,4.63-0.03,6.94,0.01c2.46,0.04,4.31,1.45,5.06,3.75   c0.79,2.44,0.05,5.14-1.82,6.53C260.38,102.94,259.82,103.19,259.24,103.51L259.24,103.51z"></path>
	<path class="st116" d="M171.6,101.79c1.23,0,2.35-0.01,3.48,0.02c0.11,0,0.31,0.23,0.31,0.36c0.02,2.55,0.02,5.09,0,7.64   c0,0.16-0.17,0.39-0.32,0.47c-5.01,2.59-12.74,0.81-14.05-6.66c-0.68-3.87,0.37-7.26,3.65-9.63c3-2.17,6.38-2.31,9.85-1.29   c0.15,0.04,0.32,0.37,0.3,0.56c-0.09,1.08-0.23,2.16-0.35,3.21c-0.97-0.18-1.9-0.43-2.85-0.52c-2.34-0.21-4.42,0.35-5.82,2.41   c-2.14,3.15-0.81,7.73,2.61,8.91c0.82,0.28,1.75,0.25,2.63,0.34c0.42,0.04,0.57-0.18,0.57-0.6c-0.02-1.48-0.01-2.96-0.01-4.43   C171.6,102.34,171.6,102.11,171.6,101.79L171.6,101.79z"></path>
	<g>
		<path class="st116" d="M245.21,111.25c-3.29,0-6.49,0-9.77,0c-0.01-0.2-0.04-0.4-0.04-0.6c0-5.85,0-11.7,0-17.55    c0-0.8,0-0.8,0.8-0.8c2.64,0,5.29,0,7.93,0c0.21,0,0.42,0,0.68,0c0,1.24,0,2.43,0,3.71c-0.59,0-1.16,0-1.74,0    c-1.15,0-2.29,0-3.44,0c-0.26,0-0.51-0.01-0.5,0.37c0.01,1.14,0,2.29,0,3.51c1.67,0,3.31,0,4.98,0c0,1.28,0,2.47,0,3.76    c-1.64,0-3.28,0-4.95,0c0,1.33,0,2.56,0,3.85c0.26,0.02,0.51,0.04,0.75,0.04c1.56,0,3.11,0.02,4.67-0.01    c0.48-0.01,0.65,0.13,0.63,0.62C245.18,109.17,245.21,110.18,245.21,111.25L245.21,111.25z"></path>
		<path class="st116" d="M276.72,92.94c-0.16,1.21-0.31,2.35-0.47,3.51c-0.85-0.21-1.66-0.46-2.49-0.61    c-0.51-0.1-1.05-0.1-1.57-0.07c-0.89,0.06-1.49,0.63-1.71,1.5c-0.2,0.8,0.08,1.54,0.83,2c0.41,0.25,0.88,0.4,1.31,0.62    c1.01,0.5,2.06,0.92,3,1.53c2.01,1.31,2.82,3.19,2.35,5.58c-0.43,2.17-2.15,3.85-4.41,4.28c-2.4,0.46-4.67-0.03-6.85-1.05    c-0.14-0.07-0.31-0.28-0.3-0.41c0.12-1.18,0.28-2.35,0.44-3.62c0.24,0.14,0.41,0.24,0.59,0.33c1.55,0.85,3.2,1.27,4.98,1.08    c0.96-0.1,1.67-0.71,1.84-1.53c0.16-0.79-0.27-1.59-1.15-2.02c-0.71-0.35-1.48-0.58-2.2-0.92c-0.71-0.35-1.43-0.71-2.08-1.17    c-1.87-1.31-2.54-3.15-2.06-5.36c0.47-2.2,1.79-3.7,3.98-4.28C272.8,91.8,274.76,92.25,276.72,92.94L276.72,92.94z"></path>
		<path class="st116" d="M225.45,111.25c-1.28,0-2.46,0-3.7,0c0-6.29,0-12.57,0-18.92c0.19-0.01,0.4-0.04,0.6-0.04    c2.7,0,5.4,0.01,8.11-0.01c0.55-0.01,0.71,0.17,0.69,0.7c-0.04,0.8-0.04,1.6,0,2.39c0.03,0.53-0.17,0.66-0.67,0.65    c-1.44-0.03-2.88-0.01-4.32-0.01c-0.21,0-0.42,0-0.68,0c0,1.32,0,2.57,0,3.89c1.58,0,3.15,0,4.79,0c0,1.2,0.01,2.34-0.02,3.48    c0,0.1-0.32,0.28-0.5,0.28c-1.2,0.03-2.41,0.01-3.62,0.01c-0.21,0-0.42,0-0.69,0C225.45,106.22,225.45,108.7,225.45,111.25    L225.45,111.25z"></path>
		<path class="st116" d="M151.27,85.73c-1.76,0-3.11-1.38-3.11-3.16c0.01-1.71,1.41-3.09,3.13-3.09c1.74,0.01,3.12,1.41,3.11,3.17    C154.39,84.37,153.01,85.73,151.27,85.73L151.27,85.73z"></path>
	</g>
</g>
</svg>
