<?xml version="1.0" encoding="UTF-8"?>
<!-- Generator: Adobe Illustrator 23.0.1, SVG Export Plug-In . SVG Version: 6.00 Build 0)  -->
<svg xmlns="http://www.w3.org/2000/svg" xmlns:xlink="http://www.w3.org/1999/xlink" id="Logos" x="0px" y="0px" viewBox="0 0 390 200" style="enable-background:new 0 0 390 200;" xml:space="preserve">
<style type="text/css">
	.st0{display:none;}
	.st1{display:inline;fill:#00B35E;}
	.st2{display:inline;fill:#E43312;}
	.st3{display:inline;}
	.st4{fill:#5A5A5A;}
	.st5{fill:url(#SVGID_1_);}
	.st6{fill:#B9BBBD;}
	.st7{fill:url(#SVGID_2_);}
	.st8{fill-rule:evenodd;clip-rule:evenodd;}
	.st9{fill:#D31317;}
	.st10{fill:#1D1D1B;}
	.st11{fill:#454651;}
	.st12{display:inline;fill:#454651;}
	.st13{fill:#3E434F;}
	.st14{display:inline;fill:#1D1D1B;}
	.st15{display:inline;fill:#44444E;}
	.st16{display:inline;fill:#44444E;stroke:#44444E;stroke-linecap:round;stroke-linejoin:bevel;stroke-miterlimit:10;}
	.st17{fill:#44444E;stroke:#44444E;stroke-linecap:round;stroke-linejoin:bevel;stroke-miterlimit:10;}
	.st18{fill:#44444E;stroke:#44444E;stroke-width:7;stroke-linecap:square;stroke-linejoin:round;stroke-miterlimit:10;}
	.st19{display:inline;fill:none;stroke:#44444E;stroke-width:7;stroke-linecap:round;stroke-linejoin:bevel;stroke-miterlimit:10;}
	.st20{fill:none;stroke:#44444E;stroke-width:7;stroke-linecap:square;stroke-linejoin:round;stroke-miterlimit:10;}
	.st21{fill:none;stroke:#44444E;stroke-width:7;stroke-linecap:round;stroke-linejoin:bevel;stroke-miterlimit:10;}
	.st22{display:inline;fill:none;stroke:#44444E;stroke-width:7;stroke-linecap:square;stroke-linejoin:bevel;stroke-miterlimit:10;}
	.st23{display:inline;fill:none;stroke:#44444E;stroke-width:7;stroke-linecap:square;stroke-linejoin:round;stroke-miterlimit:10;}
	.st24{display:inline;fill:#367DBE;}
	.st25{display:inline;fill:#367DBE;stroke:#1D1D1B;stroke-width:0.25;stroke-miterlimit:10;}
	.st26{display:inline;fill:#2E4497;}
	.st27{display:inline;fill:#F48328;}
	.st28{fill:#FFFFFF;}
	.st29{fill:#444968;}
	.st30{display:inline;fill:#E3201C;}
	.st31{fill:#0677B6;}
	.st32{fill:#686867;}
	.st33{display:inline;fill:#3F4042;}
	.st34{display:inline;fill:#F5B11F;}
	.st35{fill:#E95504;}
	.st36{display:inline;fill:#005E3C;}
	.st37{clip-path:url(#SVGID_4_);fill:#32617E;}
	.st38{clip-path:url(#SVGID_4_);fill:#99BED0;}
	.st39{clip-path:url(#SVGID_6_);fill:url(#SVGID_7_);}
	.st40{fill:#3E424E;}
	.st41{display:inline;fill:#3E424E;}
	.st42{fill:#E7470B;}
	.st43{fill:#3C3A39;}
	.st44{fill:#0080CA;}
	.st45{fill:url(#SVGID_14_);}
	.st46{fill:#575757;}
	.st47{fill:#00B0ED;}
	.st48{fill:url(#SVGID_15_);}
	.st49{fill:#676C71;}
	.st50{clip-path:url(#SVGID_17_);fill:#EF472E;}
	.st51{fill:#EF472E;}
	.st52{clip-path:url(#SVGID_19_);fill:#EF472E;}
	.st53{clip-path:url(#SVGID_21_);fill:#231F20;}
</style>
<g>
	<g>
		<defs>
			<rect id="SVGID_16_" x="69.72" y="86.16" width="248.28" height="28.54"></rect>
		</defs>
		<clipPath id="SVGID_1_">
			<use xlink:href="#SVGID_16_" style="overflow:visible;"></use>
		</clipPath>
		<path style="clip-path:url(#SVGID_1_);fill:#EF472E;" d="M89.41,86.17c5.55,0,11.1-0.01,16.65,0c7.34,0.02,12.77,4.89,13.64,12.22    c0.94,7.92-3.99,14.83-11.87,16.01c-3.5,0.52-7.13,0.21-10.7,0.12c-0.73-0.02-1.56-0.66-2.14-1.22c-2.44-2.35-4.82-4.76-7.16-7.2    c-0.37-0.38-0.76-1.21-0.59-1.52c0.25-0.44,1.01-0.83,1.55-0.83c5.6-0.06,11.2-0.03,16.79-0.05c1.67-0.01,2.85-0.93,3.26-2.39    c0.4-1.44-0.09-2.98-1.4-3.65c-0.75-0.39-1.7-0.55-2.56-0.55c-7.9-0.04-15.81-0.05-23.71,0c-1.62,0.01-2.88-0.48-4.01-1.66    c-2.24-2.35-4.58-4.6-6.83-6.94c-0.36-0.38-0.76-1.24-0.58-1.51c0.28-0.43,1.03-0.78,1.59-0.79    C77.37,86.15,83.39,86.17,89.41,86.17L89.41,86.17z"></path>
	</g>
	<path class="st51" d="M194.99,93.67c-3.82,0-6.88,3.02-6.83,6.76c0.05,3.76,3.02,6.71,6.75,6.7c3.86-0.01,6.81-2.94,6.8-6.76   C201.71,96.63,198.74,93.68,194.99,93.67L194.99,93.67z M205.88,100.48c-0.02,5.88-4.83,10.46-10.99,10.45   c-6.14-0.01-11.01-4.76-10.96-10.68c0.05-5.79,5.01-10.43,11.11-10.4C201.12,89.88,205.9,94.57,205.88,100.48L205.88,100.48z"></path>
	<path class="st51" d="M168.61,107.13c3.82,0.01,6.83-2.97,6.83-6.76c-0.01-3.7-3-6.68-6.74-6.7c-3.83-0.02-6.87,2.99-6.84,6.75   C161.88,104.17,164.85,107.12,168.61,107.13L168.61,107.13z M168.64,110.93c-6.12,0.01-10.98-4.63-10.99-10.48   c-0.01-5.88,4.83-10.59,10.89-10.6c6.18-0.01,11.05,4.65,11.05,10.58C179.59,106.31,174.78,110.93,168.64,110.93L168.64,110.93z"></path>
	<path class="st51" d="M239.11,106.8c1.26,0,2.33,0.02,3.39,0c3.35-0.08,5.98-2.79,6.04-6.19c0.06-3.45-2.42-6.2-5.8-6.38   c-0.89-0.05-1.79-0.11-2.67,0c-0.35,0.04-0.92,0.52-0.93,0.81C239.09,98.88,239.11,102.72,239.11,106.8L239.11,106.8z    M234.87,100.45c0-2.87,0.02-5.74-0.01-8.6c-0.01-1.05,0.3-1.52,1.46-1.47c2.58,0.11,5.2-0.17,7.74,0.19   c5.58,0.79,9,5.24,8.66,10.84c-0.31,5.04-4.66,9.04-10.05,9.2c-2.16,0.06-4.33-0.02-6.49,0.04c-0.99,0.03-1.33-0.35-1.32-1.31   C234.89,106.38,234.87,103.42,234.87,100.45C234.87,100.45,234.87,100.45,234.87,100.45L234.87,100.45z"></path>
	<path class="st51" d="M139.49,106.72c1.45,0,2.67,0.12,3.87-0.02c4.02-0.48,6.5-4.44,5.27-8.3c-1.06-3.32-5.19-5.41-8.59-4.32   c-0.23,0.07-0.52,0.44-0.52,0.67C139.48,98.68,139.49,102.61,139.49,106.72L139.49,106.72z M135.3,100.37   c0-2.92,0.03-5.83-0.02-8.75c-0.02-0.98,0.32-1.35,1.3-1.32c2.35,0.06,4.71-0.04,7.05,0.08c5.36,0.27,9.4,4.53,9.46,9.85   c0.06,5.46-3.81,9.78-9.26,10.16c-2.43,0.17-4.89,0.06-7.33,0.12c-0.91,0.02-1.23-0.35-1.22-1.25   C135.33,106.3,135.3,103.34,135.3,100.37L135.3,100.37z"></path>
	<g>
		<defs>
			<rect id="SVGID_18_" x="69.72" y="86.16" width="248.28" height="28.54"></rect>
		</defs>
		<clipPath id="SVGID_2_">
			<use xlink:href="#SVGID_18_" style="overflow:visible;"></use>
		</clipPath>
		<path style="clip-path:url(#SVGID_2_);fill:#EF472E;" d="M216.05,96.74c0,0.66-0.09,1.34,0.04,1.97c0.07,0.34,0.49,0.86,0.78,0.87    c1.41,0.07,2.83,0.1,4.23-0.04c1.51-0.15,2.39-1.25,2.38-2.66c-0.01-1.44-0.85-2.49-2.34-2.73c-0.78-0.13-1.59-0.11-2.39-0.1    C215.67,94.07,216.08,93.63,216.05,96.74L216.05,96.74z M211.86,110.51c0-1.86,0-3.5,0-5.14c0-4.56,0.03-9.12-0.02-13.67    c-0.01-1.04,0.31-1.42,1.36-1.4c2.63,0.06,5.26-0.02,7.89,0.06c3.13,0.1,5.45,1.82,6.3,4.53c0.9,2.87,0,5.51-2.53,7.48    c-0.22,0.17-0.43,0.35-0.72,0.58c1.33,2.4,2.64,4.76,3.95,7.12c-2.33,1.08-4.13,0.55-5.23-1.43c-0.84-1.52-1.66-3.05-2.52-4.56    c-0.42-0.74-3.61-1.11-4.1-0.46c-0.19,0.26-0.19,0.7-0.2,1.07c-0.02,1.55-0.04,3.1,0,4.65c0.03,0.85-0.3,1.2-1.14,1.18    C213.95,110.49,212.97,110.51,211.86,110.51L211.86,110.51z"></path>
		<path style="clip-path:url(#SVGID_2_);fill:#EF472E;" d="M304.94,102.19c0,2.47-0.04,4.72,0.02,6.97    c0.03,0.98-0.31,1.33-1.28,1.33c-3.57-0.02-2.92,0.2-2.94-2.77c-0.04-5.08-0.01-10.16-0.01-15.24c0-2.19,0.01-2.19,2.27-2.19    c0.14,0,0.28,0.01,0.42,0c1.12-0.12,1.61,0.28,1.55,1.5c-0.09,2.15-0.03,4.31-0.03,6.53c2.99,0,5.83,0,8.86,0    c0-2.16,0.07-4.26-0.03-6.35c-0.06-1.29,0.34-1.74,1.65-1.7c3.01,0.08,2.53-0.08,2.54,2.47c0.02,5.41-0.02,10.82,0.03,16.23    c0.01,1.16-0.33,1.56-1.51,1.53c-3.34-0.08-2.62,0.13-2.68-2.59c-0.03-1.55-0.02-3.11,0-4.66c0.01-0.65-0.1-1.08-0.9-1.07    C310.33,102.21,307.75,102.19,304.94,102.19L304.94,102.19z"></path>
	</g>
	<path class="st51" d="M268.7,101.95c-0.86-2.3-1.63-4.35-2.4-6.4c-0.11,0.01-0.22,0.02-0.34,0.03c-0.76,2.08-1.52,4.15-2.34,6.37   C265.4,101.95,266.93,101.95,268.7,101.95L268.7,101.95z M276.26,110.45c-1.42,0-2.63,0.04-3.83-0.03   c-0.28-0.02-0.54-0.39-0.79-0.62c-0.09-0.09-0.11-0.25-0.16-0.39c-0.46-1.18-0.61-2.85-1.47-3.4c-1-0.63-2.62-0.31-3.98-0.32   c-3.85-0.03-3.9-0.03-5.13,3.54c-0.35,1.01-0.88,1.31-1.84,1.25c-0.92-0.05-1.85-0.01-2.98-0.01c0.18-0.64,0.27-1.04,0.41-1.42   c2.3-5.86,4.63-11.71,6.89-17.59c0.35-0.9,0.83-1.21,1.76-1.21c3.26,0,3.26-0.03,4.46,3.03c2.02,5.16,4.05,10.33,6.06,15.49   C275.86,109.24,276.01,109.73,276.26,110.45L276.26,110.45z"></path>
	<path class="st51" d="M281.65,105.37c1.78,0.76,3.02,1.53,4.36,1.77c1.07,0.19,2.35-0.08,3.36-0.53c0.61-0.27,1.21-1.31,1.19-1.99   c-0.02-0.66-0.71-1.58-1.35-1.87c-1.78-0.83-3.72-1.31-5.53-2.08c-2.41-1.03-3.4-2.77-3.24-5.37c0.13-2.12,1.26-3.66,3.11-4.54   c3.29-1.57,6.47-1.18,9.47,0.87c0.79,0.54,0.92,0.99,0.2,1.77c-1.01,1.1-1.83,1.78-3.35,0.64c-1.12-0.84-2.63-0.9-3.88-0.12   c-0.59,0.37-1.22,1.16-1.27,1.8c-0.04,0.56,0.57,1.38,1.12,1.74c0.8,0.53,1.81,0.75,2.73,1.09c0.97,0.35,1.97,0.62,2.92,1.03   c1.99,0.87,3.28,2.28,3.39,4.59c0.12,2.49-0.82,4.4-2.97,5.65c-3.32,1.93-8.65,1.24-11.46-1.42c-0.51-0.48-0.65-0.83-0.12-1.39   C280.86,106.44,281.32,105.78,281.65,105.37L281.65,105.37z"></path>
</g>
</svg>
