<?xml version="1.0" encoding="UTF-8"?>
<!-- Generator: Adobe Illustrator 23.0.1, SVG Export Plug-In . SVG Version: 6.00 Build 0)  -->
<svg xmlns="http://www.w3.org/2000/svg" xmlns:xlink="http://www.w3.org/1999/xlink" id="Logos" x="0px" y="0px" viewBox="0 0 390 200" style="enable-background:new 0 0 390 200;" xml:space="preserve">
<style type="text/css">
	.st0{display:none;}
	.st1{display:inline;fill:#00B45E;}
	.st2{display:inline;fill:#E53312;}
	.st3{display:inline;}
	.st4{fill:#5A5A5A;}
	.st5{fill:url(#SVGID_1_);}
	.st6{fill:#BABCBE;}
	.st7{fill:url(#SVGID_2_);}
	.st8{fill-rule:evenodd;clip-rule:evenodd;}
	.st9{fill:#D41317;}
	.st10{fill:#1D1D1B;}
	.st11{fill:#454651;}
	.st12{display:inline;fill:#454651;}
	.st13{fill:#3E434F;}
	.st14{display:inline;fill:#1D1D1B;}
	.st15{display:inline;fill:#44444E;}
	.st16{display:inline;fill:#44444E;stroke:#44444E;stroke-linecap:round;stroke-linejoin:bevel;stroke-miterlimit:10;}
	.st17{fill:#44444E;stroke:#44444E;stroke-linecap:round;stroke-linejoin:bevel;stroke-miterlimit:10;}
	.st18{fill:#44444E;stroke:#44444E;stroke-width:7;stroke-linecap:square;stroke-linejoin:round;stroke-miterlimit:10;}
	.st19{display:inline;fill:none;stroke:#44444E;stroke-width:7;stroke-linecap:round;stroke-linejoin:bevel;stroke-miterlimit:10;}
	.st20{fill:none;stroke:#44444E;stroke-width:7;stroke-linecap:square;stroke-linejoin:round;stroke-miterlimit:10;}
	.st21{fill:none;stroke:#44444E;stroke-width:7;stroke-linecap:round;stroke-linejoin:bevel;stroke-miterlimit:10;}
	.st22{display:inline;fill:none;stroke:#44444E;stroke-width:7;stroke-linecap:square;stroke-linejoin:bevel;stroke-miterlimit:10;}
	.st23{display:inline;fill:none;stroke:#44444E;stroke-width:7;stroke-linecap:square;stroke-linejoin:round;stroke-miterlimit:10;}
	.st24{display:inline;fill:#367DBF;}
	.st25{display:inline;fill:#367DBF;stroke:#1D1D1B;stroke-width:0.25;stroke-miterlimit:10;}
	.st26{display:inline;fill:#2E4498;}
	.st27{display:inline;fill:#F58428;}
	.st28{fill:#FFFFFF;}
	.st29{fill:#444968;}
	.st30{display:inline;fill:#E4201C;}
	.st31{fill:#0677B7;}
	.st32{fill:#686867;}
	.st33{display:inline;fill:#3F4042;}
	.st34{display:inline;fill:#F6B21F;}
	.st35{fill:#EA5504;}
	.st36{display:inline;fill:#005E3C;}
	.st37{clip-path:url(#SVGID_4_);fill:#32617E;}
	.st38{clip-path:url(#SVGID_4_);fill:#9ABFD1;}
	.st39{clip-path:url(#SVGID_6_);fill:url(#SVGID_7_);}
	.st40{fill:#3E424E;}
	.st41{display:inline;fill:#3E424E;}
	.st42{fill:#E9C118;}
	.st43{fill:#62BB46;}
	.st44{fill:#00B1E4;}
	.st45{clip-path:url(#SVGID_9_);fill:#EE255C;}
	.st46{clip-path:url(#SVGID_9_);fill:#162F55;}
	.st47{fill:#162F55;}
	.st48{clip-path:url(#SVGID_11_);fill:#162F55;}
	.st49{clip-path:url(#SVGID_13_);fill:#0071B9;}
	.st50{clip-path:url(#SVGID_13_);fill:#393A36;}
	.st51{fill:#393A36;}
	.st52{clip-path:url(#SVGID_15_);fill:#005F82;}
	.st53{clip-path:url(#SVGID_15_);fill:#231F20;}
	.st54{clip-path:url(#SVGID_17_);fill:#323E48;}
	.st55{clip-path:url(#SVGID_17_);fill:#71A850;}
	.st56{fill:#EE302A;}
	.st57{clip-path:url(#SVGID_19_);fill:#EE302A;}
	.st58{clip-path:url(#SVGID_21_);fill:#FBFCFD;}
	.st59{fill:#00B5CC;}
	.st60{fill:#C9CCD1;}
	.st61{fill:#00B4CB;}
	.st62{fill:#00B4CC;}
	.st63{clip-path:url(#SVGID_23_);fill:#00B4CB;}
	.st64{clip-path:url(#SVGID_23_);fill:#12678E;}
	.st65{clip-path:url(#SVGID_23_);fill:#0F678E;}
	.st66{clip-path:url(#SVGID_25_);fill:#47494A;}
	.st67{fill:#47494A;}
	.st68{clip-path:url(#SVGID_27_);fill:#47494A;}
	.st69{fill:#FEFEFD;}
	.st70{fill:#7CBF53;}
	.st71{fill:#195A99;}
	.st72{fill:#E86C34;}
	.st73{clip-path:url(#SVGID_29_);fill:#2F3432;}
	.st74{fill:#2F3432;}
	.st75{fill:#8FC84D;}
	.st76{clip-path:url(#SVGID_31_);fill:#F15E3A;}
	.st77{clip-path:url(#SVGID_33_);fill:#3E434F;}
	.st78{clip-path:url(#SVGID_35_);fill:#3E434F;}
	.st79{clip-path:url(#SVGID_37_);fill:#F68B2E;}
	.st80{clip-path:url(#SVGID_37_);fill:#5C5F60;}
	.st81{fill:#5C5F60;}
	.st82{clip-path:url(#SVGID_39_);fill:#5C5F60;}
	.st83{clip-path:url(#SVGID_41_);fill:#EF472E;}
	.st84{fill:#EF472E;}
	.st85{clip-path:url(#SVGID_43_);fill:#EF472E;}
	.st86{clip-path:url(#SVGID_45_);}
	.st87{clip-path:url(#SVGID_47_);fill:#FFFFFF;}
	.st88{clip-path:url(#SVGID_49_);fill:#F16728;}
	.st89{clip-path:url(#SVGID_51_);}
	.st90{clip-path:url(#SVGID_55_);}
	.st91{clip-path:url(#SVGID_57_);}
	.st92{clip-path:url(#SVGID_59_);}
	.st93{clip-path:url(#SVGID_61_);fill:#797882;}
	.st94{clip-path:url(#SVGID_65_);fill:#696973;}
	.st95{clip-path:url(#SVGID_65_);fill:#8A8991;}
	.st96{clip-path:url(#SVGID_65_);fill:#FEFEFB;}
	.st97{clip-path:url(#SVGID_65_);fill:#3E424E;}
	.st98{clip-path:url(#SVGID_65_);fill:#5A5B66;}
	.st99{clip-path:url(#SVGID_65_);fill:#9D9BA3;}
	.st100{clip-path:url(#SVGID_65_);fill:#81818A;}
	.st101{clip-path:url(#SVGID_65_);fill:#C6C5C9;}
	.st102{clip-path:url(#SVGID_65_);fill:none;stroke:#9D9BA3;stroke-width:0.3539;stroke-miterlimit:10;}
	.st103{clip-path:url(#SVGID_69_);fill:#3E424E;}
	.st104{clip-path:url(#SVGID_69_);fill:#C6C5C9;}
	.st105{clip-path:url(#SVGID_69_);fill:#5A5B66;}
	.st106{clip-path:url(#SVGID_69_);fill:#9D9BA3;}
	.st107{clip-path:url(#SVGID_71_);fill:#00579B;}
	.st108{fill:#00579B;}
	.st109{clip-path:url(#SVGID_73_);fill:#00579B;}
	.st110{clip-path:url(#SVGID_75_);fill:#9553A1;}
	.st111{fill:#9553A1;}
	.st112{clip-path:url(#SVGID_77_);fill:#1A3761;}
	.st113{fill:#28B56C;}
	.st114{clip-path:url(#SVGID_79_);fill:#F06E30;}
	.st115{clip-path:url(#SVGID_79_);fill:#FFFFFF;}
	.st116{fill:#F06E30;}
	.st117{clip-path:url(#SVGID_81_);fill:#19AAE2;}
	.st118{clip-path:url(#SVGID_81_);fill:#B2D454;}
	.st119{fill:#231F20;}
	.st120{clip-path:url(#SVGID_83_);fill:#231F20;}
	.st121{clip-path:url(#SVGID_83_);fill:#6BC4E8;}
	.st122{fill:#0093D0;}
	.st123{fill:#14AADB;}
	.st124{fill:#9ECD51;}
	.st125{fill:#00AAE2;}
	.st126{fill:#121617;}
	.st127{clip-path:url(#SVGID_85_);fill:#3C62AE;}
	.st128{fill:#3C62AE;}
	.st129{clip-path:url(#SVGID_87_);}
	.st130{fill:#211261;}
	.st131{fill:#CF3339;}
	.st132{clip-path:url(#SVGID_91_);fill:#5D686E;}
	.st133{fill:#EE2E34;}
	.st134{clip-path:url(#SVGID_94_);}
	.st135{clip-path:url(#SVGID_95_);}
	.st136{clip-path:url(#SVGID_100_);}
	.st137{clip-path:url(#SVGID_101_);}
	.st138{clip-path:url(#SVGID_106_);}
	.st139{clip-path:url(#SVGID_107_);}
	.st140{clip-path:url(#SVGID_112_);}
	.st141{clip-path:url(#SVGID_113_);}
	.st142{clip-path:url(#SVGID_118_);}
	.st143{clip-path:url(#SVGID_119_);}
	.st144{clip-path:url(#SVGID_124_);}
	.st145{clip-path:url(#SVGID_125_);}
	.st146{clip-path:url(#SVGID_130_);}
	.st147{clip-path:url(#SVGID_131_);}
	.st148{clip-path:url(#SVGID_136_);}
	.st149{clip-path:url(#SVGID_137_);}
	.st150{clip-path:url(#SVGID_142_);}
	.st151{clip-path:url(#SVGID_143_);}
	.st152{clip-path:url(#SVGID_148_);}
	.st153{clip-path:url(#SVGID_149_);}
	.st154{clip-path:url(#SVGID_154_);}
	.st155{clip-path:url(#SVGID_155_);}
	.st156{clip-path:url(#SVGID_161_);}
	.st157{clip-path:url(#SVGID_162_);}
	.st158{clip-path:url(#SVGID_163_);}
	.st159{clip-path:url(#SVGID_168_);}
	.st160{clip-path:url(#SVGID_169_);}
	.st161{clip-path:url(#SVGID_174_);}
	.st162{clip-path:url(#SVGID_175_);}
	.st163{clip-path:url(#SVGID_180_);}
	.st164{clip-path:url(#SVGID_181_);}
	.st165{clip-path:url(#SVGID_186_);}
	.st166{clip-path:url(#SVGID_187_);}
	.st167{clip-path:url(#SVGID_192_);}
	.st168{clip-path:url(#SVGID_193_);}
	.st169{clip-path:url(#SVGID_197_);}
	.st170{fill:#72BF44;}
	.st171{clip-path:url(#SVGID_199_);}
	.st172{clip-path:url(#SVGID_203_);}
	.st173{clip-path:url(#SVGID_203_);fill:none;stroke:#18161B;stroke-width:4.557864e-03;}
	.st174{fill:#BCD641;}
	.st175{fill:none;stroke:#18161B;stroke-width:4.557864e-03;}
	.st176{clip-path:url(#SVGID_205_);fill:#1F6388;}
	.st177{fill:#1F6388;}
	.st178{fill:#3AB14C;}
	.st179{clip-path:url(#SVGID_207_);fill:#3AB14C;}
	.st180{clip-path:url(#SVGID_209_);fill:#36393D;}
	.st181{clip-path:url(#SVGID_209_);fill:#EE3C87;}
	.st182{clip-path:url(#SVGID_211_);}
	.st183{clip-path:url(#SVGID_215_);fill:#231F20;}
	.st184{clip-path:url(#SVGID_217_);}
	.st185{fill:#92D5E5;}
	.st186{fill:#2F4499;}
	.st187{fill:#F58529;}
	.st188{clip-path:url(#SVGID_221_);fill:#FFFFFF;}
	.st189{clip-path:url(#SVGID_221_);fill:#F58529;}
	.st190{clip-path:url(#SVGID_221_);fill:#454967;}
	.st191{fill:#454967;}
	.st192{clip-path:url(#SVGID_223_);fill:#3265A8;}
	.st193{fill:#3265A8;}
	.st194{clip-path:url(#SVGID_225_);fill:none;stroke:#121617;stroke-width:0.388;stroke-miterlimit:10;}
	.st195{clip-path:url(#SVGID_227_);fill:none;stroke:#121617;stroke-width:0.388;stroke-miterlimit:10;}
	.st196{clip-path:url(#SVGID_229_);fill:none;stroke:#121617;stroke-width:0.388;stroke-miterlimit:10;}
	.st197{clip-path:url(#SVGID_231_);fill:none;stroke:#121617;stroke-width:0.388;stroke-miterlimit:10;}
	.st198{clip-path:url(#SVGID_233_);fill:none;stroke:#121617;stroke-width:0.388;stroke-miterlimit:10;}
	.st199{fill:#EC1F26;}
	.st200{clip-path:url(#SVGID_235_);fill:none;stroke:#EC1F26;stroke-width:0.388;stroke-miterlimit:10;}
	.st201{fill:none;stroke:#EC1F26;stroke-width:0.388;stroke-miterlimit:10;}
	.st202{clip-path:url(#SVGID_237_);fill:none;stroke:#EC1F26;stroke-width:0.388;stroke-miterlimit:10;}
	.st203{clip-path:url(#SVGID_239_);fill:none;stroke:#EC1F26;stroke-width:0.388;stroke-miterlimit:10;}
	.st204{clip-path:url(#SVGID_241_);fill:none;stroke:#EC1F26;stroke-width:0.388;stroke-miterlimit:10;}
	.st205{clip-path:url(#SVGID_243_);}
	.st206{clip-path:url(#SVGID_247_);}
	.st207{clip-path:url(#SVGID_252_);}
	.st208{clip-path:url(#SVGID_253_);}
	.st209{clip-path:url(#SVGID_257_);}
	.st210{clip-path:url(#SVGID_261_);}
	.st211{fill:#CE2D34;}
	.st212{clip-path:url(#SVGID_265_);fill:#CE2D34;}
	.st213{fill-rule:evenodd;clip-rule:evenodd;fill:#40C0F0;}
	.st214{clip-path:url(#SVGID_267_);fill-rule:evenodd;clip-rule:evenodd;fill:#40C0F0;}
	.st215{fill-rule:evenodd;clip-rule:evenodd;fill:#989CA0;}
	.st216{fill:#989CA0;}
	.st217{clip-path:url(#SVGID_269_);fill:#A4CE43;}
	.st218{fill:#023C2C;}
	.st219{clip-path:url(#SVGID_271_);fill:#231F20;}
	.st220{clip-path:url(#SVGID_273_);fill:#EC1F26;}
	.st221{clip-path:url(#SVGID_273_);fill:#FCB432;}
	.st222{clip-path:url(#SVGID_275_);fill:#231F20;}
	.st223{clip-path:url(#SVGID_277_);fill:#231F20;}
	.st224{fill:#FAEE4F;}
	.st225{fill:none;stroke:#EE322E;stroke-width:0.124;stroke-miterlimit:10;}
	.st226{clip-path:url(#SVGID_279_);fill:#408BCA;}
	.st227{fill:none;stroke:#408BCA;stroke-width:0.062;stroke-miterlimit:10;}
	.st228{fill:#408BCA;}
	.st229{fill:#EE322E;}
</style>
<g>
	<g>
		<defs>
			<rect id="SVGID_270_" x="145" y="89" width="101" height="35.37"></rect>
		</defs>
		<clipPath id="SVGID_1_">
			<use xlink:href="#SVGID_270_" style="overflow:visible;"></use>
		</clipPath>
		<path style="clip-path:url(#SVGID_1_);fill:#231F20;" d="M238.32,123.27c0-4.55,0-9.09,0-13.64c0-0.62,0.04-1.24,0.15-1.85    c0.16-0.93,0.49-1.8,1.03-2.57c1.03-1.48,2.48-2.21,4.27-2.28c0.63-0.02,1.27,0,1.9-0.01c0.1,0,0.2-0.02,0.31-0.03    c0.01-0.08,0.03-0.14,0.03-0.21c0-1.42,0-2.84,0-4.26c0-0.06-0.02-0.12-0.03-0.2c-0.12-0.01-0.22-0.01-0.32-0.01    c-0.36,0-0.72,0-1.08,0c-0.58-0.01-1.16,0.04-1.73,0.15c-1.36,0.26-2.54,0.85-3.52,1.83c-0.32,0.32-0.59,0.68-0.85,1.05    c-0.03,0.05-0.06,0.12-0.17,0.07c0-0.31,0-0.63,0-0.95c0-0.31,0.01-0.62,0-0.93c-0.01-0.32,0.04-0.64-0.03-0.95    c-0.04-0.02-0.06-0.03-0.09-0.04c-0.09-0.01-0.18-0.01-0.27-0.01c-1.48,0-2.97,0.01-4.45,0.01c-0.01,0-0.02,0.01-0.03,0.01    c-0.01,0.01-0.02,0.02-0.05,0.04c-0.01,0.04-0.02,0.11-0.02,0.17c0,8.32,0,16.63,0,24.95c0,0.04,0.02,0.07,0.04,0.12    c0.05,0.01,0.1,0.03,0.14,0.03c1.57,0,3.15,0,4.75,0C238.35,123.58,238.32,123.43,238.32,123.27L238.32,123.27z M210.52,108.76    c-0.06,0-0.12-0.01-0.2-0.02c0.01-0.09,0.01-0.17,0.03-0.24c0.47-1.74,1.33-3.24,2.73-4.4c1.07-0.88,2.27-1.46,3.65-1.67    c1.52-0.24,2.99-0.06,4.38,0.59c1.72,0.81,2.98,2.1,3.8,3.82c0.27,0.56,0.46,1.15,0.61,1.75c0.01,0.04,0,0.08,0,0.17    C220.5,108.76,215.51,108.76,210.52,108.76L210.52,108.76z M230.61,112.44c0-0.46,0.01-0.93,0-1.39    c-0.01-0.68-0.04-1.37-0.14-2.05c-0.17-1.19-0.47-2.35-0.94-3.46c-0.83-2.01-2.1-3.7-3.81-5.04c-1.43-1.13-3.07-1.84-4.84-2.26    c-0.91-0.22-1.84-0.3-2.77-0.3c-1.23,0-2.44,0.15-3.63,0.5c-1.7,0.51-3.25,1.3-4.62,2.44c-1.64,1.37-2.86,3.04-3.69,5    c-0.58,1.35-0.91,2.77-1.01,4.23c-0.08,1.19-0.02,2.37,0.2,3.55c0.44,2.35,1.44,4.43,3,6.24c0.85,0.98,1.85,1.8,2.96,2.47    c2.15,1.3,4.5,1.9,7,1.94c1.01,0.02,2.01-0.08,3-0.28c1.74-0.35,3.35-1.01,4.81-2.03c1.17-0.82,2.2-1.8,3.06-2.94    c0.04-0.05,0.06-0.11,0.09-0.15c-0.34-0.32-3.28-2.51-3.59-2.67c-0.04,0.04-0.09,0.09-0.13,0.14c-0.26,0.3-0.52,0.61-0.79,0.9    c-1.3,1.41-2.93,2.22-4.81,2.54c-1.18,0.2-2.36,0.17-3.53-0.14c-1.61-0.43-3-1.22-4.12-2.47c-0.95-1.06-1.6-2.27-1.97-3.64    c-0.07-0.24-0.14-0.49-0.15-0.78c0.44-0.02,0.86-0.01,1.29-0.01c0.43,0,0.85,0,1.28,0c0.41,0,0.83,0,1.24,0c0.43,0,0.85,0,1.28,0    c0.43,0,0.85,0,1.28,0c0.43,0,0.85,0,1.28,0c0.43,0,0.85,0,1.28,0c0.41,0,0.83,0,1.24,0c0.43,0,0.85,0,1.28,0s0.85,0,1.28,0    c0.43,0,0.85,0,1.28,0c0.43,0,0.85,0,1.28,0c0.43,0,0.85,0,1.28,0c0.41,0,0.83,0,1.24,0c0.43,0,0.85,0,1.28,0    c0.42,0,0.85,0.01,1.29-0.01C230.59,112.64,230.61,112.54,230.61,112.44L230.61,112.44z M192.71,102.96    c2.36,0.97,4.03,2.64,4.96,5.04c0.42,1.1,0.62,2.24,0.57,3.41c-0.08,2.07-0.76,3.91-2.11,5.49c-1.22,1.43-2.75,2.34-4.58,2.8    c-1.11,0.28-2.23,0.31-3.34,0.11c-1.66-0.3-3.15-0.99-4.39-2.15c-1.32-1.23-2.2-2.73-2.59-4.49c-0.47-2.1-0.24-4.14,0.74-6.06    c0.88-1.72,2.2-3,3.94-3.86c1.18-0.58,2.43-0.85,3.74-0.86C190.71,102.38,191.74,102.56,192.71,102.96L192.71,102.96z     M181.4,120.97c0.57,0.53,1.17,1.01,1.83,1.43c1.72,1.1,3.6,1.73,5.62,1.91c1.17,0.1,2.35,0.06,3.51-0.15    c1.93-0.36,3.71-1.07,5.31-2.23c1.74-1.25,3.11-2.82,4.08-4.74c1.25-2.48,1.68-5.1,1.32-7.85c-0.19-1.42-0.59-2.77-1.22-4.06    c-0.92-1.9-2.24-3.5-3.93-4.77c-2.04-1.53-4.36-2.39-6.9-2.59c-1.58-0.12-3.14,0.01-4.66,0.51c-0.75,0.25-1.48,0.53-2.18,0.9    c-1,0.52-1.91,1.18-2.73,1.96c-0.09,0.09-0.19,0.16-0.27,0.24c-0.04-0.02-0.06-0.03-0.06-0.03c-0.01-0.14-0.02-0.28-0.02-0.42    c0-3.82,0-7.64,0-11.47c0-0.12,0.01-0.23,0-0.35c0-0.07-0.03-0.14-0.04-0.21c-0.31-0.04-3.93-0.07-4.74-0.03    c-0.06,0-0.12,0.02-0.19,0.03c-0.05,0.18-0.03,0.35-0.03,0.51c0,11.22,0,22.44,0,33.67c0,0.1,0,0.21,0,0.31    c0,0.07,0.03,0.14,0.04,0.22c0.07,0.01,0.12,0.02,0.17,0.02c1.51,0,3.02,0,4.53,0c0.06,0,0.12-0.02,0.2-0.04    c0.01-0.5,0-0.99,0-1.48c0-0.5,0-1,0-1.6C181.22,120.8,181.31,120.88,181.4,120.97L181.4,120.97z M172.29,123.73    c-0.34,0.06-4.65,0.07-5.08,0.02c-0.09-0.1-0.06-0.24-0.06-0.36c0-0.8,0-1.6,0-2.4c0-0.1,0.02-0.2-0.05-0.33    c-0.11,0.1-0.21,0.18-0.3,0.27c-0.86,0.81-1.79,1.51-2.85,2.05c-1.18,0.6-2.43,1-3.74,1.22c-1.1,0.18-2.21,0.21-3.32,0.13    c-2.16-0.17-4.18-0.78-6.01-1.95c-1.98-1.27-3.47-2.98-4.49-5.11c-0.59-1.25-0.98-2.55-1.2-3.91c-0.15-0.89-0.19-1.8-0.19-2.7    c0-6.35,0-12.71,0-19.06c0-0.71,0-1.42,0-2.13c0-0.13,0-0.26,0.01-0.4c0.11-0.02,0.19-0.04,0.28-0.04c1.54,0,3.07,0,4.61,0    c0.09,0,0.17,0.02,0.27,0.03c0.01,0.08,0.02,0.14,0.02,0.2c0,0.13,0,0.26,0,0.39c0,6.92,0,13.84,0,20.76c0,1.05,0.11,2.09,0.4,3.1    c0.42,1.52,1.17,2.86,2.31,3.96c0.9,0.87,1.96,1.47,3.15,1.83c1.12,0.33,2.27,0.45,3.44,0.33c1.68-0.17,3.18-0.76,4.47-1.85    c1.05-0.89,1.83-1.99,2.35-3.27c0.38-0.94,0.63-1.91,0.7-2.92c0.04-0.48,0.06-0.95,0.06-1.43c0-6.86,0-13.71,0-20.57    c0-0.17,0-0.33,0-0.47c0.1-0.13,0.21-0.1,0.31-0.1c0.77,0,1.55,0,2.32,0c0.71,0,1.42,0,2.13,0c0.13,0,0.25,0.01,0.4,0.02    c0.01,0.09,0.03,0.17,0.03,0.24c0,0.1,0,0.21,0,0.31c0,11.21,0,22.42,0,33.62C172.29,123.37,172.29,123.54,172.29,123.73    L172.29,123.73z"></path>
	</g>
</g>
</svg>
