<?xml version="1.0" encoding="UTF-8"?>
<!-- Generator: Adobe Illustrator 23.0.0, SVG Export Plug-In . SVG Version: 6.00 Build 0)  -->
<svg xmlns="http://www.w3.org/2000/svg" xmlns:xlink="http://www.w3.org/1999/xlink" id="Logos" x="0px" y="0px" viewBox="0 0 390 200" style="enable-background:new 0 0 390 200;" xml:space="preserve">
<style type="text/css">
	.st0{display:none;}
	.st1{display:inline;fill:#00B45E;}
	.st2{display:inline;fill:#E53312;}
	.st3{display:inline;}
	.st4{fill:#5A5A5A;}
	.st5{fill:url(#SVGID_1_);}
	.st6{fill:#BABCBE;}
	.st7{fill:url(#SVGID_2_);}
	.st8{fill-rule:evenodd;clip-rule:evenodd;}
	.st9{fill:#D41317;}
	.st10{fill:#1D1D1B;}
	.st11{fill:#454651;}
	.st12{display:inline;fill:#454651;}
	.st13{fill:#3E434F;}
	.st14{display:inline;fill:#1D1D1B;}
	.st15{display:inline;fill:#44444E;}
	.st16{display:inline;fill:#44444E;stroke:#44444E;stroke-linecap:round;stroke-linejoin:bevel;stroke-miterlimit:10;}
	.st17{fill:#44444E;stroke:#44444E;stroke-linecap:round;stroke-linejoin:bevel;stroke-miterlimit:10;}
	.st18{fill:#44444E;stroke:#44444E;stroke-width:7;stroke-linecap:square;stroke-linejoin:round;stroke-miterlimit:10;}
	.st19{display:inline;fill:none;stroke:#44444E;stroke-width:7;stroke-linecap:round;stroke-linejoin:bevel;stroke-miterlimit:10;}
	.st20{fill:none;stroke:#44444E;stroke-width:7;stroke-linecap:square;stroke-linejoin:round;stroke-miterlimit:10;}
	.st21{fill:none;stroke:#44444E;stroke-width:7;stroke-linecap:round;stroke-linejoin:bevel;stroke-miterlimit:10;}
	.st22{display:inline;fill:none;stroke:#44444E;stroke-width:7;stroke-linecap:square;stroke-linejoin:bevel;stroke-miterlimit:10;}
	.st23{display:inline;fill:none;stroke:#44444E;stroke-width:7;stroke-linecap:square;stroke-linejoin:round;stroke-miterlimit:10;}
	.st24{display:inline;fill:#367DBF;}
	.st25{display:inline;fill:#367DBF;stroke:#1D1D1B;stroke-width:0.25;stroke-miterlimit:10;}
	.st26{display:inline;fill:#2E4498;}
	.st27{display:inline;fill:#F58428;}
	.st28{fill:#FFFFFF;}
	.st29{fill:#444968;}
	.st30{display:inline;fill:#E4201C;}
	.st31{fill:#0677B7;}
	.st32{fill:#686867;}
	.st33{display:inline;fill:#3F4042;}
	.st34{display:inline;fill:#F6B21F;}
	.st35{fill:#EA5504;}
	.st36{display:inline;fill:#005E3C;}
	.st37{fill:#4BAD4C;}
</style>
<g id="Grab_Final" class="st0">
	<path class="st1" d="M228.79,91.86V78h2.84v11.91C230.85,90.31,229.78,91.05,228.79,91.86z M223.85,96.03   c0.87-1.05,1.77-2.1,2.84-2.99V78h-2.84V96.03z M190.93,107.05c0,3.69,1.46,7.21,4.15,9.9c2.67,2.67,6.19,4.15,9.9,4.15   c1.57,0,3.19-0.33,4.33-0.9v-2.84c-1.33,0.57-2.95,0.9-4.33,0.9c-6.08,0-11.19-5.11-11.19-11.19v-2.56   c0-6.08,5.14-11.19,11.19-11.19c3.02,0,5.84,1.16,7.93,3.26s3.26,4.92,3.26,7.93v16.61h2.84v-17.16c-0.17-3.63-1.73-7.02-4.35-9.55   c-2.64-2.54-6.08-3.93-9.68-3.93c-3.69,0-7.21,1.46-9.9,4.15c-2.67,2.67-4.15,6.19-4.15,9.9V107.05L190.93,107.05z M233.47,100.23   c1.29-1.29,2.95-2.01,4.59-2.01c3.52,0,6.25,2.75,6.25,6.25v2.56c0,3.52-2.75,6.25-6.25,6.25c-1.7,0-3.34-0.94-4.63-2.62   c-1.14-1.49-1.88-3.52-1.99-5.33l-2.3,2.84c0.46,2.14,1.57,4.22,3.17,5.66c1.64,1.49,3.69,2.32,5.75,2.32   c5.03,0,9.11-4.09,9.11-9.09v-2.56c0-2.38-0.96-4.66-2.71-6.38c-1.75-1.75-4.02-2.71-6.4-2.71c-1.51,0-3.89,0.55-6.73,3.1   c-0.77,0.77-2.56,2.56-3.65,3.83c-1.84,2.01-4.48,5.01-6.75,8.04v4.44c2.51-3.23,3.96-5.05,6.34-7.78   C229.36,104.54,231.98,101.54,233.47,100.23L233.47,100.23z M166.32,94.87v-3.37c-2.58-1.38-5.38-1.99-9.09-1.99   c-3.8,0-7.41,1.4-10.14,3.91c-2.75,2.54-4.26,5.86-4.26,9.4v0.92c0,7.34,5.88,13.31,13.14,13.31c5.88,0,8.31-1.92,8.92-2.54v-8.55   h-9.62v2.84h6.95v4.28h-0.02c-0.9,0.35-2.75,1.09-6.23,1.09c-2.75,0-5.36-1.07-7.28-3.04c-1.95-1.97-2.99-4.59-2.99-7.43v-0.92   c0-5.66,5.29-10.47,11.56-10.47C161.56,92.36,164.14,93.08,166.32,94.87L166.32,94.87z M187.04,98.22c1.07,0,1.99,0.17,2.73,0.52   c0.35-0.87,0.72-1.62,1.25-2.49c-0.77-0.55-2.62-0.9-3.98-0.9c-5.18,0-9.09,3.91-9.09,9.11v16.61h2.84v-16.61   C180.79,100.8,183.35,98.22,187.04,98.22L187.04,98.22z M137.89,102.83v0.92c0,4.94,1.88,9.53,5.27,12.96   c3.39,3.41,7.93,5.29,12.79,5.29c3.91,0,7.37-0.87,10.3-2.62c2.4-1.44,3.48-2.89,3.56-3.02v-15.3h-14.54v2.84h11.69v11.61   c-1.38,1.38-4.63,3.67-10.99,3.67c-4.15,0-8-1.6-10.84-4.48c-2.82-2.86-4.37-6.75-4.37-10.93v-0.92c0-3.96,1.77-7.89,4.87-10.8   c3.17-2.97,7.3-4.61,11.63-4.61c4.04,0,6.84,0.61,9.09,1.99v-3.21c-2.36-1.01-5.18-1.44-9.11-1.44   C146.74,84.78,137.89,93.04,137.89,102.83z M214.06,121.08v-16.61c0-5.11-4-9.11-9.11-9.11c-2.38,0-4.66,0.96-6.4,2.71   c-1.75,1.75-2.71,4.02-2.71,6.38v2.56c0,4.94,4.17,9.09,9.09,9.09c1.36,0,3.19-0.33,4.33-1.27v-2.95c-1.11,0.9-2.71,1.42-4.33,1.42   c-3.5,0-6.25-2.75-6.25-6.25v-2.56c0-3.52,2.75-6.25,6.25-6.25c3.52,0,6.25,2.75,6.25,6.25v16.61h2.89V121.08z M187.04,93.28   c1.92,0,3.61,0.42,5.11,1.27c0.7-0.9,1.42-1.6,1.97-2.14c-1.6-1.22-4.31-1.97-7.06-1.97c-3.96,0-7.54,1.42-10.1,4.02   c-2.54,2.56-3.93,6.12-3.93,10.03v16.61h2.84v-16.61C175.85,97.89,180.44,93.28,187.04,93.28L187.04,93.28z M247.96,94.59   c-2.67-2.67-6.19-4.15-9.9-4.15c-2.71,0-5.42,1.01-6.93,2.01c-3.1,2.05-5.64,4.31-10.23,10.23v4.26   c3.89-5.07,7.56-9.05,10.36-11.26c1.84-1.46,4.44-2.38,6.8-2.38c6.08,0,11.19,5.14,11.19,11.19v2.56c0,2.99-1.18,5.81-3.32,7.93   c-2.12,2.1-4.92,3.26-7.87,3.26c-4.98,0-9.38-3.43-10.56-8.09l-2.01,2.43c1.46,4.9,6.75,8.5,12.57,8.5c3.72,0,7.21-1.49,9.9-4.15   c2.67-2.69,4.15-6.19,4.15-9.9v-2.56C252.11,100.78,250.63,97.26,247.96,94.59L247.96,94.59z"></path>
</g>
<g id="Oyo_Final" class="st0">
	<path class="st2" d="M189.85,83.31c0.35,0.99,0.91,1.87,1.38,2.8c1.13,2.24,2.25,4.48,3.38,6.72c0.09,0.18,0.11,0.48,0.33,0.49   c0.27,0.01,0.28-0.32,0.38-0.52c0.87-1.72,1.67-3.48,2.59-5.17c0.73-1.33,1.41-2.69,2.11-4.04c0.12-0.24,0.27-0.35,0.54-0.35   c3.89,0.01,7.77,0.02,11.66,0.03c0.02,0,0.04,0.02,0.07,0.03c0,0.29-0.19,0.52-0.31,0.76c-3.56,7.07-7.13,14.13-10.7,21.19   c-0.15,0.3-0.26,0.58-0.26,0.93c0.01,3.39,0.01,6.78,0.01,10.18c-0.18,0.16-0.41,0.09-0.61,0.09c-3.6,0-7.2-0.01-10.81,0.02   c-0.6,0.01-0.68-0.21-0.68-0.73c0.02-3.08,0.01-6.17,0.01-9.25c0-0.26,0.05-0.52-0.05-0.77c-1.41-2.79-2.82-5.57-4.23-8.36   c-2.34-4.64-4.67-9.29-7.01-13.94c0.06-0.27,0.29-0.2,0.46-0.2c3.8,0,7.61,0,11.41,0C189.64,83.23,189.75,83.22,189.85,83.31z"></path>
	<path class="st2" d="M163.01,83.01c-9.38-0.07-17.1,7.55-17,16.91c-0.23,9.21,7.62,17.08,16.87,17.06   c9.25-0.02,17.04-7.58,17.06-16.92C179.97,90.67,172.39,83.08,163.01,83.01z M162.95,106.04c-3.3-0.02-6.02-2.76-6.03-6.05   c0-3.32,2.77-6.08,6.09-6.06c3.3,0.02,6.03,2.76,6.03,6.05C169.04,103.3,166.27,106.06,162.95,106.04z"></path>
	<path class="st2" d="M227.05,83.01c-9.37-0.02-16.99,7.6-17,16.97c0,9.34,7.59,16.96,16.92,16.98c9.34,0.02,17.02-7.63,17.02-16.97   C244,90.68,236.36,83.03,227.05,83.01z M233.05,100.16c-0.17,3.41-2.95,6.03-6.25,5.87c-3.42-0.16-6.01-3.02-5.82-6.44   c0.17-3.2,3.05-5.81,6.25-5.66C230.57,94.09,233.21,96.91,233.05,100.16z"></path>
</g>
<g id="Brain_Corp_Final" class="st0">
	<g id="Layer_2_1_" class="st3">
		<g id="Layer_1-2">
			<path class="st4" d="M171.76,85.95l-0.26,3.69c-0.36-0.03-0.71-0.04-1.07-0.04c-4.64,0-6.93,3.24-6.93,8.26v6.7h-3.83V85.83h3.83     v4.1c1.47-2.43,3.8-4.12,6.97-4.12C170.91,85.79,171.34,85.84,171.76,85.95z"></path>
			<path class="st4" d="M191.13,104.28h-3.83v-2.34c-1.58,1.66-3.87,2.62-6.63,2.62c-4.79,0-9.07-3.87-9.07-9.66     c0-5.75,4.28-9.66,9.07-9.66c2.76,0,5.05,0.95,6.63,2.62v-2.24h3.83V104.28z M187.3,94.9c0-3.83-2.99-6.27-6.01-6.27     c-3.35,0-5.97,2.43-5.97,6.27c0,3.87,2.62,6.27,5.97,6.27C184.31,101.16,187.3,98.77,187.3,94.9z"></path>
			<path class="st4" d="M198.84,80.53c0,1.36-1.03,2.35-2.43,2.35c-1.44,0-2.47-1-2.47-2.36c0-1.35,1.1-2.45,2.45-2.45     S198.85,79.17,198.84,80.53L198.84,80.53z M194.49,104.55V85.83h3.83v18.72H194.49z"></path>
			<path class="st4" d="M219.24,93.25v11.3h-3.87V94.02c0-2.99-1.73-4.98-4.35-4.98c-3.28,0-5.46,2.22-5.46,6.81v8.69h-3.83V85.83     h3.83v2.44c1.47-1.77,3.61-2.76,6.34-2.76C216.29,85.51,219.24,88.68,219.24,93.25z"></path>
			<path class="st4" d="M157.64,94.9c0,5.79-4.28,9.66-9.07,9.66c-2.76,0-5.05-0.96-6.63-2.62v2.1h-3.83V77.5h3.83v10.36     c1.58-1.66,3.87-2.62,6.63-2.62C153.36,85.24,157.64,89.15,157.64,94.9z M153.92,94.9c0-3.83-2.62-6.27-5.97-6.27     c-3.03,0-6.01,2.43-6.01,6.27c0,3.87,2.99,6.27,6.01,6.27C151.3,101.16,153.92,98.77,153.92,94.9z"></path>
			
				<linearGradient id="SVGID_1_" gradientUnits="userSpaceOnUse" x1="172.9254" y1="93.1886" x2="198.9922" y2="93.1886" gradientTransform="matrix(1 0 0 -1 0 202)">
				<stop offset="0" style="stop-color:#F07523"></stop>
				<stop offset="1" style="stop-color:#F79821"></stop>
			</linearGradient>
			<path class="st5" d="M172.93,106.89h26.07v3.83h-26.07V106.89z"></path>
			<path class="st6" d="M230.07,113.21c0,3.36-2.58,5.77-5.81,5.77c-3.27,0-5.84-2.41-5.84-5.77c0-3.36,2.56-5.72,5.84-5.72     C227.49,107.49,230.07,109.85,230.07,113.21z M228.4,113.21c0-2.52-1.89-4.23-4.14-4.23s-4.19,1.71-4.19,4.23     c0,2.52,1.92,4.28,4.19,4.28C226.53,117.49,228.4,115.75,228.4,113.21z"></path>
			<path class="st6" d="M238.98,107.71v1.63c-0.2-0.02-0.58-0.02-0.78-0.02c-2.92,0-4.41,2.2-4.41,5.17v4.23h-1.72v-10.98h1.72v2.69     c0.89-1.62,2.38-2.8,4.41-2.8C238.46,107.61,238.73,107.64,238.98,107.71z"></path>
			<path class="st6" d="M251.9,113.23c0,3.47-2.56,5.77-5.48,5.77c-1.83,0-3.38-0.74-4.37-2.03v5.53h-1.69v-14.77h1.69v1.76     c0.98-1.29,2.54-2.03,4.37-2.03C249.34,107.46,251.9,109.76,251.9,113.23z M250.25,113.23c0-2.63-1.83-4.28-4.1-4.28     c-2.07,0-4.1,1.65-4.1,4.28c0,2.6,2.03,4.25,4.1,4.25C248.42,117.49,250.25,115.85,250.25,113.23z"></path>
			<path class="st6" d="M215.44,115.36c-0.63,1.37-1.98,2.06-3.46,2.06c-2.25,0-4.08-1.63-4.08-4.19c0-2.52,1.83-4.21,4.08-4.21     c1.45,0,2.77,0.71,3.39,2.07h1.81c-0.68-2.23-2.81-3.63-5.2-3.63c-3.09,0-5.72,2.32-5.72,5.77c0,3.5,2.63,5.77,5.72,5.77     c2.43,0,4.6-1.38,5.19-3.63l-0.04-0.01H215.44z"></path>
			
				<linearGradient id="SVGID_2_" gradientUnits="userSpaceOnUse" x1="221.9044" y1="109.2902" x2="251.8878" y2="109.2902" gradientTransform="matrix(1 0 0 -1 0 202)">
				<stop offset="0" style="stop-color:#F07523"></stop>
				<stop offset="1" style="stop-color:#F79821"></stop>
			</linearGradient>
			<path class="st7" d="M240.52,99.87c0,0,0.05-0.09,0.14-0.26c0.13-0.26,0.24-0.52,0.34-0.79c0.15-0.44,0.24-0.89,0.26-1.35     c0.01-0.29,0-0.58-0.04-0.86c-0.05-0.32-0.13-0.63-0.25-0.93c-0.28-0.69-0.74-1.28-1.34-1.72c-1.08-0.79-2.47-1.04-3.76-0.67     c-0.46,0.13-0.9,0.34-1.28,0.63c-0.19,0.15-0.36,0.32-0.52,0.5c-0.15,0.18-0.28,0.38-0.38,0.6c-0.2,0.42-0.27,0.9-0.19,1.37     c0.16,0.95,0.98,1.73,2.06,2.13c0.56,0.21,1.15,0.34,1.74,0.41c0.66,0.07,1.31,0.1,1.97,0.09c1.38-0.03,2.84-0.02,4.19-0.21     l0.26-0.04l0.24-0.04c0.19-0.03,0.33-0.07,0.5-0.11l0.24-0.06l0.26-0.07c0.16-0.05,0.32-0.1,0.48-0.16s0.32-0.12,0.48-0.18     l0.22-0.1l0.23-0.11c0.15-0.07,0.32-0.17,0.43-0.24c0.11-0.07,0.3-0.19,0.42-0.28c0.27-0.19,0.52-0.4,0.75-0.63     c0.24-0.23,0.45-0.49,0.64-0.76c0.38-0.54,0.67-1.14,0.85-1.78c0.09-0.32,0.16-0.65,0.2-0.98l0.02-0.25l0.01-0.24     c0-0.11,0-0.17,0-0.26s0-0.17,0-0.26c-0.04-0.69-0.17-1.37-0.4-2.02c-0.95-2.68-3.35-4.81-6.14-5.94     c-1.4-0.58-2.88-0.94-4.39-1.06c-0.75-0.06-1.5-0.07-2.26-0.02c-0.36,0.02-0.76,0.06-1.12,0.1c-0.36,0.05-0.76,0.11-1.11,0.19     c-0.73,0.15-1.45,0.35-2.16,0.61c-0.34,0.12-0.7,0.26-1.03,0.41c-0.34,0.15-0.68,0.32-0.99,0.48c-0.64,0.34-1.26,0.74-1.84,1.18     c-0.27,0.21-0.57,0.45-0.83,0.68c-0.13,0.12-0.27,0.24-0.39,0.37l-0.2,0.19l-0.19,0.19c-0.95,1.01-1.72,2.18-2.25,3.46     c-0.25,0.62-0.45,1.26-0.57,1.91c-0.12,0.64-0.18,1.28-0.17,1.93c0.01,0.63,0.09,1.26,0.24,1.88c0.15,0.6,0.35,1.18,0.61,1.74     c0.5,1.07,1.22,2.03,2.1,2.81c0.42,0.37,0.87,0.71,1.35,1c0.46,0.28,0.95,0.52,1.45,0.72c0.93,0.37,1.92,0.59,2.93,0.65     c1.67,0.1,3.33-0.23,4.83-0.97c0.98-0.49,1.86-1.14,2.61-1.94c0.26-0.28,0.45-0.51,0.57-0.66L240.52,99.87l-0.16,0.26     c-0.15,0.25-0.32,0.49-0.49,0.73c-0.29,0.38-0.61,0.73-0.95,1.06c-0.47,0.45-0.98,0.85-1.54,1.19c-0.69,0.43-1.44,0.77-2.22,1.01     c-0.92,0.29-1.88,0.44-2.85,0.45c-1.11,0.01-2.22-0.15-3.29-0.49c-2.52-0.81-4.64-2.56-5.9-4.88c-0.35-0.64-0.62-1.32-0.82-2.02     c-0.2-0.72-0.33-1.47-0.38-2.22c-0.05-0.78-0.01-1.55,0.1-2.32c0.12-0.78,0.32-1.55,0.6-2.3c0.57-1.53,1.43-2.93,2.53-4.14     l0.21-0.23l0.21-0.23c0.14-0.15,0.29-0.29,0.44-0.43c0.32-0.3,0.61-0.55,0.95-0.82c0.65-0.52,1.35-0.99,2.08-1.41     c0.38-0.22,0.73-0.4,1.13-0.59c0.4-0.19,0.76-0.34,1.17-0.5c0.8-0.3,1.62-0.54,2.45-0.72c3.42-0.76,7-0.46,10.25,0.85     c0.81,0.34,1.6,0.75,2.34,1.22l0.28,0.19l0.27,0.19c0.2,0.14,0.35,0.25,0.54,0.4c0.33,0.26,0.7,0.57,1,0.87     c0.32,0.31,0.63,0.63,0.92,0.98c0.29,0.35,0.56,0.71,0.81,1.09c0.25,0.37,0.47,0.76,0.67,1.16c0.2,0.41,0.37,0.83,0.52,1.26     c0.3,0.86,0.46,1.77,0.49,2.68c0,0.11,0,0.25,0,0.34s0,0.25-0.01,0.34c0,0.12-0.02,0.24-0.03,0.35c0,0.09-0.02,0.23-0.04,0.34     c-0.06,0.45-0.16,0.89-0.29,1.32c-0.4,1.29-1.13,2.46-2.12,3.4c-0.32,0.3-0.66,0.58-1.03,0.83c-0.71,0.48-1.48,0.86-2.3,1.12     c-0.77,0.25-1.57,0.41-2.38,0.49c-1.58,0.16-3.01,0.07-4.44,0.05c-0.73-0.02-1.45-0.08-2.17-0.19c-0.74-0.11-1.45-0.31-2.14-0.61     c-0.17-0.08-0.32-0.16-0.5-0.25c-0.06-0.03-0.18-0.1-0.23-0.14l-0.13-0.08l-0.11-0.08c-0.31-0.22-0.6-0.47-0.85-0.75l-0.1-0.11     l-0.08-0.1c-0.06-0.08-0.12-0.16-0.17-0.24l-0.08-0.13l-0.07-0.11c-0.05-0.08-0.09-0.17-0.13-0.26c-0.08-0.17-0.15-0.36-0.2-0.54     l-0.04-0.14l-0.03-0.13c-0.02-0.09-0.03-0.19-0.05-0.28c-0.09-0.73,0.06-1.48,0.41-2.12c0.16-0.3,0.37-0.58,0.6-0.83     c0.22-0.24,0.47-0.45,0.75-0.63c0.99-0.64,2.18-0.91,3.36-0.77c1.01,0.11,1.96,0.52,2.73,1.19c0.64,0.56,1.11,1.28,1.36,2.09     c0.1,0.34,0.16,0.69,0.18,1.04c0.01,0.31,0,0.62-0.05,0.93c-0.07,0.47-0.21,0.94-0.42,1.37c-0.12,0.27-0.27,0.52-0.43,0.77     C240.58,99.78,240.52,99.87,240.52,99.87z"></path>
		</g>
	</g>
	<g class="st3">
		<path class="st4" d="M248.97,82.24c0,0.32-0.25,0.58-0.58,0.58c-0.33,0-0.59-0.25-0.59-0.58c0-0.32,0.26-0.57,0.59-0.57    C248.72,81.67,248.97,81.92,248.97,82.24z M247.95,82.24c0,0.25,0.19,0.46,0.45,0.46c0.25,0,0.43-0.2,0.43-0.45    c0-0.25-0.18-0.46-0.44-0.46S247.95,81.99,247.95,82.24z M248.3,82.54h-0.13v-0.57c0.05-0.01,0.12-0.02,0.22-0.02    c0.11,0,0.16,0.02,0.2,0.04c0.03,0.02,0.06,0.07,0.06,0.13c0,0.06-0.05,0.11-0.12,0.13v0.01c0.05,0.02,0.09,0.06,0.1,0.14    c0.02,0.09,0.03,0.12,0.04,0.14h-0.14c-0.02-0.02-0.03-0.07-0.04-0.14c-0.01-0.06-0.05-0.09-0.12-0.09h-0.06V82.54z M248.3,82.21    h0.06c0.07,0,0.13-0.02,0.13-0.08c0-0.05-0.04-0.09-0.12-0.09c-0.04,0-0.06,0-0.07,0.01V82.21z"></path>
	</g>
</g>
<g id="Full_Truck_Alliance_Final" class="st0">
	<g class="st3">
		<g>
			<path class="st8" d="M202.16,90.51l2.4,2.4c0,0,0,0,0,0l-2.4,2.4c0,0,0,0,0,0l-2.4-2.4c0,0,0,0,0,0L202.16,90.51     C202.16,90.51,202.16,90.51,202.16,90.51L202.16,90.51z M225.41,103.96c0,0.82-0.35,1.52-1.26,1.52h-5.43l1.52-2.69h2.48l0-2.61     l-2.76-1.84l-4.54,1.75l-4.24-1.79l-2.81,1.74c0,1.83,0.01,3.65,0.01,5.48c-0.9,0-1.79,0-2.69,0l-0.03-16.35h4.19l0-1.31h-4.18     l0-2.69h4.05l0-1.16h-4.05c0-0.9,0-1.79,0-2.69c1.35,0,2.7,0,4.05,0l0-1.47h2.69l0,1.47h6.28l0-1.47h2.69l0,1.47h9.76l0-1.47     h0.32h2.05h0.32l0,1.47h6.92l0,2.69h-6.92l0,1.16h6.92l0,2.69h-6.92l0,1.31h6.92l0,2.69h-7.09l-5.17,4.11l9.65,0l0-2.37     c0.9,0,1.79,0,2.69,0l0,2.36h10.62l0.01,7.68c0,0.77-0.51,1.37-1.3,1.37h-5.75l1.5-2.69h2.85l-0.01-3.67h-7.91l0.01,6.84     c-0.9,0-1.79,0-2.69,0l-0.01-6.84h-7.95l0.01,6.49c-0.9,0-1.79,0-2.69,0c-0.01-2.92-0.02-5.84-0.02-8.75h-2.09     C225.4,98.91,225.4,101.44,225.41,103.96L225.41,103.96z M225.39,94.97l3.92-3.12h-3.93L225.39,94.97L225.39,94.97z      M231.11,89.16l0-1.31h-9.78l0,1.31h2.21h0.44H231.11L231.11,89.16z M231.11,85.16l0-1.16h-9.76l0,1.16H231.11L231.11,85.16z      M208.35,97l1.48-0.86l0-4.29h-1.49C208.35,93.56,208.35,95.28,208.35,97L208.35,97z M212.48,87.85l0,1.31h6.21l0-1.31H212.48     L212.48,87.85z M212.48,91.85l0,4.26l2.93,1.2l3.28-1.21l0-4.25H212.48L212.48,91.85z M221.34,91.85l0,4.31l1.37,0.9     c0-1.77-0.01-3.52-0.01-5.21H221.34L221.34,91.85z M202.16,80.38l2.4,2.4c0,0,0,0,0,0l-2.4,2.4c0,0,0,0,0,0l-2.4-2.4c0,0,0,0,0,0     L202.16,80.38C202.16,80.38,202.16,80.38,202.16,80.38L202.16,80.38z M244.54,94.97c-0.9,0-1.79,0-2.69,0l-0.02-13.95l9.6,0     l0.04,12.63l-5.93,0.01v-2.69h3.24l0-2.21h-3.23v-2.7l3.23,0l0-2.35h-4.23C244.53,87.47,244.53,91.21,244.54,94.97L244.54,94.97z      M212.38,85.16h6.28l0-1.16h-6.28L212.38,85.16L212.38,85.16z M202.16,100.96l2.4,2.4c0,0,0,0,0,0l-2.4,2.4c0,0,0,0,0,0l-2.4-2.4     c0,0,0,0,0,0L202.16,100.96C202.16,100.96,202.16,100.96,202.16,100.96L202.16,100.96z"></path>
		</g>
		<g>
			<path class="st9" d="M146.27,102.11c-0.39-0.11-0.77-0.23-1.15-0.38c-0.46-0.18-0.91-0.4-1.34-0.65     c-3.67-2.12-5.71-6.24-5.15-10.45c0.32-2.4,1.47-4.65,3.25-6.3c1.2-1.11,2.63-1.92,4.19-2.38c-0.05-0.22-0.1-0.45-0.14-0.67     c-0.94-5.36,2.39-10.53,7.6-11.92c4.22-1.13,8.74,0.48,11.26,4.07c0.29,0.41,0.55,0.84,0.77,1.28l0,0     c4.11,7.13,8.23,14.25,12.35,21.37h-6.25c-3.61-6.25-7.21-12.49-10.81-18.74l-0.01-0.01c-0.85-1.56-2.07-2.62-3.93-2.87     c-0.66-0.09-1.33-0.04-1.97,0.13c-0.64,0.17-1.24,0.47-1.77,0.87c-1.77,1.36-2.23,3.42-1.82,5.59c0.33,1.79,1.22,3.55,2.23,4.83     l0.57,0.72l-0.91-0.13c-1.61-0.24-3.58-0.12-5.3,0.48c-2.77,0.98-4.59,3.37-3.8,6.35c0.17,0.64,0.47,1.24,0.87,1.77     c0.85,1.11,2.19,1.86,3.59,1.96c0,0.01,0.54,0.02,0.59,0.02l-1.87,3.24L146.27,102.11L146.27,102.11z"></path>
			<path class="st9" d="M181.6,103.43c0.23,0.87,0.35,1.77,0.35,2.67c0,1.42-0.28,2.77-0.79,4.01c-1.62,3.92-5.45,6.48-9.69,6.48     c-2.46,0-4.84-0.87-6.72-2.45c-0.18-0.15-0.35-0.3-0.51-0.46c-0.16,0.16-0.33,0.31-0.51,0.46c-4.15,3.47-10.29,3.21-14.13-0.62     c-0.96-0.97-1.74-2.12-2.28-3.41c-0.92-2.23-1.04-4.7-0.35-7.01c0.14-0.47,0.32-0.93,0.52-1.38c0.21-0.45,0.45-0.89,0.73-1.31     c4.12-7.13,8.22-14.25,12.34-21.38l3.13,5.41c-3.61,6.25-7.21,12.48-10.82,18.74l-0.01,0.01c-0.16,0.25-0.29,0.48-0.4,0.71     c-0.11,0.22-0.2,0.46-0.29,0.74c-0.33,1.1-0.27,2.33,0.17,3.39c0.26,0.62,0.63,1.17,1.1,1.64c0.47,0.47,1.02,0.84,1.64,1.1     c0.59,0.25,1.25,0.38,1.93,0.38c1.39,0,2.7-0.64,3.82-1.6c1.38-1.18,2.47-2.83,3.07-4.34l0.34-0.86l0.34,0.86     c0.6,1.51,1.68,3.16,3.07,4.34c1.12,0.95,2.43,1.6,3.82,1.6c0.69,0,1.34-0.14,1.93-0.38c0.62-0.26,1.17-0.63,1.64-1.1     c0.47-0.47,0.84-1.02,1.1-1.64c0.65-1.57,0.46-3.17-0.38-4.61H181.6L181.6,103.43z"></path>
			<path class="st9" d="M157.67,97.05c7.22,0,14.42,0.01,21.64,0.01c0.28,0,0.55,0.01,0.83-0.01c1.42-0.1,2.77-0.84,3.63-1.97     c0.41-0.53,0.7-1.14,0.87-1.77c0.17-0.64,0.22-1.31,0.13-1.97c-0.08-0.64-0.29-1.27-0.64-1.87c-0.7-1.21-1.91-2.02-3.29-2.51     c-1.71-0.61-3.68-0.72-5.3-0.48l-0.91,0.13l0.57-0.72c1.01-1.28,1.9-3.04,2.23-4.83c0.4-2.15-0.04-4.22-1.82-5.59     c-0.53-0.41-1.14-0.7-1.77-0.87c-2.03-0.54-4.28,0.24-5.46,1.99c-0.11,0.16-0.21,0.33-0.31,0.5l-2.92-5.05     c2.66-2.64,6.49-3.65,10.09-2.68c1.32,0.35,2.57,0.96,3.67,1.81c3.1,2.37,4.6,6.28,3.93,10.11c-0.04,0.22-0.09,0.45-0.14,0.67     c0.22,0.06,0.43,0.14,0.65,0.21c5.13,1.87,7.92,7.33,6.53,12.55c-1,3.72-3.95,6.59-7.7,7.49c-0.47,0.11-0.96,0.19-1.46,0.23     c0,0.05-1.35,0.03-1.48,0.03l-0.01,0c-8.24,0-16.46,0-24.69,0L157.67,97.05L157.67,97.05z"></path>
		</g>
	</g>
	<g class="st3">
		<path class="st10" d="M150.94,130.87v-7.95h5.36v0.94h-4.31v2.46h3.73v0.94h-3.73v3.61H150.94z"></path>
		<path class="st10" d="M161.32,130.87v-0.85c-0.45,0.65-1.06,0.98-1.83,0.98c-0.34,0-0.66-0.07-0.95-0.2s-0.51-0.29-0.66-0.49    c-0.14-0.2-0.24-0.44-0.3-0.72c-0.04-0.19-0.06-0.5-0.06-0.91v-3.57h0.98v3.19c0,0.51,0.02,0.85,0.06,1.03    c0.06,0.26,0.19,0.46,0.39,0.6s0.44,0.22,0.74,0.22c0.29,0,0.57-0.08,0.82-0.23c0.26-0.15,0.44-0.35,0.54-0.61    c0.11-0.26,0.16-0.63,0.16-1.13v-3.09h0.98v5.76H161.32z"></path>
		<path class="st10" d="M163.7,130.87v-7.95h0.98v7.95H163.7z"></path>
		<path class="st10" d="M166.17,130.87v-7.95h0.98v7.95H166.17z"></path>
		<path class="st10" d="M173.69,130.87v-7.01h-2.62v-0.94h6.3v0.94h-2.63v7.01H173.69z"></path>
		<path class="st10" d="M177.9,130.87v-5.76h0.88v0.87c0.22-0.41,0.43-0.68,0.62-0.81c0.19-0.13,0.4-0.2,0.63-0.2    c0.33,0,0.66,0.1,1,0.31l-0.34,0.91c-0.24-0.14-0.48-0.21-0.72-0.21c-0.21,0-0.4,0.06-0.57,0.19c-0.17,0.13-0.29,0.31-0.36,0.53    c-0.11,0.35-0.16,0.73-0.16,1.14v3.01H177.9z"></path>
		<path class="st10" d="M185.38,130.87v-0.85c-0.45,0.65-1.06,0.98-1.83,0.98c-0.34,0-0.66-0.07-0.95-0.2s-0.51-0.29-0.66-0.49    c-0.14-0.2-0.24-0.44-0.3-0.72c-0.04-0.19-0.06-0.5-0.06-0.91v-3.57h0.98v3.19c0,0.51,0.02,0.85,0.06,1.03    c0.06,0.26,0.19,0.46,0.39,0.6s0.44,0.22,0.74,0.22c0.29,0,0.57-0.08,0.82-0.23c0.26-0.15,0.44-0.35,0.54-0.61    c0.11-0.26,0.16-0.63,0.16-1.13v-3.09h0.98v5.76H185.38z"></path>
		<path class="st10" d="M191.54,128.76l0.96,0.12c-0.1,0.66-0.37,1.18-0.81,1.55c-0.43,0.37-0.96,0.56-1.59,0.56    c-0.79,0-1.42-0.26-1.9-0.77s-0.72-1.25-0.72-2.22c0-0.62,0.1-1.17,0.31-1.63s0.52-0.82,0.94-1.05s0.88-0.35,1.37-0.35    c0.63,0,1.14,0.16,1.53,0.47s0.65,0.77,0.76,1.35l-0.95,0.15c-0.09-0.39-0.25-0.68-0.48-0.87c-0.23-0.2-0.51-0.29-0.83-0.29    c-0.49,0-0.89,0.18-1.2,0.53s-0.46,0.91-0.46,1.67c0,0.77,0.15,1.34,0.44,1.69c0.3,0.35,0.68,0.53,1.16,0.53    c0.38,0,0.7-0.12,0.96-0.35S191.47,129.25,191.54,128.76z"></path>
		<path class="st10" d="M193.34,130.87v-7.95h0.98v4.53l2.31-2.34h1.26l-2.2,2.14l2.42,3.62h-1.2l-1.9-2.94l-0.69,0.66v2.28H193.34z    "></path>
		<path class="st10" d="M200.61,130.87l3.05-7.95h1.13l3.25,7.95h-1.2l-0.93-2.41h-3.32l-0.87,2.41H200.61z M202.91,127.61h2.69    l-0.83-2.2c-0.25-0.67-0.44-1.22-0.56-1.65c-0.1,0.51-0.24,1.02-0.43,1.52L202.91,127.61z"></path>
		<path class="st10" d="M208.75,130.87v-7.95h0.98v7.95H208.75z"></path>
		<path class="st10" d="M211.22,130.87v-7.95h0.98v7.95H211.22z"></path>
		<path class="st10" d="M213.71,124.04v-1.12h0.98v1.12H213.71z M213.71,130.87v-5.76h0.98v5.76H213.71z"></path>
		<path class="st10" d="M219.93,130.16c-0.36,0.31-0.71,0.52-1.04,0.65c-0.33,0.13-0.69,0.19-1.08,0.19c-0.63,0-1.12-0.15-1.46-0.46    c-0.34-0.31-0.51-0.7-0.51-1.18c0-0.28,0.06-0.54,0.19-0.77c0.13-0.23,0.3-0.42,0.5-0.56c0.21-0.14,0.44-0.25,0.7-0.32    c0.19-0.05,0.48-0.1,0.87-0.15c0.79-0.09,1.37-0.21,1.74-0.34c0-0.13,0.01-0.22,0.01-0.25c0-0.4-0.09-0.68-0.28-0.84    c-0.25-0.22-0.62-0.33-1.11-0.33c-0.46,0-0.8,0.08-1.02,0.24c-0.22,0.16-0.38,0.45-0.49,0.85l-0.95-0.13    c0.09-0.41,0.23-0.74,0.43-0.99c0.2-0.25,0.49-0.44,0.86-0.58c0.38-0.14,0.81-0.2,1.31-0.2c0.49,0,0.89,0.06,1.2,0.17    c0.31,0.12,0.53,0.26,0.68,0.44c0.14,0.18,0.25,0.4,0.3,0.66c0.03,0.17,0.05,0.47,0.05,0.9v1.3c0,0.91,0.02,1.48,0.06,1.72    c0.04,0.24,0.12,0.47,0.25,0.69h-1.02C220.02,130.67,219.96,130.43,219.93,130.16z M219.85,127.98c-0.35,0.14-0.89,0.27-1.59,0.37    c-0.4,0.06-0.69,0.12-0.85,0.2c-0.17,0.07-0.29,0.18-0.38,0.32s-0.14,0.29-0.14,0.46c0,0.26,0.1,0.48,0.3,0.65    c0.2,0.17,0.49,0.26,0.86,0.26c0.38,0,0.71-0.08,1-0.25c0.29-0.16,0.51-0.39,0.65-0.68c0.1-0.22,0.16-0.55,0.16-0.98V127.98z"></path>
		<path class="st10" d="M222.35,130.87v-5.76h0.88v0.82c0.42-0.63,1.03-0.95,1.83-0.95c0.35,0,0.67,0.06,0.96,0.19    c0.29,0.12,0.51,0.29,0.65,0.49c0.14,0.2,0.25,0.44,0.3,0.72c0.04,0.18,0.05,0.5,0.05,0.95v3.54h-0.98v-3.5    c0-0.4-0.04-0.69-0.11-0.89s-0.21-0.35-0.4-0.47c-0.19-0.12-0.42-0.18-0.68-0.18c-0.42,0-0.77,0.13-1.08,0.4    c-0.3,0.26-0.45,0.76-0.45,1.5v3.14H222.35z"></path>
		<path class="st10" d="M232.28,128.76l0.96,0.12c-0.1,0.66-0.37,1.18-0.81,1.55c-0.43,0.37-0.96,0.56-1.59,0.56    c-0.79,0-1.42-0.26-1.9-0.77c-0.48-0.52-0.72-1.25-0.72-2.22c0-0.62,0.1-1.17,0.31-1.63c0.21-0.47,0.52-0.82,0.94-1.05    c0.42-0.23,0.88-0.35,1.37-0.35c0.63,0,1.14,0.16,1.53,0.47s0.65,0.77,0.76,1.35l-0.95,0.15c-0.09-0.39-0.25-0.68-0.48-0.87    c-0.23-0.2-0.51-0.29-0.83-0.29c-0.49,0-0.89,0.18-1.2,0.53c-0.31,0.35-0.46,0.91-0.46,1.67c0,0.77,0.15,1.34,0.44,1.69    c0.3,0.35,0.68,0.53,1.16,0.53c0.38,0,0.7-0.12,0.96-0.35C232.05,129.61,232.21,129.25,232.28,128.76z"></path>
		<path class="st10" d="M238.02,129.02l1.01,0.12c-0.16,0.59-0.45,1.05-0.88,1.37c-0.43,0.33-0.98,0.49-1.65,0.49    c-0.84,0-1.51-0.26-2-0.78c-0.49-0.52-0.74-1.25-0.74-2.18c0-0.97,0.25-1.72,0.75-2.26c0.5-0.54,1.15-0.8,1.94-0.8    c0.77,0,1.4,0.26,1.89,0.79c0.49,0.52,0.73,1.26,0.73,2.21c0,0.06,0,0.14-0.01,0.26h-4.29c0.04,0.63,0.22,1.12,0.54,1.45    c0.32,0.34,0.72,0.5,1.2,0.5c0.36,0,0.66-0.09,0.92-0.28C237.67,129.73,237.87,129.43,238.02,129.02z M234.81,127.44h3.22    c-0.04-0.48-0.17-0.85-0.37-1.09c-0.31-0.38-0.71-0.56-1.21-0.56c-0.45,0-0.83,0.15-1.13,0.45    C235.02,126.53,234.85,126.94,234.81,127.44z"></path>
	</g>
</g>
<g id="Light_Final" class="st0">
	<g id="XMLID_6_" class="st3">
		<path id="XMLID_19_" class="st11" d="M193.92,112.07c-4.87,0-8.81,3.94-8.81,8.81c0,4.87,3.94,8.81,8.81,8.81s8.81-3.94,8.81-8.81    C202.73,116.01,198.79,112.07,193.92,112.07z M193.92,126.78c-3.26,0-5.9-2.64-5.9-5.9c0-3.26,2.64-5.9,5.9-5.9    c3.26,0,5.9,2.64,5.9,5.9C199.82,124.14,197.18,126.78,193.92,126.78z"></path>
		<path id="XMLID_16_" class="st11" d="M183.3,81.88c-7.98,0-14.45,6.47-14.45,14.45s6.47,14.45,14.45,14.45s14.45-6.47,14.45-14.45    S191.28,81.88,183.3,81.88z M183.3,107.7c-6.28,0-11.37-5.09-11.37-11.37c0-6.28,5.09-11.37,11.37-11.37    c6.28,0,11.37,5.09,11.37,11.37C194.67,102.61,189.58,107.7,183.3,107.7z"></path>
	</g>
	<path id="XMLID_1_" class="st12" d="M224.29,110.16h-3.08V93.39c0-5.11-2.97-8.43-7.7-8.43c-4.67,0-7.7,4.2-7.7,8.33v16.87h-3.08   V70.31h3.08v15.05c1.87-2.14,4.65-3.48,7.7-3.48c6.16,0,10.51,4.2,10.76,10.82c0.01,0.28,0.02,0.57,0.02,0.86V110.16z    M233.07,84.96H239v-3.08h-5.93V70.31H230l0,31.5c0.02,4.96,4.04,8.97,9,8.97v-3.08c-3.31,0-5.91-2.59-5.93-5.89V84.96z    M154.08,110.16H151V70.31h3.08V110.16z M163.86,110.16h-3.08V81.88h3.08V110.16z"></path>
</g>
<g id="WeWork_Final" class="st0">
	<g class="st3">
		<g>
			<path class="st13" d="M125.44,93.38c3.77,0,6.73-0.06,10.55-0.17c0.65,0.06,0.6,1.68,0.18,1.9l-0.89,0.15     c-1.38,0.28-2.2,0.55-2.2,0.83c0,0.44,0.11,0.75,0.47,1.68c1.09,2.61,2.75,6.12,4.07,8.72c1.43-3.13,2.37-5.79,3.32-8.3     c0.36-0.96,0.54-1.73,0.54-2.11c0-0.27-0.48-0.54-1.5-0.75l-1-0.22c-0.36-0.4-0.36-1.68,0.24-1.9c1.97,0.1,3.39,0.16,4.89,0.16     c1.73,0,3.28-0.06,4.59-0.17c0.54,0.23,0.66,1.41,0.19,1.9l-0.84,0.16c-1.96,0.38-2.38,0.93-3.33,2.93     c-2.73,5.53-5.46,11.5-7.95,17.24c-0.36,0.33-0.79,0.39-1.38,0.39c-0.6,0-1.01-0.06-1.37-0.38c-1.25-2.93-4.36-9.27-6.16-12.72     c-1.54,2.81-5.1,10.03-6.47,12.73c-0.36,0.33-0.77,0.38-1.37,0.39c-0.6,0-1.01-0.06-1.37-0.38c-2.87-6.12-5.81-12.34-8.72-17.98     c-0.84-1.57-1.44-1.8-2.46-2.06l-1.08-0.26c-0.4-0.44-0.4-1.62,0.19-1.91c2.44,0.11,4.35,0.16,6.86,0.16L125.44,93.38z      M123.83,95.62c-0.83-0.16-1.78-0.22-2.85-0.22c-1.92,0-3.05,0.23-3.05,0.82c0,0.33,0.18,0.98,0.54,1.78     c0.83,1.9,3.22,6.78,4.24,8.51c0.83-1.46,2.86-5.37,3.14-6.46c0.19-0.71,0.19-1.18,0.19-1.62     C126.06,97.57,125.03,95.83,123.83,95.62z"></path>
			<path class="st13" d="M154.55,102.19c-1.37,0-1.49,0.11-1.49,0.98c0,4.06,2.87,8.02,8.42,8c1.66,0,3.94-0.32,5.54-2.82     c0.65-0.11,1.55,0.33,1.55,1.25c-2.43,4.61-6.84,6.18-10.42,6.19c-8.05,0.01-12.4-5.13-12.41-11.04     c0-6.83,5.41-12.14,12.86-12.15c6.21-0.01,9.54,3.62,9.55,7.8c0,1.01-0.29,1.78-2.15,1.78L154.55,102.19z M158.48,99.8     c0.82,0,1.79-0.11,2.44-0.49c0.29-0.16,0.42-0.71,0.42-1.25c0-1.78-1.15-2.97-3.17-2.97c-2.49,0.01-4.65,2.18-4.65,3.9     c0,0.76,0.83,0.82,2.75,0.81H158.48z"></path>
		</g>
		<g>
			<path class="st13" d="M187.62,93.31c3.75-0.01,6.74-0.06,10.55-0.17c0.65,0.06,0.59,1.67,0.16,1.91l-0.88,0.15     c-1.37,0.28-2.2,0.55-2.2,0.82c0,0.44,0.12,0.75,0.48,1.68c1.08,2.61,2.75,6.12,4.07,8.73c1.43-3.15,2.38-5.8,3.32-8.31     c0.35-0.97,0.54-1.73,0.54-2.11c0-0.28-0.49-0.54-1.5-0.76l-1.01-0.22c-0.36-0.38-0.36-1.67,0.23-1.9     c1.97,0.11,3.39,0.16,4.89,0.15c1.72,0,3.27-0.05,4.58-0.16c0.54,0.22,0.66,1.41,0.19,1.9l-0.84,0.17     c-1.97,0.37-2.38,0.91-3.33,2.92c-2.73,5.53-5.47,11.51-7.97,17.25c-0.36,0.33-0.78,0.38-1.38,0.38c-0.59,0-1.01-0.06-1.37-0.38     c-1.25-2.92-4.36-9.26-6.15-12.73c-1.55,2.82-5.11,10.04-6.48,12.75c-0.36,0.32-0.77,0.39-1.37,0.39c-0.6,0-1.01-0.06-1.37-0.39     c-2.87-6.12-5.82-12.35-8.73-17.98c-0.84-1.57-1.44-1.78-2.45-2.05l-1.07-0.27c-0.42-0.43-0.43-1.63,0.17-1.9     c2.44,0.1,4.35,0.15,6.86,0.15L187.62,93.31z M186.01,95.54c-0.83-0.16-1.78-0.21-2.86-0.21c-1.92,0-3.05,0.21-3.05,0.81     c0,0.33,0.2,0.99,0.56,1.79c0.83,1.9,3.22,6.77,4.23,8.51c0.83-1.46,2.86-5.36,3.14-6.45c0.18-0.71,0.18-1.19,0.18-1.63     C188.22,97.49,187.2,95.74,186.01,95.54z"></path>
			<path class="st13" d="M208.04,104.55c-0.07-7.75,6.67-12.04,13.69-12.04c7.03-0.01,13.37,3.88,13.37,11.52     c0.01,7.92-6.36,11.67-13.69,11.68C214.32,115.72,208.11,112.03,208.04,104.55z M216.62,103.36c0.01,5.68,1.99,9.86,5.44,9.85     c3.39-0.01,4.53-3.52,4.46-8.4c-0.06-5.26-1.73-9.81-5.12-9.81C218.75,95.01,216.62,97.46,216.62,103.36z"></path>
			<path class="st13" d="M236.53,100.57c-0.01-2.17-0.01-2.83-1.14-3.48l-0.84-0.48c-0.42-0.34-0.42-1.3,0-1.63     c2.75-0.71,6.86-2.18,8.71-3.26c0.47,0,0.84,0.16,1.07,0.49c-0.11,1.09-0.23,1.84-0.23,2.33c0,0.38,0.12,0.54,0.59,0.65     c1.61-0.93,3.33-2.71,5.84-2.72c1.62,0,3.28,1.14,3.28,3.19c0.01,2.5-1.9,3.53-3.81,3.53c-0.84,0-1.56-0.32-2.33-0.97     c-1.38-1.03-1.91-1.09-2.26-1.09c-0.84,0-1.14,1.2-1.14,3.26l0.01,8.35c0.02,3.79,0.26,4.23,2.22,4.38l1.91,0.16     c0.47,0.33,0.48,1.58-0.06,1.9c-2.88-0.1-5.25-0.15-8.05-0.15c-2.45,0.01-5.07,0.06-7.04,0.18c-0.52-0.32-0.54-1.57-0.06-1.9     l1.14-0.11c1.97-0.17,2.2-0.65,2.19-4.45V100.57z"></path>
			<path class="st13" d="M254.78,84.76c-0.01-2.18-0.01-2.76-1.21-3.4l-1.01-0.54c-0.42-0.32-0.42-1.3,0-1.63     c2.45-0.55,6.07-1.85,9.12-3.04c0.35,0,0.78,0.09,1.01,0.37c-0.11,2.22-0.17,4.49-0.17,7.92l0.02,17.01     c0,0.61,0.18,0.77,0.84,0.77c1.01,0,2.26-0.27,3.46-1.52l2.49-2.67c1.13-1.24,1.43-1.83,1.43-2.16c0-0.27-0.6-0.49-1.14-0.53     l-1.48-0.22c-0.54-0.48-0.49-1.68,0.11-1.9l1.43-0.01c2.81,0,7.76-0.28,11.27-0.76c0.6,0.26,0.66,1.45,0.25,1.89l-1.91,0.37     c-1.13,0.23-2.4,0.77-4,1.91c-2.26,1.57-3.16,2.38-3.99,3.15c-0.3,0.32-0.36,0.54-0.36,0.71c0,0.16,0.12,0.48,0.43,0.92     c1.07,1.73,6.33,9.09,7.83,10.34c0.83,0.7,1.96,0.97,3.51,1.23l0.89,0.17c0.47,0.37,0.35,1.68-0.23,1.89     c-1.85-0.1-4.05-0.16-7.5-0.16c-3.53,0-5.68,0.07-7.35,0.18c-0.59-0.27-0.71-1.41-0.23-1.89l0.78-0.18     c0.59-0.11,0.95-0.22,0.95-0.42c0-0.23-0.54-1.09-1.02-1.74l-4.25-5.85c-0.41-0.6-0.89-0.82-1.49-0.82     c-0.41,0-0.72,0.28-0.71,1.31l0,3.14c0,3.8,0.24,4.24,2.34,4.44l0.94,0.12c0.48,0.32,0.49,1.58-0.06,1.89     c-1.9-0.1-4.41-0.16-7.15-0.16c-2.73,0-5.19,0.06-7.27,0.17c-0.54-0.32-0.54-1.57-0.07-1.89l1.14-0.11     c2.14-0.21,2.39-0.65,2.39-4.45L254.78,84.76z"></path>
		</g>
	</g>
</g>
<g id="Compass_Final" class="st0">
	<path class="st14" d="M124.71,89c0.42,0.06,0.84,0.11,1.25,0.18c1.75,0.31,3.33,1.02,4.74,2.1c0.65,0.5,1.23,1.06,1.72,1.66   c-0.7,0.73-1.39,1.44-2.09,2.17c-1.69-2.04-3.82-3.14-6.46-3.11c-2.27,0.02-4.19,0.9-5.73,2.54c-2.93,3.13-2.88,8,0.2,11.11   c3.13,3.16,8.76,3.3,11.98-0.76c0.72,0.7,1.43,1.4,2.19,2.14c-0.5,0.48-0.97,0.98-1.49,1.42c-1.48,1.25-3.19,2.04-5.1,2.38   c-1.11,0.2-2.23,0.21-3.35,0.07c-2.16-0.27-4.06-1.12-5.71-2.53c-1.9-1.62-3.11-3.67-3.63-6.11c-0.24-1.12-0.3-2.26-0.18-3.39   c0.23-2.1,0.98-4,2.3-5.66c1.63-2.05,3.74-3.38,6.3-3.95c0.46-0.1,0.94-0.14,1.41-0.21c0.07-0.01,0.13-0.03,0.19-0.04   C123.74,89,124.22,89,124.71,89z"></path>
	<path class="st14" d="M277.02,104.78c-0.07,0.39-0.11,0.79-0.22,1.18c-0.47,1.69-1.56,2.88-3.06,3.72c-1.05,0.58-2.18,0.89-3.37,1   c-3.17,0.29-5.76-0.88-7.93-3.12c-0.11-0.11-0.21-0.23-0.23-0.3c0.66-0.72,1.31-1.43,1.93-2.1c0.56,0.5,1.05,0.99,1.6,1.41   c1.18,0.89,2.53,1.3,4,1.23c1.09-0.05,2.12-0.3,3.03-0.95c1.7-1.23,1.62-3.65-0.07-4.81c-0.81-0.56-1.73-0.85-2.68-1.07   c-1.17-0.27-2.36-0.47-3.48-0.91c-0.96-0.37-1.84-0.85-2.57-1.59c-0.8-0.81-1.24-1.79-1.33-2.93c-0.1-1.22,0.08-2.37,0.73-3.43   c0.78-1.27,1.93-2.06,3.33-2.44c3.18-0.86,6.07-0.29,8.61,1.86c0.31,0.26,0.59,0.54,0.9,0.83c-0.71,0.7-1.41,1.38-2.1,2.04   c-0.44-0.35-0.85-0.72-1.3-1.03c-1.08-0.75-2.28-1.18-3.62-1.15c-0.78,0.01-1.53,0.13-2.25,0.48c-1.59,0.78-1.71,2.77-0.65,3.89   c0.57,0.6,1.31,0.87,2.1,1.05c1.31,0.3,2.64,0.53,3.9,1c1.15,0.43,2.22,1,3.1,1.89c0.95,0.96,1.48,2.12,1.57,3.48   c0,0.07,0.03,0.13,0.04,0.19C277.02,104.38,277.02,104.58,277.02,104.78z"></path>
	<path class="st14" d="M169.09,98.34c0,4.03,0,8,0,11.99c-1,0-1.98,0-2.99,0c0-0.08,0-0.16,0-0.24c0-6.66,0-13.33,0-19.99   c0-0.1,0-0.2,0.04-0.29c0.09-0.22,0.36-0.21,0.53,0.01c0.32,0.43,0.64,0.87,0.96,1.3c2.15,2.9,4.3,5.8,6.44,8.7   c1.27,1.72,2.54,3.44,3.81,5.16c0.02,0.03,0.05,0.06,0.09,0.11c0.23-0.32,0.46-0.62,0.68-0.92c3.01-4.06,6.01-8.12,9.02-12.18   c0.53-0.71,1.06-1.43,1.58-2.14c0.1-0.13,0.2-0.25,0.37-0.19c0.19,0.06,0.24,0.2,0.24,0.39c0,6.71,0,13.42,0,20.13   c0,0.04,0,0.09,0,0.15c-1,0-1.99,0-3,0c0-3.98,0-7.96,0-11.94c-0.02-0.01-0.03-0.01-0.05-0.02c-0.15,0.21-0.31,0.41-0.46,0.62   c-2.71,3.63-5.41,7.26-8.12,10.89c-0.2,0.27-0.32,0.27-0.52,0c-1.03-1.39-2.06-2.77-3.1-4.16c-1.79-2.4-3.58-4.8-5.37-7.21   C169.21,98.46,169.17,98.42,169.09,98.34z"></path>
	<path class="st14" d="M256.03,92.36c-0.7,0.68-1.4,1.37-2.06,2.01c-0.6-0.44-1.16-0.9-1.78-1.29c-0.96-0.6-2.02-0.89-3.15-0.87   c-0.78,0.02-1.55,0.13-2.27,0.48c-1.7,0.84-1.7,3.07-0.38,4.13c0.6,0.49,1.32,0.68,2.05,0.85c1.32,0.3,2.67,0.54,3.94,1.05   c1.02,0.41,1.97,0.93,2.77,1.71c0.93,0.9,1.48,1.99,1.63,3.29c0.16,1.37-0.09,2.65-0.85,3.82c-0.83,1.27-2.01,2.1-3.42,2.63   c-1.25,0.47-2.54,0.63-3.86,0.54c-2.08-0.14-3.89-0.95-5.47-2.3c-0.43-0.37-0.83-0.78-1.26-1.19c0.72-0.7,1.42-1.38,2.04-1.99   c0.33,0.28,0.65,0.55,0.95,0.82c1.32,1.19,2.85,1.82,4.64,1.74c1.15-0.05,2.23-0.32,3.16-1.04c1.43-1.12,1.51-3.25,0.14-4.45   c-0.81-0.71-1.79-1.05-2.81-1.29c-1.23-0.3-2.49-0.49-3.68-0.96c-0.98-0.38-1.89-0.88-2.63-1.66c-0.72-0.76-1.13-1.65-1.24-2.69   c-0.11-1.04-0.03-2.04,0.4-3c0.61-1.37,1.67-2.27,3.03-2.82c1.27-0.51,2.59-0.65,3.94-0.56c2.45,0.17,4.44,1.26,6.12,2.99   C256,92.31,256.01,92.33,256.03,92.36z"></path>
	<path class="st14" d="M159.53,97.9c-0.52-2.76-1.95-4.99-4.18-6.69c-1.47-1.12-3.12-1.81-4.94-2.08c-0.31-0.05-0.63-0.09-0.94-0.13   c-0.49,0-0.97,0-1.46,0c-0.06,0.01-0.13,0.03-0.19,0.04c-0.48,0.07-0.97,0.11-1.44,0.21c-2.47,0.55-4.54,1.79-6.14,3.76   c-2.19,2.69-2.94,5.77-2.29,9.16c0.52,2.69,1.9,4.88,4.08,6.54c2.71,2.07,5.78,2.71,9.1,2.01c2.57-0.55,4.67-1.9,6.28-3.98   C159.44,104.12,160.14,101.15,159.53,97.9z M148.72,108c-4.44-0.01-8.01-3.58-7.99-8.05c0.03-4.46,3.68-7.96,8.01-7.94   c4.41,0,7.99,3.6,7.99,8.01C156.73,104.32,153.24,108,148.72,108z"></path>
	<path class="st14" d="M214.6,94.58c-0.76-2.98-3.39-4.94-6.47-4.94c-3.22,0-6.44,0-9.67,0c-0.08,0-0.16,0-0.23,0   c0,6.92,0,13.81,0,20.69c1,0,1.99,0,2.99,0c0-2.47,0-4.92,0-7.41c0.12,0,0.21,0,0.3,0c2.24,0,4.48,0,6.73,0c0.2,0,0.41,0,0.61-0.02   c1.37-0.16,2.6-0.64,3.63-1.56C214.54,99.51,215.27,97.23,214.6,94.58z M208.93,99.85c-0.29,0.06-0.59,0.08-0.88,0.08   c-2.2,0.01-4.39,0-6.59,0.01c-0.21,0-0.27-0.05-0.27-0.27c0.01-2.26,0-4.51,0-6.77c0-0.07,0-0.15,0-0.25c0.13,0,0.22,0,0.31,0   c2.2,0,4.41,0,6.61,0c1.88,0,3.4,1.27,3.68,3.12C212.08,97.66,210.84,99.45,208.93,99.85z"></path>
	<path class="st14" d="M238.11,110.1c-1.34-2.53-2.67-5.06-4.01-7.59c-2.25-4.26-4.5-8.53-6.75-12.79   c-0.06-0.11-0.19-0.23-0.31-0.26c-0.16-0.04-0.26,0.11-0.33,0.25c-0.19,0.37-0.39,0.74-0.58,1.1c-3.06,5.8-6.11,11.59-9.17,17.39   c-0.37,0.69-0.73,1.39-1.12,2.13c1.1,0,2.14,0,3.19,0c0.16,0,0.24-0.05,0.31-0.19c0.86-1.64,1.73-3.28,2.59-4.92   c0.07-0.14,0.15-0.19,0.31-0.19c3.2,0,6.4,0,9.6,0c0.16,0,0.24,0.06,0.31,0.19c0.86,1.65,1.73,3.29,2.6,4.94   c0.07,0.13,0.14,0.17,0.28,0.17c1-0.01,2.01,0,3.01,0c0.06,0,0.11-0.01,0.18-0.02C238.18,110.24,238.15,110.17,238.11,110.1z    M223.62,102.03c1.14-2.16,2.27-4.3,3.42-6.48c1.15,2.18,2.28,4.32,3.42,6.48C228.17,102.03,225.91,102.03,223.62,102.03z"></path>
	<path class="st14" d="M146.11,104.66c-0.68-0.68-1.37-1.37-2.05-2.05c2.43-2.43,4.86-4.86,7.28-7.28c0.67,0.67,1.37,1.37,2.05,2.05   C150.98,99.8,148.54,102.23,146.11,104.66z"></path>
</g>
<g id="NEED_HELP" class="st0">
	<polygon class="st15" points="90.44,127.74 90.55,127.61 83.07,127.58 69.09,143.14 67.47,143.14 67.47,141.08 67.46,141.08    67.46,130.52 67.46,127.79 63.3,127.79 61.93,129.12 61.93,130.02 61.93,162.06 61.93,163.04 63.3,164.38 67.46,164.38    67.46,161.51 67.46,152.57 67.47,152.57 67.47,148.96 69.09,148.96 83.07,164.39 90.55,164.36 76.24,148.38 74.15,146.05    90.55,127.74  "></polygon>
	<polygon class="st15" points="154.38,127.78 153.65,127.78 136.38,127.78 131.52,127.78 130.62,127.78 129.29,129.15    129.29,133.31 132.02,133.31 136.07,133.31 140.62,133.31 140.62,164.38 146.15,164.38 146.15,133.31 153.5,133.31 154.93,133.31    155.92,133.31 157.25,131.94 157.25,127.78  "></polygon>
	<polygon class="st15" points="188.58,133.34 188.58,127.81 171.04,127.81 169.11,127.81 166.88,127.81 165.51,129.14    165.51,130.04 165.51,162.08 165.51,163.06 166.88,164.4 171.04,164.4 171.04,164.38 188.58,164.38 188.58,158.85 171.04,158.85    171.04,148.86 183.69,148.86 183.69,143.33 171.04,143.33 171.04,133.34  "></polygon>
	<path class="st15" d="M257.45,161.47l-8.17-12.11c4.54-1.36,7.88-5.58,7.88-10.55v0c0-6.05-4.95-11.01-11.01-11.01h-1.24   c-0.11,0-0.23,0.01-0.34,0.01l0-0.01h-9.76h-0.9l-1.33,1.37v3.38v0.78v31.01h5.51v-14.43h4.85l9.82,14.43h6.63L257.45,161.47z    M242.1,144.41h-2.93h-1.09h-0.03v-11.07h0.03h4.02h4.18c2.89,0,5.25,2.36,5.25,5.25v0.58c0,2.89-2.36,5.25-5.25,5.25H242.1z"></path>
	<path class="st15" d="M223.18,161.47l-8.17-12.11c4.54-1.36,7.88-5.58,7.88-10.55v0c0-6.05-4.95-11.01-11.01-11.01h-1.24   c-0.11,0-0.23,0.01-0.34,0.01l0-0.01h-9.76h-0.9l-1.33,1.37v3.38v0.78v31.01h5.51v-14.43h4.85l9.82,14.43h6.63L223.18,161.47z    M207.84,144.41h-2.93h-1.09h-0.03v-11.07h0.03h4.02h4.18c2.89,0,5.25,2.36,5.25,5.25v0.58c0,2.89-2.36,5.25-5.25,5.25H207.84z"></path>
	<path class="st15" d="M294.61,164.38h5.61l-14.72-35.53l-1.25-0.98v-0.06h-0.08h-3.51h-0.08v0.06l-1.25,0.98l-14.72,35.53h5.61   l3.32-8.01h17.75L294.61,164.38z M275.73,151.1l6.69-16.15l6.69,16.15H275.73z"></path>
	<path class="st15" d="M124.33,164.27h5.61l-14.72-35.53l-1.25-0.98v-0.06h-0.08h-3.51h-0.08v0.06l-1.25,0.98l-14.72,35.53h5.61   l3.32-8h17.75L124.33,164.27z M105.44,150.99l6.69-16.15l6.69,16.15H105.44z"></path>
	<rect x="205" y="44.09" class="st16" width="1.37" height="1.37"></rect>
	<g class="st3">
		<rect x="212.07" y="52.79" class="st17" width="1.37" height="1.37"></rect>
		<g>
			<line class="st18" x1="211.92" y1="54.31" x2="197.03" y2="69.2"></line>
		</g>
	</g>
	<g class="st3">
		<rect x="212.07" y="91.09" class="st17" width="1.37" height="1.37"></rect>
		<g>
			<line class="st18" x1="211.92" y1="90.94" x2="197.03" y2="76.05"></line>
		</g>
	</g>
	<path class="st19" d="M197.03,76.05c-2.58-2.27-2.45-4.71-0.37-6.46"></path>
	<g class="st3">
		<g>
			<line class="st18" x1="204.96" y1="45.5" x2="182.71" y2="67.75"></line>
		</g>
	</g>
	<g class="st3">
		<line class="st18" x1="204.94" y1="99.84" x2="182.71" y2="77.62"></line>
	</g>
	<path class="st19" d="M182.71,77.62c-3.72-3.27-3.53-6.8-0.53-9.31"></path>
	<rect x="205" y="99.91" class="st16" width="1.37" height="1.37"></rect>
	<rect x="216.63" y="63.97" class="st16" width="1.37" height="1.37"></rect>
	<g class="st3">
		<g>
			<g>
				<line class="st20" x1="216.63" y1="65.34" x2="212.95" y2="69.02"></line>
			</g>
		</g>
		<g>
			<line class="st20" x1="216.57" y1="80.04" x2="212.95" y2="76.41"></line>
		</g>
		<path class="st21" d="M212.95,76.41c-2.78-2.45-2.64-5.09-0.4-6.97"></path>
	</g>
	<rect x="216.63" y="80.1" class="st16" width="1.37" height="1.37"></rect>
	<line class="st22" x1="165.06" y1="41.24" x2="165.06" y2="103.52"></line>
	
		<rect x="164.38" y="39.59" transform="matrix(0.7071 -0.7071 0.7071 0.7071 19.8659 128.5124)" class="st16" width="1.37" height="1.37"></rect>
	
		<rect x="164.38" y="103.94" transform="matrix(0.7071 -0.7071 0.7071 0.7071 -25.6368 147.3602)" class="st16" width="1.37" height="1.37"></rect>
	
		<rect x="154.5" y="47.11" transform="matrix(0.7071 -0.7071 0.7071 0.7071 11.6562 123.7298)" class="st16" width="1.37" height="1.37"></rect>
	
		<rect x="154.5" y="96.54" transform="matrix(0.7071 -0.7071 0.7071 0.7071 -23.2928 138.2062)" class="st16" width="1.37" height="1.37"></rect>
	<line class="st22" x1="155.18" y1="48.76" x2="155.18" y2="96.09"></line>
	
		<rect x="144.62" y="80.59" transform="matrix(0.7071 -0.7071 0.7071 0.7071 -14.9132 126.5521)" class="st16" width="1.37" height="1.37"></rect>
	
		<rect x="144.62" y="63.37" transform="matrix(0.7071 -0.7071 0.7071 0.7071 -2.7363 121.5082)" class="st16" width="1.37" height="1.37"></rect>
	<line class="st22" x1="145.31" y1="65.02" x2="145.31" y2="80.31"></line>
	<path class="st23" d="M174.7,37.54V53.3c0,0.34,0.11,0.92,0.27,1.21l0.15,0.31c0.27,0.55,0.73,0.99,1.3,1.24l0,0l0,0   c0.3,0.13,0.76,0.19,1.17,0.17c0.11-0.01,0.24-0.01,0.36-0.03c0.24-0.03,0.48-0.1,0.71-0.19l0,0l0.22-0.11   c0.17-0.1,1.19-1.06,1.48-1.35L195.6,39.3"></path>
	
		<rect x="174.02" y="35.89" transform="matrix(0.7071 -0.7071 0.7071 0.7071 25.3105 134.2441)" class="st16" width="1.37" height="1.37"></rect>
	<rect x="195.68" y="37.84" class="st16" width="1.37" height="1.37"></rect>
	<path class="st23" d="M174.7,107.32V91.67c0-0.34,0.11-0.92,0.27-1.21l0.15-0.31c0.27-0.55,0.73-0.99,1.3-1.24l0,0l0,0   c0.3-0.13,0.76-0.19,1.17-0.17c0.11,0.01,0.24,0.01,0.36,0.03c0.24,0.03,0.48,0.1,0.71,0.19l0,0l0.22,0.11   c0.17,0.1,1.19,1.06,1.48,1.35l15.24,15.26"></path>
	
		<rect x="174.02" y="107.71" transform="matrix(0.7071 0.7071 -0.7071 0.7071 127.8186 -91.7839)" class="st16" width="1.37" height="1.37"></rect>
	<rect x="195.68" y="105.76" class="st16" width="1.37" height="1.37"></rect>
</g>
<g id="Opendoor_Final" class="st0">
	<path class="st24" d="M125.48,84.47c5.71-0.1,11.46,4.25,11.58,11.96c0.04,2.49-0.29,4.88-1.36,7.17c-2.33,5-7.73,6.96-12.26,6.35   c-6.71-0.91-10.38-5.31-10.44-12.12c-0.02-2.72,0.28-5.38,1.78-7.68C117.35,86.21,120.39,84.41,125.48,84.47z M119.84,96.95   c0,0.66-0.04,1.32,0.01,1.97c0.16,2.37,0.25,4.77,1.26,6.99c0.82,1.81,2.23,2.62,4.18,2.57c1.93-0.05,3.23-1,3.89-2.82   c0.28-0.77,0.52-1.58,0.65-2.39c0.52-3.29,0.51-6.6,0.19-9.91c-0.16-1.68-0.41-3.36-1.16-4.91c-0.86-1.79-2.62-2.72-4.56-2.44   c-1.75,0.25-2.85,1.26-3.44,2.88C119.9,91.49,119.84,94.22,119.84,96.95z"></path>
	<path class="st25" d="M212.44,107.74c-0.98,0.75-2.21,1.58-3.43,1.95c-4.18,1.26-7.84-0.43-9.12-4.59   c-1.02-3.28-0.94-6.59,0.65-9.71c1.4-2.76,3.86-4.09,6.81-4.61c1.33-0.24,2.66-0.32,3.99-0.01c0.74,0.18,0.95,0.21,0.95,0.21   l0-7.88l5.74-0.54c0,0,0.04,20.06,0.04,26.82c-1.92,0.18-5.65,0.54-5.65,0.54S212.43,108.97,212.44,107.74z M212.27,99.94   c0-1.78-0.03-4.53,0.01-6.31c-0.67-0.67-0.47-0.62-1.29-1.13c-1.93-1.21-4.4-0.01-5.2,2.42c-0.97,2.96-0.88,6.08-0.18,9.09   c0.67,2.89,2.86,3.82,5.65,2.8c0.7-0.26,1.02-0.56,1.02-0.56S212.27,101.75,212.27,99.94z"></path>
	<path class="st25" d="M139.61,104.26c0-3.91,0.03-8.32-0.02-12.23c-0.01-1.01-0.09-0.94,0.87-1.01c1.11-0.09,3.08-0.22,4.25-0.36   c0.77-0.09,0.59,0.01,0.6,0.55c0,0.14,0.04,1.78,0.04,1.78s0.57-0.43,0.75-0.57c0.92-0.66,1.89-1.2,2.99-1.51   c3.63-1.04,6.88,0.34,8.27,3.87c1.47,3.74,1.34,7.61-0.73,11.1c-2.17,3.67-5.8,4.44-9.74,4.2c-0.24-0.01-1.08-0.12-1.54-0.3   c0.03,1.75,0.02,6.98,0.02,6.98l-5.75,0.69C139.61,117.44,139.61,108.24,139.61,104.26z M145.35,100.87c0,1.78-0.02,6.35-0.02,6.35   s0.45,0.6,1.29,1c2.04,0.96,4.33,0,5-2.19c0.86-2.81,0.86-5.7,0.34-8.55c-0.58-3.16-2.57-4.25-5.63-3.35   c-0.69,0.2-0.21,0.03-1,0.36C145.38,96.3,145.35,99.06,145.35,100.87z"></path>
	<path class="st25" d="M179.93,100.45c0-2.68,0.03-6.43-0.02-9.11c1.15-0.18,5.53-0.72,5.53-0.72l-0.05,2.57   c0,0,0.38-0.26,0.94-0.61c1.56-0.95,3.2-1.72,5.05-1.94c3.23-0.38,5.82,0.97,5.73,4.87c-0.09,4.29-0.02,8.57-0.02,12.86   c0,1.29,0.01,1.36,0.01,1.36l-5.82,0.01c0,0-0.01-0.36-0.01-1.23c0.03-3.74,0.01-7.48,0.01-11.22c0-2.84-0.6-3.6-3.43-3.42   c-0.24,0.02-0.64,0.08-2.14,0.59c0.03,3.91,0.01,9,0.01,12.91c0,0.41-0.01,2.35-0.01,2.35l-5.79,0.01c0,0-0.02-0.35-0.01-1.17   C179.94,105.87,179.93,103.16,179.93,100.45z"></path>
	<path class="st25" d="M260.91,100.2c0.01,5.98-3.91,9.95-9.79,9.95c-5.84,0-9.61-3.81-9.62-9.7c-0.01-6.03,3.75-9.87,9.68-9.88   C257.03,90.56,260.9,94.39,260.91,100.2z M254.72,100.42c0-0.24,0-0.48,0-0.72c0.02-1.93-0.07-3.84-0.77-5.67   c-0.51-1.33-1.55-1.89-2.9-1.88c-1.24,0.01-2.13,0.6-2.65,1.77c-0.56,1.25-0.68,2.59-0.77,3.91c-0.21,2.88-0.16,5.76,0.67,8.56   c0.31,1.04,0.92,1.83,2.07,2.07c1.95,0.41,3.26-0.39,3.86-2.43C254.77,104.2,254.75,102.31,254.72,100.42z"></path>
	<path class="st25" d="M220.29,100.37c0.01-6,3.83-9.84,9.76-9.81c5.9,0.04,9.67,3.86,9.65,9.81c-0.01,5.81-3.96,9.76-9.76,9.77   C224.06,110.16,220.28,106.33,220.29,100.37z M233.5,100.48c0.03-2.2,0.05-4.4-0.78-6.49c-0.51-1.29-1.52-1.83-2.83-1.84   c-1.23-0.01-2.15,0.55-2.68,1.72c-0.57,1.25-0.69,2.58-0.79,3.91c-0.21,2.88-0.17,5.76,0.64,8.56c0.31,1.08,0.93,1.89,2.13,2.13   c1.95,0.38,3.23-0.42,3.83-2.49C233.55,104.19,233.54,102.33,233.5,100.48z"></path>
	<path class="st25" d="M166.05,99.55c0,0-0.04,0.31-0.03,1.13c0.04,3.29,1.85,5.78,4.43,6.09c1.63,0.2,3.29,0.18,4.88-0.41   c0.29-0.11,0.58-0.21,0.88-0.28c0.4-0.09,0.56,0.07,0.75,0.36c0.23,0.34,0.02,0.56-0.21,0.8c-3.39,3.47-10.09,3.87-13.69,0.65   c-1.61-1.44-2.32-3.38-2.57-5.47c-0.44-3.6,0.05-6.95,2.98-9.48c2.95-2.54,6.35-3.01,9.92-1.71c2.92,1.07,4.02,3.57,4.31,6.47   c0.05,1.02,0,1.82,0,1.82L166.05,99.55z M165.95,98.06l6.13-0.18c0,0-0.09-2.86-0.28-3.76c-0.28-1.33-1.12-2-2.21-2.11   c-1.14-0.12-2.1,0.78-2.68,1.72C166.22,94.84,165.95,98.06,165.95,98.06z"></path>
	<path class="st25" d="M268.83,93.12c0.81-0.58,1.46-1.08,2.15-1.52c1.03-0.66,2.15-1.09,3.4-1c1.39,0.1,2.4,0.96,2.58,2.11   c0.23,1.52-0.43,2.74-1.66,3.22c-1.29,0.5-2.63,0.18-3.45-0.97c-0.71-1-0.85-1.35-1.47-1.04c-0.5,0.36-1.42,0.95-1.42,0.95   c0,4.12,0,9.31,0,13.42c0,1.37-0.01,1.45-0.01,1.45l-5.79,0.01c0,0-0.01-0.27,0-1.18c0.02-5.46,0.02-10.91,0-16.37   c0-0.66,0-1.09,0-1.09l5.69-0.46C268.83,90.65,268.83,92.41,268.83,93.12z"></path>
</g>
<g id="Auto1_Group_Final" class="st0">
	<polygon id="XMLID_352_" class="st26" points="224.47,76 155.85,76 151.35,97.35 219.97,97.35  "></polygon>
	<polygon id="XMLID_351_" class="st27" points="238.67,76 219.82,76 215.32,97.35 234.17,97.35  "></polygon>
	<g id="XMLID_348_" class="st3">
		<path id="XMLID_349_" class="st28" d="M224.37,93.79c-0.52,0-0.77-0.31-0.66-0.78l2.22-9.45c0.06-0.25,0.12-0.4,0-0.4    c-0.12,0-0.85,0.43-1.49,0.72c-0.36,0.16-1.35,0.54-1.87,0.54s-0.57-0.34-0.46-0.78l0.37-1.57c0.12-0.52,0.34-0.69,0.77-0.83    c0.35-0.11,1.18-0.45,2.05-0.87c1.01-0.49,1.98-1.03,2.26-1.23c0.27-0.2,0.53-0.25,0.85-0.25h2.14c0.6,0,0.88,0.29,0.75,0.83    l-3.14,13.35c-0.08,0.36-0.45,0.74-0.87,0.74H224.37z"></path>
	</g>
	<g id="XMLID_52_" class="st3">
		<path id="XMLID_346_" class="st28" d="M157.56,93.74h-2.75l9.25-13.29h2.88l3.16,13.29h-2.88l-0.8-3.62h-4.8l1.42-2.14h2.91    l-1.11-4.99L157.56,93.74z"></path>
		<path id="XMLID_344_" class="st28" d="M173.09,88.52l1.89-8.07h2.68l-1.89,8.07c-0.5,2.12,0.44,3.18,2.8,3.18    c2.36,0,3.79-1.06,4.28-3.18l1.89-8.07h2.68l-1.89,8.07c-0.83,3.54-3.32,5.32-7.46,5.32C173.92,93.83,172.26,92.06,173.09,88.52z"></path>
		<path id="XMLID_342_" class="st28" d="M199.91,80.45l-0.5,2.14h-4.15l-2.61,11.15h-2.68l2.61-11.15h-4.15l0.5-2.14H199.91z"></path>
		<path id="XMLID_156_" class="st28" d="M199.37,87.11c1.05-4.5,4-6.76,8.84-6.76c4.77,0,6.63,2.25,5.57,6.76    c-1.05,4.48-3.95,6.72-8.72,6.72C200.43,93.83,198.53,91.59,199.37,87.11z M205.56,91.69c2.91,0,4.73-1.55,5.45-4.64    c0.71-3.04-0.39-4.56-3.3-4.56c-2.99,0-4.84,1.52-5.55,4.56C201.44,90.15,202.57,91.69,205.56,91.69z"></path>
	</g>
	<rect id="XMLID_51_" x="151.33" y="102.49" class="st27" width="85.5" height="1.99"></rect>
	<g id="XMLID_49_" class="st3">
		<path id="XMLID_50_" class="st29" d="M153.79,117.27c0-4.03,2.98-6.71,6.67-6.71c2.3,0,3.89,1.01,5.04,2.43l-1.28,0.8    c-0.82-1.05-2.2-1.79-3.76-1.79c-2.84,0-5,2.18-5,5.27c0,3.07,2.16,5.29,5,5.29c1.56,0,2.84-0.76,3.48-1.4v-2.65h-4.46v-1.44h6.07    v4.69c-1.21,1.34-2.98,2.24-5.1,2.24C156.77,124,153.79,121.3,153.79,117.27z"></path>
		<path id="XMLID_54_" class="st29" d="M180.35,123.75l-3.31-5.16h-2.59v5.16h-1.61v-12.98h5.21c2.37,0,4.07,1.52,4.07,3.91    c0,2.33-1.6,3.62-3.37,3.77l3.5,5.29H180.35z M180.45,114.68c0-1.46-1.05-2.47-2.59-2.47h-3.41v4.96h3.41    C179.4,117.17,180.45,116.14,180.45,114.68z"></path>
		<path id="XMLID_157_" class="st29" d="M188.8,117.27c0-3.83,2.59-6.71,6.44-6.71c3.83,0,6.44,2.88,6.44,6.71    c0,3.83-2.61,6.71-6.44,6.71C191.38,123.98,188.8,121.1,188.8,117.27z M200,117.27c0-3.04-1.87-5.27-4.77-5.27    c-2.92,0-4.77,2.24-4.77,5.27c0,3.02,1.85,5.27,4.77,5.27C198.14,122.54,200,120.28,200,117.27z"></path>
		<path id="XMLID_160_" class="st29" d="M208.86,118.71v-7.94h1.61v7.9c0,2.37,1.28,3.87,3.68,3.87c2.39,0,3.68-1.5,3.68-3.87v-7.9    h1.61v7.92c0,3.23-1.77,5.29-5.29,5.29C210.63,123.98,208.86,121.9,208.86,118.71z"></path>
		<path id="XMLID_162_" class="st29" d="M227.13,123.75v-12.98h5.21c2.61,0,4.07,1.79,4.07,3.91c0,2.12-1.5,3.91-4.07,3.91h-3.6    v5.16H227.13z M234.74,114.68c0-1.46-1.05-2.47-2.59-2.47h-3.41v4.94h3.41C233.69,117.15,234.74,116.14,234.74,114.68z"></path>
	</g>
</g>
<g id="Nauto_Final" class="st0">
	<path class="st15" d="M219.96,98.18c0,1.65-0.01,3.29,0,4.94c0.03,2.83,2.04,4.91,4.72,4.92c2.7,0.01,4.77-2.02,4.81-4.86   c0.05-3.39,0.08-6.78-0.02-10.17c-0.04-1.36,0.38-2.11,1.76-2.19c1.29-0.07,1.82,0.54,1.8,2.13c-0.05,3.74,0.25,7.49-0.15,11.21   c-0.46,4.19-4.11,7.13-8.48,6.99c-4.31-0.14-7.81-3.37-7.97-7.58c-0.14-3.68-0.02-7.38-0.05-11.07c-0.01-1.18,0.69-1.63,1.68-1.66   c1.06-0.03,1.86,0.43,1.88,1.65C219.98,94.39,219.96,96.29,219.96,98.18z"></path>
	<path class="st15" d="M177.2,104.02c0,1.79-0.04,3.59,0.01,5.38c0.03,1.24-0.77,1.54-1.71,1.6c-1,0.07-1.83-0.32-1.84-1.47   c-0.02-3.79-0.19-7.59,0.09-11.35c0.32-4.38,4.21-7.58,8.47-7.38c4.57,0.21,7.98,3.61,8.07,8.16c0.07,3.39-0.01,6.78,0.03,10.16   c0.01,1.26-0.6,1.89-1.79,1.87c-1.17-0.02-1.79-0.64-1.78-1.9c0.03-3.29,0.02-6.58,0.01-9.87c-0.01-3.16-1.98-5.28-4.85-5.24   c-2.8,0.04-4.68,2.14-4.7,5.24C177.19,100.83,177.2,102.43,177.2,104.02z"></path>
	<path class="st15" d="M242.4,87.22c0.11,1.06-0.55,2.72,0.24,3.52c0.8,0.8,2.46,0.17,3.74,0.25c0.25,0.02,0.5,0.01,0.75,0   c0.97-0.02,1.51,0.49,1.57,1.42c0.07,1.01-0.47,1.64-1.47,1.7c-1.29,0.08-2.59,0.08-3.88,0.05c-0.71-0.02-0.96,0.23-0.95,0.94   c0.03,3.34-0.02,6.68,0.05,10.01c0.03,1.68,0.94,2.49,2.64,2.64c0.84,0.07,1.69,0.07,2.52,0.21c0.83,0.14,1.35,0.69,1.29,1.56   c-0.07,0.92-0.62,1.44-1.56,1.48c-1.5,0.06-2.99,0.01-4.43-0.46c-2.5-0.81-3.96-2.5-3.99-5.17c-0.09-7.22-0.05-14.44-0.05-21.67   c0-1.19,0.76-1.7,1.85-1.67c1,0.03,1.71,0.5,1.7,1.65C242.39,84.81,242.4,85.9,242.4,87.22z"></path>
	<path class="st15" d="M161.33,86.29c-0.01-2.54-1.68-4.22-4.22-4.25c-4.04-0.04-8.07-0.04-12.11,0c-2.65,0.02-4.28,1.67-4.3,4.31   c-0.03,3.29,0,6.58-0.02,9.87c0,0.4,0.22,0.87-0.26,1.28c-2.71-4.28-5.45-8.49-8.07-12.78c-1.16-1.91-2.67-2.87-4.91-2.7   c-0.64,0.05-1.3,0-1.94,0.01c-2.92,0.03-4.54,1.63-4.54,4.54c-0.01,8.92-0.01,17.84,0,26.76c0,3,1.61,4.59,4.63,4.6   c4.14,0.01,8.27,0.01,12.41,0c3.5,0,5-1.5,5.01-5c0.01-2.17,0-4.33,0-6.5c0.12-0.02,0.23-0.03,0.35-0.05   c1.36,2.14,2.72,4.29,4.08,6.43c3.39,5.34,3.39,5.34,9.7,5.12c2.53-0.09,4.19-1.73,4.2-4.28   C161.35,104.53,161.35,95.41,161.33,86.29z M140.68,113.24c-0.01,1.83-0.57,2.45-2.4,2.46c-4.19,0.03-8.38,0.03-12.56,0   c-1.95-0.01-2.45-0.56-2.45-2.54c-0.01-4.39,0-8.77,0-13.16c0-4.44-0.01-8.87,0-13.31c0-1.86,0.53-2.37,2.41-2.44   c0.6-0.02,1.2,0.03,1.79-0.01c1.35-0.11,2.19,0.47,2.91,1.62c3.15,5.08,6.37,10.12,9.59,15.15c0.5,0.79,0.75,1.56,0.74,2.51   C140.66,106.76,140.69,110,140.68,113.24z M159.01,113.16c0,1.98-0.49,2.54-2.44,2.54c-5.55,0.01-4.25,0.48-6.89-3.6   c-2.06-3.17-4.04-6.4-6.08-9.58c-0.39-0.61-0.61-1.21-0.61-1.94c0.02-4.63,0-9.27,0.01-13.9c0-1.86,0.51-2.4,2.41-2.42   c3.74-0.04,7.47-0.03,11.21,0c1.87,0.02,2.39,0.59,2.39,2.44c0.01,4.43,0,8.87,0,13.3C159.02,104.39,159.02,108.77,159.01,113.16z"></path>
	<path class="st15" d="M210.64,97.81c-0.16-2.8-1.36-5.23-4.22-6.34c-3.03-1.17-5.96-0.66-8.79,0.73c-0.74,0.36-1.15,0.98-0.8,1.84   c0.36,0.88,1.03,1.14,1.94,0.86c0.95-0.29,1.9-0.62,2.87-0.81c3.28-0.66,5.3,0.98,5.55,4.29c0.09,1.18-0.3,1.39-1.38,1.41   c-2.28,0.06-4.59,0.04-6.79,0.81c-2.54,0.89-3.7,2.67-3.56,5.38c0.13,2.46,1.63,4.27,4.11,4.83c2.73,0.61,5.23,0.06,7.63-1.95   c-0.05,1.63,0.72,2.2,1.95,2.15c0.93-0.04,1.62-0.43,1.61-1.54C210.71,105.58,210.86,101.68,210.64,97.81z M207.21,103.32   c-0.05,2.96-2.65,5.3-5.46,5.04c-1.42-0.13-2.55-1.1-2.74-2.34c-0.23-1.5,0.41-2.49,1.97-3.07c1.56-0.58,3.23-0.56,4.85-0.83   C206.96,101.93,207.44,102.3,207.21,103.32z"></path>
	<path class="st15" d="M269.05,99.03c-0.04-3.67-2.21-6.65-5.65-7.78c-3.39-1.12-7.05,0-9.26,2.76c-1.66,2.07-1.76,4.47-1.64,6.95   c0,0.78-0.04,1.58,0.01,2.38c0.24,4.46,3.92,7.8,8.46,7.69c4.42-0.1,7.98-3.6,8.07-7.97C269.07,101.72,269.06,100.37,269.05,99.03z    M265.49,103.14c-0.07,2.59-1.83,4.49-4.31,4.66c-2.7,0.18-4.86-1.44-5.13-4.1c-0.19-1.82-0.19-3.69-0.01-5.51   c0.25-2.63,2.5-4.37,5.1-4.17c2.52,0.19,4.3,2.15,4.36,4.79c0.01,0.7,0,1.39,0,2.09C265.49,101.64,265.51,102.39,265.49,103.14z"></path>
</g>
<g id="ByteDance_Final" class="st0">
	<path class="st30" d="M245.47,109.86h-5.08v-9.84c0-2.08-0.11-3.43-0.33-4.04c-0.22-0.61-0.57-1.09-1.06-1.43   c-0.49-0.34-1.08-0.51-1.76-0.51c-0.88,0-1.67,0.24-2.37,0.73c-0.7,0.48-1.18,1.13-1.44,1.92c-0.26,0.8-0.39,2.28-0.39,4.43v8.73   h-5.08l0.07-18.9l5.24,1.65c2.1-1.98,3-2.4,5.54-2.4c1.12,0,1.95,0.14,2.87,0.54c0.93,0.41,1.63,0.92,2.11,1.55   c0.48,0.63,1.19,1.33,1.37,2.13c0.19,0.8,0.28,1.94,0.28,3.43V109.86z"></path>
	<path class="st30" d="M266.55,97.56l-5.06-0.04c-0.17-0.98-0.87-2.24-1.46-2.73c-0.59-0.5-1.6-0.82-2.55-0.82   c-1.26,0-2.24,0.56-2.99,1.42c-0.75,0.86-1.37,2.31-1.37,4.33c0,2.24,0.63,3.81,1.39,4.74c0.76,0.93,1.8,1.57,3.08,1.57   c0.96,0,1.94-0.28,2.55-0.82c0.61-0.54,1.1-1.42,1.35-2.73h5.06c-0.11,2.21-1.39,4.28-2.85,5.43c-1.46,1.15-3.91,2.02-6.36,2.02   c-2.79,0-5.01-0.87-6.67-2.62c-1.66-1.74-2.49-4.16-2.49-7.24c0-3.12,0.83-5.55,2.49-7.29c1.66-1.74,3.91-2.55,6.75-2.61   c2.82-0.05,5.26,1.07,6.46,2.27C265.13,93.66,266.25,95.68,266.55,97.56z"></path>
	<path class="st30" d="M172.61,103.62l5.14-0.03c-0.68,1.83-1.77,3.6-3.2,4.61c-1.32,0.93-3,1.74-5.19,1.74   c-3.48,0-6.05-1.07-7.72-3.22c-1.32-1.72-1.98-3.89-1.98-6.51c0-3.13,0.87-5.58,2.6-7.35c1.73-1.77,3.92-2.66,6.57-2.66   c2.97,0,5.32,0.93,7.04,2.78c1.72,1.86,2.54,4.48,2.47,8.31h-13.64c0.14,1.52,0.7,2.77,1.52,3.59c0.82,0.82,1.62,1.23,2.84,1.21   c0.85-0.01,1.49-0.25,2.02-0.65C171.63,105.02,172.07,104.58,172.61,103.62z M173.08,98.09c-0.04-1.36-0.45-2.39-1.23-3.1   c-0.78-0.71-1.73-1.06-2.85-1.06c-1.2,0-2.19,0.37-2.97,1.12c-0.78,0.75-1.16,1.76-1.15,3.04H173.08z"></path>
	<path class="st30" d="M127.3,90.7c0,0.01,0,0.03,0,0.04c-0.09,0-0.18,0-0.27,0c-0.67-0.01-1.35-0.03-2.02-0.03   c-0.39,0-0.47,0.14-0.34,0.48c0.53,1.4,1.04,2.81,1.57,4.21c0.35,0.93,0.72,1.86,1.07,2.79c0.21,0.56,0.43,1.12,0.63,1.69   c0.37,1.01,0.73,2.03,1.1,3.04c0.38,1.04,0.77,2.09,1.16,3.13c0.22,0.59,0.46,1.17,0.66,1.76c0.16,0.47,0.33,0.94,0.4,1.42   c0.16,1.14-0.73,2.56-2.12,2.57c-0.78,0-1.56,0.01-2.34,0.02c-0.49,0-0.56,0.08-0.56,0.56c0,0.07,0.01,0.14,0.01,0.22   c0,0.86,0.02,1.73,0,2.59c-0.02,0.73,0.03,0.83,0.78,0.83c1.28-0.01,2.57-0.06,3.85-0.06c0.79-0.01,1.5-0.32,2.18-0.64   c0.97-0.46,1.69-1.23,2.19-2.2c0.21-0.41,0.39-0.84,0.57-1.27c0.22-0.56,0.43-1.12,0.64-1.68c0.22-0.59,0.43-1.18,0.65-1.77   c0.36-0.95,0.73-1.89,1.08-2.84c0.25-0.69,0.48-1.39,0.73-2.08c0.36-0.97,0.73-1.93,1.09-2.9c0.22-0.6,0.43-1.21,0.66-1.82   c0.22-0.59,0.48-1.16,0.69-1.75c0.38-1.05,0.71-2.11,1.1-3.15c0.34-0.91,0.72-1.8,1.08-2.69c0.1-0.25,0-0.44-0.27-0.46   c-0.1-0.01-0.2,0.01-0.3,0.01c-1.39-0.01-2.78-0.01-4.17-0.02c-0.27,0-0.45,0.09-0.55,0.34c-0.11,0.3-0.22,0.61-0.31,0.92   c-0.35,1.15-0.68,2.3-1.04,3.45c-0.39,1.26-0.81,2.51-1.23,3.76c-0.29,0.89-0.59,1.79-0.89,2.68c-0.05,0.14-0.07,0.3-0.11,0.45   c-0.05,0.18-0.09,0.37-0.15,0.55c-0.07,0.19-0.15,0.4-0.4,0.36c-0.24-0.03-0.25-0.26-0.28-0.44c-0.06-0.3-0.1-0.6-0.18-0.89   c-0.06-0.22-0.17-0.41-0.24-0.63c-0.24-0.75-0.47-1.5-0.71-2.25c-0.2-0.62-0.42-1.24-0.62-1.86c-0.22-0.68-0.42-1.37-0.64-2.05   c-0.41-1.26-0.85-2.52-1.26-3.78c-0.15-0.46-0.3-0.58-0.78-0.57C128.7,90.7,128,90.7,127.3,90.7z"></path>
	<path class="st30" d="M148.55,100.61C148.55,100.61,148.55,100.61,148.55,100.61c0,0.86-0.01,1.73,0,2.59   c0.01,1.12-0.04,2.25,0.06,3.37c0.09,1.03,0.59,1.9,1.49,2.47c0.78,0.49,1.63,0.73,2.55,0.76c1.4,0.04,2.8,0.09,4.2,0.12   c0.33,0.01,0.46-0.13,0.5-0.45c0.01-0.11,0.01-0.22,0.01-0.32c0.01-0.81,0-1.62,0.02-2.42c0.02-0.74-0.13-0.9-0.87-0.82   c-0.04,0-0.09,0.02-0.13,0.02c-0.46-0.02-0.94,0-1.39-0.07c-0.96-0.14-1.3-0.79-1.37-1.61c-0.01-0.09-0.01-0.18-0.01-0.27   c-0.01-3.1-0.01-6.2-0.02-9.3c0-0.07,0-0.14,0.02-0.21c0.05-0.3,0.19-0.39,0.49-0.37c0.26,0.02,0.52,0.04,0.78,0.04   c0.65,0.01,1.3-0.01,1.94,0.03c0.35,0.02,0.59-0.09,0.78-0.37c0.59-0.87,1.19-1.73,1.78-2.6c0.06-0.1,0.1-0.28,0.05-0.37   c-0.05-0.09-0.22-0.15-0.34-0.15c-0.25,0-0.5,0.06-0.75,0.06c-1.39,0.01-2.79,0.01-4.18,0.01c-0.48,0-0.59-0.17-0.59-0.65   c0.02-1.45,0.03-2.89,0.03-4.34c0-0.11-0.08-0.27-0.17-0.3c-0.1-0.04-0.25,0.02-0.36,0.08c-0.16,0.08-0.29,0.21-0.45,0.29   c-0.72,0.33-1.44,0.63-2.16,0.97c-0.55,0.26-1.09,0.55-1.64,0.81c-0.23,0.11-0.31,0.27-0.3,0.51c0.02,0.7,0.02,1.4,0.02,2.1   c0,0.39-0.09,0.49-0.49,0.52c-0.07,0-0.14,0.01-0.22,0.01c-0.65-0.01-1.29-0.03-1.94-0.05c-0.4-0.01-0.55,0.15-0.53,0.53   c0.01,0.27,0.02,0.54,0.02,0.81c0,0.53-0.01,1.06,0,1.59c0.01,0.37,0.22,0.57,0.55,0.55c0.63-0.03,1.26-0.06,1.88-0.08   c0.57-0.02,0.72,0.12,0.72,0.7C148.55,96.73,148.55,98.67,148.55,100.61z"></path>
	<path class="st30" d="M127.3,90.7c0.7,0,1.4,0.01,2.1,0c0.48-0.01,0.63,0.11,0.78,0.57c0.41,1.26,0.84,2.52,1.26,3.78   c0.22,0.68,0.43,1.37,0.64,2.05c0.2,0.62,0.42,1.24,0.62,1.86c0.24,0.75,0.47,1.5,0.71,2.25c0.07,0.21,0.18,0.41,0.24,0.63   c0.08,0.29,0.12,0.6,0.18,0.89c0.04,0.18,0.05,0.41,0.28,0.44c0.25,0.03,0.33-0.17,0.4-0.36c0.06-0.18,0.1-0.36,0.15-0.55   c0.04-0.15,0.06-0.3,0.11-0.45c0.29-0.89,0.59-1.79,0.89-2.68c0.41-1.25,0.83-2.5,1.23-3.76c0.36-1.15,0.69-2.3,1.04-3.45   c0.09-0.31,0.2-0.62,0.31-0.92c0.09-0.25,0.27-0.34,0.55-0.34c1.39,0.02,2.78,0.02,4.17,0.02c0.1,0,0.2-0.02,0.3-0.01   c0.27,0.02,0.37,0.21,0.27,0.46c-0.36,0.9-0.74,1.79-1.08,2.69c-0.39,1.04-0.72,2.1-1.1,3.15c-0.21,0.59-0.47,1.16-0.69,1.75   c-0.23,0.6-0.43,1.21-0.66,1.82c-0.36,0.97-0.73,1.93-1.09,2.9c-0.25,0.69-0.48,1.39-0.73,2.08c-0.35,0.95-0.72,1.89-1.08,2.84   c-0.22,0.59-0.43,1.18-0.65,1.77c-0.21,0.56-0.42,1.13-0.64,1.68c-0.17,0.43-0.36,0.86-0.57,1.27c-0.49,0.96-1.21,1.74-2.19,2.2   c-0.68,0.32-1.39,0.63-2.18,0.64c-1.28,0.01-2.57,0.06-3.85,0.06c-0.75,0-0.8-0.09-0.78-0.83c0.02-0.86,0-1.72,0-2.59   c0-0.07-0.01-0.14-0.01-0.22c0-0.49,0.06-0.56,0.56-0.56c0.78-0.01,1.56-0.01,2.34-0.02c1.4,0,2.29-1.43,2.12-2.57   c-0.07-0.48-0.24-0.96-0.4-1.42c-0.2-0.59-0.44-1.17-0.66-1.76c-0.39-1.04-0.78-2.08-1.16-3.13c-0.37-1.01-0.73-2.03-1.1-3.04   c-0.21-0.56-0.42-1.13-0.63-1.69c-0.36-0.93-0.72-1.86-1.07-2.79c-0.53-1.4-1.04-2.81-1.57-4.21c-0.13-0.34-0.05-0.48,0.34-0.48   c0.67,0,1.35,0.02,2.02,0.03c0.09,0,0.18,0,0.27,0C127.3,90.73,127.3,90.71,127.3,90.7z"></path>
	<path class="st30" d="M148.55,100.61c0-1.94,0-3.88,0-5.82c0-0.58-0.15-0.72-0.72-0.7c-0.63,0.02-1.26,0.05-1.88,0.08   c-0.33,0.01-0.54-0.18-0.55-0.55c-0.01-0.53,0-1.06,0-1.59c0-0.27-0.01-0.54-0.02-0.81c-0.02-0.38,0.14-0.54,0.53-0.53   c0.65,0.01,1.29,0.03,1.94,0.05c0.07,0,0.14,0,0.22-0.01c0.39-0.03,0.49-0.12,0.49-0.52c0-0.7,0-1.4-0.02-2.1   c-0.01-0.25,0.07-0.4,0.3-0.51c0.55-0.26,1.09-0.56,1.64-0.81c0.71-0.33,1.44-0.64,2.16-0.97c0.16-0.07,0.29-0.21,0.45-0.29   c0.11-0.05,0.26-0.11,0.36-0.08c0.08,0.03,0.17,0.2,0.17,0.3c0,1.45-0.01,2.89-0.03,4.34c-0.01,0.49,0.11,0.65,0.59,0.65   c1.39,0,2.79,0,4.18-0.01c0.25,0,0.5-0.06,0.75-0.06c0.12,0,0.29,0.06,0.34,0.15c0.05,0.09,0.01,0.27-0.05,0.37   c-0.58,0.87-1.18,1.73-1.78,2.6c-0.19,0.28-0.43,0.39-0.78,0.37c-0.64-0.04-1.29-0.02-1.94-0.03c-0.26,0-0.52-0.02-0.78-0.04   c-0.3-0.02-0.43,0.07-0.49,0.37c-0.01,0.07-0.02,0.14-0.02,0.21c0,3.1,0.01,6.2,0.02,9.3c0,0.09,0,0.18,0.01,0.27   c0.07,0.83,0.41,1.47,1.37,1.61c0.46,0.07,0.93,0.05,1.39,0.07c0.04,0,0.09-0.01,0.13-0.02c0.74-0.08,0.89,0.08,0.87,0.82   c-0.02,0.81-0.01,1.62-0.02,2.42c0,0.11,0,0.22-0.01,0.32c-0.04,0.31-0.17,0.45-0.5,0.45c-1.4-0.03-2.8-0.08-4.2-0.12   c-0.92-0.03-1.77-0.27-2.55-0.76c-0.91-0.57-1.41-1.44-1.49-2.47c-0.09-1.12-0.05-2.24-0.06-3.37   C148.54,102.34,148.55,101.48,148.55,100.61C148.55,100.61,148.55,100.61,148.55,100.61z"></path>
	<path class="st30" d="M102.74,97.1c0,3.41,0,6.83,0,10.24c0,0.68-0.02,1.37-0.03,2.05c0,0.41,0.15,0.55,0.56,0.54   c0.43-0.01,0.86-0.01,1.29-0.01c3.12,0,6.24,0.01,9.35-0.01c0.98,0,1.96-0.05,2.93-0.12c1.63-0.11,3.13-0.66,4.47-1.58   c1.15-0.79,2.06-1.82,2.52-3.18c0.69-2,0.58-3.97-0.28-5.9c-0.53-1.2-1.36-2.1-2.53-2.69c-0.25-0.13-0.53-0.2-0.8-0.31   c-0.15-0.06-0.29-0.15-0.43-0.22c0.1-0.15,0.2-0.3,0.31-0.44c0.04-0.04,0.11-0.05,0.17-0.09c0.21-0.13,0.42-0.24,0.61-0.39   c0.99-0.75,1.63-1.73,1.94-2.93c0.07-0.27,0.14-0.54,0.14-0.82c0.02-0.65,0.06-1.32-0.03-1.96c-0.14-1.06-0.46-2.06-1.16-2.91   c-0.69-0.82-1.56-1.38-2.56-1.73c-1.17-0.41-2.38-0.63-3.62-0.64c-3.81-0.01-7.62,0-11.43,0c-0.35,0-0.7-0.01-1.05-0.01   c-0.36,0-0.47,0.13-0.43,0.48c0.02,0.24,0.04,0.48,0.04,0.73C102.74,89.17,102.74,93.13,102.74,97.1z M108.27,101.91   c0-1.04,0.01-2.08,0-3.13c0-0.26,0.1-0.39,0.35-0.41c0.15-0.02,0.3-0.04,0.46-0.04c1.8,0,3.59,0.01,5.39-0.01   c0.87-0.01,1.68,0.18,2.44,0.57c0.92,0.48,1.49,1.25,1.61,2.31c0.04,0.32,0.03,0.65,0.07,0.97c0.1,0.86-0.21,1.6-0.79,2.18   c-0.35,0.36-0.83,0.64-1.3,0.82c-0.73,0.27-1.52,0.35-2.31,0.34c-1.72-0.01-3.45,0-5.17,0c-0.1,0-0.2,0-0.3-0.01   c-0.34-0.04-0.43-0.15-0.43-0.49C108.27,103.98,108.28,102.95,108.27,101.91C108.27,101.91,108.27,101.91,108.27,101.91z    M111.95,94.51c-0.98,0-1.96,0-2.94,0c-0.08,0-0.16,0-0.24-0.01c-0.4-0.04-0.5-0.15-0.5-0.55c0-1.69,0-3.38,0-5.06   c0-0.32,0.06-0.4,0.39-0.41c0.39-0.02,0.79-0.01,1.18-0.01c1.67,0.01,3.34,0,5.01,0.05c0.78,0.02,1.48,0.37,2.03,0.94   c0.41,0.42,0.6,0.98,0.66,1.53c0.11,1.02-0.09,1.99-0.91,2.69c-0.5,0.42-1.07,0.75-1.77,0.76c-0.97,0.01-1.94,0.06-2.91,0.09   C111.95,94.52,111.95,94.52,111.95,94.51z"></path>
	<path class="st30" d="M281.57,103.62l5.14-0.03c-0.68,1.83-1.77,3.6-3.2,4.61c-1.32,0.93-3,1.74-5.19,1.74   c-3.48,0-6.05-1.07-7.72-3.22c-1.32-1.72-1.98-3.89-1.98-6.51c0-3.13,0.87-5.58,2.6-7.35c1.73-1.77,3.92-2.66,6.57-2.66   c2.97,0,5.32,0.93,7.04,2.78c1.72,1.86,2.54,4.48,2.47,8.31h-13.64c0.14,1.52,0.7,2.77,1.52,3.59c0.82,0.82,1.62,1.23,2.84,1.21   c0.85-0.01,1.49-0.25,2.02-0.65C280.59,105.02,281.04,104.58,281.57,103.62z M282.05,98.09c-0.04-1.36-0.45-2.39-1.23-3.1   c-0.78-0.71-1.73-1.06-2.85-1.06c-1.2,0-2.19,0.37-2.97,1.12c-0.78,0.75-1.16,1.76-1.15,3.04H282.05z"></path>
	<path class="st30" d="M224.87,109.8l-4.67-1.24c-1.38,0.86-2.99,1.35-4.71,1.35c-5.15,0-9.32-3.82-9.32-9.89   c0-6.23,4.17-9.89,9.32-9.89c1.45,0,2.81,0.35,4.03,0.97l5.35-0.13V109.8z M215.46,93.96c-2.44,0-4.41,2.74-4.41,6.12   s1.97,6.12,4.41,6.12c2.44,0,4.41-2.74,4.41-6.12S217.9,93.96,215.46,93.96z"></path>
	<path class="st30" d="M180.77,97.39c0-3.99,0-7.98,0-11.97c0-0.19-0.01-0.38-0.03-0.56c-0.05-0.43,0.05-0.55,0.5-0.55   c0.54,0,1.08,0,1.62,0c3.25,0,6.5-0.01,9.76,0.01c1.28,0.01,2.52,0.35,3.73,0.74c0.95,0.31,1.83,0.75,2.62,1.34   c1.24,0.91,2.28,2.02,2.96,3.41c0.43,0.87,0.8,1.76,1.12,2.68c0.19,0.55,0.21,1.16,0.31,1.75c0.22,1.28,0.29,2.57,0.22,3.86   c-0.02,0.45-0.08,0.89-0.14,1.34c-0.08,0.58-0.18,1.15-0.27,1.73c-0.13,0.81-0.38,1.59-0.73,2.33c-0.32,0.67-0.63,1.36-1.03,1.98   c-0.82,1.27-1.88,2.3-3.17,3.1c-1.1,0.68-2.27,1.18-3.54,1.39c-0.98,0.17-1.98,0.24-2.98,0.25c-3.05,0.03-6.09,0.01-9.14,0.01   c-0.44,0-0.88-0.01-1.32-0.01c-0.36,0-0.5-0.11-0.51-0.48c-0.01-0.57,0-1.13,0-1.7c0-3.55,0-7.1,0-10.65   C180.76,97.39,180.76,97.39,180.77,97.39z M189.5,105.46c0,0.01,0,0.02,0,0.03c0.57,0,1.15-0.02,1.72,0c1.2,0.05,2.3-0.29,3.36-0.8   c0.91-0.44,1.62-1.14,2.11-2.02c0.62-1.12,1.15-2.28,1.1-3.61c0-0.13,0.02-0.25,0.02-0.38c-0.01-1.72,0.17-3.45-0.44-5.12   c-0.27-0.75-0.59-1.46-1.09-2.09c-0.84-1.04-1.88-1.81-3.18-2.08c-0.92-0.19-1.87-0.24-2.81-0.29c-1.11-0.06-2.22-0.05-3.34-0.07   c-0.35-0.01-0.57,0.2-0.56,0.57c0.01,0.22,0.04,0.43,0.04,0.64c0,4.63,0,9.25,0,13.88c0,0.21-0.01,0.43-0.04,0.64   c-0.05,0.5,0.08,0.67,0.58,0.67C187.83,105.46,188.67,105.46,189.5,105.46z"></path>
</g>
<g id="Guardant_Health_Final" class="st0">
	<g class="st3">
		<path class="st31" d="M107.94,99.69h6.84c0.01,0.09,0.02,0.18,0.03,0.29c0,0.1,0.01,0.26,0.01,0.47c0,2.25-0.64,4.07-1.93,5.46    c-1.28,1.39-2.95,2.09-4.98,2.09c-2.33,0-4.25-0.74-5.76-2.23c-1.51-1.49-2.27-3.37-2.27-5.66c0-2.27,0.76-4.14,2.28-5.63    c1.52-1.48,3.43-2.22,5.75-2.22c1.22,0,2.34,0.26,3.36,0.77c1.02,0.51,1.93,1.28,2.73,2.3l-2.16,1.6    c-0.54-0.67-1.11-1.15-1.7-1.45c-0.59-0.3-1.28-0.45-2.06-0.45c-1.48,0-2.67,0.46-3.56,1.38c-0.89,0.92-1.33,2.16-1.33,3.7    c0,1.52,0.45,2.74,1.34,3.67c0.89,0.93,2.06,1.4,3.49,1.4c1.05,0,1.91-0.25,2.56-0.74c0.66-0.5,0.98-1.14,0.98-1.94v-0.16h-3.61    V99.69z"></path>
		<path class="st31" d="M129.73,92.6v9.34c0,2.04-0.54,3.56-1.61,4.56c-1.07,1-2.69,1.51-4.85,1.51c-2.19,0-3.83-0.5-4.9-1.51    c-1.07-1-1.61-2.52-1.61-4.56V92.6h3.19v8.84c0,1.24,0.27,2.17,0.82,2.79c0.55,0.63,1.36,0.94,2.45,0.94    c1.09,0,1.92-0.31,2.48-0.94c0.56-0.63,0.84-1.56,0.84-2.79V92.6H129.73z"></path>
		<path class="st31" d="M130.37,107.6l5.71-15.01h3.67l5.79,15.01h-3.65l-1.22-3.19h-5.81l-1.05,3.19H130.37z M139.92,101.89    l-1.68-4.85c-0.05-0.14-0.11-0.39-0.18-0.74c-0.08-0.35-0.15-0.78-0.24-1.28c-0.09,0.49-0.17,0.92-0.26,1.31    c-0.08,0.39-0.14,0.64-0.18,0.77l-1.62,4.79H139.92z"></path>
		<path class="st31" d="M157.45,107.6h-3.7l-3.95-7.01v7.01h-3.21V92.6h4.59c1.82,0,3.19,0.35,4.1,1.06    c0.91,0.71,1.36,1.77,1.36,3.19c0,1.03-0.31,1.91-0.93,2.64c-0.62,0.73-1.42,1.16-2.41,1.28L157.45,107.6z M149.8,98.99h0.48    c1.3,0,2.16-0.14,2.57-0.43c0.42-0.28,0.63-0.78,0.63-1.48c0-0.74-0.22-1.26-0.67-1.57c-0.45-0.31-1.29-0.47-2.53-0.47h-0.48    V98.99z"></path>
		<path class="st31" d="M158.79,107.6V92.6h4.09c1.61,0,2.88,0.11,3.81,0.34c0.93,0.23,1.75,0.6,2.45,1.13    c0.91,0.68,1.6,1.53,2.07,2.56c0.47,1.03,0.7,2.2,0.7,3.51c0,1.33-0.24,2.51-0.72,3.54c-0.48,1.03-1.18,1.88-2.1,2.55    c-0.68,0.49-1.44,0.85-2.28,1.06c-0.84,0.22-2.06,0.32-3.67,0.32H162H158.79z M162,104.89h1.78c1.68,0,2.91-0.38,3.67-1.15    c0.77-0.77,1.15-1.98,1.15-3.64c0-1.65-0.38-2.86-1.15-3.63c-0.77-0.77-1.99-1.15-3.67-1.15H162V104.89z"></path>
		<path class="st31" d="M171.92,107.6l5.71-15.01h3.67l5.79,15.01h-3.65l-1.22-3.19h-5.81l-1.05,3.19H171.92z M181.47,101.89    l-1.68-4.85c-0.05-0.14-0.11-0.39-0.18-0.74c-0.08-0.35-0.15-0.78-0.24-1.28c-0.09,0.49-0.17,0.92-0.26,1.31    c-0.08,0.39-0.14,0.64-0.18,0.77l-1.62,4.79H181.47z"></path>
		<path class="st31" d="M188.14,107.6V92.6h3.33l6.64,8.73c0.19,0.25,0.4,0.59,0.63,1.04c0.23,0.45,0.47,0.98,0.71,1.58    c-0.08-0.44-0.13-0.88-0.16-1.32c-0.03-0.44-0.05-0.98-0.05-1.64V92.6h3.06v15.01h-3.15l-6.83-8.9c-0.19-0.25-0.4-0.59-0.63-1.04    c-0.23-0.45-0.46-0.98-0.72-1.6c0.08,0.43,0.13,0.87,0.16,1.31c0.03,0.44,0.05,1,0.05,1.67v8.57H188.14z"></path>
		<path class="st31" d="M210.73,95.32v12.28h-3.22V95.32h-3.67V92.6h10.56v2.73H210.73z"></path>
	</g>
	<g class="st3">
		<path class="st32" d="M219.05,107.6V92.59h1.78v5.77h7.97v-5.77h1.81v15.01h-1.81v-7.53h-7.97v7.53H219.05z"></path>
		<path class="st32" d="M233.68,107.6V92.59h7.91v1.63h-6.13v4.3h6.13v1.66h-6.13v5.75h6.13v1.66H233.68z"></path>
		<path class="st32" d="M248.84,92l6.83,15.6h-1.94l-1.95-4.6h-5.86l-1.95,4.6h-1.94L248.84,92z M248.84,95.95l-2.39,5.52h4.78    L248.84,95.95z"></path>
		<path class="st32" d="M256.69,107.6V92.59h1.78v13.3h5.67v1.7H256.69z"></path>
		<path class="st32" d="M267.21,107.6V94.3h-4.24v-1.7h10.27v1.7h-4.22v13.3H267.21z"></path>
		<path class="st32" d="M274.7,107.6V92.59h1.78v5.77h7.97v-5.77h1.81v15.01h-1.81v-7.53h-7.97v7.53H274.7z"></path>
	</g>
	<g class="st3">
		<path class="st32" d="M289.22,92.63c0.18,0.08,0.34,0.18,0.47,0.32c0.13,0.14,0.24,0.29,0.32,0.48c0.08,0.18,0.12,0.38,0.12,0.59    c0,0.21-0.04,0.41-0.12,0.59c-0.08,0.18-0.18,0.34-0.32,0.47c-0.13,0.13-0.29,0.24-0.47,0.32c-0.18,0.08-0.38,0.11-0.59,0.11    c-0.21,0-0.41-0.04-0.59-0.11c-0.18-0.08-0.34-0.18-0.47-0.32c-0.13-0.13-0.24-0.29-0.32-0.47c-0.08-0.18-0.12-0.38-0.12-0.59    c0-0.21,0.04-0.4,0.12-0.59c0.08-0.18,0.18-0.34,0.32-0.48c0.13-0.14,0.29-0.24,0.47-0.32c0.18-0.08,0.38-0.11,0.59-0.11    C288.84,92.51,289.04,92.55,289.22,92.63z M288.13,92.83c-0.15,0.07-0.29,0.16-0.4,0.27c-0.11,0.12-0.2,0.25-0.26,0.41    c-0.06,0.16-0.09,0.32-0.09,0.5s0.03,0.35,0.09,0.5c0.06,0.16,0.15,0.29,0.26,0.41c0.11,0.12,0.25,0.21,0.4,0.27    c0.15,0.07,0.32,0.1,0.51,0.1c0.18,0,0.35-0.03,0.5-0.1c0.15-0.07,0.29-0.16,0.4-0.27c0.11-0.12,0.2-0.25,0.27-0.41    c0.06-0.16,0.1-0.32,0.1-0.5s-0.03-0.35-0.1-0.5c-0.06-0.16-0.15-0.29-0.27-0.41c-0.11-0.12-0.25-0.21-0.4-0.27    c-0.15-0.07-0.32-0.1-0.5-0.1C288.45,92.73,288.28,92.76,288.13,92.83z M288.09,94.87v-1.73h0.66c0.2,0,0.34,0.04,0.43,0.12    c0.09,0.08,0.13,0.2,0.13,0.36c0,0.08-0.01,0.14-0.03,0.2c-0.02,0.06-0.05,0.1-0.09,0.14c-0.04,0.04-0.09,0.07-0.14,0.09    c-0.05,0.02-0.11,0.04-0.17,0.05l0.51,0.77h-0.25l-0.49-0.77h-0.36v0.77H288.09z M288.77,93.92c0.06,0,0.12-0.02,0.17-0.03    c0.05-0.02,0.09-0.05,0.12-0.09c0.03-0.04,0.04-0.1,0.04-0.17c0-0.06-0.01-0.11-0.03-0.15c-0.02-0.04-0.05-0.07-0.09-0.09    c-0.04-0.02-0.08-0.04-0.13-0.05c-0.05-0.01-0.1-0.01-0.15-0.01h-0.39v0.6h0.28C288.65,93.92,288.71,93.92,288.77,93.92z"></path>
	</g>
</g>
<g id="Vir_Final" class="st0">
	<rect x="193.84" y="76.06" class="st33" width="7.62" height="47.85"></rect>
	<rect x="182.13" y="76.06" class="st33" width="7.62" height="47.85"></rect>
	<polyline class="st33" points="182.13,123.91 180.79,123.91 148,76.07 156.9,76.06 182.19,112.82  "></polyline>
	<path class="st33" d="M228.26,104.79c0.5-0.13,0.95-0.25,1.41-0.38c4.13-1.13,6.98-3.64,8.22-7.79c1.07-3.58,1.13-7.21,0.17-10.82   c-0.99-3.72-3.23-6.46-6.73-8.13c-2.22-1.06-4.58-1.56-7.03-1.57c-2.76-0.01-5.6-0.01-8.45-0.01h-2.6h-0.79h-6.83v47.82h7.62V83.03   h2.6c2.44,0.01,5.02,0.01,7.3,0.01c0.7,0,1.4,0.05,2.09,0.2c2.86,0.62,4.82,2.23,5.52,5.14c0.44,1.84,0.39,3.7-0.14,5.52   c-0.56,1.9-1.79,3.19-3.68,3.83c-0.87,0.29-1.76,0.46-2.68,0.47c-2.49,0.03-4.99,0.02-7.48,0.03c-0.12,0-0.42,0-0.42,0   c0.07,0.11,0.18,0.28,0.25,0.39c5.56,8.34,11.32,16.98,16.87,25.32l8.52,0C237.45,117.59,232.83,111.16,228.26,104.79z"></path>
	<polyline class="st34" points="177.99,100.84 161.22,76.1 178.11,76.09 178.11,100.74  "></polyline>
</g>
<g id="Ping_An_Final" class="st0">
	<g class="st3">
		<path class="st35" d="M128,86.73h-16.35c-0.35,0-0.64,0.28-0.64,0.63v25.29c0,0.35,0.28,0.63,0.64,0.63h4.52    c0.35,0,0.63-0.28,0.63-0.63v-7.47h11.19c5,0,9.07-2.95,9.07-7.42v-2.96C137.06,90.33,133,86.73,128,86.73z M131.01,99.87H131    c0,0.35-0.28,0.63-0.63,0.63h-13.56v-9.11h13.58c0.35,0,0.63,0.3,0.63,0.64V99.87z"></path>
		<path class="st35" d="M146.06,86.73h-4.47c-0.36,0-0.64,0.28-0.64,0.63v25.29c0,0.35,0.28,0.63,0.64,0.63h4.47    c0.35,0,0.63-0.28,0.63-0.63V87.36C146.7,87.01,146.41,86.73,146.06,86.73z"></path>
		<polygon class="st35" points="131,99.87 131,99.87 131,99.87   "></polygon>
		<path class="st35" d="M236.37,87.42L236.37,87.42c-0.24-0.44-0.64-0.74-1.15-0.74h-3.96c-0.5,0-0.9,0.3-1.15,0.74l-12.49,24.59    c-0.42,0.8-0.05,1.27,0.68,1.27h3.96c0.59,0,0.79-0.15,1.09-0.7l9.89-19.8l9.9,19.79c0.3,0.55,0.51,0.7,1.09,0.7h3.94    c0.75,0,1.1-0.47,0.68-1.27L236.37,87.42z"></path>
		<path class="st35" d="M178.47,86.73L178.47,86.73h-4.01c-0.35,0-0.63,0.28-0.63,0.63v18.31c-2.09-2.37-15.96-18.1-16.31-18.47    c-0.38-0.4-0.87-0.47-1.21-0.47h-3.97c-0.36,0-0.63,0.28-0.63,0.63v25.29c0,0.35,0.27,0.63,0.63,0.63h4.02    c0.34,0,0.63-0.28,0.63-0.63V94.18c1.52,1.72,16.1,18.24,16.46,18.62c0.38,0.4,0.87,0.47,1.21,0.47h3.82    c0.35,0,0.63-0.28,0.63-0.63V87.36C179.1,87.01,178.82,86.73,178.47,86.73z"></path>
		<path class="st35" d="M278.34,86.73L278.34,86.73h-4.01c-0.35,0-0.63,0.28-0.63,0.63c0,0,0,0,0,0v18.31    c-2.09-2.37-15.96-18.1-16.31-18.47c-0.38-0.4-0.87-0.47-1.21-0.47h-3.97c-0.35,0-0.64,0.28-0.64,0.63v25.29    c0,0.35,0.3,0.63,0.64,0.63h4.01c0.35,0,0.64-0.28,0.64-0.63V94.18c1.5,1.72,16.08,18.24,16.45,18.62    c0.38,0.4,0.87,0.47,1.21,0.47h3.84c0.35,0,0.64-0.28,0.64-0.63V87.36C278.99,87.01,278.69,86.73,278.34,86.73z"></path>
		<path class="st35" d="M196.73,98.44v3.74c0,0.36,0.3,0.64,0.64,0.64h7.69v5.16c0,0.35-0.28,0.63-0.63,0.63h-14.72    c-0.36,0-0.64-0.28-0.64-0.63V92.04c0-0.36,0.29-0.64,0.64-0.64h14.72c0.36,0,0.63,0.3,0.63,0.64v3.05c0,0.35,0.28,0.63,0.64,0.63    h4.44c0.35,0,0.64-0.28,0.64-0.63v-0.64c0-4.47-4.08-8.08-9.09-8.08h0h-9.24c-5.02,0-9.08,3.61-9.08,8.08v11.12    c0,4.45,4.06,8.08,9.08,8.08h9.24c5.02,0,9.09-3.62,9.09-8.08v-7.12H196.73z"></path>
	</g>
	<path class="st36" d="M236.65,105.33h-6.83c-0.35,0-0.63,0.3-0.63,0.64v6.67c0,0.35,0.28,0.64,0.63,0.64h6.83   c0.35,0,0.63-0.28,0.63-0.64v-6.67C237.28,105.63,236.99,105.33,236.65,105.33"></path>
</g>
<g id="Improbable_Final" class="st0">
	<rect x="146.56" y="91.78" class="st3" width="3.26" height="16.59"></rect>
	<polygon class="st3" points="165.37,108.37 165.37,98.65 162.21,104.96 160.03,104.96 156.78,98.65 156.78,108.37 153.67,108.37    153.67,91.78 156.8,91.78 161.12,100.73 165.43,91.78 168.63,91.78 168.63,108.37  "></polygon>
	<g class="st3">
		<path d="M178.73,94.59h-2.99v4.59h2.99c1.46,0,2.39-0.94,2.39-2.28C181.12,95.55,180.19,94.59,178.73,94.59 M178.89,102h-3.15    v6.37h-3.26V91.78h6.41c3.42,0,5.46,2.3,5.46,5.11C184.35,99.7,182.31,102,178.89,102"></path>
		<path d="M193.35,94.59h-3.1v4.45h3.1c1.42,0,2.35-0.94,2.35-2.22C195.7,95.54,194.77,94.59,193.35,94.59 M195.87,108.37    l-3.23-6.67h-2.38v6.67h-3.11V91.78h6.42c3.37,0,5.37,2.29,5.37,5.05c0,2.33-1.42,3.79-3.02,4.38l3.7,7.16H195.87z"></path>
		<path d="M209.91,95.37c-0.46-0.53-1.19-0.88-2.07-0.88c-0.88,0-1.63,0.35-2.09,0.88c-0.63,0.7-0.79,1.47-0.79,4.65    s0.16,3.95,0.79,4.65c0.46,0.53,1.21,0.88,2.09,0.88c0.88,0,1.61-0.35,2.07-0.88c0.63-0.7,0.81-1.47,0.81-4.65    S210.54,96.07,209.91,95.37 M212.31,106.63c-1.16,1.16-2.58,1.81-4.47,1.81c-1.88,0-3.33-0.65-4.49-1.81    c-1.67-1.67-1.63-3.74-1.63-6.61s-0.05-4.93,1.63-6.61c1.16-1.16,2.6-1.81,4.49-1.81c1.88,0,3.3,0.65,4.47,1.81    c1.67,1.67,1.65,3.74,1.65,6.61S213.98,104.95,212.31,106.63"></path>
		<path d="M223.87,101.41h-3.38v4h3.38c1.47,0,2.16-0.89,2.16-2.01C226.03,102.28,225.33,101.41,223.87,101.41 M223.66,94.59h-3.18    v3.85h3.18c1.37,0,2.14-0.79,2.14-1.92C225.8,95.38,225.03,94.59,223.66,94.59 M224.19,108.37h-6.97V91.78h6.69    c3.23,0,5.12,1.8,5.12,4.64c0,1.84-1.21,3.01-2.05,3.41c1,0.46,2.28,1.54,2.28,3.75C229.26,106.67,227.15,108.37,224.19,108.37"></path>
	</g>
	<path class="st3" d="M238.12,96.57l-2.09,6.02h4.12L238.12,96.57z M241.98,108.37l-0.98-2.96h-5.88l-1,2.96h-3.37l6.02-16.59h2.53   l6.05,16.59H241.98z"></path>
	<g class="st3">
		<path d="M254.01,101.41h-3.3v4h3.3c1.47,0,2.16-0.89,2.16-2.01C256.17,102.28,255.47,101.41,254.01,101.41 M253.8,94.59h-3.09    v3.85h3.09c1.37,0,2.14-0.79,2.14-1.92C255.94,95.38,255.17,94.59,253.8,94.59 M254.33,108.37h-6.89V91.78h6.61    c3.23,0,5.12,1.8,5.12,4.64c0,1.84-1.21,3.01-2.05,3.41c1,0.46,2.28,1.54,2.28,3.75C259.4,106.67,257.29,108.37,254.33,108.37"></path>
	</g>
	<polygon class="st3" points="262.7,108.37 262.7,91.78 265.96,91.78 265.96,105.41 273.52,105.41 273.52,108.37  "></polygon>
	<polygon class="st3" points="276.04,91.78 276.04,108.37 287,108.37 287,105.41 279.3,105.41 279.3,101.41 285.81,101.41    285.81,98.44 279.3,98.44 279.3,94.59 287,94.59 287,91.78  "></polygon>
	<path class="st3" d="M106.26,87.33h25.48v25.48h-25.48V87.33z M103,115.93h31.85V84.07H103V115.93z"></path>
	<rect x="117.37" y="94" class="st3" width="3.11" height="12.15"></rect>
	<path class="st3" d="M128.35,89.55c0.59,0,1.06,0.48,1.06,1.06s-0.48,1.06-1.06,1.06c-0.59,0-1.06-0.48-1.06-1.06   S127.77,89.55,128.35,89.55 M128.35,92.74c1.17,0,2.12-0.95,2.12-2.12s-0.95-2.12-2.12-2.12c-1.17,0-2.12,0.95-2.12,2.12   S127.18,92.74,128.35,92.74"></path>
</g>
<g id="Tokopedia_Final">
	<g>
		<path class="st37" d="M241.92,92.1h3.31v16.03H245c-1.7,0-3.08-1.38-3.08-3.08V92.1z M214.02,108.41    c-2.11,0.45-4.19,0.1-6.21-1.03c-1.97-1.1-3.3-2.74-3.96-4.91c-1.34-4.38,1.41-9.26,5.82-10.44c2.19-0.59,4.29-0.32,6.28,0.79    c3.31,1.85,4.52,4.71,4.31,8.4l-13.33-0.03c0.2,1.5,1.13,2.68,2.44,3.41c1.33,0.74,2.55,0.92,3.68,0.57    c1.26-0.4,2.28-1.42,3.11-2.38l2.72,1.98C217.76,106.76,216.25,107.93,214.02,108.41z M216.54,98.2c-0.42-1.29-0.94-1.93-2.15-2.6    c-2.87-1.6-5.69-0.24-7,2.59L216.54,98.2z M261.84,99.13c0-1.3-0.49-2.34-1.49-3.12c-0.89-0.7-2.01-1.06-3.37-1.06    c-2.99,0-4.92,2.34-4.92,5.23c0,2.78,2.04,5.1,4.89,5.1c1.98,0,3.04-1.16,4.17-2.6v4.16c-0.58,0.43-1.24,0.9-1.91,1.18    c-0.71,0.3-1.56,0.44-2.55,0.44c-4.76,0-7.9-3.95-7.9-8.5c0-2.34,0.73-4.28,2.19-5.79c1.55-1.6,3.59-2.39,6.08-2.39    c4.73,0,8.11,2.71,8.11,7.62v8.73h-0.23c-1.7,0-3.08-1.38-3.08-3.08V99.13z M245.03,90.2c-0.35,0.39-0.85,0.57-1.45,0.57    c-1.14,0-1.95-0.84-1.95-1.96c0-1.15,0.8-1.93,1.95-1.93c1.11,0,1.95,0.82,1.95,1.93C245.52,89.35,245.36,89.82,245.03,90.2z     M235.68,106.01c-1.52,1.63-3.47,2.44-5.84,2.44c-2.5,0-4.54-0.86-6.09-2.6c-1.46-1.64-2.18-3.69-2.18-6.14    c0-4.33,3.34-7.95,7.74-7.95c1.7,0,3.17,0.36,4.66,1.17v3.58c-1.19-0.81-2.69-1.58-4.17-1.58c-3.08,0-4.92,2.12-4.92,5.13    c0,2.97,1.94,5.2,4.98,5.2c1.38,0,2.51-0.52,3.42-1.55c0.9-1.03,1.37-2.55,1.37-4.59V87.99c0-1.7,1.38-3.08,3.08-3.08h0.23v14.75    C237.95,102.25,237.2,104.38,235.68,106.01z M199.86,106.13c-1.52,1.55-3.35,2.33-5.46,2.33c-1.71,0-3.16-0.35-4.65-1.21v-3.55    c1.19,0.81,2.69,1.58,4.17,1.58c3.08,0,4.92-2.12,4.92-5.13c0-3.01-1.9-5.2-4.98-5.2c-1.38,0-2.49,0.5-3.37,1.49    c-0.94,1.08-1.42,2.61-1.42,4.65v14.01h-0.23c-1.7,0-3.08-1.38-3.08-3.08v-11.46c0-4.86,2.97-8.79,8.08-8.79    c2.52,0,4.57,0.86,6.12,2.59c1.46,1.62,2.18,3.67,2.18,6.14C202.15,102.7,201.38,104.58,199.86,106.13z"></path>
	</g>
	<g>
		<path class="st37" d="M146.52,96.39c-0.91-0.95-2.07-1.43-3.49-1.43c-3.05,0-4.87,2.22-4.87,5.16c0,2.9,1.87,5.16,4.87,5.16    c3,0,4.87-2.26,4.87-5.16C147.9,98.57,147.43,97.34,146.52,96.39z M179.07,96.39c-0.91-0.95-2.07-1.43-3.49-1.43    c-3.04,0-4.87,2.22-4.87,5.16c0,2.9,1.87,5.16,4.87,5.16c3,0,4.87-2.26,4.87-5.16C180.44,98.57,179.98,97.34,179.07,96.39z     M181.46,106.1c-1.63,1.57-3.6,2.35-5.88,2.35c-2.26,0-4.21-0.79-5.85-2.35c-1.64-1.57-2.46-3.57-2.46-5.99    c0-4.71,3.59-8.34,8.31-8.34c2.26,0,4.22,0.79,5.87,2.37c1.65,1.58,2.47,3.58,2.47,5.97C183.92,102.53,183.1,104.53,181.46,106.1z     M164.38,95.96c-0.49,0.81-0.86,1.4-1.13,1.75c-0.29,0.38-0.58,0.69-0.87,0.9c2.3,0.74,3.16,2.34,3.16,4.71v4.81h-0.23    c-1.7,0-3.08-1.38-3.08-3.08v-1.41c0-1.54-0.69-2.58-2.32-2.58h-3.01v7.06h-0.23c-1.7,0-3.08-1.38-3.08-3.08V87.99    c0-1.7,1.38-3.08,3.08-3.08h0.23v12.95h0.98c1.07,0,1.78-0.37,2.19-1.06l2.78-4.69l3.77,0L164.38,95.96z M148.91,106.1    c-1.64,1.57-3.6,2.35-5.88,2.35c-2.26,0-4.22-0.79-5.85-2.35c-1.64-1.57-2.46-3.57-2.46-5.99c0-4.71,3.6-8.34,8.31-8.34    c2.26,0,4.22,0.79,5.87,2.37c1.65,1.58,2.47,3.58,2.47,5.97C151.37,102.53,150.55,104.53,148.91,106.1z M129.69,108.13    c-3.24,0-4.84-2.2-4.84-5.28V91.19c0-1.7,1.38-3.08,3.08-3.08h0.23v3.99h5.59v3.18h-5.59v7.94c0,1.35,0.6,1.73,1.89,1.73h3.7v3.18    H129.69z"></path>
	</g>
</g>
</svg>
