<?xml version="1.0" encoding="UTF-8"?>
<svg xmlns="http://www.w3.org/2000/svg" xmlns:xlink="http://www.w3.org/1999/xlink" id="Logos" viewBox="0 0 390 200">
  <defs>
    <style>.cls-1{fill:none;}.cls-2{clip-path:url(#clip-path);}.cls-3{fill:#32617e;}.cls-4{fill:#9abfd1;}</style>
    <clipPath id="clip-path">
      <rect class="cls-1" x="128.15" y="79" width="133.7" height="42"></rect>
    </clipPath>
  </defs>
  <title>View Final 2</title>
  <g id="View_Final" data-name="View Final">
    <g class="cls-2">
      <path class="cls-3" d="M160.19,88.72h-6.06a.32.32,0,0,0-.28.19l-9.53,23.17-9.54-23.17a.29.29,0,0,0-.27-.19h-6.06a.29.29,0,0,0-.25.14.28.28,0,0,0,0,.28l13.38,31a.29.29,0,0,0,.27.18h5a.31.31,0,0,0,.28-.18l13.37-31a.3.3,0,0,0,0-.28.3.3,0,0,0-.25-.14"></path>
      <path class="cls-3" d="M171.19,88.72h-5.35a.3.3,0,0,0-.3.3v31a.3.3,0,0,0,.3.3h5.35a.3.3,0,0,0,.29-.3V89a.3.3,0,0,0-.29-.3"></path>
      <path class="cls-3" d="M194.31,88C184.87,88,178,94.93,178,104.47c0,8.22,5.9,16.53,17.18,16.53,5.51,0,10-2.17,14.19-6.82a.3.3,0,0,0,.08-.22.33.33,0,0,0-.11-.21l-4.11-3.27a.3.3,0,0,0-.41,0,12.63,12.63,0,0,1-9.7,4.89c-5.51,0-9.79-3.42-10.76-8.56h26.16a.3.3,0,0,0,.3-.3c0-11.09-6.65-18.54-16.53-18.54m-.06,5.59c5.2,0,9.22,3.38,9.89,8.26H184.37a9.48,9.48,0,0,1,9.88-8.26"></path>
      <path class="cls-3" d="M261.8,88.85a.31.31,0,0,0-.25-.13h-5.71a.31.31,0,0,0-.28.2L248,110.69l-7.51-21.77a.29.29,0,0,0-.28-.2h-5.7a.3.3,0,0,0-.29.2l-7.5,21.77-7.57-21.77a.29.29,0,0,0-.28-.2h-5.71a.31.31,0,0,0-.24.13.32.32,0,0,0,0,.27l11.42,31a.29.29,0,0,0,.28.2H229a.3.3,0,0,0,.28-.2l8.1-23.56,8.1,23.56a.29.29,0,0,0,.28.2h4.4a.31.31,0,0,0,.28-.2l11.41-31a.29.29,0,0,0,0-.27"></path>
      <path class="cls-4" d="M168.72,79a3.75,3.75,0,1,0,3.75,3.74A3.72,3.72,0,0,0,168.72,79"></path>
      <path class="cls-3" d="M253.58,118.59h0a1.75,1.75,0,1,1,3.49,0h0a1.75,1.75,0,1,1-3.49,0m3.29,0h0a1.54,1.54,0,0,0-1.54-1.56,1.56,1.56,0,0,0-1.55,1.57h0a1.55,1.55,0,1,0,3.09,0m-2.23-.92h.8c.4,0,.69.19.69.56a.53.53,0,0,1-.41.54l.47.68h-.41l-.43-.62H255v.62h-.34Zm.77.88c.24,0,.37-.12.37-.29s-.13-.29-.37-.29H255v.58Z"></path>
    </g>
  </g>
</svg>
