<?xml version="1.0" encoding="UTF-8"?>
<svg xmlns="http://www.w3.org/2000/svg" id="Logos" viewBox="0 0 390 200">
  <defs>
    <style>.cls-1{fill:#3f4042;}.cls-2{fill:#f6b21f;}</style>
  </defs>
  <title>Vir Final</title>
  <g id="Vir_Final" data-name="Vir Final">
    <rect class="cls-1" x="193.84" y="76.06" width="7.62" height="47.85"></rect>
    <rect class="cls-1" x="182.13" y="76.06" width="7.62" height="47.85"></rect>
    <polyline class="cls-1" points="182.13 123.91 180.79 123.91 148 76.07 156.9 76.06 182.19 112.82"></polyline>
    <path class="cls-1" d="M228.26,104.79l1.41-.37a11.07,11.07,0,0,0,8.23-7.8,19.66,19.66,0,0,0,.17-10.81,12.06,12.06,0,0,0-6.73-8.14,16.29,16.29,0,0,0-7-1.57H205.65v47.82h7.61V83h9.9a9.71,9.71,0,0,1,2.08.2,6.59,6.59,0,0,1,5.52,5.14,10.45,10.45,0,0,1-.14,5.52,5.48,5.48,0,0,1-3.68,3.83,8.73,8.73,0,0,1-2.68.47c-2.49,0-5,0-7.48,0h-.42l.25.39c5.55,8.34,11.31,17,16.87,25.32H242Z"></path>
    <polyline class="cls-2" points="177.99 100.84 161.22 76.1 178.11 76.09 178.11 100.74"></polyline>
  </g>
</svg>
