<?xml version="1.0" encoding="UTF-8"?>
<svg xmlns="http://www.w3.org/2000/svg" id="Logos" viewBox="0 0 390 200">
  <defs>
    <style>.cls-1{fill:#3e424e;}</style>
  </defs>
  <title>Wag Final</title>
  <g id="WAG_Final" data-name="WAG Final">
    <path class="cls-1" d="M139.44,88.6a8.85,8.85,0,0,0-1.08.1A6.83,6.83,0,0,0,132.68,95a4.1,4.1,0,0,0,0,1,7.19,7.19,0,0,0,.48,1.82,16.31,16.31,0,0,0,1.43,2.71,38.14,38.14,0,0,0,4.65,5.8c.24.26.22.26.46,0,.66-.68,1.29-1.39,1.9-2.12a34.26,34.26,0,0,0,2.85-3.83,17,17,0,0,0,1.42-2.79,6.07,6.07,0,0,0,.29-3.5A6.85,6.85,0,0,0,139.44,88.6Zm.4,3.8a1.75,1.75,0,0,1,.38-1.13,1.24,1.24,0,0,1,.43-.36.86.86,0,0,1,1.16.29,1.38,1.38,0,0,1,.25.83,1.75,1.75,0,0,1-.56,1.34,1,1,0,0,1-.63.28.84.84,0,0,1-.75-.33A1.4,1.4,0,0,1,139.84,92.4ZM137,91.63a1.19,1.19,0,0,1,.21-.44.87.87,0,0,1,1.16-.28,1.42,1.42,0,0,1,.49.45,2.06,2.06,0,0,1,.33,1,1.77,1.77,0,0,1-.19.75.89.89,0,0,1-1.36.32,1.17,1.17,0,0,1-.35-.35A1.83,1.83,0,0,1,137,91.63Zm-2,2.24a1.3,1.3,0,0,1,.22-.73.88.88,0,0,1,1.23-.3,1.23,1.23,0,0,1,.31.24,1.8,1.8,0,0,1,.39,1.73.94.94,0,0,1-1.66.4A1.79,1.79,0,0,1,135.07,93.87Zm8.22,4.79a1.09,1.09,0,0,1-.73.88,2.58,2.58,0,0,1-1,.15,1.41,1.41,0,0,1-1-.31,1.85,1.85,0,0,0-1.56-.27,1.45,1.45,0,0,0-.52.24,2.09,2.09,0,0,1-2.13.14,1,1,0,0,1-.64-.88,2.36,2.36,0,0,1,0-.75,1.14,1.14,0,0,1,.52-.81,2.31,2.31,0,0,1,.55-.26,1.93,1.93,0,0,0,1.25-1.35c0-.17.1-.34.16-.51s.1-.27.16-.4a1,1,0,0,1,.76-.53,2.36,2.36,0,0,1,.75,0,1,1,0,0,1,.8.57,5.1,5.1,0,0,1,.19.5c.07.21.13.41.2.61a1.76,1.76,0,0,0,1,1l.56.25a1.19,1.19,0,0,1,.66.91A2.27,2.27,0,0,1,143.29,98.66Zm.13-3.4a1.14,1.14,0,0,1-.32.22.88.88,0,0,1-1.06-.24,1.27,1.27,0,0,1-.29-.72,1.78,1.78,0,0,1,.59-1.56,1,1,0,0,1,.65-.25.87.87,0,0,1,.78.47,1.27,1.27,0,0,1,.2.71A1.77,1.77,0,0,1,143.42,95.26Z"></path>
    <path class="cls-1" d="M151.16,77.15c0-.11,0-.24,0-.34h0c-.06-.06,0-.16-.07-.22h0s0-.11-.07-.15h0s0-.11-.07-.14l-.07-.07h0a.93.93,0,0,0-.28-.28h0l-.08-.06h0a.12.12,0,0,0-.08-.06c0-.06-.09,0-.13-.08h0s-.11,0-.16-.07a0,0,0,0,1-.05,0,.58.58,0,0,0-.17-.06s0,0,0,0H129.45a1.71,1.71,0,0,0-1.4,1.23l0,.06c0,.56,0,1.12,0,1.68v39.58c0,.68,0,1.36,0,2,0,0,0,0,0,0a0,0,0,0,0,0,0s0,0,0,0a.58.58,0,0,0,.06.17h0s0,.1.07.14h0c.05,0,0,.11.08.14a.75.75,0,0,0,.15.2.11.11,0,0,0,.07.08.11.11,0,0,0,.08.07.75.75,0,0,0,.2.15h0s.1,0,.14.07h0s.1,0,.14.07h0c.06.07.16,0,.22.07h0a.6.6,0,0,0,.35,0h20a.57.57,0,0,0,.34,0h0c.06-.06.16,0,.22-.07h0s.1,0,.14-.07h0s.11,0,.14-.08a1.4,1.4,0,0,0,.43-.41h0l.06-.07c.05,0,0-.1.07-.14h0c.05,0,0-.11.07-.15h0c.07-.06,0-.16.07-.22h0c.08-.11,0-.23,0-.34Zm-12.9,1.35h3.35a.36.36,0,0,1,.34.34.38.38,0,0,1-.31.42l-.25,0h-2.92l-.24,0a.38.38,0,0,1-.31-.42A.34.34,0,0,1,138.26,78.5Zm1.62,40.82a1.84,1.84,0,0,1-1.85-1.86,1.86,1.86,0,0,1,3.71,0A1.85,1.85,0,0,1,139.88,119.32Zm8.56-6.15v.33c0,.12,0,.15-.18.16H130.83a.14.14,0,0,1-.14-.14V81.09c0-.58-.05-.5.49-.5q8.38,0,16.78,0c.54,0,.48-.07.48.47Z"></path>
    <path class="cls-1" d="M160.16,76l3.16,33.67a.22.22,0,0,0,.2.19l10,.39a.22.22,0,0,0,.2-.14L178.46,96a.1.1,0,0,1,.18,0l4.84,14a.43.43,0,0,0,.42.25l9.94-.37a.56.56,0,0,0,.55-.57l2.54-32.53c.07-.75-.34-.82-.45-.83l-8.31-.35a.36.36,0,0,0-.17.06.53.53,0,0,0-.19.34l0,.3s0,.5,0,.54l-.29,3.63s-.53,6.88-.53,6.9l-.13,2-.11,1.4L186.5,93s-.1,1.24-.11,1.38v.07l-.12,1.52,0,.56c0,.22-.06.5-.13.35l0-.14h0c0-.08-.06-.25-.06-.27L182.4,79.67a.19.19,0,0,0,0-.07.47.47,0,0,0-.42-.33h-6.71a.5.5,0,0,0-.56.39L173.26,86l-2.47,11s-.09,0-.1,0l-1.45-20.66c0-.31-.18-.55-.49-.55l-8.38,0A.21.21,0,0,0,160.16,76Z"></path>
    <path class="cls-1" d="M221.19,92.47s-.14-1.71-.16-1.75l-.26-1.2s-.35-1-.37-1l-.24-.5a4.16,4.16,0,0,0-.28-.51,4.12,4.12,0,0,0-.29-.41l-.41-.5a6.9,6.9,0,0,0-.71-.72c-.19-.16-.37-.32-.4-.33l-.64-.42a4.79,4.79,0,0,0-.58-.33l-.68-.31-1.07-.36-1.12-.3-1.13-.18-1.25-.14-.7,0a5.61,5.61,0,0,0-.58,0l-.5,0-.88,0h-.15l-1,.12-1.07.22-1.2.4-1,.48-.86.51a.24.24,0,0,0-.09.06l-1.14.85s-.94.94-1,1l-.65.81s-.59.87-.61.9l-.54,1s-.39.93-.4,1l-.28.83a.67.67,0,0,0,0,.37.65.65,0,0,0,.46.46l.08,0a.65.65,0,0,0,.24,0l6.92-1a.7.7,0,0,0,.42-.21l.23-.29,0,0,.53-.71a5.23,5.23,0,0,1,.45-.49l.39-.34.32-.17a2.86,2.86,0,0,1,.74-.27l.44-.07h.55l.36,0a2.83,2.83,0,0,1,.62.16l.18.09.25.14.07,0a2.56,2.56,0,0,1,.67.55l0,0,.21.27a1,1,0,0,1,.16.26v0h0a4.38,4.38,0,0,1,.44,2.05l-.06.88a27.24,27.24,0,0,0-8.37.29,14.66,14.66,0,0,0-4.46,1.58,7,7,0,0,0-3.81,7.38,6,6,0,0,0,1.89,3.89,8.09,8.09,0,0,0,2.77,1.73,15.78,15.78,0,0,0,7.59.59,20.39,20.39,0,0,0,3.5-.83v.41l-.05,1,0,1.06a.49.49,0,0,0,.09.28l0,.05s0,0,0,0c.18.21.48.17.73.17l6-.07h.12a.36.36,0,0,0,.23-.09l.06,0,.11-.13,0-.05a.8.8,0,0,0,.06-.36l.74-12.13L221.2,94V92.47Zm-11.09,11.7a5.89,5.89,0,0,1-1.61-.26,3,3,0,0,1-.71-.32,2,2,0,0,1-.94-1.48,2.66,2.66,0,0,1,.07-1.09A2.3,2.3,0,0,1,208,99.65a4.84,4.84,0,0,1,1.63-.59,13.32,13.32,0,0,1,1.77-.2c.32,0,.85,0,1.18,0l.46,0,.31,0h0l-.31,5-.06,0A14.89,14.89,0,0,1,210.1,104.17Z"></path>
    <path class="cls-1" d="M247.27,82.34l-8.12,0c-.31,0-.57.13-.57.71v1.39c0,.14,0,.26-.1.25a12.5,12.5,0,0,0-3.15-.18c-6.69.21-12.33,4.18-12.32,12.07s5.57,11.83,12.25,11.75a12.35,12.35,0,0,0,3.52-.56l0,3.33s0,.23,0,.58a3.37,3.37,0,0,1-2,3,10.06,10.06,0,0,1-3.71.69H233l-2.29-.2a.78.78,0,0,0-.34,0c-.41.17-.34.59-.34,1v7c.09.66.89.74,1.73,1l.61.11.59.07.79.06.88,0c.25,0,.43,0,.63,0,2.61-.1,10.07-1,11.73-10.18a.69.69,0,0,0,0-.13,42,42,0,0,0,.47-6.08l.1-2.71.1-3.93.07-2.8.05-2.73,0-12.94A.57.57,0,0,0,247.27,82.34Zm-8.86,19a7.9,7.9,0,0,1-2.06,0,4,4,0,0,1-2-.76,2.9,2.9,0,0,1-1-1.59,5,5,0,0,1-.12-1.81,6,6,0,0,1,.17-.94,3.62,3.62,0,0,1,1.83-2.3,6,6,0,0,1,2.06-.65,6.71,6.71,0,0,1,1.1-.09h.18s.09,0,.09.09a2.09,2.09,0,0,1,0,.25c0,1.23,0,2.47,0,3.7V101C238.72,101.33,238.71,101.31,238.41,101.35Z"></path>
    <polyline class="cls-1" points="247.75 98.57 247.69 101.37 247.58 105.3"></polyline>
    <path class="cls-1" d="M220.22,117.86v-.29c0-.11,0-.12-.12-.12h-1.19c-.1,0-.12,0-.12.12s0,.27,0,.41v2.18c0,.43,0,.87,0,1.3,0,.12,0,.13.13.13l1.21,0c.09,0,.12,0,.12-.12s0-.34,0-.51c0-.57,0-1.15,0-1.72a.35.35,0,0,1,0-.17.59.59,0,0,1,.47-.36.42.42,0,0,1,.54.33,1.13,1.13,0,0,1,.05.32c0,.57,0,1.15,0,1.72v.5c0,.06,0,.1.07.1l1.24.07c.07,0,.09,0,.1-.1,0-.67.06-1.34.08-2a3.07,3.07,0,0,0-.21-1.34,1.4,1.4,0,0,0-1.85-.79A1.82,1.82,0,0,0,220.22,117.86Z"></path>
    <path class="cls-1" d="M208.78,119.35c0-.09,0-.1.11-.1l.63,0c.09,0,.12,0,.12-.12,0-.31,0-.62,0-.92,0-.12,0-.13-.13-.14l-.72,0s-.08,0-.08,0a5.42,5.42,0,0,1,.05-.81.63.63,0,0,1,.58-.5,2.09,2.09,0,0,1,.66,0c.12,0,.15,0,.15-.13,0-.36,0-.75,0-1.11,0-.16,0-.17-.16-.21a2.65,2.65,0,0,0-1,0,1.77,1.77,0,0,0-1.22.89,2.39,2.39,0,0,0-.27,1.41c0,.16,0,.32,0,.48s0,0-.07,0l-.36,0c-.11,0-.13,0-.12.13l.06.78a.09.09,0,0,0,.1.09l.31,0c.06,0,.08,0,.08.08,0,.48,0,1,0,1.46s0,.83,0,1.24c0,.13,0,.14.13.14.38,0,.76,0,1.14,0,.1,0,.14,0,.14-.14V120h0"></path>
    <path class="cls-1" d="M200.06,117.29a2.3,2.3,0,0,0-1.45.48,1.07,1.07,0,0,0-.39,1.35,1.3,1.3,0,0,0,.72.7,7.83,7.83,0,0,0,.92.34,1.4,1.4,0,0,1,.41.19.17.17,0,0,1,0,.3.34.34,0,0,1-.14,0,.87.87,0,0,1-.42,0,3.49,3.49,0,0,1-.75-.37.11.11,0,0,0-.16,0l-.65.72c-.06.07-.06.12,0,.2a2,2,0,0,0,.38.32,2.72,2.72,0,0,0,2.24.29,1.18,1.18,0,0,0,.74-.49,1.23,1.23,0,0,0-.3-1.67,4.87,4.87,0,0,0-1-.48,3.11,3.11,0,0,1-.65-.28c-.06,0-.14-.08-.12-.17s.09-.14.18-.16a1.09,1.09,0,0,1,.36,0,2.89,2.89,0,0,1,.89.41s.08,0,.12,0l.65-.78c.08-.09.08-.11,0-.2A2.4,2.4,0,0,0,200.06,117.29Z"></path>
    <path class="cls-1" d="M186.31,117.29a2.27,2.27,0,0,0-1.49.53,1,1,0,0,0-.43.8,1.22,1.22,0,0,0,.68,1.13,5.19,5.19,0,0,0,1.05.41,1.46,1.46,0,0,1,.42.19.18.18,0,0,1,0,.31.28.28,0,0,1-.13,0,.94.94,0,0,1-.41,0,4.33,4.33,0,0,1-.78-.38s-.09,0-.13,0l-.66.74c-.07.08-.07.12,0,.19a1.73,1.73,0,0,0,.44.37,2.65,2.65,0,0,0,1.53.36,2.91,2.91,0,0,0,.78-.15,1.16,1.16,0,0,0,.8-1.34,1.19,1.19,0,0,0-.54-.82,4.1,4.1,0,0,0-.87-.42,4.49,4.49,0,0,1-.71-.31c-.06,0-.12-.08-.1-.17a.19.19,0,0,1,.17-.15,1.16,1.16,0,0,1,.37,0,3.18,3.18,0,0,1,.88.4.09.09,0,0,0,.14,0c.2-.25.41-.49.61-.73s.11-.15,0-.27v0A2.49,2.49,0,0,0,186.31,117.29Z"></path>
    <path class="cls-1" d="M203.15,121.88h.57c.13,0,.15,0,.15-.14,0-.84,0-1.67,0-2.51,0-.07,0-.09.09-.09l.64,0c.09,0,.12,0,.12-.11l0-.95c0-.08,0-.11-.12-.12l-.73,0c-.09,0-.09,0-.08-.1,0-.35,0-.69.08-1,0-.07,0-.11-.1-.11h-1.15c-.11,0-.14,0-.14.14,0,.33,0,.67,0,1,0,.08,0,.11-.1.1l-.37,0a.09.09,0,0,0-.1.11c0,.26,0,.53.07.8,0,0,0,.09.1.09l.29,0c.09,0,.11,0,.11.1,0,.38,0,.76,0,1.13l0,1.57c0,.12,0,.13.12.13Z"></path>
    <path class="cls-1" d="M211.46,117.88c0-.21,0-.39,0-.57s0-.14-.15-.14h-1.15c-.12,0-.14,0-.13.13,0,.4,0,.79.05,1.19s.05,1.07.07,1.6l.06,1.48c0,.13,0,.15.16.15l1.16,0c.14,0,.15,0,.14-.15,0-.51,0-1-.07-1.53,0-.23,0-.46,0-.68a.27.27,0,0,1,.08-.24,1.24,1.24,0,0,1,.48-.31,3,3,0,0,1,.73-.12c.13,0,.14,0,.13-.15,0-.31,0-.63,0-.94,0-.14,0-.17-.17-.18a1.57,1.57,0,0,0-.9.2A3.32,3.32,0,0,0,211.46,117.88Z"></path>
    <path class="cls-1" d="M214,121.75h.62c.11,0,.13,0,.13-.13s0-.2,0-.3c0-.48,0-.95,0-1.43s0-1,0-1.44c0-.11,0-.14-.14-.14h-1.25c-.11,0-.13,0-.13.12s0,.36,0,.54,0,.54,0,.81l0,1.88c0,.08,0,.11.12.11Z"></path>
    <path class="cls-1" d="M214,116.24a.93.93,0,0,0-.52.15.76.76,0,0,0-.2,1.15,1,1,0,0,0,1.16.24.77.77,0,0,0,.41-1A.9.9,0,0,0,214,116.24Z"></path>
    <path class="cls-1" d="M183.56,116.49a1.35,1.35,0,0,0-.72.19.44.44,0,0,0-.21.27.43.43,0,0,0,.22.46,1.19,1.19,0,0,0,.49.17c.07,0,.09,0,.08.09a.61.61,0,0,1-.08.27s-.05.09,0,.13.08,0,.13,0a2.12,2.12,0,0,0,.48-.23,1,1,0,0,0,.45-.57.49.49,0,0,0-.28-.65A1.49,1.49,0,0,0,183.56,116.49Z"></path>
    <path class="cls-1" d="M167.73,121.79c-.1-.46-.21-.92-.31-1.38-.29-1.35-.59-2.71-.89-4.07a.11.11,0,0,0-.13-.1h-2.13c-.31,0-.25,0-.32.26-.4,1.7-.79,3.41-1.19,5.11,0,.12,0,.16.13.16h1.4c.13,0,.15,0,.17-.14l.15-.75c0-.08,0-.1.12-.1.34,0,.69,0,1,0,.1,0,.12,0,.13.11.05.31.1.61.16.92a.09.09,0,0,0,.1.09l1.47,0C167.72,121.93,167.75,121.89,167.73,121.79Zm-2.16-2.26H165s-.06,0,0-.06c.12-.59.25-1.18.37-1.77,0,0,0,0,0-.07,0,.14,0,.26.07.37.09.49.17,1,.26,1.46C165.64,119.52,165.63,119.54,165.57,119.53Z"></path>
    <path class="cls-1" d="M182.23,117.49c0-.1,0-.12-.13-.13h-.62c-.2,0-.41,0-.62,0s-.12,0-.12.12v.21s0,0-.05,0a2.27,2.27,0,0,0-1,0,1.86,1.86,0,0,0-1.29,1,2.07,2.07,0,0,0-.17,1.2,1.75,1.75,0,0,0,.7,1.23,2,2,0,0,0,1.74.29c.06,0,.09,0,.09.06s0,.32,0,.48a.6.6,0,0,1-.25.51.88.88,0,0,1-.38.14,2.74,2.74,0,0,1-.64,0,.14.14,0,0,0-.15.13,4.89,4.89,0,0,0-.05.55,4.57,4.57,0,0,0,.05.52h0a.23.23,0,0,0,.21.2l.23,0,.27,0h0a1.93,1.93,0,0,0,.34,0h.15a1.77,1.77,0,0,0,1.3-.91,2.89,2.89,0,0,0,.28-1.12c0-.59,0-1.19.07-1.79,0-.39,0-.77,0-1.16C182.24,118.58,182.24,118,182.23,117.49Zm-1.57,3a1.07,1.07,0,0,1-.47-.06.5.5,0,0,1-.31-.44,1.13,1.13,0,0,1,0-.26.67.67,0,0,1,.64-.55c.23,0,.23,0,.23.27s0,.58,0,.9C180.78,120.39,180.77,120.44,180.66,120.44Z"></path>
    <path class="cls-1" d="M227.17,115.85l-1.32,0c-.12,0-.13,0-.13.13l0,1c0,.24,0,.49,0,.73,0,0,0,.06-.06,0a1.89,1.89,0,0,0-.75,0,2.13,2.13,0,0,0-1.23.57,1.79,1.79,0,0,0-.57,1.14,2.17,2.17,0,0,0,.19,1.23,1.82,1.82,0,0,0,2.25.87c.05,0,.07,0,.06,0v.39c0,.11,0,.14.14.14h.74c.13,0,.26,0,.4,0s.09,0,.1-.1c0-.65.07-1.29.1-1.94l.06-1.08c0-.59.07-1.17.1-1.76,0-.4.05-.81.07-1.22C227.27,115.89,227.25,115.85,227.17,115.85Zm-1.54,3.55c0,.23,0,.46,0,.69s0,.22,0,.33a.07.07,0,0,1-.06.07,1.85,1.85,0,0,1-.23,0h-.15a.52.52,0,0,1-.48-.55.67.67,0,0,1,.23-.58,1,1,0,0,1,.49-.19h0C225.64,119.17,225.64,119.17,225.63,119.4Z"></path>
    <path class="cls-1" d="M174,115.85l-1.33,0c-.09,0-.12,0-.13.11,0,.27,0,.54,0,.81s0,.61,0,.91c0,0,0,.07-.06.06a2.22,2.22,0,0,0-1,0,2,2,0,0,0-1.41,1.07,2,2,0,0,0-.17,1.25,1.71,1.71,0,0,0,.69,1.2,1.79,1.79,0,0,0,1.73.26c.06,0,.08,0,.07,0v.38c0,.11,0,.14.14.14h.73c.13,0,.27,0,.4,0s.1,0,.11-.1l0-.67.06-1.14c0-.58.07-1.17.1-1.76l.06-1.18c0-.42.05-.84.07-1.26C174.05,115.89,174,115.85,174,115.85Zm-1.57,4.55c0,.06,0,.08-.08.09a1.45,1.45,0,0,1-.36,0,.52.52,0,0,1-.48-.57.7.7,0,0,1,.71-.75h.18s.06,0,.06.06,0,.25,0,.37Z"></path>
    <path class="cls-1" d="M194.1,118.75a2.27,2.27,0,0,0-2.29-1.07c-.07,0-.09,0-.09-.08v-1.18h0v-.49c0-.11,0-.13-.14-.13h-1.29c-.1,0-.12,0-.11.13,0,.51,0,1,.05,1.54s0,1,.05,1.57l.06,1.59c0,.43,0,.85,0,1.27,0,.08,0,.11.11.12h.37l.75,0c.12,0,.16,0,.16-.16s0-.24,0-.36,0-.08.07,0a1.63,1.63,0,0,0,.9.11,1.7,1.7,0,0,0,1.26-.74,1.91,1.91,0,0,0,.33-1A2.05,2.05,0,0,0,194.1,118.75Zm-1.6,1.61a.67.67,0,0,1-.56.14c-.2,0-.2,0-.2-.24v-.14h0v-.86c0-.08,0-.1.09-.1a1.06,1.06,0,0,1,.68.25A.77.77,0,0,1,192.5,120.36Z"></path>
    <path class="cls-1" d="M220.22,117.86a1.82,1.82,0,0,1,.53-.37,1.4,1.4,0,0,1,1.85.79,3.07,3.07,0,0,1,.21,1.34c0,.67-.05,1.34-.08,2,0,.07,0,.11-.1.1l-1.24-.07c-.06,0-.07,0-.07-.1v-.5c0-.57,0-1.15,0-1.72a1.13,1.13,0,0,0-.05-.32.42.42,0,0,0-.54-.33.59.59,0,0,0-.47.36.35.35,0,0,0,0,.17c0,.57,0,1.15,0,1.72,0,.17,0,.34,0,.51s0,.12-.12.12l-1.21,0c-.12,0-.13,0-.13-.13,0-.43,0-.87,0-1.3V118c0-.14,0-.27,0-.41s0-.12.12-.12h1.19c.1,0,.12,0,.12.12Z"></path>
    <path class="cls-1" d="M208.8,120v1.84c0,.11,0,.14-.14.14-.38,0-.76,0-1.14,0-.13,0-.14,0-.13-.14,0-.41,0-.82,0-1.24s0-1,0-1.46c0-.07,0-.08-.08-.08l-.31,0a.09.09,0,0,1-.1-.09l-.06-.78c0-.11,0-.13.12-.13l.36,0s.07,0,.07,0,0-.32,0-.48a2.39,2.39,0,0,1,.27-1.41,1.77,1.77,0,0,1,1.22-.89,2.65,2.65,0,0,1,1,0c.16,0,.16,0,.16.21,0,.36,0,.75,0,1.11,0,.12,0,.15-.15.13a2.09,2.09,0,0,0-.66,0,.63.63,0,0,0-.58.5,5.42,5.42,0,0,0-.05.81c0,.06,0,0,.08,0l.72,0c.12,0,.13,0,.13.14,0,.3,0,.61,0,.92,0,.1,0,.12-.12.12l-.63,0c-.08,0-.11,0-.11.1a3.23,3.23,0,0,1,0,.35Z"></path>
    <path class="cls-1" d="M200.06,117.29a2.4,2.4,0,0,1,1.6.72c.09.09.09.11,0,.2L201,119c0,.05-.07.05-.12,0a2.89,2.89,0,0,0-.89-.41,1.09,1.09,0,0,0-.36,0c-.09,0-.16,0-.18.16s.06.13.12.17a3.11,3.11,0,0,0,.65.28,4.87,4.87,0,0,1,1,.48,1.23,1.23,0,0,1,.3,1.67,1.18,1.18,0,0,1-.74.49,2.72,2.72,0,0,1-2.24-.29,2,2,0,0,1-.38-.32c-.07-.08-.07-.13,0-.2l.65-.72a.11.11,0,0,1,.16,0,3.49,3.49,0,0,0,.75.37.87.87,0,0,0,.42,0,.34.34,0,0,0,.14,0,.17.17,0,0,0,0-.3,1.4,1.4,0,0,0-.41-.19,7.83,7.83,0,0,1-.92-.34,1.3,1.3,0,0,1-.72-.7,1.07,1.07,0,0,1,.39-1.35A2.3,2.3,0,0,1,200.06,117.29Z"></path>
    <path class="cls-1" d="M186.31,117.29a2.49,2.49,0,0,1,1.58.67v0c.12.12.13.13,0,.27s-.41.48-.61.73a.09.09,0,0,1-.14,0,3.18,3.18,0,0,0-.88-.4,1.16,1.16,0,0,0-.37,0,.19.19,0,0,0-.17.15c0,.09,0,.13.1.17a4.49,4.49,0,0,0,.71.31,4.1,4.1,0,0,1,.87.42,1.19,1.19,0,0,1,.54.82,1.16,1.16,0,0,1-.8,1.34,2.91,2.91,0,0,1-.78.15,2.65,2.65,0,0,1-1.53-.36,1.73,1.73,0,0,1-.44-.37c-.07-.07-.07-.11,0-.19l.66-.74c0-.05.08-.05.13,0a4.33,4.33,0,0,0,.78.38.94.94,0,0,0,.41,0,.28.28,0,0,0,.13,0,.18.18,0,0,0,0-.31,1.46,1.46,0,0,0-.42-.19,5.19,5.19,0,0,1-1.05-.41,1.22,1.22,0,0,1-.68-1.13,1,1,0,0,1,.43-.8A2.27,2.27,0,0,1,186.31,117.29Z"></path>
    <path class="cls-1" d="M178,119.06a1.83,1.83,0,0,0-.58-1.07,1.94,1.94,0,0,0-1.68-.45,1.49,1.49,0,0,0-1.2.95,3.17,3.17,0,0,0-.19,1.75,1.69,1.69,0,0,0,.75,1.18,2.19,2.19,0,0,0,1.39.32,1.52,1.52,0,0,0,1.19-.69,2.51,2.51,0,0,0,.37-1.38A3,3,0,0,0,178,119.06Zm-1.48,1.2a.51.51,0,0,1-.58.19.48.48,0,0,1-.35-.42,1.15,1.15,0,0,1,0-.16,1,1,0,0,1,.19-.6.48.48,0,0,1,.47-.21.46.46,0,0,1,.4.31A.92.92,0,0,1,176.48,120.26Z"></path>
    <path class="cls-1" d="M218.44,120.7c0-.14,0-.15-.17-.11a3.08,3.08,0,0,1-1,.18.88.88,0,0,1-.9-.7c0-.1,0-.1.08-.1l1.39,0h.17c.11,0,.17,0,.22-.13l0-.08a2.65,2.65,0,0,0,.07-1.55,1.36,1.36,0,0,0-.55-.88,1.45,1.45,0,0,0-.81-.24,1.4,1.4,0,0,0-.89.22,1.75,1.75,0,0,0-.58.66,3.25,3.25,0,0,0-.38,1.78,1.89,1.89,0,0,0,1.21,1.75,2.75,2.75,0,0,0,1.5.18,1.82,1.82,0,0,0,.51-.13.14.14,0,0,0,.1-.14C218.47,121.21,218.46,121,218.44,120.7Zm-2-1.41a1.31,1.31,0,0,1,.21-.64.49.49,0,0,1,.52-.23.38.38,0,0,1,.31.37v.12a1.27,1.27,0,0,1,0,.34s0,.08-.09.08q-.42,0-.84,0C216.41,119.36,216.4,119.35,216.41,119.29Z"></path>
    <path class="cls-1" d="M197.82,120.69c0-.11,0-.14-.16-.11l-.06,0a3,3,0,0,1-.93.17.87.87,0,0,1-.87-.71c0-.09,0-.1.08-.09l1.39,0h.13c.18,0,.21,0,.27-.17l0-.06a2.67,2.67,0,0,0,.09-1.4,1.57,1.57,0,0,0-.4-.85,1.55,1.55,0,0,0-2.3.23,3.09,3.09,0,0,0-.53,2.17,1.87,1.87,0,0,0,1.3,1.65,2.81,2.81,0,0,0,1.52.12,1.66,1.66,0,0,0,.38-.11c.06,0,.11-.06.11-.14C197.85,121.2,197.83,121,197.82,120.69ZM196,118.63a.45.45,0,0,1,.42-.21.35.35,0,0,1,.39.31,1.18,1.18,0,0,1,0,.53.08.08,0,0,1-.08.07l-.86,0s-.06,0-.05-.06A1.37,1.37,0,0,1,196,118.63Z"></path>
    <path class="cls-1" d="M203.15,121.88h-.57c-.11,0-.13,0-.12-.13l0-1.57c0-.37,0-.75,0-1.13,0-.08,0-.1-.11-.1l-.29,0c-.07,0-.09,0-.1-.09,0-.27-.05-.54-.07-.8a.09.09,0,0,1,.1-.11l.37,0c.08,0,.1,0,.1-.1,0-.33,0-.67,0-1,0-.12,0-.15.14-.14h1.15c.08,0,.11,0,.1.11,0,.34,0,.68-.08,1,0,.06,0,.1.08.1l.73,0c.09,0,.12,0,.12.12l0,.95c0,.09,0,.12-.12.11l-.64,0c-.07,0-.09,0-.09.09,0,.84,0,1.67,0,2.51,0,.13,0,.14-.15.14Z"></path>
    <path class="cls-1" d="M211.46,117.88a3.32,3.32,0,0,1,.41-.28,1.57,1.57,0,0,1,.9-.2c.15,0,.17,0,.17.18,0,.31,0,.63,0,.94,0,.14,0,.15-.13.15a3,3,0,0,0-.73.12,1.24,1.24,0,0,0-.48.31.27.27,0,0,0-.08.24c0,.22,0,.45,0,.68,0,.51,0,1,.07,1.53,0,.14,0,.15-.14.15l-1.16,0c-.13,0-.15,0-.16-.15l-.06-1.48c0-.53,0-1.07-.07-1.6s0-.79-.05-1.19c0-.12,0-.13.13-.13h1.15c.13,0,.14,0,.15.14S211.45,117.67,211.46,117.88Z"></path>
    <path class="cls-1" d="M214,121.75h-.61c-.08,0-.12,0-.12-.11l0-1.88c0-.27,0-.54,0-.81s0-.36,0-.54,0-.12.13-.12h1.25c.11,0,.14,0,.14.14,0,.48,0,1,0,1.44s0,1,0,1.43c0,.1,0,.2,0,.3s0,.13-.13.13Z"></path>
    <path class="cls-1" d="M214,116.24a.9.9,0,0,1,.85.5.77.77,0,0,1-.41,1,1,1,0,0,1-1.16-.24.76.76,0,0,1,.2-1.15A.93.93,0,0,1,214,116.24Z"></path>
    <path class="cls-1" d="M183.56,116.49a1.49,1.49,0,0,1,.56.14.49.49,0,0,1,.28.65,1,1,0,0,1-.45.57,2.12,2.12,0,0,1-.48.23c-.05,0-.1,0-.13,0s0-.08,0-.13a.61.61,0,0,0,.08-.27c0-.06,0-.09-.08-.09a1.19,1.19,0,0,1-.49-.17.43.43,0,0,1-.22-.46.44.44,0,0,1,.21-.27A1.35,1.35,0,0,1,183.56,116.49Z"></path>
    <path class="cls-1" d="M262,108.13c-.06,1.87-2.64,3.32-5.77,3.22s-5.62-1.7-5.56-3.58,2.64-3.31,5.77-3.22S262.06,106.25,262,108.13Zm-1.28-6.54.33-25.51a.43.43,0,0,0-.51-.48l-8.12,0a.49.49,0,0,0-.53.53l-.54,25.32c0,.33.15.54.48.54l8.33.11C260.49,102.08,260.72,101.92,260.72,101.59Z"></path>
  </g>
</svg>
