<?xml version="1.0" encoding="UTF-8"?>
<svg xmlns="http://www.w3.org/2000/svg" id="Logos" viewBox="0 0 390 200">
  <defs>
    <style>.cls-1{fill:#3e434f;}</style>
  </defs>
  <title>wework logo final</title>
  <g id="WeWork_Final" data-name="WeWork Final">
    <path class="cls-1" d="M125.44,93.38c3.77,0,6.74,0,10.56-.17.65.06.6,1.68.18,1.9l-.89.16c-1.38.27-2.2.54-2.2.82a4.44,4.44,0,0,0,.47,1.68c1.09,2.61,2.74,6.12,4.07,8.72,1.43-3.13,2.37-5.79,3.32-8.3a7.37,7.37,0,0,0,.54-2.11c0-.27-.48-.54-1.51-.75l-1-.22c-.36-.4-.36-1.67.24-1.9,2,.1,3.38.16,4.88.16,1.73,0,3.28-.06,4.59-.17.53.22.66,1.4.19,1.9l-.84.16c-2,.38-2.38.93-3.34,2.93-2.73,5.53-5.46,11.5-7.95,17.24a1.88,1.88,0,0,1-1.38.39,1.91,1.91,0,0,1-1.38-.38c-1.25-2.92-4.36-9.27-6.15-12.72-1.54,2.81-5.1,10-6.48,12.73a1.85,1.85,0,0,1-1.36.39,1.88,1.88,0,0,1-1.38-.38c-2.87-6.12-5.8-12.35-8.72-18a3.21,3.21,0,0,0-2.45-2.06l-1.09-.27c-.4-.44-.4-1.61.19-1.91,2.45.11,4.36.16,6.86.16Zm-1.61,2.24A15.17,15.17,0,0,0,121,95.4c-1.92,0-3,.23-3,.82a5.25,5.25,0,0,0,.54,1.78c.83,1.9,3.22,6.78,4.25,8.51a54.48,54.48,0,0,0,3.14-6.46,5.54,5.54,0,0,0,.19-1.62A3.44,3.44,0,0,0,123.83,95.62Z"></path>
    <path class="cls-1" d="M154.55,102.19c-1.37,0-1.49.11-1.49,1,0,4.06,2.87,8,8.41,8a6.07,6.07,0,0,0,5.55-2.82,1.31,1.31,0,0,1,1.54,1.25,11.54,11.54,0,0,1-10.42,6.18c-8,0-12.4-5.13-12.41-11,0-6.82,5.4-12.14,12.85-12.15,6.21,0,9.54,3.62,9.55,7.8,0,1-.29,1.78-2.15,1.78Zm3.93-2.39a5.16,5.16,0,0,0,2.44-.49c.3-.17.42-.71.42-1.26a2.85,2.85,0,0,0-3.17-3c-2.49,0-4.65,2.18-4.65,3.91,0,.76.83.82,2.75.81Z"></path>
    <path class="cls-1" d="M187.62,93.31c3.75,0,6.74-.07,10.55-.18.65.06.59,1.67.16,1.91l-.88.15c-1.37.28-2.2.55-2.2.82a4.7,4.7,0,0,0,.47,1.68c1.08,2.61,2.76,6.12,4.07,8.72,1.43-3.15,2.38-5.8,3.33-8.3a7.91,7.91,0,0,0,.54-2.11c0-.28-.49-.54-1.5-.76l-1-.21c-.36-.39-.36-1.68.23-1.91,2,.11,3.4.16,4.9.16,1.72,0,3.27-.06,4.58-.16.54.22.66,1.41.19,1.89l-.84.18c-2,.37-2.38.91-3.33,2.92-2.74,5.53-5.47,11.51-8,17.24a1.84,1.84,0,0,1-1.38.39,1.82,1.82,0,0,1-1.36-.39c-1.25-2.92-4.37-9.26-6.16-12.72-1.55,2.82-5.1,10-6.48,12.74a1.82,1.82,0,0,1-1.36.39,1.84,1.84,0,0,1-1.38-.39c-2.86-6.11-5.81-12.35-8.73-18a3.2,3.2,0,0,0-2.44-2l-1.07-.27c-.43-.43-.43-1.63.17-1.9,2.44.11,4.35.16,6.86.16ZM186,95.54a14.63,14.63,0,0,0-2.86-.21c-1.92,0-3.05.21-3.05.8a5.53,5.53,0,0,0,.56,1.79c.82,1.9,3.22,6.77,4.23,8.51A50.1,50.1,0,0,0,188,100a5.63,5.63,0,0,0,.19-1.63A3.42,3.42,0,0,0,186,95.54Z"></path>
    <path class="cls-1" d="M208,104.55c-.06-7.74,6.67-12,13.7-12S235.1,96.39,235.11,104c0,7.92-6.37,11.67-13.7,11.68C214.32,115.72,208.11,112,208,104.55Zm8.58-1.19c0,5.67,2,9.86,5.44,9.85s4.53-3.52,4.46-8.4c-.06-5.26-1.73-9.82-5.12-9.82C218.75,95,216.62,97.46,216.62,103.36Z"></path>
    <path class="cls-1" d="M236.53,100.57c0-2.17,0-2.83-1.14-3.48l-.84-.48a1.21,1.21,0,0,1,0-1.63,43.05,43.05,0,0,0,8.7-3.26,1.25,1.25,0,0,1,1.07.49c-.11,1.09-.23,1.84-.23,2.33s.12.54.59.65c1.61-.93,3.33-2.71,5.84-2.72a3.17,3.17,0,0,1,3.28,3.19c0,2.5-1.9,3.53-3.8,3.53a3.49,3.49,0,0,1-2.33-1c-1.38-1-1.91-1.09-2.26-1.09-.84,0-1.15,1.2-1.14,3.26v8.35c0,3.79.25,4.23,2.22,4.38l1.91.16a1.39,1.39,0,0,1-.06,1.9c-2.88-.1-5.25-.16-8-.16-2.45,0-5.07.06-7,.18a1.39,1.39,0,0,1-.06-1.9l1.14-.1c2-.17,2.2-.66,2.19-4.45Z"></path>
    <path class="cls-1" d="M254.78,84.76c0-2.17,0-2.76-1.21-3.4l-1-.54a1.23,1.23,0,0,1,0-1.63,74.75,74.75,0,0,0,9.12-3,1.33,1.33,0,0,1,1,.37c-.11,2.22-.17,4.49-.17,7.91l0,17c0,.61.18.77.84.77a4.6,4.6,0,0,0,3.46-1.52L269.33,98c1.13-1.24,1.43-1.83,1.43-2.17s-.6-.48-1.14-.53l-1.48-.22c-.54-.48-.49-1.68.11-1.89h1.43a98.32,98.32,0,0,0,11.26-.76c.6.26.67,1.45.25,1.89l-1.9.37a10.5,10.5,0,0,0-4,1.91,32.31,32.31,0,0,0-4,3.15,1.07,1.07,0,0,0-.36.71,2,2,0,0,0,.43.92c1.06,1.73,6.33,9.09,7.82,10.34a7.14,7.14,0,0,0,3.52,1.23l.88.17c.48.38.36,1.68-.23,1.89-1.84-.1-4.05-.15-7.5-.15s-5.68.06-7.35.17a1.3,1.3,0,0,1-.23-1.88l.78-.18c.59-.11.95-.22.95-.42a6.71,6.71,0,0,0-1-1.74L264.75,105a1.68,1.68,0,0,0-1.5-.82c-.41,0-.71.28-.71,1.31v3.14c0,3.8.23,4.23,2.34,4.44l.94.12a1.35,1.35,0,0,1-.06,1.89c-1.9-.1-4.41-.16-7.15-.16s-5.19.07-7.27.18a1.38,1.38,0,0,1-.07-1.9l1.14-.11c2.14-.21,2.39-.65,2.38-4.45Z"></path>
  </g>
</svg>
